<?xml version="1.0" encoding="UTF-8"?>
<svg version="1.1" xmlns="http://www.w3.org/2000/svg" width="512" height="512">
<path d="M0 0 C1.74269902 -0.00599652 3.4853954 -0.01280462 5.22808838 -0.02035522 C9.93106442 -0.03791255 14.63396753 -0.04270637 19.33697319 -0.0439868 C22.28604245 -0.04541532 25.23509359 -0.04969819 28.18415833 -0.05498123 C38.50364341 -0.07345077 48.82307706 -0.08165611 59.14257812 -0.08007812 C68.71054423 -0.07887904 78.27828394 -0.09994367 87.84619284 -0.13156545 C96.10146678 -0.15786128 104.35666741 -0.16843981 112.61198282 -0.16716731 C117.52425525 -0.16666137 122.4363264 -0.1721373 127.34855652 -0.19352341 C131.97807809 -0.21313051 136.60721109 -0.2128797 141.23674774 -0.19849014 C142.91832305 -0.19642813 144.59992417 -0.20094325 146.28145599 -0.21321106 C161.85517071 -0.31930361 177.59541795 1.74536728 192.18164062 7.47802734 C192.9520166 7.77281982 193.72239258 8.0676123 194.51611328 8.37133789 C207.84508381 13.65828624 219.44260531 21.15657954 230.43164062 30.29052734 C231.13675781 30.82291016 231.841875 31.35529297 232.56835938 31.90380859 C234.24414063 33.29052734 234.24414063 33.29052734 236.43164062 36.29052734 C236.49804688 38.52490234 236.49804688 38.52490234 236.30664062 41.04052734 C235.95203817 46.89146785 238.24533841 49.99945902 242.00976562 54.31787109 C244.68423863 56.49627249 246.17752504 56.94855745 249.55664062 57.35302734 C253.98097525 57.89932476 253.98097525 57.89932476 256.11914062 59.75537109 C257.83111351 62.17911531 259.12502268 64.6227069 260.43164062 67.29052734 C260.74343262 67.91024414 261.05522461 68.52996094 261.37646484 69.16845703 C265.51545744 77.49399407 268.89392605 85.93069331 271.30664062 94.91552734 C271.49750244 95.61726074 271.68836426 96.31899414 271.88500977 97.04199219 C275.74641867 112.54011636 275.99422488 128.71712575 276.68432617 144.58691406 C276.79409457 147.00341123 276.90440019 149.41988404 277.01519775 151.83633423 C277.28166037 157.68203908 277.54213254 163.52798702 277.7994419 169.3741015 C278.0089628 174.13243253 278.2208395 178.89065325 278.43433571 183.64880753 C278.46488243 184.32973226 278.49542914 185.010657 278.52690152 185.71221582 C278.58898886 187.09614421 278.65107853 188.48007251 278.71317051 189.86400069 C279.29321277 202.79958416 279.86501999 215.7355218 280.43421296 228.67158653 C280.95345093 240.46666809 281.4827789 252.26127125 282.01692393 264.05568634 C282.56740065 276.21265103 283.1111542 288.3698995 283.64770728 300.52748692 C283.94823191 307.3344598 284.25127986 314.14129609 284.56134605 320.94784164 C284.8526012 327.35146561 285.13502636 333.75542155 285.41091919 340.15972519 C285.51303387 342.49697489 285.61814523 344.8340961 285.72663307 347.17105865 C286.48263737 363.51119267 287.24624868 380.11599166 283.80664062 396.22802734 C283.63551758 397.0473877 283.46439453 397.86674805 283.28808594 398.7109375 C281.96456726 404.66449353 280.23683143 410.42514666 278.18164062 416.16552734 C277.93075684 416.87700928 277.67987305 417.58849121 277.42138672 418.3215332 C276.06814306 421.87672646 274.77160378 424.84726369 272.43823242 427.88964844 C263.79520676 439.84953 265.47648389 453.9485968 265.71020508 468.06280518 C265.78888992 472.93829367 265.83814035 477.81360887 265.8457489 482.68972778 C265.85335217 485.27430094 265.88533886 487.85895392 265.94538879 490.44284058 C265.98306568 497.61102885 265.58803902 502.9837146 260.43164062 508.29052734 C254.73242905 512.76730832 249.76313526 512.88073222 242.67773438 512.82177734 C241.65865494 512.82560425 240.6395755 512.82943115 239.58961487 512.83337402 C237.44392911 512.83608591 235.29820988 512.82877565 233.15258789 512.81201172 C229.87571349 512.79057035 226.60102596 512.81185027 223.32421875 512.83740234 C221.23371914 512.83475937 219.14322089 512.82963503 217.05273438 512.82177734 C216.07759384 512.82987427 215.10245331 512.83797119 214.09776306 512.84631348 C206.81888898 512.74633103 203.43345865 511.29234537 198.24414062 506.10302734 C195.84542538 502.38088299 194.64931228 498.52470379 193.43164062 494.29052734 C192.44550781 494.58056641 192.44550781 494.58056641 191.43945312 494.87646484 C176.01885739 499.09727831 160.30163473 499.64416974 144.40405273 499.60620117 C141.576289 499.60297851 138.74951504 499.6268407 135.921875 499.65185547 C134.10612109 499.65412343 132.29036441 499.65483431 130.47460938 499.65380859 C129.21997139 499.66762321 129.21997139 499.66762321 127.93998718 499.68171692 C123.36672672 499.64530837 119.99898012 499.48722284 116.43164062 496.29052734 C116.10164063 494.64052734 115.77164062 492.99052734 115.43164062 491.29052734 C110.15164063 491.29052734 104.87164062 491.29052734 99.43164062 491.29052734 C98.77164063 492.94052734 98.11164063 494.59052734 97.43164062 496.29052734 C94.63163666 499.0178948 92.6840435 499.66556055 88.8197937 499.66474915 C87.89792267 499.67176346 86.97605164 499.67877777 86.02624512 499.68600464 C85.02162231 499.6783609 84.01699951 499.67071716 82.98193359 499.6628418 C81.91786285 499.66649246 80.85379211 499.67014313 79.75747681 499.67390442 C76.22943276 499.68202668 72.70184609 499.66837286 69.17382812 499.65380859 C66.71159872 499.65328965 64.24936889 499.65380867 61.78713989 499.65531921 C56.61372731 499.65522938 51.44047016 499.64478703 46.26708984 499.62670898 C39.68189795 499.60418808 33.09693651 499.60344638 26.51171684 499.61022663 C21.41714485 499.61359558 16.32262392 499.60687921 11.22806168 499.5970974 C8.80353184 499.59328271 6.37899627 499.59208145 3.95446396 499.59368324 C-13.87147102 499.59564969 -31.33293106 499.35977096 -48.56835938 494.29052734 C-48.77589844 495.01498047 -48.9834375 495.73943359 -49.19726562 496.48583984 C-51.34769699 503.23405543 -53.55786135 507.41183157 -59.56835938 511.29052734 C-61.92230076 512.46749804 -63.37351063 512.43559967 -65.9987793 512.4675293 C-66.91700974 512.48036453 -67.83524017 512.49319977 -68.78129578 512.50642395 C-70.27497429 512.51750435 -70.27497429 512.51750435 -71.79882812 512.52880859 C-72.82261063 512.53688034 -73.84639313 512.54495209 -74.90119934 512.55326843 C-77.07254336 512.56711746 -79.24390923 512.57783594 -81.4152832 512.58569336 C-84.72519697 512.60286824 -88.03410219 512.64674326 -91.34375 512.69091797 C-93.4537687 512.70104817 -95.56379589 512.70956325 -97.67382812 512.71630859 C-98.65949265 512.73381668 -99.64515717 512.75132477 -100.66069031 512.7693634 C-106.86038562 512.74994392 -110.64292409 512.18072652 -115.56835938 508.29052734 C-120.72359383 502.98159909 -121.11979292 497.61264552 -121.08210754 490.44284058 C-121.05307846 489.19374908 -121.02404938 487.94465759 -120.99414062 486.65771484 C-120.98825209 484.65602938 -120.98241244 482.65434252 -120.97928905 480.65265083 C-120.96356837 475.7577198 -120.89330074 470.86346464 -120.81225586 465.96923828 C-120.22344308 444.27744969 -120.22344308 444.27744969 -129.56835938 425.29052734 C-131.05532864 422.30322149 -132.21503054 419.24967583 -133.31835938 416.10302734 C-133.7430249 414.91084595 -133.7430249 414.91084595 -134.17626953 413.69458008 C-138.14614093 402.14286786 -140.64065222 390.44166743 -141.22296143 378.23106384 C-141.26380584 377.37603993 -141.30465025 376.52101602 -141.34673238 375.6400823 C-141.78057791 364.63658042 -141.22789655 353.67166064 -140.71972656 342.67944336 C-140.61559547 340.277133 -140.51226092 337.874788 -140.40965271 335.47241211 C-140.15979997 329.6751538 -139.90125954 323.87833384 -139.63819566 318.08166093 C-139.42417672 313.36182901 -139.21385408 308.6418453 -139.00605011 303.92173576 C-138.96135267 302.90662389 -138.96135267 302.90662389 -138.91575225 301.87100471 C-138.85519375 300.49537707 -138.79464244 299.1197491 -138.73409823 297.74412083 C-138.16843134 284.90168455 -137.5911552 272.05979057 -137.00987056 259.21805304 C-136.51358265 248.24774336 -136.02769531 237.27701287 -135.54931641 226.3059082 C-134.99114668 213.50494646 -134.4261131 200.70431613 -133.8506577 187.90411896 C-133.78907261 186.5337913 -133.72749724 185.16346322 -133.6659317 183.79313469 C-133.63565364 183.11925416 -133.60537557 182.44537363 -133.57417999 181.75107248 C-133.36335878 177.04852656 -133.15743498 172.34578599 -132.95326996 167.64294624 C-132.67698355 161.28854425 -132.39044147 154.93468155 -132.09639168 148.58107758 C-131.9908803 146.26634631 -131.88877338 143.95145659 -131.79056358 141.63640404 C-130.02559453 100.21145429 -121.18683371 64.15572517 -90.56835938 34.29052734 C-65.09458057 10.99366817 -34.24179891 -0.02370652 0 0 Z " fill="#586C75" transform="translate(183.568359375,-0.29052734375)"/>
<path d="M0 0 C1.65051934 -0.00271528 3.30103748 -0.00627921 4.95155334 -0.01062012 C9.40641024 -0.01968612 13.86117379 -0.01622294 18.31603217 -0.00986195 C23.00103983 -0.00476756 27.68603997 -0.00950329 32.37104797 -0.01263428 C40.24152039 -0.01626575 48.11195518 -0.01149824 55.98242188 -0.00195312 C65.04426179 0.0089109 74.10601154 0.00541746 83.16784924 -0.00560594 C90.98057846 -0.01472488 98.79328076 -0.01594113 106.6060136 -0.0107286 C111.25765348 -0.00763166 115.90925122 -0.00713581 120.56088829 -0.01380157 C124.94160675 -0.01964114 129.32221081 -0.01545919 133.7029171 -0.00401306 C135.29747326 -0.00140059 136.89203929 -0.00207194 138.48659134 -0.00653839 C152.62019664 -0.04243238 166.58729215 0.64751516 180.0246582 5.44628906 C180.91290283 5.75526123 181.80114746 6.0642334 182.71630859 6.38256836 C197.19988351 11.55330563 210.00184757 18.93566433 221.6105957 29.04003906 C224.22041431 31.51459099 224.22041431 31.51459099 227.5246582 31.63378906 C230.61227275 31.28710862 230.61227275 31.28710862 234.3996582 30.25878906 C237.6996582 34.21878906 240.9996582 38.17878906 244.3996582 42.25878906 C242.9146582 44.73378906 242.9146582 44.73378906 241.3996582 47.25878906 C241.52614664 52.72308973 243.42906711 56.65313725 246.1496582 61.25878906 C253.18481778 73.77431589 257.24850818 87.51582445 258.3996582 101.82128906 C258.51929932 103.26072876 258.51929932 103.26072876 258.64135742 104.72924805 C259.42925223 114.74994917 259.98560647 124.7847227 260.5246582 134.82128906 C260.56913086 135.62011505 260.61360352 136.41894104 260.65942383 137.24197388 C261.37624112 150.28092728 261.3996582 163.170735 261.3996582 176.25878906 C135.9996582 176.25878906 10.5996582 176.25878906 -118.6003418 176.25878906 C-118.6003418 161.56699569 -118.47462415 146.98303218 -117.7878418 132.32128906 C-117.74332886 131.36554993 -117.69881592 130.40981079 -117.6529541 129.42510986 C-115.68952212 88.25573744 -107.60554088 55.8726419 -76.47290039 26.92871094 C-64.95708822 16.65906879 -50.80542686 9.7995294 -36.2878418 4.88378906 C-35.58377197 4.6450708 -34.87970215 4.40635254 -34.15429688 4.16040039 C-22.83031667 0.52847773 -11.78794247 -0.03278924 0 0 Z " fill="#B6C3CC" transform="translate(184.600341796875,14.7412109375)"/>
<path d="M0 0 C1.74269902 -0.00599652 3.4853954 -0.01280462 5.22808838 -0.02035522 C9.93106442 -0.03791255 14.63396753 -0.04270637 19.33697319 -0.0439868 C22.28604245 -0.04541532 25.23509359 -0.04969819 28.18415833 -0.05498123 C38.50364341 -0.07345077 48.82307706 -0.08165611 59.14257812 -0.08007812 C68.71054423 -0.07887904 78.27828394 -0.09994367 87.84619284 -0.13156545 C96.10146678 -0.15786128 104.35666741 -0.16843981 112.61198282 -0.16716731 C117.52425525 -0.16666137 122.4363264 -0.1721373 127.34855652 -0.19352341 C131.97807809 -0.21313051 136.60721109 -0.2128797 141.23674774 -0.19849014 C142.91832305 -0.19642813 144.59992417 -0.20094325 146.28145599 -0.21321106 C161.85517071 -0.31930361 177.59541795 1.74536728 192.18164062 7.47802734 C192.9520166 7.77281982 193.72239258 8.0676123 194.51611328 8.37133789 C207.83010378 13.65234439 219.47385413 21.13552403 230.43164062 30.29052734 C231.13675781 30.85771484 231.841875 31.42490234 232.56835938 32.00927734 C235.51905197 34.59543216 236.39528123 36.05217133 236.99414062 39.97802734 C236.43164062 43.29052734 236.43164062 43.29052734 235.05664062 45.16552734 C231.72103606 47.47479205 229.48751451 47.74977409 225.43164062 47.29052734 C223.08229589 45.71743669 221.1032334 44.19715566 218.99414062 42.35302734 C195.17997726 22.74919032 168.37482099 16.14943523 137.92895508 16.12939453 C136.27696118 16.12475762 134.62496833 16.11973181 132.97297668 16.11434937 C128.50989449 16.10130871 124.04682727 16.09479698 119.58372903 16.09033871 C116.78781897 16.08739487 113.9919129 16.0832877 111.19600487 16.07883453 C102.42610995 16.06518247 93.65622426 16.05550425 84.88631946 16.05163264 C74.80347039 16.04715534 64.7207571 16.02961296 54.63794929 16.00063205 C46.81591913 15.97893859 38.99392696 15.96892431 31.17186707 15.96759152 C26.51293995 15.96654911 21.85414087 15.96076226 17.19524574 15.94277191 C12.8079523 15.92615761 8.42088134 15.92419969 4.03356743 15.93291092 C2.43535893 15.93367416 0.83713778 15.92943428 -0.76103973 15.91945267 C-14.39789285 15.83936566 -27.16032929 17.51197109 -40.00585938 22.41552734 C-40.79734375 22.71410645 -41.58882813 23.01268555 -42.40429688 23.3203125 C-55.12773311 28.29517607 -66.48977969 35.02520481 -76.56835938 44.29052734 C-77.08495117 44.75942383 -77.60154297 45.22832031 -78.13378906 45.71142578 C-119.86148522 83.97213235 -115.08537763 136.66492891 -117.56835938 191.29052734 C7.83164063 191.29052734 133.23164063 191.29052734 262.43164062 191.29052734 C262.61134393 128.06792878 262.61134393 128.06792878 242.71679688 69.46630859 C241.11814606 66.75977819 240.89006395 65.38525121 241.43164062 62.29052734 C242.99414062 59.47802734 242.99414062 59.47802734 245.43164062 57.29052734 C248.86914062 56.66552734 248.86914062 56.66552734 252.43164062 57.29052734 C256.72335982 60.89068989 259.05687546 64.77641478 261.43164062 69.72802734 C261.94645996 70.78691162 261.94645996 70.78691162 262.47167969 71.8671875 C270.35431243 88.39995298 274.31442422 104.9704151 275.39379883 123.16625977 C275.43364918 123.81191906 275.47349954 124.45757836 275.51455748 125.12280309 C276.84067903 146.62640113 277.72966195 168.15650707 278.68665099 189.67887521 C278.85124153 193.37799082 279.01658799 197.07707194 279.1821537 200.77614403 C279.70233361 212.40187351 280.22014526 224.02770455 280.73427886 235.65370303 C281.26492153 247.65296382 281.8005123 259.65197161 282.34448242 271.65063477 C282.87540115 283.36253586 283.40005937 295.07469576 283.91674024 306.78723401 C284.18904716 312.95683766 284.46416144 319.12628345 284.74654198 325.29543495 C285.01140405 331.08614421 285.2675656 336.87717634 285.51732063 342.66855621 C285.60975253 344.77844898 285.70517845 346.88821333 285.80400848 348.99781609 C286.53826253 364.72742903 287.11591448 380.72651161 283.80664062 396.22802734 C283.63551758 397.0473877 283.46439453 397.86674805 283.28808594 398.7109375 C281.96456726 404.66449353 280.23683143 410.42514666 278.18164062 416.16552734 C277.93075684 416.87700928 277.67987305 417.58849121 277.42138672 418.3215332 C276.06814306 421.87672646 274.77160378 424.84726369 272.43823242 427.88964844 C263.79520676 439.84953 265.47648389 453.9485968 265.71020508 468.06280518 C265.78888992 472.93829367 265.83814035 477.81360887 265.8457489 482.68972778 C265.85335217 485.27430094 265.88533886 487.85895392 265.94538879 490.44284058 C265.98306568 497.61102885 265.58803902 502.9837146 260.43164062 508.29052734 C254.73242905 512.76730832 249.76313526 512.88073222 242.67773438 512.82177734 C241.65865494 512.82560425 240.6395755 512.82943115 239.58961487 512.83337402 C237.44392911 512.83608591 235.29820988 512.82877565 233.15258789 512.81201172 C229.87571349 512.79057035 226.60102596 512.81185027 223.32421875 512.83740234 C221.23371914 512.83475937 219.14322089 512.82963503 217.05273438 512.82177734 C216.07759384 512.82987427 215.10245331 512.83797119 214.09776306 512.84631348 C206.81888898 512.74633103 203.43345865 511.29234537 198.24414062 506.10302734 C195.84542538 502.38088299 194.64931228 498.52470379 193.43164062 494.29052734 C192.44550781 494.58056641 192.44550781 494.58056641 191.43945312 494.87646484 C176.01885739 499.09727831 160.30163473 499.64416974 144.40405273 499.60620117 C141.576289 499.60297851 138.74951504 499.6268407 135.921875 499.65185547 C134.10612109 499.65412343 132.29036441 499.65483431 130.47460938 499.65380859 C129.21997139 499.66762321 129.21997139 499.66762321 127.93998718 499.68171692 C123.30145363 499.64478872 120.1758938 499.34416873 116.43164062 496.29052734 C115.24721296 493.28997725 115.29633831 491.76408544 116.18164062 488.66552734 C117.43360374 486.28679742 118.34655105 484.95991469 120.43164062 483.29052734 C122.60070801 482.91871643 122.60070801 482.91871643 125.15234375 482.92163086 C126.11184937 482.91474747 127.07135498 482.90786407 128.05993652 482.90077209 C129.10041138 482.90693039 130.14088623 482.91308868 131.21289062 482.91943359 C133.44075647 482.90201609 135.66862102 482.88443221 137.89648438 482.86669922 C141.38886343 482.85673211 144.88114265 482.85300227 148.37353516 482.85473633 C166.31657184 482.83544274 183.72163863 482.09679171 200.30664062 474.54052734 C201.47731079 474.02619141 201.47731079 474.02619141 202.67163086 473.50146484 C232.48113417 460.05790322 252.44029544 436.4717062 264.24414062 406.54052734 C272.67798856 381.15350535 269.773654 353.46768452 268.21630859 327.20458984 C267.53515853 315.69233137 267.07185134 304.19082925 266.77368164 292.66210938 C266.62159524 287.07632036 266.40085478 281.51848654 265.97070312 275.94677734 C265.24122907 266.31435816 264.88943213 256.66462931 264.50170898 247.01342773 C264.36927223 243.73128885 264.23171131 240.44939125 264.09375 237.16748047 C264.00685253 235.04053994 263.92025394 232.91358718 263.83398438 230.78662109 C263.79337387 229.82582138 263.75276337 228.86502167 263.71092224 227.87510681 C263.42689318 220.66249355 263.43164062 213.52482909 263.43164062 206.29052734 C234.06164062 206.29052734 204.69164062 206.29052734 174.43164062 206.29052734 C174.43164062 211.24052734 174.43164062 216.19052734 174.43164062 221.29052734 C170.65474575 237.45563739 162.0827664 251.75481594 148.11914062 261.16552734 C137.29928635 267.53823812 125.69775722 271.42843214 113.12304688 271.33349609 C112.0538501 271.32729248 110.98465332 271.32108887 109.88305664 271.31469727 C109.07408936 271.30672119 108.26512207 271.29874512 107.43164062 271.29052734 C107.4353278 271.94798447 107.43901497 272.60544159 107.44281387 273.28282166 C107.53125456 289.30003632 107.59739369 305.31716573 107.63888931 321.33456421 C107.65949106 329.08055404 107.68756572 336.8263806 107.73339844 344.57226562 C107.77333965 351.32570095 107.79909079 358.07901801 107.8079946 364.83256817 C107.81319712 368.40666539 107.82537433 371.98042433 107.85456085 375.55441284 C107.88692337 379.54993525 107.88759539 383.5448742 107.88574219 387.54052734 C107.90731384 389.30675194 107.90731384 389.30675194 107.92932129 391.10865784 C107.88929628 399.08957846 106.91660253 404.80556544 101.05664062 410.66552734 C95.23087289 414.27195499 89.81495873 414.6088432 83.15820312 414.62646484 C82.27562836 414.63312164 81.39305359 414.63977844 80.48373413 414.64663696 C78.62296624 414.65672805 76.76216241 414.66145508 74.90136719 414.66113281 C72.07230301 414.66550315 69.24480399 414.70185175 66.41601562 414.73974609 C64.60091675 414.74561579 62.78581052 414.74958416 60.97070312 414.75146484 C60.13399078 414.76583588 59.29727844 414.78020691 58.43521118 414.79501343 C51.89496848 414.74476397 46.34236412 413.16417155 41.59179688 408.47412109 C41.22957031 407.89791016 40.86734375 407.32169922 40.49414062 406.72802734 C39.92373047 405.85984375 39.92373047 405.85984375 39.34179688 404.97412109 C37.08387946 400.79745841 37.23715078 396.69270231 37.19335938 392.07958984 C37.18528763 391.27443939 37.17721588 390.46928894 37.16889954 389.63973999 C37.15507762 387.93676903 37.14434701 386.23377058 37.13647461 384.53076172 C37.11924927 381.9319194 37.07534675 379.33434565 37.03125 376.73583984 C37.02112349 375.07959918 37.01260725 373.42334772 37.00585938 371.76708984 C36.98835129 370.9929776 36.9708432 370.21886536 36.95280457 369.42129517 C36.96773164 365.69302114 37.30338425 363.49892484 39.2746582 360.29589844 C41.43164063 358.29052734 41.43164063 358.29052734 44.36914062 357.72802734 C48.23122333 358.43738947 49.7215184 359.44782643 52.43164062 362.29052734 C52.93623915 365.15330086 53.13078299 367.44117314 53.10351562 370.30224609 C53.11626526 371.0710762 53.12901489 371.83990631 53.14215088 372.6320343 C53.17842168 375.0810754 53.18115976 377.52874133 53.18164062 379.97802734 C53.20322979 382.43751282 53.2316361 384.89678911 53.26397705 387.3561554 C53.28178912 388.88520862 53.29202809 390.41437169 53.29412842 391.94352722 C52.99617621 395.40725813 52.99617621 395.40725813 54.43164062 398.29052734 C57.08620256 398.39148299 59.71419238 398.43023733 62.36914062 398.42333984 C63.56204712 398.42477493 63.56204712 398.42477493 64.77905273 398.42623901 C66.46370523 398.42692077 68.14836034 398.42506677 69.83300781 398.42089844 C72.42063259 398.4155501 75.00808378 398.42084353 77.59570312 398.42724609 C79.22851601 398.42658531 80.86132879 398.42530415 82.49414062 398.42333984 C83.27329834 398.42536407 84.05245605 398.42738831 84.85522461 398.42947388 C88.43958263 398.74892314 88.43958263 398.74892314 91.43164062 397.29052734 C91.52849381 395.20225413 91.55350944 393.11064373 91.55189514 391.02012634 C91.55274957 390.35773644 91.55360399 389.69534653 91.55448431 389.0128842 C91.55614095 386.77719865 91.55061477 384.54158693 91.54516602 382.3059082 C91.54488416 380.7097219 91.54504185 379.11353547 91.54560852 377.51734924 C91.54589655 373.1704284 91.53999897 368.8235349 91.53303456 364.47662044 C91.5268019 359.93888788 91.5261973 355.40115476 91.52500916 350.86341858 C91.52189558 342.26444894 91.51368184 333.66549196 91.50365967 325.0665279 C91.49249934 315.27951006 91.48698828 305.49249163 91.48196423 295.70546901 C91.47149925 275.56714649 91.45315344 255.42884131 91.43164062 235.29052734 C78.89164063 235.29052734 66.35164062 235.29052734 53.43164062 235.29052734 C53.41705811 238.32916992 53.40247559 241.3678125 53.38745117 244.49853516 C53.33715411 254.52898411 53.27056773 264.55927703 53.19592571 274.58957291 C53.15116442 280.67200653 53.11192091 286.75437228 53.08520508 292.83691406 C53.05922971 298.70496168 53.01886805 304.57274889 52.96845436 310.44063568 C52.95174661 312.68133052 52.94025675 314.92207044 52.93402672 317.16281891 C52.92442824 320.29713863 52.89641946 323.43078621 52.86401367 326.56494141 C52.86544876 327.49498489 52.86688385 328.42502838 52.86836243 329.383255 C52.77644871 335.65343184 52.77644871 335.65343184 51.03938293 338.86297607 C48.94306591 340.72434404 47.71358495 340.85766392 44.93164062 340.85302734 C44.15820312 340.87494141 43.38476562 340.89685547 42.58789062 340.91943359 C40.43164062 340.29052734 40.43164062 340.29052734 38.81816101 338.15388489 C37.18971846 334.7909244 37.0690213 332.57319383 37.09106445 328.84790039 C37.09129105 327.56694992 37.09151764 326.28599945 37.0917511 324.9662323 C37.1070687 323.5782333 37.12271665 322.19023791 37.13867188 320.80224609 C37.14427137 319.374501 37.1485398 317.94675012 37.15153503 316.51899719 C37.16295613 312.77224646 37.19239922 309.02584798 37.22564697 305.27923584 C37.25640721 301.45166793 37.27005305 297.62404277 37.28515625 293.79638672 C37.31727201 286.2942735 37.36843466 278.79244989 37.43164062 271.29052734 C35.93032593 271.31663086 35.93032593 271.31663086 34.39868164 271.34326172 C33.05680762 271.35734347 31.71492901 271.37099216 30.37304688 271.38427734 C29.06279541 271.40167969 27.75254395 271.41908203 26.40258789 271.43701172 C10.36777642 270.84550315 -4.81906439 261.81176452 -15.56835938 250.29052734 C-26.86428234 237.01049016 -29.56835938 223.55834459 -29.56835938 206.29052734 C-58.93835938 206.29052734 -88.30835938 206.29052734 -118.56835938 206.29052734 C-118.89835937 216.52052734 -119.22835937 226.75052734 -119.56835938 237.29052734 C-119.78693571 243.16624171 -120.00981791 249.04086479 -120.25195312 254.91552734 C-120.31246058 256.40196992 -120.37290354 257.88841512 -120.43328857 259.37486267 C-120.59023141 263.22687149 -120.74912955 267.07879717 -120.90850449 270.93070602 C-121.00760564 273.33285581 -121.10580785 275.73504089 -121.20376587 278.13723755 C-121.90882762 295.41257474 -122.64955024 312.68163296 -123.62738037 329.94406128 C-124.29445591 341.80263619 -124.78124123 353.64808084 -124.86489868 365.52664185 C-124.8752167 366.94975836 -124.88987146 368.37285297 -124.90975952 369.79586792 C-125.08133743 383.71158234 -123.10416156 396.87929021 -117.94335938 409.85302734 C-117.59781006 410.73651855 -117.25226074 411.62000977 -116.89624023 412.53027344 C-105.42974886 440.87920148 -82.95784787 462.78437906 -54.95239258 474.83032227 C-41.06326135 480.52671987 -26.89461844 482.43982083 -11.99926758 482.43237305 C-10.86496307 482.43584747 -9.73065857 482.4393219 -8.5619812 482.44290161 C-6.11046648 482.45022711 -3.65894527 482.45558948 -1.20742226 482.45919228 C2.67181605 482.46638453 6.55092984 482.48206893 10.43013 482.50053406 C12.40809303 482.50992775 12.40809303 482.50992775 14.4260149 482.51951122 C15.09256615 482.52267703 15.75911741 482.52584285 16.44586718 482.52910459 C25.46593076 482.57108659 34.48594853 482.6041897 43.50610352 482.61645508 C50.25871743 482.6257309 57.01096599 482.65579657 63.76346779 482.69777489 C66.3354838 482.71010076 68.90754488 482.71520327 71.47958946 482.71297646 C75.07031989 482.71063103 78.6601266 482.73273043 82.25073242 482.76049805 C83.84596992 482.75059593 83.84596992 482.75059593 85.47343445 482.74049377 C89.93651754 482.79728697 92.66503166 482.83788132 96.56404114 485.14006042 C98.99861491 487.9433758 99.50736989 489.57979323 99.43164062 493.29052734 C97.66124613 496.03769121 96.36872219 497.82198656 93.43164062 499.29052734 C91.97702435 499.3867317 90.51809369 499.42118901 89.06030273 499.42424011 C88.14118103 499.4285051 87.22205933 499.43277008 86.27508545 499.43716431 C85.26327209 499.43671112 84.25145874 499.43625793 83.20898438 499.43579102 C82.14520569 499.43914963 81.081427 499.44250824 79.9854126 499.44596863 C76.44664355 499.45551206 72.90792177 499.45742441 69.36914062 499.45849609 C66.90405254 499.46170982 64.43896464 499.46507398 61.97387695 499.46858215 C56.78856974 499.47458432 51.6032792 499.47642129 46.41796875 499.47583008 C39.81704786 499.47572919 33.21623632 499.48929999 26.61534119 499.50660229 C21.51220219 499.51780742 16.40908875 499.51974658 11.30593872 499.51922035 C8.87582019 499.52039082 6.4457008 499.52475933 4.01559448 499.53255272 C-13.84608359 499.5844044 -31.2963535 499.37052907 -48.56835938 494.29052734 C-48.77589844 495.01498047 -48.9834375 495.73943359 -49.19726562 496.48583984 C-51.34769699 503.23405543 -53.55786135 507.41183157 -59.56835938 511.29052734 C-61.92230076 512.46749804 -63.37351063 512.43559967 -65.9987793 512.4675293 C-66.91700974 512.48036453 -67.83524017 512.49319977 -68.78129578 512.50642395 C-70.27497429 512.51750435 -70.27497429 512.51750435 -71.79882812 512.52880859 C-72.82261063 512.53688034 -73.84639313 512.54495209 -74.90119934 512.55326843 C-77.07254336 512.56711746 -79.24390923 512.57783594 -81.4152832 512.58569336 C-84.72519697 512.60286824 -88.03410219 512.64674326 -91.34375 512.69091797 C-93.4537687 512.70104817 -95.56379589 512.70956325 -97.67382812 512.71630859 C-98.65949265 512.73381668 -99.64515717 512.75132477 -100.66069031 512.7693634 C-106.86038562 512.74994392 -110.64292409 512.18072652 -115.56835938 508.29052734 C-120.72359383 502.98159909 -121.11979292 497.61264552 -121.08210754 490.44284058 C-121.05307846 489.19374908 -121.02404938 487.94465759 -120.99414062 486.65771484 C-120.98825209 484.65602938 -120.98241244 482.65434252 -120.97928905 480.65265083 C-120.96356837 475.7577198 -120.89330074 470.86346464 -120.81225586 465.96923828 C-120.22344308 444.27744969 -120.22344308 444.27744969 -129.56835938 425.29052734 C-131.05532864 422.30322149 -132.21503054 419.24967583 -133.31835938 416.10302734 C-133.7430249 414.91084595 -133.7430249 414.91084595 -134.17626953 413.69458008 C-138.14614093 402.14286786 -140.64065222 390.44166743 -141.22296143 378.23106384 C-141.26380584 377.37603993 -141.30465025 376.52101602 -141.34673238 375.6400823 C-141.78057791 364.63658042 -141.22789655 353.67166064 -140.71972656 342.67944336 C-140.61559547 340.277133 -140.51226092 337.874788 -140.40965271 335.47241211 C-140.15979997 329.6751538 -139.90125954 323.87833384 -139.63819566 318.08166093 C-139.42417672 313.36182901 -139.21385408 308.6418453 -139.00605011 303.92173576 C-138.96135267 302.90662389 -138.96135267 302.90662389 -138.91575225 301.87100471 C-138.85519375 300.49537707 -138.79464244 299.1197491 -138.73409823 297.74412083 C-138.16843134 284.90168455 -137.5911552 272.05979057 -137.00987056 259.21805304 C-136.51358265 248.24774336 -136.02769531 237.27701287 -135.54931641 226.3059082 C-134.99114668 213.50494646 -134.4261131 200.70431613 -133.8506577 187.90411896 C-133.78907261 186.5337913 -133.72749724 185.16346322 -133.6659317 183.79313469 C-133.63565364 183.11925416 -133.60537557 182.44537363 -133.57417999 181.75107248 C-133.36335878 177.04852656 -133.15743498 172.34578599 -132.95326996 167.64294624 C-132.67698355 161.28854425 -132.39044147 154.93468155 -132.09639168 148.58107758 C-131.9908803 146.26634631 -131.88877338 143.95145659 -131.79056358 141.63640404 C-130.02559453 100.21145429 -121.18683371 64.15572517 -90.56835938 34.29052734 C-65.09458057 10.99366817 -34.24179891 -0.02370652 0 0 Z " fill="#010101" transform="translate(183.568359375,-0.29052734375)"/>
<path d="M0 0 C1.7517316 -0.00514296 3.50345803 -0.01242708 5.25517273 -0.02168274 C9.99701638 -0.04015697 14.7382959 -0.02728334 19.48011589 -0.00759244 C24.45049539 0.00882827 29.42084012 -0.0000236 34.39123535 -0.00511169 C42.73698913 -0.00962882 51.08251851 0.00621362 59.42822266 0.03417969 C69.06681146 0.06622982 78.70499561 0.06621457 88.34361315 0.04896492 C97.62880033 0.03308219 106.91383964 0.03984464 116.19902039 0.05690193 C120.14462741 0.0637612 124.09011552 0.06275153 128.03572083 0.05535698 C132.68490499 0.0476764 137.33363054 0.059878 141.98273659 0.08720589 C143.68545483 0.09407224 145.38821605 0.09420651 147.09093285 0.08699036 C163.12312013 0.02689216 163.12312013 0.02689216 169.78710938 4.63110352 C174.63865686 9.7379956 176.03476272 13.55996596 176.07763672 20.56762695 C176.08435394 21.2576178 176.09107117 21.94760864 176.09799194 22.6585083 C176.11696287 24.93590536 176.12089608 27.21300739 176.12304688 29.49047852 C176.12947704 31.07985555 176.13620557 32.66923139 176.14321899 34.25860596 C176.15519063 37.59080751 176.1589001 40.92290542 176.15771484 44.25512695 C176.15751203 48.5098272 176.18477548 52.76385669 176.21925926 57.01839828 C176.2415824 60.30254115 176.24555069 63.58652422 176.24449539 66.87073517 C176.2468447 68.43831944 176.25563026 70.00590856 176.27116013 71.57341766 C176.4081466 86.83289791 176.4081466 86.83289791 171.78710938 93.63110352 C166.50137709 98.7813042 161.6918133 99.87991589 154.43740845 99.89852905 C153.70711941 99.90306017 152.97683038 99.90759128 152.22441137 99.9122597 C149.78251813 99.92489852 147.34084807 99.92328368 144.89892578 99.92163086 C143.14601861 99.92761641 141.39311408 99.93442202 139.64021301 99.94198608 C134.88191227 99.95964993 130.12368347 99.96434161 125.36535311 99.96561766 C122.391799 99.96703952 119.41826316 99.97130977 116.44471359 99.97661209 C106.06892486 99.99511317 95.6931875 100.00328255 85.31738281 100.00170898 C75.64876284 100.00050735 65.98036601 100.02161384 56.31180251 100.05319631 C48.00761638 100.07935449 39.70350315 100.09007648 31.39927614 100.08879817 C26.4409255 100.08828843 21.48277322 100.09397837 16.52446365 100.11515427 C11.86060264 100.13452906 7.19712937 100.13466632 2.53325462 100.120121 C0.82364905 100.11803091 -0.88598075 100.12274577 -2.59554482 100.13484192 C-4.93389136 100.15031272 -7.27090394 100.14097553 -9.60922241 100.12557983 C-11.56981378 100.12721414 -11.56981378 100.12721414 -13.57001305 100.12888145 C-19.02331691 99.38371934 -22.69734921 97.22856609 -26.52539062 93.19360352 C-29.7487941 88.29880565 -30.46925607 84.42990338 -30.51928711 78.58105469 C-30.52761063 77.89091782 -30.53593414 77.20078094 -30.54450989 76.48973083 C-30.56852108 74.21778651 -30.5773713 71.94612985 -30.58398438 69.67407227 C-30.59295807 68.08612486 -30.60208005 66.49817829 -30.61134338 64.91023254 C-30.62781222 61.58401439 -30.63552953 58.25789662 -30.63842773 54.93164062 C-30.64380684 50.68468525 -30.68147531 46.43868313 -30.7271719 42.19199657 C-30.75702363 38.91214109 -30.76415305 35.63251283 -30.76515388 32.35253334 C-30.76934078 30.78771922 -30.78171334 29.22290347 -30.80267143 27.65822411 C-30.99946632 11.69454104 -30.99946632 11.69454104 -25.21289062 5.63110352 C-18.22463142 -1.15478337 -9.04796123 -0.06743372 0 0 Z " fill="#20BFF6" transform="translate(183.212890625,42.368896484375)"/>
<path d="M0 0 C29.37 0 58.74 0 89 0 C91.28466523 35.41231102 91.28466523 35.41231102 91.5625 47.5625 C91.76947495 55.90755402 92.13343711 64.19887745 92.76586914 72.52270508 C93.15918108 78.36414614 93.28615263 84.21065978 93.4375 90.0625 C93.75103802 101.14535782 94.26796902 112.2004442 94.92425537 123.26806641 C97.36025792 164.79948991 98.02722419 203.96543002 69.43359375 237.31640625 C56.72261657 251.333166 43.15907438 261.04251514 26 269 C25.15179688 269.41121094 24.30359375 269.82242187 23.4296875 270.24609375 C12.18376421 275.28128937 -1.72997548 277.9926312 -14 277 C-11.32489708 275.21659806 -8.65745544 273.85920612 -5.75878906 272.48901367 C23.1069137 258.70601486 45.43167433 234.55057998 56.20507812 204.27783203 C56.46740234 203.52614746 56.72972656 202.77446289 57 202 C57.25974609 201.28569824 57.51949219 200.57139648 57.78710938 199.83544922 C61.88670526 188.05569781 62.35131932 176.2651984 62.27734375 163.92578125 C62.27514706 163.08517403 62.27295036 162.2445668 62.2706871 161.37848663 C62.19173399 137.54235401 61.06400839 113.73032 59.97363281 89.92333984 C59.676554 83.43478594 59.39612927 76.94562606 59.12001991 70.45615005 C58.90350674 65.40997596 58.67841513 60.36421315 58.45066452 55.31853485 C58.34352723 52.92162667 58.23908823 50.52459626 58.13743973 48.12744904 C57.99574428 44.81529197 57.84247574 41.50387165 57.68603516 38.19238281 C57.64647202 37.21297226 57.60690887 36.23356171 57.56614685 35.22447205 C57.52132675 34.32598038 57.47650665 33.42748871 57.43032837 32.50177002 C57.37778617 31.33527861 57.37778617 31.33527861 57.32418251 30.14522171 C56.955485 27.70542969 56.31353307 26.08656896 55 24 C51.68054858 21.78703239 50.57627026 21.73533245 46.70239258 21.68115234 C45.62149857 21.66128265 44.54060455 21.64141296 43.42695618 21.62094116 C42.26125595 21.60938995 41.09555573 21.59783875 39.89453125 21.5859375 C38.70018967 21.56657135 37.50584808 21.5472052 36.27531433 21.5272522 C32.45444924 21.46739384 28.63355413 21.42104546 24.8125 21.375 C22.22459612 21.33682603 19.63670501 21.29777465 17.04882812 21.2578125 C10.69932237 21.16168695 4.34975714 21.07767866 -2 21 C-1.01 10.605 -1.01 10.605 0 0 Z " fill="#465960" transform="translate(358,206)"/>
<path d="M0 0 C1.7517316 -0.00514296 3.50345803 -0.01242708 5.25517273 -0.02168274 C9.99701638 -0.04015697 14.7382959 -0.02728334 19.48011589 -0.00759244 C24.45049539 0.00882827 29.42084012 -0.0000236 34.39123535 -0.00511169 C42.73698913 -0.00962882 51.08251851 0.00621362 59.42822266 0.03417969 C69.06681146 0.06622982 78.70499561 0.06621457 88.34361315 0.04896492 C97.62880033 0.03308219 106.91383964 0.03984464 116.19902039 0.05690193 C120.14462741 0.0637612 124.09011552 0.06275153 128.03572083 0.05535698 C132.68490499 0.0476764 137.33363054 0.059878 141.98273659 0.08720589 C143.68545483 0.09407224 145.38821605 0.09420651 147.09093285 0.08699036 C163.12312013 0.02689216 163.12312013 0.02689216 169.78710938 4.63110352 C174.63865686 9.7379956 176.03476272 13.55996596 176.07763672 20.56762695 C176.08435394 21.2576178 176.09107117 21.94760864 176.09799194 22.6585083 C176.11696287 24.93590536 176.12089608 27.21300739 176.12304688 29.49047852 C176.12947704 31.07985555 176.13620557 32.66923139 176.14321899 34.25860596 C176.15519063 37.59080751 176.1589001 40.92290542 176.15771484 44.25512695 C176.15751203 48.5098272 176.18477548 52.76385669 176.21925926 57.01839828 C176.2415824 60.30254115 176.24555069 63.58652422 176.24449539 66.87073517 C176.2468447 68.43831944 176.25563026 70.00590856 176.27116013 71.57341766 C176.4081466 86.83289791 176.4081466 86.83289791 171.78710938 93.63110352 C166.50137709 98.7813042 161.6918133 99.87991589 154.43740845 99.89852905 C153.70711941 99.90306017 152.97683038 99.90759128 152.22441137 99.9122597 C149.78251813 99.92489852 147.34084807 99.92328368 144.89892578 99.92163086 C143.14601861 99.92761641 141.39311408 99.93442202 139.64021301 99.94198608 C134.88191227 99.95964993 130.12368347 99.96434161 125.36535311 99.96561766 C122.391799 99.96703952 119.41826316 99.97130977 116.44471359 99.97661209 C106.06892486 99.99511317 95.6931875 100.00328255 85.31738281 100.00170898 C75.64876284 100.00050735 65.98036601 100.02161384 56.31180251 100.05319631 C48.00761638 100.07935449 39.70350315 100.09007648 31.39927614 100.08879817 C26.4409255 100.08828843 21.48277322 100.09397837 16.52446365 100.11515427 C11.86060264 100.13452906 7.19712937 100.13466632 2.53325462 100.120121 C0.82364905 100.11803091 -0.88598075 100.12274577 -2.59554482 100.13484192 C-4.93389136 100.15031272 -7.27090394 100.14097553 -9.60922241 100.12557983 C-11.56981378 100.12721414 -11.56981378 100.12721414 -13.57001305 100.12888145 C-19.02331691 99.38371934 -22.69734921 97.22856609 -26.52539062 93.19360352 C-29.7487941 88.29880565 -30.46925607 84.42990338 -30.51928711 78.58105469 C-30.52761063 77.89091782 -30.53593414 77.20078094 -30.54450989 76.48973083 C-30.56852108 74.21778651 -30.5773713 71.94612985 -30.58398438 69.67407227 C-30.59295807 68.08612486 -30.60208005 66.49817829 -30.61134338 64.91023254 C-30.62781222 61.58401439 -30.63552953 58.25789662 -30.63842773 54.93164062 C-30.64380684 50.68468525 -30.68147531 46.43868313 -30.7271719 42.19199657 C-30.75702363 38.91214109 -30.76415305 35.63251283 -30.76515388 32.35253334 C-30.76934078 30.78771922 -30.78171334 29.22290347 -30.80267143 27.65822411 C-30.99946632 11.69454104 -30.99946632 11.69454104 -25.21289062 5.63110352 C-18.22463142 -1.15478337 -9.04796123 -0.06743372 0 0 Z M-15.21289062 16.63110352 C-15.31233035 18.71185761 -15.34088658 20.796022 -15.34228516 22.87915039 C-15.34403748 23.53117935 -15.34578979 24.18320831 -15.34759521 24.85499573 C-15.35201266 27.01997504 -15.34907614 29.18487331 -15.34570312 31.34985352 C-15.3463762 32.84818538 -15.34734625 34.34651714 -15.34860229 35.84484863 C-15.35007912 38.98894284 -15.3479252 42.13300869 -15.34326172 45.27709961 C-15.33756443 49.3159689 -15.34084352 53.35477176 -15.34683418 57.39363861 C-15.35044021 60.48875432 -15.34930102 63.58385416 -15.34670639 66.67897034 C-15.34603724 68.16858427 -15.34686514 69.65819962 -15.34918594 71.14781189 C-15.35171316 73.22626587 -15.34787095 75.30461083 -15.34228516 77.38305664 C-15.34148956 78.56806763 -15.34069397 79.75307861 -15.33987427 80.97399902 C-15.51513936 83.55303692 -15.51513936 83.55303692 -14.21289062 84.63110352 C-11.97494411 84.73034869 -9.73379827 84.75742779 -7.49365234 84.75808716 C-6.42762189 84.76042714 -6.42762189 84.76042714 -5.34005547 84.7628144 C-2.94087572 84.76682681 -0.54175842 84.76363384 1.85742188 84.76049805 C3.57021115 84.76185198 5.28300014 84.76363187 6.99578857 84.76580811 C11.66094419 84.77038337 16.3260778 84.7685925 20.99123383 84.76542902 C25.86215781 84.7629059 30.73307985 84.76524282 35.60400391 84.76681519 C43.78548523 84.76863702 51.96695754 84.76623021 60.1484375 84.76147461 C69.62160273 84.75603196 79.09474644 84.75779461 88.56791115 84.76330101 C96.68592832 84.76783175 104.80393899 84.76848289 112.92195702 84.76586235 C117.7772596 84.76429935 122.63255206 84.76410642 127.487854 84.76739883 C132.05139427 84.77027697 136.61490667 84.76830292 141.17844391 84.76250458 C142.85830896 84.76117667 144.53817633 84.76157161 146.21804047 84.76376724 C148.50134956 84.76647755 150.78456787 84.76309911 153.06787109 84.75808716 C154.34878632 84.75771013 155.62970154 84.75733311 156.94943237 84.75694466 C159.68782809 84.95541332 159.68782809 84.95541332 160.78710938 83.63110352 C160.8865491 81.55034942 160.91510533 79.46618503 160.91650391 77.38305664 C160.91825623 76.73102768 160.92000854 76.07899872 160.92181396 75.4072113 C160.92623141 73.24223199 160.92329489 71.07733373 160.91992188 68.91235352 C160.92059495 67.41402165 160.921565 65.91568989 160.92282104 64.4173584 C160.92429787 61.27326419 160.92214395 58.12919834 160.91748047 54.98510742 C160.91178318 50.94623813 160.91506227 46.90743528 160.92105293 42.86856842 C160.92465896 39.77345271 160.92351977 36.67835287 160.92092514 33.58323669 C160.92025599 32.09362276 160.92108389 30.60400741 160.92340469 29.11439514 C160.92593191 27.03594117 160.9220897 24.95759621 160.91650391 22.87915039 C160.91570831 21.6941394 160.91491272 20.50912842 160.91409302 19.28820801 C161.08935811 16.70917011 161.08935811 16.70917011 159.78710938 15.63110352 C157.54916286 15.53185834 155.30801702 15.50477924 153.06787109 15.50411987 C152.00184064 15.50177989 152.00184064 15.50177989 150.91427422 15.49939263 C148.51509447 15.49538022 146.11597717 15.49857319 143.71679688 15.50170898 C142.0040076 15.50035505 140.29121861 15.49857516 138.57843018 15.49639893 C133.91327456 15.49182366 129.24814095 15.49361453 124.58298492 15.49677801 C119.71206094 15.49930113 114.8411389 15.49696421 109.97021484 15.49539185 C101.78873352 15.49357001 93.60726121 15.49597683 85.42578125 15.50073242 C75.95261602 15.50617507 66.47947231 15.50441242 57.0063076 15.49890602 C48.88829043 15.49437528 40.77027976 15.49372414 32.65226173 15.49634469 C27.79695915 15.49790768 22.94166669 15.49810062 18.08636475 15.4948082 C13.52282448 15.49193006 8.95931208 15.49390411 4.39577484 15.49970245 C2.71590979 15.50103036 1.03604242 15.50063542 -0.64382172 15.49843979 C-2.92713081 15.49572948 -5.21034912 15.49910792 -7.49365234 15.50411987 C-9.41502518 15.50468541 -9.41502518 15.50468541 -11.37521362 15.50526237 C-14.11360934 15.30679371 -14.11360934 15.30679371 -15.21289062 16.63110352 Z " fill="#010203" transform="translate(183.212890625,42.368896484375)"/>
<path d="M0 0 C0.82290527 0.00202423 1.64581055 0.00404846 2.49365234 0.00613403 C3.33331543 0.00517731 4.17297852 0.00422058 5.03808594 0.00323486 C6.81689529 0.00255306 8.59570712 0.00440737 10.37451172 0.00857544 C13.10699011 0.01392371 15.83930411 0.00863048 18.57177734 0.00222778 C20.29573604 0.00288856 22.01969464 0.00416973 23.74365234 0.00613403 C24.56655762 0.0041098 25.38946289 0.00208557 26.23730469 0 C32.0037018 0.02399599 32.0037018 0.02399599 33.11865234 1.13894653 C33.21989265 3.22261225 33.24943006 5.30976757 33.25236511 7.39588928 C33.25463067 8.05686806 33.25689623 8.71784683 33.25923043 9.39885527 C33.26559748 11.62986338 33.26473935 13.86081116 33.26391602 16.09182739 C33.26690582 17.68476948 33.27030793 19.27771085 33.27409363 20.87065125 C33.28295594 25.20943477 33.28527267 29.54819861 33.28590941 33.88699031 C33.28685665 37.50300671 33.29053279 41.11901847 33.29408151 44.73503309 C33.30223453 53.26282107 33.30466497 61.79059847 33.30395508 70.31838989 C33.30335404 79.12922202 33.31390914 87.93999297 33.32969874 96.75080961 C33.34275331 104.30324307 33.34813986 111.85565648 33.34749967 119.40810114 C33.34724407 123.92419333 33.35012924 128.44023118 33.36067772 132.95631218 C33.37032377 137.20223936 33.37046206 141.44805988 33.36316109 145.69399071 C33.36211088 147.25572108 33.36450379 148.81745796 33.37052155 150.37917709 C33.37818328 152.50458557 33.37363586 154.62962032 33.3658905 156.75502014 C33.36643527 157.94652144 33.36698004 159.13802275 33.36754131 160.36563015 C33.11865234 163.13894653 33.11865234 163.13894653 31.11865234 165.13894653 C28.41729912 165.33868387 25.82068023 165.41876226 23.11865234 165.40457153 C22.32716797 165.40648499 21.53568359 165.40839844 20.72021484 165.41036987 C19.04573245 165.41173171 17.37123949 165.40803535 15.69677734 165.39968872 C13.12882853 165.38898893 10.56157931 165.39958378 7.99365234 165.41238403 C6.36865079 165.41106244 4.74364968 165.40850004 3.11865234 165.40457153 C1.96236328 165.41064423 1.96236328 165.41064423 0.78271484 165.4168396 C-4.65142633 165.36886785 -4.65142633 165.36886785 -6.88134766 163.13894653 C-7.05373955 160.53613007 -7.10994759 158.03015661 -7.08447266 155.42800903 C-7.09502186 153.85768824 -7.1067784 152.28737518 -7.11962891 150.71707153 C-7.12994536 148.23915713 -7.13133452 145.76232001 -7.11132812 143.28445435 C-7.0965597 140.89387539 -7.11901905 138.50591929 -7.14697266 136.11550903 C-7.13160461 135.37684601 -7.11623657 134.63818298 -7.10040283 133.87713623 C-7.08178299 131.49945393 -7.08178299 131.49945393 -7.88134766 128.13894653 C-10.80360181 125.85796689 -10.80360181 125.85796689 -13.88134766 124.13894653 C-14.6418457 122.17190552 -14.6418457 122.17190552 -14.64306641 120.13504028 C-14.64628906 119.39447388 -14.64951172 118.65390747 -14.65283203 117.89089966 C-14.62511719 117.12713013 -14.59740234 116.3633606 -14.56884766 115.57644653 C-14.59108398 114.42499146 -14.59108398 114.42499146 -14.61376953 113.25027466 C-14.58056641 111.01004028 -14.58056641 111.01004028 -13.88134766 107.13894653 C-11.40087891 105.23660278 -11.40087891 105.23660278 -8.88134766 104.13894653 C-7.74417277 101.86459676 -7.74741551 100.59743582 -7.7298584 98.07081604 C-7.72151474 97.21968231 -7.71317108 96.36854858 -7.70457458 95.49162292 C-7.70039017 94.55595993 -7.69620575 93.62029694 -7.69189453 92.65628052 C-7.68360123 91.67248413 -7.67530792 90.68868774 -7.66676331 89.67507935 C-7.64933898 87.53449059 -7.63417872 85.3938825 -7.62098694 83.25326347 C-7.60001232 79.87128001 -7.57298652 76.48939401 -7.54431152 73.10746765 C-7.47436992 64.70862641 -7.41500023 56.30971616 -7.35528564 47.91079712 C-7.30445061 40.81593269 -7.24965783 33.72112084 -7.18946838 26.62632942 C-7.16279076 23.28423221 -7.14203963 19.94213039 -7.12145996 16.59999084 C-7.10486513 14.56406417 -7.08799402 12.52813973 -7.07080078 10.49221802 C-7.06661636 9.55453079 -7.06243195 8.61684357 -7.05812073 7.65074158 C-6.98315707 0.02905935 -6.98315707 0.02905935 0 0 Z " fill="#FEBB89" transform="translate(242.88134765625,233.86105346679688)"/>
<path d="M0 0 C27.1279282 1.42778569 51.62032507 10.85896748 72.2109375 28.78125 C74.82075611 31.25580193 74.82075611 31.25580193 78.125 31.375 C81.21261455 31.02831956 81.21261455 31.02831956 85 30 C89.95 35.94 89.95 35.94 95 42 C94.01 43.65 93.02 45.3 92 47 C92.12648844 52.46430066 94.02940891 56.39434819 96.75 61 C103.78515957 73.51552683 107.84884997 87.25703538 109 101.5625 C109.07976074 102.52212646 109.15952148 103.48175293 109.24169922 104.47045898 C111.11228087 128.26112167 112.34838997 152.13528731 112 176 C101.44 176 90.88 176 80 176 C79.04230447 161.97660124 78.09474352 147.97381368 77.52734375 133.9296875 C77.48822876 132.98831436 77.44911377 132.04694122 77.40881348 131.07704163 C77.21619049 126.42762657 77.03519315 121.77827927 76.87353516 117.12768555 C75.50481422 81.62112939 63.57411438 49.32123321 37.72265625 24.37109375 C26.57760841 14.66514821 13.68539718 6.56401249 0 1 C0 0.67 0 0.34 0 0 Z " fill="#9FABB8" transform="translate(334,15)"/>
<path d="M0 0 C58.08 0 116.16 0 176 0 C176 14.50296907 172.47221532 26.29801445 162.24609375 36.96875 C150.76911304 47.34793256 138.128811 50.34966435 123 50 C122.99589111 49.31486328 122.99178223 48.62972656 122.98754883 47.92382812 C122.95439853 44.78171011 122.88373115 41.64147628 122.8125 38.5 C122.80669922 37.42234375 122.80089844 36.3446875 122.79492188 35.234375 C122.61088678 28.52731837 121.9972414 22.86120035 117 18 C111.29218973 13.92266671 106.88627089 13.39554467 99.97265625 13.43359375 C99.02490829 13.42739517 98.07716034 13.42119659 97.10069275 13.41481018 C95.10465517 13.40773484 93.1085583 13.4108459 91.11254883 13.42358398 C88.0745682 13.43744494 85.03967395 13.40335036 82.00195312 13.36523438 C80.05468675 13.36428298 78.10741656 13.3661431 76.16015625 13.37109375 C74.81136131 13.35120644 74.81136131 13.35120644 73.43531799 13.33091736 C67.13481142 13.42298168 62.86024251 14.92677159 58 19 C53.16444509 24.98284421 53.34773233 30.95209237 53.25 38.4375 C53.20552734 40.1071582 53.20552734 40.1071582 53.16015625 41.81054688 C53.08985868 44.54043572 53.03696337 47.26949039 53 50 C39.58342928 50.6427549 28.72875351 48.33004846 18 40 C16.948125 39.236875 15.89625 38.47375 14.8125 37.6875 C7.07207831 30.29109705 1.2385637 19.70705723 0 9 C0 6.03 0 3.06 0 0 Z " fill="#576B74" transform="translate(168,206)"/>
<path d="M0 0 C5.39346988 -0.02464849 10.78690725 -0.04283531 16.18041992 -0.05493164 C18.01668875 -0.05997231 19.85295354 -0.06680477 21.68920898 -0.07543945 C24.32276401 -0.08751672 26.95626616 -0.09323081 29.58984375 -0.09765625 C30.41588608 -0.10281754 31.24192841 -0.10797882 32.09300232 -0.11329651 C34.06236368 -0.11349205 36.03161614 -0.06204152 38 0 C39.83767848 1.83767848 39.13024814 4.79442191 39.13371277 7.25694275 C39.13597833 7.91792152 39.13824388 8.5789003 39.14057809 9.25990874 C39.14694513 11.49091684 39.14608701 13.72186463 39.14526367 15.95288086 C39.14825348 17.54582295 39.15165559 19.13876431 39.15544128 20.73170471 C39.1643036 25.07048824 39.16662033 29.40925207 39.16725707 33.74804378 C39.1682043 37.36406018 39.17188045 40.98007194 39.17542917 44.59608656 C39.18358219 53.12387453 39.18601263 61.65165194 39.18530273 70.17944336 C39.18470169 78.99027549 39.1952568 87.80104644 39.2110464 96.61186308 C39.22410096 104.16429653 39.22948751 111.71670995 39.22884732 119.26915461 C39.22859172 123.78524679 39.23147689 128.30128465 39.24202538 132.81736565 C39.25167143 137.06329282 39.25180971 141.30911335 39.24450874 145.55504417 C39.24345853 147.11677454 39.24585145 148.67851143 39.2518692 150.24023056 C39.25953094 152.36563903 39.25498351 154.49067379 39.24723816 156.61607361 C39.24778293 157.80757491 39.24832769 158.99907621 39.24888897 160.22668362 C39 163 39 163 37 165 C34.27514272 165.17517747 31.65340638 165.23149133 28.9296875 165.1953125 C28.13345978 165.1924826 27.33723206 165.18965271 26.51687622 165.18673706 C23.96943237 165.1755264 21.42233789 165.15042062 18.875 165.125 C17.14974465 165.11497133 15.42448381 165.10584528 13.69921875 165.09765625 C9.46601086 165.07558422 5.2330647 165.04104867 1 165 C1 164.67 1 164.34 1 164 C7.6 164 14.2 164 21 164 C21 110.21 21 56.42 21 1 C14.07 1 7.14 1 0 1 C0 0.67 0 0.34 0 0 Z " fill="#F2A670" transform="translate(237,234)"/>
<path d="M0 0 C29.37 0 58.74 0 89 0 C89.495 7.425 89.495 7.425 90 15 C90.495 17.97 90.495 17.97 91 21 C60.64 21 30.28 21 -1 21 C-1 8 -1 8 0 0 Z " fill="#46585F" transform="translate(65,206)"/>
<path d="M0 0 C4.31248609 -0.02886537 8.62494762 -0.04675255 12.9375 -0.0625 C14.78504883 -0.07506836 14.78504883 -0.07506836 16.66992188 -0.08789062 C17.83974609 -0.09111328 19.00957031 -0.09433594 20.21484375 -0.09765625 C21.84087524 -0.10551147 21.84087524 -0.10551147 23.49975586 -0.11352539 C26 0 26 0 27 1 C27.09943972 3.08075409 27.12799596 5.16491848 27.12939453 7.24804688 C27.13114685 7.90007584 27.13289917 8.5521048 27.13470459 9.22389221 C27.13912204 11.38887153 27.13618551 13.55376979 27.1328125 15.71875 C27.13348557 17.21708187 27.13445562 18.71541363 27.13571167 20.21374512 C27.1371885 23.35783933 27.13503458 26.50190517 27.13037109 29.64599609 C27.1246738 33.68486539 27.12795289 37.72366824 27.13394356 41.7625351 C27.13754958 44.8576508 27.13641039 47.95275065 27.13381577 51.04786682 C27.13314661 52.53748075 27.13397452 54.0270961 27.13629532 55.51670837 C27.13882253 57.59516235 27.13498033 59.67350731 27.12939453 61.75195312 C27.12859894 62.93696411 27.12780334 64.1219751 27.12698364 65.34289551 C27 68 27 68 26 69 C24.07332493 69.08748207 22.14348139 69.10697334 20.21484375 69.09765625 C18.46010742 69.09282227 18.46010742 69.09282227 16.66992188 69.08789062 C15.43822266 69.07951172 14.20652344 69.07113281 12.9375 69.0625 C11.08415039 69.05573242 11.08415039 69.05573242 9.19335938 69.04882812 C6.12888587 69.03699618 3.06443707 69.01906008 0 69 C-0.33 60.75 -0.66 52.5 -1 44 C-1.99 44.495 -1.99 44.495 -3 45 C-2.835 44.2575 -2.67 43.515 -2.5 42.75 C-1.90669218 38.30019138 -1.97429297 33.99373838 -2.0625 29.51171875 C-2 27 -2 27 -1 26 C-0.84193469 24.07521187 -0.748865 22.1450079 -0.68359375 20.21484375 C-0.64169922 19.04501953 -0.59980469 17.87519531 -0.55664062 16.66992188 C-0.49766602 14.82237305 -0.49766602 14.82237305 -0.4375 12.9375 C-0.39431641 11.70193359 -0.35113281 10.46636719 -0.30664062 9.19335938 C-0.20015802 6.12902665 -0.09814576 3.06460927 0 0 Z " fill="#1EA9EC" transform="translate(317,58)"/>
<path d="M0 0 C5.82053259 3.25727738 8.79421054 7.72977276 12.0625 13.375 C14.30766727 22.80470253 11.84001306 29.6649779 7.0625 37.75 C2.00029523 42.54577294 -3.81625167 45.27766852 -10.8125 45.625 C-17.60226582 45.26006209 -23.37844048 42.95835815 -28.19921875 38.09765625 C-32.95808015 32.09434683 -34.87962064 26.31282959 -34.68359375 18.65625 C-33.74691287 11.95158687 -30.62641554 6.6464644 -25.3125 2.5 C-17.45545791 -2.94923887 -8.79870574 -3.9474556 0 0 Z " fill="#000304" transform="translate(303.3125,71)"/>
<path d="M0 0 C16.5 0 33 0 50 0 C49.67 1.65 49.34 3.3 49 5 C48.85843072 6.91042776 48.75525298 8.82395604 48.68359375 10.73828125 C48.62075195 12.33833008 48.62075195 12.33833008 48.55664062 13.97070312 C48.51732422 15.07349609 48.47800781 16.17628906 48.4375 17.3125 C48.37272461 18.99569336 48.37272461 18.99569336 48.30664062 20.71289062 C48.20085213 23.47514569 48.09876328 26.2374863 48 29 C34.58342928 29.6427549 23.72875351 27.33004846 13 19 C11.948125 18.236875 10.89625 17.47375 9.8125 16.6875 C4.67392926 11.77731018 1.39888415 6.99442075 0 0 Z " fill="#788B96" transform="translate(173,227)"/>
<path d="M0 0 C16.5 0 33 0 50 0 C48.99093376 5.04533118 47.98649861 6.96419106 45 11 C44.60039062 11.55816406 44.20078125 12.11632812 43.7890625 12.69140625 C36.49340109 22.11672605 25.58027357 27.10718371 14 29 C9.99608972 29.1211784 6.00425885 29.09254836 2 29 C1.97494385 28.29915283 1.9498877 27.59830566 1.92407227 26.8762207 C1.80773455 23.68814512 1.68517956 20.50033758 1.5625 17.3125 C1.52318359 16.20970703 1.48386719 15.10691406 1.44335938 13.97070312 C1.40146484 12.90400391 1.35957031 11.83730469 1.31640625 10.73828125 C1.27974854 9.75899658 1.24309082 8.77971191 1.20532227 7.77075195 C1.02800956 4.60655311 1.02800956 4.60655311 0 0 Z " fill="#788B96" transform="translate(289,227)"/>
<path d="M0 0 C0.66 0 1.32 0 2 0 C2.02464928 5.25105442 2.04283568 10.50207545 2.05493164 15.75317383 C2.05997218 17.54094021 2.06680454 19.32870245 2.07543945 21.11645508 C2.0875173 23.68051168 2.09323094 26.24451397 2.09765625 28.80859375 C2.10281754 29.6127623 2.10797882 30.41693085 2.11329651 31.24546814 C2.11349215 33.16401715 2.06201983 35.08245368 2 37 C0.15723491 38.84276509 -2.42963759 38.12874411 -4.88134766 38.13894653 C-5.70425293 38.1369223 -6.5271582 38.13489807 -7.375 38.1328125 C-8.21466309 38.13376923 -9.05432617 38.13472595 -9.91943359 38.13571167 C-11.69824295 38.13639348 -13.47705477 38.13453917 -15.25585938 38.13037109 C-17.98833776 38.12502283 -20.72065176 38.13031605 -23.453125 38.13671875 C-25.1770837 38.13605797 -26.90104229 38.13477681 -28.625 38.1328125 C-29.44790527 38.13483673 -30.27081055 38.13686096 -31.11865234 38.13894653 C-36.88504946 38.11495054 -36.88504946 38.11495054 -38 37 C-38.07205511 35.31391034 -38.08386068 33.62499341 -38.0625 31.9375 C-38.05347656 31.01839844 -38.04445313 30.09929687 -38.03515625 29.15234375 C-38.02355469 28.44207031 -38.01195312 27.73179687 -38 27 C-36.93523437 26.47792969 -35.87046875 25.95585937 -34.7734375 25.41796875 C-21.39381653 18.69561575 -10.48488106 10.72317381 0 0 Z " fill="#EEA46E" transform="translate(432,459)"/>
<path d="M0 0 C3.16207536 1.49894025 5.08023637 2.96373497 7.4375 5.5625 C16.1528136 14.50502848 28.33598768 22.58492492 40 27 C40.02688151 28.64574566 40.04634123 30.29161413 40.0625 31.9375 C40.07410156 32.85402344 40.08570313 33.77054687 40.09765625 34.71484375 C40 37 40 37 39 38 C36.20006403 38.10103255 33.42531356 38.13970088 30.625 38.1328125 C29.78533691 38.13376923 28.94567383 38.13472595 28.08056641 38.13571167 C26.30175705 38.13639348 24.52294523 38.13453917 22.74414062 38.13037109 C20.01166224 38.12502283 17.27934824 38.13031605 14.546875 38.13671875 C12.8229163 38.13605797 11.09895771 38.13477681 9.375 38.1328125 C8.55209473 38.13483673 7.72918945 38.13686096 6.88134766 38.13894653 C1.11495054 38.11495054 1.11495054 38.11495054 0 37 C-0.08858646 34.26105915 -0.11523479 31.5474673 -0.09765625 28.80859375 C-0.0962413 27.98875504 -0.09482635 27.16891632 -0.09336853 26.32423401 C-0.08775289 23.69528618 -0.07519779 21.06642227 -0.0625 18.4375 C-0.05748701 16.65950643 -0.05292376 14.88151154 -0.04882812 13.10351562 C-0.03777839 8.73564455 -0.02050331 4.36783652 0 0 Z " fill="#EFA46E" transform="translate(78,459)"/>
<path d="M0 0 C1.34094727 -0.03577148 1.34094727 -0.03577148 2.70898438 -0.07226562 C7.27447526 -0.06209749 9.42522804 0.09171534 13.1875 2.87109375 C15.0625 5.5625 15.0625 5.5625 15.125 9.1875 C13.94521122 12.93506437 13.33999997 13.62170449 10.0625 15.5625 C6.74938096 16.16372939 3.42451289 16.02641582 0.0625 16 C-0.83984375 16.01998047 -1.7421875 16.03996094 -2.671875 16.06054688 C-9.23019509 16.05569605 -9.23019509 16.05569605 -12.53125 13.75390625 C-14.6051128 10.52213671 -14.47365637 8.31559462 -13.9375 4.5625 C-10.51932139 -0.73046909 -5.70187572 -0.06958499 0 0 Z " fill="#020303" transform="translate(336.9375,154.4375)"/>
<path d="M0 0 C1.2694043 -0.01063477 1.2694043 -0.01063477 2.56445312 -0.02148438 C7.30894046 0.02681503 10.80008151 0.2264062 14.5625 3.4375 C15.6875 6.8125 15.6875 6.8125 15.5625 10.4375 C13.52320636 13.35865035 11.91648044 15.15551989 8.33984375 15.90039062 C5.70892392 16.07510015 3.13552317 16.07030595 0.5 16 C-0.39783203 16.01095703 -1.29566406 16.02191406 -2.22070312 16.03320312 C-8.6910285 15.96104336 -8.6910285 15.96104336 -12.02734375 13.62109375 C-14.11038535 10.39555288 -13.97344499 8.18911491 -13.4375 4.4375 C-10.03321937 -0.73811364 -5.62105588 -0.13210973 0 0 Z " fill="#030304" transform="translate(282.4375,154.5625)"/>
<path d="M0 0 C1.2694043 -0.0299707 1.2694043 -0.0299707 2.56445312 -0.06054688 C6.68585777 -0.05731946 9.0135075 0.11439868 12.62890625 2.2421875 C14.5625 4.4375 14.5625 4.4375 15.0625 8 C14.5625 11.4375 14.5625 11.4375 13.1875 13.3125 C9.08728408 16.15111102 5.0966328 15.73322422 0.25 15.8125 C-1.03293945 15.86857422 -1.03293945 15.86857422 -2.34179688 15.92578125 C-6.83846726 15.98847689 -8.8225185 15.8929271 -12.5390625 13.140625 C-14.4375 10.4375 -14.4375 10.4375 -14.5 6.8125 C-12.16336992 -0.60973673 -6.79521865 -0.05666975 0 0 Z " fill="#030303" transform="translate(228.4375,154.5625)"/>
<path d="M0 0 C1.2694043 -0.0299707 1.2694043 -0.0299707 2.56445312 -0.06054688 C6.68611126 -0.05731926 9.00958321 0.11055176 12.62109375 2.24609375 C14.5625 4.4375 14.5625 4.4375 15.1875 7.9375 C14.5625 11.4375 14.5625 11.4375 12.6171875 13.62109375 C8.38065315 16.14026059 4.90359514 16.06301579 0.0625 16 C-0.77925781 16.02384766 -1.62101563 16.04769531 -2.48828125 16.07226562 C-6.92051276 16.06179579 -8.88052182 15.85364931 -12.52734375 13.12890625 C-14.4375 10.4375 -14.4375 10.4375 -14.5 6.8125 C-12.16336992 -0.60973673 -6.79521865 -0.05666975 0 0 Z " fill="#020202" transform="translate(174.4375,154.5625)"/>
<path d="M0 0 C3.0625 1.0625 3.0625 1.0625 5 3 C6.125 6.375 6.125 6.375 6 10 C4.25 12.9375 4.25 12.9375 1 15 C-2.79623711 15.68971516 -6.20720059 15.72354943 -10 15 C-13.23849275 12.43933131 -13.8415306 10.97062507 -14.5 6.9375 C-14 4 -14 4 -12.625 1.625 C-8.54517989 -0.90060293 -4.66813851 -0.60428977 0 0 Z " fill="#010709" transform="translate(210,97)"/>
<path d="M0 0 C3 1.0625 3 1.0625 5 3 C6.125 6.375 6.125 6.375 6 10 C4.25 12.9375 4.25 12.9375 1 15 C-2.79623711 15.68971516 -6.20720059 15.72354943 -10 15 C-13.23083791 12.44538398 -13.82654251 10.94437964 -14.5625 6.9375 C-14 4 -14 4 -12.0625 1.625 C-7.9143807 -0.5760429 -4.60169021 -0.66691162 0 0 Z " fill="#010608" transform="translate(210,73)"/>
<path d="M0 0 C3.7483731 1.4967462 3.7483731 1.4967462 5 4 C5.34179024 7.69133463 5.46422538 10.13786716 3.6875 13.4375 C-0.67438701 15.97348082 -5.09501006 15.85595424 -10 15 C-13.23849275 12.43933131 -13.8415306 10.97062507 -14.5 6.9375 C-14 4 -14 4 -12.625 1.625 C-8.62785688 -0.84942193 -4.58693094 -0.63217317 0 0 Z " fill="#000405" transform="translate(246,73)"/>
<path d="M0 0 C3.7483731 1.4967462 3.7483731 1.4967462 5 4 C5.35294118 10.47058824 5.35294118 10.47058824 3 14 C-1.34008426 15.44669475 -5.4691351 15.65256319 -10 15 C-13.1664051 12.43671968 -13.84859114 10.92737927 -14.5 6.9375 C-14 4 -14 4 -12.625 1.625 C-8.62785688 -0.84942193 -4.58693094 -0.63217317 0 0 Z " fill="#000405" transform="translate(246,97)"/>
<path d="M0 0 C4.21796616 0.86080942 6.17690429 2.46458565 9.0625 5.625 C9.69417588 9.49401475 9.36103304 12.40705375 7.0625 15.625 C3.84455375 17.92353304 0.93151475 18.25667588 -2.9375 17.625 C-6.09791435 14.73940429 -7.70169058 12.78046616 -8.5625 8.5625 C-7.51095594 3.62024293 -4.94225707 1.05154406 0 0 Z " fill="#20BBF1" transform="translate(291.9375,83.375)"/>
<path d="M0 0 C5 5 5 5 6.73828125 6.80859375 C10.39414408 10.59145926 14.20522978 13.79080823 18.49609375 16.8359375 C19.24052734 17.41214844 19.24052734 17.41214844 20 18 C20 18.33 20 18.66 20 19 C13.4 19 6.8 19 0 19 C0 12.73 0 6.46 0 0 Z " fill="#FEBB89" transform="translate(79,478)"/>
<path d="M0 0 C0.33 0 0.66 0 1 0 C1 6.27 1 12.54 1 19 C-5.6 19 -12.2 19 -19 19 C-14.90979977 14.90979977 -10.74766088 11.08423941 -6.40234375 7.28125 C-4.00873662 5.00829624 -2.04345177 2.58503475 0 0 Z " fill="#FEBB89" transform="translate(432,478)"/>
</svg>
