<?xml version="1.0" encoding="UTF-8"?>
<svg version="1.1" xmlns="http://www.w3.org/2000/svg" width="512" height="512">
<path d="M0 0 C46.2 0 92.4 0 140 0 C140 5.94 140 11.88 140 18 C128.45 18 116.9 18 105 18 C105 51.99 105 85.98 105 121 C126.12145352 120.88136678 126.12145352 120.88136678 147.24267578 120.72973633 C149.89355101 120.72097323 152.54443027 120.71332888 155.1953125 120.70703125 C155.87874725 120.69919113 156.56218201 120.69135101 157.2663269 120.68327332 C159.2947968 120.6611806 161.32346065 120.65998144 163.35205078 120.65942383 C164.49344513 120.65276199 165.63483948 120.64610016 166.81082153 120.63923645 C172.09704141 121.23721975 175.97345901 123.39594962 179.3125 127.5 C179.80363281 128.0878125 180.29476562 128.675625 180.80078125 129.28125 C194.79266398 149.33476271 180.94481038 205.48012865 178.5625 228.5625 C178.45698067 229.58646503 178.35146133 230.61043007 178.24274445 231.66542435 C177.17010334 242.0476098 176.07401792 252.42734094 174.93969727 262.80297852 C174.85913904 263.54922517 174.77858082 264.29547182 174.69558144 265.06433201 C174.25291294 269.06879596 173.7036699 273.03300895 173 277 C174.26908203 277.259021 175.53816406 277.51804199 176.84570312 277.78491211 C182.18742892 278.97473475 187.29929658 280.65958045 192.46875 282.44140625 C193.91102966 282.93301491 193.91102966 282.93301491 195.38244629 283.43455505 C197.39669876 284.12229087 199.41015891 284.81235128 201.42285156 285.50463867 C204.51687403 286.56830095 207.6136777 287.62354066 210.7109375 288.67773438 C212.67204317 289.34846684 214.63298669 290.01967362 216.59375 290.69140625 C217.52280151 291.00807755 218.45185303 291.32474884 219.40905762 291.65101624 C220.26084595 291.9447966 221.11263428 292.23857697 221.99023438 292.54125977 C223.1186676 292.92859032 223.1186676 292.92859032 224.26989746 293.32374573 C226 294 226 294 227 295 C227.08851529 297.59359322 227.11525945 300.16039691 227.09765625 302.75390625 C227.09553383 303.91707619 227.09553383 303.91707619 227.09336853 305.10374451 C227.08775345 307.59003494 227.07519846 310.0762366 227.0625 312.5625 C227.05748694 314.24413933 227.0529237 315.92578006 227.04882812 317.60742188 C227.03777913 321.73831566 227.02050445 325.86914276 227 330 C220.63241019 329.33623375 214.76872497 327.55157726 208.66796875 325.65625 C207.59501053 325.32709595 206.52205231 324.99794189 205.4165802 324.65881348 C203.15920888 323.96525891 200.90260404 323.26920528 198.64672852 322.57080078 C195.18346634 321.49875138 191.71794825 320.4342704 188.25195312 319.37109375 C186.05715691 318.69575029 183.86249079 318.01998386 181.66796875 317.34375 C180.1086689 316.86403748 180.1086689 316.86403748 178.51786804 316.37463379 C177.5595961 316.07762573 176.60132416 315.78061768 175.61401367 315.47460938 C174.76908859 315.2133728 173.92416351 314.95213623 173.05363464 314.6829834 C171 314 171 314 169 313 C168.93941406 314.11117188 168.87882813 315.22234375 168.81640625 316.3671875 C167.99668382 331.02652942 167.99668382 331.02652942 167.18359375 337.53125 C167.12300781 338.3459375 167.06242188 339.160625 167 340 C166.93675537 340.61721924 166.87351074 341.23443848 166.80834961 341.87036133 C166.39043218 348.95275336 168.85776352 354.30549866 171.6875 360.6875 C178.68581732 377.23749149 183.12060092 394.44266742 183.17700195 412.48022461 C183.18357315 413.40473923 183.19014435 414.32925385 183.19691467 415.28178406 C183.21652472 418.3219716 183.22827966 421.36211016 183.23828125 424.40234375 C183.24235678 425.44506502 183.2464323 426.48778629 183.25063133 427.56210518 C183.27143467 433.07615075 183.28576389 438.59017181 183.29516602 444.10424805 C183.30624831 449.78804018 183.34068586 455.4714428 183.38033772 461.15509701 C183.40650713 465.53809831 183.41485791 469.9210065 183.41844749 474.30407906 C183.42330865 476.39918221 183.43490915 478.49428134 183.45348549 480.58930779 C183.47789474 483.52331284 183.47690909 486.45630486 183.4699707 489.39038086 C183.48918579 490.67724792 183.48918579 490.67724792 183.50878906 491.9901123 C183.45908008 497.77895541 182.2511846 502.16100279 179 507 C173.92013622 511.83206555 169.71995304 512.14877185 162.97294617 512.14717102 C162.14565516 512.15084771 161.31836415 512.1545244 160.46600372 512.1583125 C157.68395393 512.16935712 154.90194148 512.17319448 152.11987305 512.17700195 C150.12918987 512.18326594 148.13850787 512.18991268 146.14782715 512.19691467 C140.73248945 512.21432855 135.31716058 512.22487718 129.90180182 512.2331202 C126.51988366 512.23826882 123.13796824 512.24434457 119.75605202 512.25063133 C109.17878052 512.26968324 98.60151602 512.28391521 88.02423066 512.2922433 C75.80685949 512.30202115 63.58966924 512.32835505 51.37236184 512.36874419 C41.93364293 512.3988791 32.49497596 512.41370962 23.05620986 512.41702431 C17.41654394 512.41937749 11.7770713 512.42837307 6.13745689 512.45348549 C0.83262977 512.47672567 -4.47187624 512.48101571 -9.77674103 512.47072411 C-11.72381596 512.47022767 -13.67090648 512.47657963 -15.61793327 512.49028015 C-18.27634043 512.50793996 -20.93358778 512.50092231 -23.59199524 512.48774719 C-24.36233434 512.49871644 -25.13267343 512.50968568 -25.92635614 512.52098733 C-31.10306933 512.45905309 -34.00409467 511.24928115 -38 508 C-42.98406914 502.47711258 -43.15509622 498.08667282 -43.17700195 490.88891602 C-43.18357315 489.95500031 -43.19014435 489.02108459 -43.19691467 488.05886841 C-43.21667236 484.95721349 -43.22832528 481.85560742 -43.23828125 478.75390625 C-43.24235678 477.6893968 -43.2464323 476.62488735 -43.25063133 475.52812004 C-43.27151778 469.87706572 -43.28579972 464.22603576 -43.29516602 458.57495117 C-43.30614359 452.78685117 -43.34043443 446.9991449 -43.38033772 441.21118259 C-43.40674284 436.72303145 -43.41487956 432.23496992 -43.41844749 427.74674797 C-43.42326418 425.61690597 -43.434734 423.48706661 -43.45348549 421.35730171 C-43.62685581 400.33308137 -41.02186182 378.40596042 -31.2109375 359.421875 C-27.27315725 351.40246865 -26.73453102 345.72803242 -27.64013672 336.96069336 C-27.73976149 335.87604514 -27.83938625 334.79139692 -27.94202995 333.67388058 C-28.27564919 330.11378422 -28.63518792 326.55702756 -29 323 C-29.11983498 321.80417927 -29.23966995 320.60835854 -29.36313629 319.37630081 C-30.0778248 312.26311241 -30.821575 305.15322322 -31.58129156 298.04472655 C-32.12600997 292.94446961 -32.66114216 287.84327297 -33.19088745 282.74143982 C-33.26945421 281.98497762 -33.34802098 281.22851542 -33.42896855 280.44913012 C-33.67019206 278.12560216 -33.9112825 275.80206042 -34.15234375 273.47851562 C-35.13005238 264.05515339 -36.1141918 254.63264439 -37.12841797 245.21313477 C-40.39198008 214.85569327 -43.63439262 184.59480788 -43.7421875 154.02734375 C-43.75199772 152.98623507 -43.76180794 151.94512638 -43.77191544 150.87246895 C-43.78944469 147.98135722 -43.76858777 145.09373006 -43.72998047 142.20288086 C-43.73390682 141.37795324 -43.73783318 140.55302563 -43.74187851 139.7031002 C-43.5766826 133.76810406 -41.82692529 129.56768393 -38 125 C-31.34878473 119.57326311 -23.15944488 120.48361021 -15 120.609375 C-13.73027344 120.61340332 -12.46054688 120.61743164 -11.15234375 120.62158203 C-6.43474765 120.64242146 -1.71735846 120.69826655 3 120.75 C13.56 120.8325 24.12 120.915 35 121 C35 87.01 35 53.02 35 18 C23.45 18 11.9 18 0 18 C0 12.06 0 6.12 0 0 Z " fill="#838693" transform="translate(82,0)"/>
<path d="M0 0 C0.74414923 0.00291284 1.48829846 0.00582568 2.25499767 0.00882679 C3.43234239 0.00754515 3.43234239 0.00754515 4.63347185 0.00623763 C7.28373924 0.00458044 9.93394441 0.01010807 12.58420604 0.01555592 C14.47595509 0.01583776 16.36770425 0.01568011 18.25945324 0.01511341 C23.41213175 0.01482534 28.5647872 0.02072366 33.71746033 0.02768737 C39.09600961 0.03391927 44.47455936 0.03452458 49.85311168 0.03571278 C60.0457989 0.03882658 70.23847544 0.04704062 80.43115795 0.05706227 C92.03192634 0.06822189 103.63269522 0.07373347 115.23346764 0.0787577 C139.10421123 0.0892232 162.97494535 0.10682358 186.84568065 0.12908131 C188.36592282 3.74552111 189.87461517 7.36656147 191.37372631 10.99181324 C192.1303437 12.81519901 192.89549206 14.63503747 193.6608662 16.4547649 C198.04578253 27.08464492 200.95545588 37.79700986 202.84568065 49.12908131 C203.10001621 50.64209576 203.10001621 50.64209576 203.35948986 52.18567616 C203.91475606 56.68933937 204.00851141 61.07722925 204.02268261 65.60930592 C204.0292538 66.53382054 204.035825 67.45833515 204.04259533 68.41086537 C204.06220537 71.45105291 204.07396031 74.49119147 204.0839619 77.53142506 C204.08803743 78.57414633 204.09211296 79.6168676 204.09631199 80.69118649 C204.11711533 86.20523205 204.13144454 91.71925312 204.14084667 97.23332936 C204.15192896 102.91712149 204.18636651 108.60052411 204.22601837 114.28417832 C204.25218778 118.66717962 204.26053857 123.05008781 204.26412815 127.43316036 C204.26898931 129.52826352 204.2805898 131.62336265 204.29916614 133.71838909 C204.3235754 136.65239415 204.32258974 139.58538616 204.31565136 142.51946217 C204.33486645 143.80632923 204.33486645 143.80632923 204.35446972 145.11919361 C204.30476074 150.90803672 203.09686526 155.2900841 199.84568065 160.12908131 C194.76581687 164.96114686 190.5656337 165.27785316 183.81862682 165.27625233 C182.99133581 165.27992902 182.1640448 165.28360571 181.31168437 165.28739381 C178.52963458 165.29843842 175.74762214 165.30227579 172.9655537 165.30608326 C170.97487052 165.31234725 168.98418852 165.31899399 166.9935078 165.32599598 C161.57817011 165.34340986 156.16284124 165.35395849 150.74748248 165.36220151 C147.36556431 165.36735013 143.9836489 165.37342588 140.60173267 165.37971264 C130.02446118 165.39876455 119.44719667 165.41299652 108.86991131 165.42132461 C96.65254015 165.43110246 84.43534989 165.45743636 72.21804249 165.4978255 C62.77932358 165.52796041 53.34065661 165.54279093 43.90189052 165.54610562 C38.26222459 165.5484588 32.62275195 165.55745437 26.98313755 165.5825668 C21.67831043 165.60580698 16.37380441 165.61009702 11.06893963 165.59980541 C9.1218647 165.59930898 7.17477417 165.60566094 5.22774738 165.61936146 C2.56934023 165.63702127 -0.08790713 165.63000362 -2.74631459 165.6168285 C-3.90182323 165.63328237 -3.90182323 165.63328237 -5.08067548 165.65006864 C-10.25738868 165.58813439 -13.15841402 164.37836245 -17.15431935 161.12908131 C-22.13838848 155.60619389 -22.30941556 151.21575413 -22.3313213 144.01799732 C-22.3378925 143.08408161 -22.34446369 142.1501659 -22.35123402 141.18794972 C-22.3709917 138.08629479 -22.38264463 134.98468872 -22.3926006 131.88298756 C-22.39667612 130.81847811 -22.40075165 129.75396866 -22.40495068 128.65720135 C-22.42583712 123.00614703 -22.44011907 117.35511707 -22.44948536 111.70403248 C-22.46046293 105.91593247 -22.49475377 100.12822621 -22.53465706 94.3402639 C-22.56106218 89.85211276 -22.56919891 85.36405123 -22.57276684 80.87582928 C-22.57758352 78.74598728 -22.58905335 76.61614792 -22.60780483 74.48638302 C-22.82355443 48.32292606 -16.58298784 25.00971307 -6.15431935 1.12908131 C-4.44364818 -0.58158985 -2.28144648 0.00677169 0 0 Z " fill="#4A4A56" transform="translate(61.15431934595108,346.8709186911583)"/>
<path d="M0 0 C25.74 0 51.48 0 78 0 C78 31.35 78 62.7 78 95 C73.71 95.33 69.42 95.66 65 96 C60.02509986 98.14303391 57.00365674 100.4945149 54 105 C49.56779463 118.29661611 52.35926305 132.98874115 52 147 C92.26 147 132.52 147 174 147 C175.79411765 113.17647059 175.79411765 113.17647059 169 101 C161.88942343 95.3405615 157.81333594 95.81777799 148 95 C148 63.65 148 32.3 148 0 C173.74 0 199.48 0 226 0 C224.85095076 19.533837 224.85095076 19.533837 224.16796875 26.1784668 C224.0531163 27.33816231 224.0531163 27.33816231 223.9359436 28.52128601 C223.68982347 30.99761328 223.43882941 33.47341527 223.1875 35.94921875 C223.01171624 37.704143 222.83618427 39.45909248 222.66088867 41.21406555 C222.29659801 44.85378794 221.92999308 48.49326671 221.56152344 52.13256836 C221.0904043 56.78663887 220.62418122 61.44118407 220.15953064 66.09590435 C219.79905383 69.70347144 219.43655697 73.31083321 219.07339478 76.91813087 C218.9006688 78.63522161 218.72844083 80.35236252 218.55673218 82.06955528 C218.31713665 84.46153181 218.07494791 86.85323181 217.83203125 89.24487305 C217.72757187 90.29454254 217.72757187 90.29454254 217.6210022 91.36541748 C217.22085689 95.27395074 216.68893246 99.13195869 216 103 C217.90362305 103.38853149 217.90362305 103.38853149 219.84570312 103.78491211 C225.18742892 104.97473475 230.29929658 106.65958045 235.46875 108.44140625 C236.43026978 108.76914536 237.39178955 109.09688446 238.38244629 109.43455505 C240.39669876 110.12229087 242.41015891 110.81235128 244.42285156 111.50463867 C247.51687403 112.56830095 250.6136777 113.62354066 253.7109375 114.67773438 C255.67204317 115.34846684 257.63298669 116.01967362 259.59375 116.69140625 C260.98732727 117.16641319 260.98732727 117.16641319 262.40905762 117.65101624 C263.26084595 117.9447966 264.11263428 118.23857697 264.99023438 118.54125977 C265.74252319 118.79948013 266.49481201 119.0577005 267.26989746 119.32374573 C269 120 269 120 270 121 C270.08851529 123.59359322 270.11525945 126.16039691 270.09765625 128.75390625 C270.09553383 129.91707619 270.09553383 129.91707619 270.09336853 131.10374451 C270.08775345 133.59003494 270.07519846 136.0762366 270.0625 138.5625 C270.05748694 140.24413933 270.0529237 141.92578006 270.04882812 143.60742188 C270.03777913 147.73831566 270.02050445 151.86914276 270 156 C263.63241019 155.33623375 257.76872497 153.55157726 251.66796875 151.65625 C250.59501053 151.32709595 249.52205231 150.99794189 248.4165802 150.65881348 C246.15920888 149.96525891 243.90260404 149.26920528 241.64672852 148.57080078 C238.18346634 147.49875138 234.71794825 146.4342704 231.25195312 145.37109375 C229.05715691 144.69575029 226.86249079 144.01998386 224.66796875 143.34375 C223.62843552 143.02394165 222.58890228 142.7041333 221.51786804 142.37463379 C220.5595961 142.07762573 219.60132416 141.78061768 218.61401367 141.47460938 C217.34662605 141.08275452 217.34662605 141.08275452 216.05363464 140.6829834 C214 140 214 140 212 139 C211.92652344 140.54494141 211.92652344 140.54494141 211.8515625 142.12109375 C211.77633023 143.55991095 211.70079216 144.99871218 211.625 146.4375 C211.5940625 147.10587891 211.563125 147.77425781 211.53125 148.46289062 C211.08283011 156.72129029 209.97338662 164.72621369 209 173 C145.64 173 82.28 173 17 173 C14.74986951 157.24908655 14.74986951 157.24908655 14.19003296 151.68241882 C14.06107132 150.41405685 13.93210968 149.14569489 13.79924011 147.83889771 C13.664763 146.48724986 13.53035041 145.1355956 13.39599609 143.78393555 C13.24815783 142.31863542 13.100074 140.85336005 12.95176697 139.3881073 C12.55446794 135.45485108 12.16088371 131.52123202 11.76827574 127.5875051 C11.43879897 124.28950243 11.10754272 120.99167939 10.77632868 117.69385082 C9.99495892 109.91327902 9.21671526 102.13239893 8.44042969 94.35131836 C7.64171063 86.34596582 6.83751956 78.34117608 6.03069055 70.3366372 C5.33528746 63.43553121 4.64335103 56.53408352 3.95415366 49.63235503 C3.54369833 45.52238147 3.13194389 41.41254898 2.71680832 37.30304527 C2.32702983 33.44311345 1.94160185 29.58277094 1.55943489 25.72207832 C1.41908161 24.31147863 1.27723011 22.90102702 1.13371468 21.49074554 C0.93698764 19.55513585 0.74637576 17.61890763 0.55599976 15.68266296 C0.44798223 14.60299098 0.33996471 13.523319 0.22867393 12.41092968 C-0.04810107 8.28251826 0 4.13767873 0 0 Z " fill="#E8E8E8" transform="translate(39,174)"/>
<path d="M0 0 C37.29 0 74.58 0 113 0 C113 2.64 113 5.28 113 8 C114.20160767 7.98428955 114.20160767 7.98428955 115.42749023 7.96826172 C119.09746089 7.92639188 122.76738106 7.90057574 126.4375 7.875 C128.32758789 7.84986328 128.32758789 7.84986328 130.25585938 7.82421875 C140.84542241 7.76892077 149.91442765 7.99146021 157.8515625 15.828125 C164.26078747 22.73848279 165.30230261 28.5723928 165.1953125 37.7734375 C165.1924826 38.6971817 165.18965271 39.6209259 165.18673706 40.57266235 C165.17559179 43.50690976 165.15049765 46.4408457 165.125 49.375 C165.11496289 51.37108932 165.10583832 53.36718346 165.09765625 55.36328125 C165.07737728 60.24240243 165.03821785 65.12085483 165 70 C159.06 70 153.12 70 147 70 C146.96132813 65.95492187 146.96132813 65.95492187 146.921875 61.828125 C146.88345109 59.21343593 146.8382921 56.59894383 146.79248047 53.984375 C146.7642729 52.16871561 146.74305726 50.35293348 146.72900391 48.53710938 C146.70757091 45.92514211 146.66092115 43.31465026 146.609375 40.703125 C146.60753204 39.48728729 146.60753204 39.48728729 146.60565186 38.24688721 C146.51854214 34.88733525 146.40279494 32.55609279 144.40045166 29.79168701 C141.18317441 27.39032482 139.0379804 27.45827085 135.046875 27.390625 C134.38665344 27.37408875 133.72643188 27.35755249 133.04620361 27.34051514 C130.94737374 27.29211549 128.84926778 27.27068481 126.75 27.25 C125.3228804 27.22183317 123.89579441 27.19190472 122.46875 27.16015625 C118.97932391 27.08636237 115.49003528 27.03673721 112 27 C111.93149338 28.18270981 111.86298676 29.36541962 111.79240417 30.58396912 C111.14393116 41.75150233 110.4825077 52.91820385 109.80852795 64.08422756 C109.46247419 69.82426675 109.12092518 75.56449896 108.78979492 81.30541992 C108.46983039 86.84983651 108.13787122 92.39341848 107.79772377 97.93663216 C107.67029236 100.04737249 107.54712223 102.15837472 107.42836571 104.2696209 C107.26077485 107.23581841 107.0777995 110.20070719 106.89135742 113.16577148 C106.82337952 114.46374161 106.82337952 114.46374161 106.75402832 115.78793335 C106.32652323 122.20831475 105.4121948 129.03445093 101.24609375 134.15625 C100.64925781 134.5996875 100.05242187 135.043125 99.4375 135.5 C98.83808594 135.9640625 98.23867188 136.428125 97.62109375 136.90625 C94.01790893 139.33731446 91.32126232 139.1444001 86.98339844 139.17700195 C86.26122635 139.18357315 85.53905426 139.19014435 84.79499817 139.19691467 C82.39978942 139.21665981 80.00464346 139.22831399 77.609375 139.23828125 C76.79125587 139.24235678 75.97313675 139.2464323 75.13022614 139.25063133 C70.79857129 139.27149901 66.46694817 139.28579669 62.13525391 139.29516602 C57.66511788 139.30622142 53.19548089 139.34060892 48.72552109 139.38033772 C45.28535042 139.40651142 41.8452984 139.41485859 38.40503693 139.41844749 C36.75763841 139.42331291 35.11024518 139.43492571 33.46294403 139.45348549 C31.15295682 139.47789007 28.84425692 139.47690998 26.53417969 139.4699707 C24.56466339 139.47877007 24.56466339 139.47877007 22.55535889 139.48774719 C17.33676273 138.77182632 14.31048544 136.38329019 10.75 132.625 C7.55307223 127.82960835 6.73492032 123.04154399 6.32983398 117.36572266 C6.23310898 116.06220856 6.13638397 114.75869446 6.03672791 113.41567993 C5.93958695 111.99849212 5.8427164 110.58128575 5.74609375 109.1640625 C5.63982374 107.68309446 5.53296523 106.20216855 5.42555237 104.72128296 C5.20149857 101.60975512 4.98264068 98.49792103 4.76782227 95.38574219 C4.49757238 91.47232757 4.21764066 87.55968873 3.93417072 83.64721203 C2.78201058 67.71638934 1.74919404 51.79842374 1.18798828 35.83374023 C1.05458631 32.1079744 0.85374364 28.39318269 0.58981323 24.67445374 C0.02248375 16.34234894 0 8.43641702 0 0 Z " fill="#F3A422" transform="translate(308,373)"/>
<path d="M0 0 C46.2 0 92.4 0 140 0 C140 5.94 140 11.88 140 18 C128.45 18 116.9 18 105 18 C105 51.99 105 85.98 105 121 C126.45 121 147.9 121 170 121 C170 121.33 170 121.66 170 122 C104 122 38 122 -30 122 C-30 121.67 -30 121.34 -30 121 C-8.55 121 12.9 121 35 121 C35 87.01 35 53.02 35 18 C23.45 18 11.9 18 0 18 C0 12.06 0 6.12 0 0 Z " fill="#B2B2B4" transform="translate(82,0)"/>
<path d="M0 0 C0.74414923 0.00291284 1.48829846 0.00582568 2.25499767 0.00882679 C3.43234239 0.00754515 3.43234239 0.00754515 4.63347185 0.00623763 C7.28373924 0.00458044 9.93394441 0.01010807 12.58420604 0.01555592 C14.47595509 0.01583776 16.36770425 0.01568011 18.25945324 0.01511341 C23.41213175 0.01482534 28.5647872 0.02072366 33.71746033 0.02768737 C39.09600961 0.03391927 44.47455936 0.03452458 49.85311168 0.03571278 C60.0457989 0.03882658 70.23847544 0.04704062 80.43115795 0.05706227 C92.03192634 0.06822189 103.63269522 0.07373347 115.23346764 0.0787577 C139.10421123 0.0892232 162.97494535 0.10682358 186.84568065 0.12908131 C188.368327 3.750051 189.87931045 7.37566507 191.38059276 11.00554615 C192.13851823 12.83170629 192.90507359 14.65427716 193.67185253 16.47673756 C197.38942634 25.48754559 200.84568065 34.28736548 200.84568065 44.12908131 C127.91568065 44.12908131 54.98568065 44.12908131 -20.15431935 44.12908131 C-17.57832326 33.18109794 -15.09255968 23.40405282 -10.96681935 13.12908131 C-10.516292 11.97408131 -10.06576466 10.81908131 -9.60158497 9.62908131 C-5.8214717 0.01727904 -5.8214717 0.01727904 0 0 Z " fill="#666A7E" transform="translate(61.15431934595108,346.8709186911583)"/>
<path d="M0 0 C1.6306691 -0.00788544 1.6306691 -0.00788544 3.29428101 -0.01593018 C6.87691755 -0.02909983 10.45910721 -0.02040061 14.04174805 -0.01025391 C16.54127589 -0.01227594 19.04080315 -0.01518846 21.54032898 -0.01895142 C26.77644371 -0.02337104 32.01244318 -0.01724501 37.24853516 -0.00292969 C42.6132015 0.01156894 47.9776189 0.01160823 53.34228516 -0.00292969 C59.83431129 -0.02036793 66.32615562 -0.02302256 72.81819725 -0.0132637 C75.28562653 -0.01126925 77.75306364 -0.01369432 80.22048378 -0.02070236 C83.67844496 -0.02836682 87.13583134 -0.01664101 90.59375 0 C91.60343338 -0.00607269 92.61311676 -0.01214539 93.65339661 -0.0184021 C103.02021661 0.06461956 111.35347827 1.65130324 118.22924805 8.31787109 C123.58656948 14.61361469 125.92897365 21.00931013 125.53393555 29.29443359 C124.23397718 36.7013906 120.93271004 43.30549472 114.9909668 48.01318359 C108.30202652 52.61183004 101.56482089 52.68965108 93.72827148 52.69458008 C92.6022905 52.70290359 91.47630951 52.71122711 90.31620789 52.71980286 C86.59838387 52.74387361 82.88073544 52.75267181 79.1628418 52.75927734 C76.57220406 52.7682463 73.98156686 52.77736819 71.39093018 52.78663635 C65.96055494 52.80312127 60.53025011 52.81085833 55.09985352 52.8137207 C48.84335125 52.81735179 42.58734076 52.84722316 36.33098865 52.88912529 C30.29108332 52.92814471 24.25144843 52.93931608 18.21140289 52.94044685 C15.65184107 52.94464344 13.09227862 52.95705497 10.53279877 52.9779644 C6.94518206 53.00493876 3.35890791 53.00003363 -0.22875977 52.98754883 C-1.27741714 53.00238312 -2.32607452 53.01721741 -3.4065094 53.03250122 C-11.30597278 52.95455776 -17.928628 51.03463193 -23.9215126 45.67909908 C-29.42911309 39.88837604 -31.16096113 33.81894434 -31.5090332 25.95068359 C-31.30232692 18.50064482 -29.18995329 13.7953616 -24.1418457 8.38818359 C-16.58451591 1.33075499 -10.07546819 -0.06023614 0 0 Z " fill="#ECC07C" transform="translate(105.009033203125,424.61181640625)"/>
<path d="M0 0 C37.29 0 74.58 0 113 0 C113 2.64 113 5.28 113 8 C114.20160767 7.98428955 114.20160767 7.98428955 115.42749023 7.96826172 C119.09746089 7.92639188 122.76738106 7.90057574 126.4375 7.875 C128.32758789 7.84986328 128.32758789 7.84986328 130.25585938 7.82421875 C140.84542241 7.76892077 149.91442765 7.99146021 157.8515625 15.828125 C164.26078747 22.73848279 165.30230261 28.5723928 165.1953125 37.7734375 C165.1924826 38.6971817 165.18965271 39.6209259 165.18673706 40.57266235 C165.17559179 43.50690976 165.15049765 46.4408457 165.125 49.375 C165.11496289 51.37108932 165.10583832 53.36718346 165.09765625 55.36328125 C165.07737728 60.24240243 165.03821785 65.12085483 165 70 C159.06 70 153.12 70 147 70 C146.96132813 65.95492187 146.96132813 65.95492187 146.921875 61.828125 C146.88345109 59.21343593 146.8382921 56.59894383 146.79248047 53.984375 C146.7642729 52.16871561 146.74305726 50.35293348 146.72900391 48.53710938 C146.70757091 45.92514211 146.66092115 43.31465026 146.609375 40.703125 C146.60753204 39.48728729 146.60753204 39.48728729 146.60565186 38.24688721 C146.51619537 34.79682729 146.27521273 32.43008274 144.39648438 29.49414062 C141.16996765 27.48249817 138.83851157 27.45489003 135.046875 27.390625 C134.38665344 27.37408875 133.72643188 27.35755249 133.04620361 27.34051514 C130.94737374 27.29211549 128.84926778 27.27068481 126.75 27.25 C125.3228804 27.22183317 123.89579441 27.19190472 122.46875 27.16015625 C118.97932391 27.08636237 115.49003528 27.03673721 112 27 C111.505 28.485 111.505 28.485 111 30 C111 29.34 111 28.68 111 28 C109.94425781 28.80050781 109.94425781 28.80050781 108.8671875 29.6171875 C106.18686921 31.6396731 103.49988328 33.65235923 100.80566406 35.65625 C99.59771571 36.55518831 98.39134268 37.45624717 97.18652344 38.359375 C95.38157365 39.70800092 93.56709292 41.04279573 91.75 42.375 C91.19683105 42.79120605 90.64366211 43.20741211 90.07373047 43.63623047 C84.00065149 48.04697687 78.02852338 50.43088483 70.4375 50.375 C69.38433594 50.38273437 68.33117187 50.39046875 67.24609375 50.3984375 C59.95938718 49.5040403 54.54098617 45.47948555 48.80664062 41.22851562 C40.75331751 35.42353302 32.48920828 34.8779706 22.8359375 36.32421875 C15.68693213 38.46892036 9.69357945 44.3739667 4 49 C1.65437948 45.48156922 1.625447 43.63636125 1.3671875 39.453125 C1.32562531 38.80486755 1.28406311 38.15661011 1.24124146 37.4887085 C1.15476521 36.1104095 1.07267431 34.73182942 0.99462891 33.35302734 C0.87775192 31.29837757 0.74681414 29.24503287 0.61328125 27.19140625 C0.05460661 18.09097939 0 9.15717738 0 0 Z " fill="#EDC07B" transform="translate(308,373)"/>
<path d="M0 0 C0.91417694 -0.0065712 1.82835388 -0.0131424 2.77023315 -0.01991272 C5.79970379 -0.03964424 8.82912483 -0.05130895 11.85864258 -0.0612793 C12.89399958 -0.06535482 13.92935658 -0.06943035 14.99608803 -0.07362938 C20.47769598 -0.09449099 25.9592789 -0.10879148 31.44091797 -0.11816406 C37.09568109 -0.12921962 42.75004974 -0.16360965 48.40467358 -0.20333576 C52.75851662 -0.22951619 57.11226596 -0.23785726 61.4661808 -0.24144554 C63.55011975 -0.24630896 65.63405458 -0.25791592 67.71791649 -0.27648354 C70.64038447 -0.30090154 73.56183566 -0.29990478 76.484375 -0.29296875 C77.33921982 -0.30577881 78.19406464 -0.31858887 79.07481384 -0.33178711 C85.60957017 -0.2754896 91.1585838 1.30694492 95.90551758 5.9934082 C96.44885742 6.85772461 96.44885742 6.85772461 97.00317383 7.73950195 C97.38344727 8.31829102 97.7637207 8.89708008 98.15551758 9.4934082 C104.92848887 22.02195166 100.06567383 37.93489743 100.06567383 52.17700195 C59.80567383 52.17700195 19.54567383 52.17700195 -21.93432617 52.17700195 C-21.93432617 10.53886014 -21.93432617 10.53886014 -16.33666992 4.43481445 C-10.86628702 0.20438501 -6.71189061 0.02086513 0 0 Z " fill="#4A4A56" transform="translate(112.934326171875,268.822998046875)"/>
<path d="M0 0 C14.56062564 -0.07025278 29.12122867 -0.12306755 43.68198967 -0.15543652 C50.4436499 -0.17086917 57.20520448 -0.19188922 63.96679688 -0.22631836 C70.49608078 -0.25954861 77.02529631 -0.27687012 83.5546608 -0.28463173 C86.04164478 -0.29016077 88.52862299 -0.30095756 91.01556015 -0.31719017 C94.50773678 -0.33907086 97.99946471 -0.34196242 101.49169922 -0.34057617 C102.51237991 -0.351362 103.53306061 -0.36214783 104.58467102 -0.3732605 C113.98978158 -0.3330482 122.33280541 1.23431742 129.23828125 7.9296875 C134.59560268 14.22543109 136.93800685 20.62112654 136.54296875 28.90625 C135.24301039 36.31320701 131.94174324 42.91731112 126 47.625 C120.44114385 51.4467136 114.82111445 52.29474259 108.1953125 52.1953125 C107.55263428 52.19329834 106.90995605 52.19128418 106.24780273 52.18920898 C103.87346135 52.17883578 101.49922263 52.15091395 99.125 52.125 C93.80375 52.08375 88.4825 52.0425 83 52 C83 35.17 83 18.34 83 1 C55.61 1 28.22 1 0 1 C0 0.67 0 0.34 0 0 Z " fill="#DBAC6F" transform="translate(94,425)"/>
<path d="M0 0 C46.2 0 92.4 0 140 0 C140 5.94 140 11.88 140 18 C93.8 18 47.6 18 0 18 C0 12.06 0 6.12 0 0 Z " fill="#4A4A56" transform="translate(82,0)"/>
<path d="M0 0 C0.66435059 0.00201416 1.32870117 0.00402832 2.01318359 0.00610352 C4.48281814 0.01652748 6.95235387 0.04445005 9.421875 0.0703125 C14.949375 0.1115625 20.476875 0.1528125 26.171875 0.1953125 C26.171875 17.0253125 26.171875 33.8553125 26.171875 51.1953125 C18.56125 51.35 18.56125 51.35 10.796875 51.5078125 C9.21729004 51.55333252 7.63770508 51.59885254 6.01025391 51.64575195 C-3.18549858 51.73586079 -10.63304734 50.88735982 -17.72167969 44.48510742 C-23.2643065 38.73301069 -24.98075419 32.61022106 -25.328125 24.7578125 C-25.12105532 17.29467626 -23.02780539 12.4963689 -17.85546875 7.16015625 C-11.964635 1.7978459 -8.0605626 -0.11556688 0 0 Z " fill="#F6D188" transform="translate(98.828125,425.8046875)"/>
<path d="M0 0 C6.31151272 0.62141432 11.95253204 2.49708338 17.9296875 4.5625 C18.96062531 4.9138501 19.99156311 5.2652002 21.05374146 5.62719727 C23.22140228 6.36734507 25.38804318 7.11048592 27.55371094 7.85644531 C30.88238045 9.00254117 34.21431215 10.13871848 37.546875 11.2734375 C39.65384335 11.99421455 41.76062111 12.71554902 43.8671875 13.4375 C44.86813446 13.77918213 45.86908142 14.12086426 46.90036011 14.47290039 C47.81866608 14.7899292 48.73697205 15.10695801 49.68310547 15.43359375 C50.90052933 15.85209595 50.90052933 15.85209595 52.14254761 16.27905273 C54 17 54 17 55 18 C55.08851529 20.59359322 55.11525945 23.16039691 55.09765625 25.75390625 C55.0962413 26.52935287 55.09482635 27.3047995 55.09336853 28.10374451 C55.08775345 30.59003494 55.07519846 33.0762366 55.0625 35.5625 C55.05748694 37.24413933 55.0529237 38.92578006 55.04882812 40.60742188 C55.03777913 44.73831566 55.02050445 48.86914276 55 53 C48.63241019 52.33623375 42.76872497 50.55157726 36.66796875 48.65625 C35.59501053 48.32709595 34.52205231 47.99794189 33.4165802 47.65881348 C31.15920888 46.96525891 28.90260404 46.26920528 26.64672852 45.57080078 C23.18346634 44.49875138 19.71794825 43.4342704 16.25195312 42.37109375 C14.05715691 41.69575029 11.86249079 41.01998386 9.66796875 40.34375 C8.62843552 40.02394165 7.58890228 39.7041333 6.51786804 39.37463379 C5.5595961 39.07762573 4.60132416 38.78061768 3.61401367 38.47460938 C2.76908859 38.2133728 1.92416351 37.95213623 1.05363464 37.6829834 C-1 37 -1 37 -3 36 C-3.24634228 28.01896637 -2.47935115 20.28921607 -1.5 12.375 C-1.35691406 11.18003906 -1.21382812 9.98507812 -1.06640625 8.75390625 C-0.71616907 5.83526309 -0.36059639 2.91737822 0 0 Z " fill="#D6D7D8" transform="translate(254,277)"/>
<path d="M0 0 C1.25554687 -0.01224609 2.51109375 -0.02449219 3.8046875 -0.03710938 C14.35992937 -0.05370567 23.44622569 0.21035575 31.3515625 8.015625 C37.76078747 14.92598279 38.80230261 20.7598928 38.6953125 29.9609375 C38.6924826 30.8846817 38.68965271 31.8084259 38.68673706 32.76016235 C38.67559179 35.69440976 38.65049765 38.6283457 38.625 41.5625 C38.61496289 43.55858932 38.60583832 45.55468346 38.59765625 47.55078125 C38.57737728 52.42990243 38.53821785 57.30835483 38.5 62.1875 C32.56 62.1875 26.62 62.1875 20.5 62.1875 C20.47421875 59.49078125 20.4484375 56.7940625 20.421875 54.015625 C20.38345109 51.40093593 20.3382921 48.78644383 20.29248047 46.171875 C20.2642729 44.35621561 20.24305726 42.54043348 20.22900391 40.72460938 C20.20757091 38.11264211 20.16092115 35.50215026 20.109375 32.890625 C20.10814636 32.08006653 20.10691772 31.26950806 20.10565186 30.43438721 C20.01619537 26.98432729 19.77521273 24.61758274 17.89648438 21.68164062 C14.66996765 19.66999817 12.33851157 19.64239003 8.546875 19.578125 C7.88665344 19.56158875 7.22643188 19.54505249 6.54620361 19.52801514 C4.44737374 19.47961549 2.34926778 19.45818481 0.25 19.4375 C-1.1771196 19.40933317 -2.60420559 19.37940472 -4.03125 19.34765625 C-7.52067609 19.27386237 -11.00996472 19.22423721 -14.5 19.1875 C-15.72290887 15.5187734 -15.40961616 12.34789487 -15.125 8.5625 C-15.08117187 7.86898438 -15.03734375 7.17546875 -14.9921875 6.4609375 C-14.34421828 -2.75462476 -7.94797444 0.00398195 0 0 Z " fill="#DDAD6F" transform="translate(434.5,380.8125)"/>
<path d="M0 0 C0.66 0.33 1.32 0.66 2 1 C-0.31 3.31 -2.62 5.62 -5 8 C-5 5 -5 5 -2.5 2.3125 C-1.675 1.549375 -0.85 0.78625 0 0 Z " fill="#878A99" transform="translate(47,123)"/>
</svg>
