<?xml version="1.0" encoding="UTF-8"?>
<svg version="1.1" xmlns="http://www.w3.org/2000/svg" width="512" height="512">
<path d="M0 0 C1.97920908 -0.00573832 1.97920908 -0.00573832 3.99840218 -0.01159257 C7.64569034 -0.02185067 11.29287997 -0.01969636 14.94017613 -0.01541197 C18.87958716 -0.01294079 22.8189747 -0.02196374 26.75837708 -0.02944946 C34.46997711 -0.04218723 42.18154231 -0.04399133 49.8931511 -0.0416492 C56.16195679 -0.03986498 62.43075192 -0.0416179 68.69955635 -0.04587364 C70.03869523 -0.04676643 70.03869523 -0.04676643 71.40488743 -0.04767724 C73.21861457 -0.04888901 75.03234172 -0.05010315 76.84606887 -0.05131962 C93.84809565 -0.06219144 110.85010258 -0.06003426 127.85213048 -0.05393478 C143.40079619 -0.04876497 158.94939927 -0.06002338 174.49805259 -0.07903299 C190.47108053 -0.09841147 206.44407884 -0.10666744 222.41711861 -0.10290974 C231.38172185 -0.10099784 240.34627176 -0.10348431 249.3108654 -0.11762428 C256.94181614 -0.12953911 264.57268072 -0.13094177 272.20363265 -0.11883412 C276.09539632 -0.11294637 279.9870024 -0.11184308 283.87875557 -0.12383652 C287.44477314 -0.13469826 291.01050161 -0.13158872 294.57650567 -0.11757483 C296.47029153 -0.11367989 298.36409026 -0.1244726 300.25784582 -0.13587171 C308.28425647 -0.08504882 315.64353931 0.58168538 322.2111969 5.57319641 C326.77597744 10.2466622 328.21073514 14.38735468 328.22438049 20.86103821 C328.23383698 22.15225082 328.24329346 23.44346344 328.2530365 24.77380371 C328.24766803 26.16917735 328.24151539 27.56454816 328.2346344 28.95991516 C328.23665709 30.40147041 328.23957015 31.84302466 328.24333191 33.28457642 C328.24774188 36.29632877 328.24136452 39.30781321 328.22731018 42.3195343 C328.21017243 46.18001576 328.22009624 50.03987356 328.23802757 53.90033245 C328.24886216 56.87289136 328.24542145 59.84530203 328.2376442 62.81786537 C328.23564366 64.24163194 328.23809635 65.66541199 328.24508286 67.08916283 C328.25269613 69.07561868 328.23903579 71.06212182 328.22438049 73.04853821 C328.22199371 74.17849716 328.21960693 75.30845612 328.21714783 76.47265625 C327.8361969 79.26069641 327.8361969 79.26069641 326.56193542 81.1489563 C324.8361969 82.26069641 324.8361969 82.26069641 320.8361969 82.26069641 C320.8361969 88.86069641 320.8361969 95.46069641 320.8361969 102.26069641 C322.4861969 102.59069641 324.1361969 102.92069641 325.8361969 103.26069641 C327.9284334 106.39905117 328.08931907 107.12988759 328.11035156 110.70568848 C328.12032669 111.61539398 328.13030182 112.52509949 328.14057922 113.46237183 C328.1412439 114.45824814 328.14190857 115.45412445 328.14259338 116.48017883 C328.1509169 117.53090576 328.15924042 118.58163269 328.16781616 119.66419983 C328.19196946 123.14822568 328.20069597 126.63206438 328.20729065 130.11616516 C328.2162547 132.53651995 328.2253765 134.95687416 328.23464966 137.37722778 C328.25115795 142.45729418 328.25884282 147.53729455 328.26173401 152.61738586 C328.26711186 159.11971554 328.30476029 165.62142221 328.35047817 172.12357616 C328.38025997 177.12595875 328.38745787 182.12819176 328.38846016 187.13065529 C328.39266214 189.52719786 328.40509541 191.92374088 328.42597771 194.32019615 C328.45290645 197.67867261 328.44806037 201.03571115 328.43556213 204.39424133 C328.45781357 205.87287407 328.45781357 205.87287407 328.48051453 207.38137817 C328.41155079 213.90650719 327.02242765 218.19773191 322.8361969 223.26069641 C315.70200581 229.48689955 306.72247989 228.79387339 297.8361969 228.26069641 C297.85714417 228.89048401 297.87809143 229.52027161 297.89967346 230.16914368 C297.98339789 233.05366212 298.03503311 235.93792409 298.0861969 238.82319641 C298.13647034 240.30916321 298.13647034 240.30916321 298.1877594 241.82514954 C298.27276858 248.22209039 297.88112583 252.19148709 293.8361969 257.26069641 C287.71550305 261.79513311 282.45236993 261.8477754 274.98854065 261.79194641 C273.85848099 261.79577332 272.72842133 261.79960022 271.56411743 261.80354309 C269.18304042 261.80625679 266.80193332 261.79893378 264.4209137 261.78218079 C260.78197187 261.76074516 257.14499994 261.78201298 253.50611877 261.80757141 C251.18775506 261.80492843 248.86939256 261.79980407 246.55104065 261.79194641 C245.46653122 261.80004333 244.38202179 261.80814026 243.26464844 261.81648254 C237.14845396 261.74073158 233.46092878 261.39819564 228.8361969 257.26069641 C221.32737487 247.31658074 223.8361969 243.48122088 223.8361969 228.26069641 C174.0061969 228.26069641 124.1761969 228.26069641 72.8361969 228.26069641 C72.8361969 234.86069641 72.8361969 241.46069641 72.8361969 248.26069641 C67.8361969 258.26069641 67.8361969 258.26069641 61.8361969 261.26069641 C60.20907421 261.37117503 58.57756369 261.41982562 56.9467926 261.43769836 C55.9284584 261.4505336 54.91012421 261.46336884 53.8609314 261.47659302 C52.75577682 261.48397995 51.65062225 261.49136688 50.51197815 261.49897766 C49.37721542 261.50704941 48.2424527 261.51512115 47.07330322 261.5234375 C44.66656527 261.5372885 42.25980759 261.54800609 39.8530426 261.55586243 C36.18102951 261.57304512 32.50992358 261.61692015 28.83815002 261.66108704 C26.50026602 261.67121642 24.16237436 261.67973175 21.82447815 261.68647766 C20.72944473 261.70398575 19.63441132 261.72149384 18.50619507 261.73953247 C12.04668235 261.7212578 8.06439499 261.15754466 2.8361969 257.26069641 C-1.84674551 251.39191214 -1.66088093 246.12624693 -1.4138031 238.82319641 C-1.39575623 237.80548157 -1.37770935 236.78776672 -1.3591156 235.73921204 C-1.31228307 233.24537986 -1.24671737 230.75354594 -1.1638031 228.26069641 C-2.1538031 228.30710266 -3.1438031 228.35350891 -4.1638031 228.40132141 C-18.49866157 228.87872647 -18.49866157 228.87872647 -24.1638031 224.26069641 C-28.44224568 220.11418818 -31.05754713 216.95192499 -31.30081749 210.7904253 C-31.31155578 209.313976 -31.31674129 207.83748047 -31.31770325 206.36099243 C-31.3220855 205.54736321 -31.32646775 204.73373399 -31.3309828 203.89544934 C-31.34437473 201.15953003 -31.35055056 198.42364292 -31.35667419 195.68769836 C-31.36457487 193.72981622 -31.3728438 191.77193554 -31.38145447 189.8140564 C-31.40767916 183.37571098 -31.42298282 176.93735904 -31.4372406 170.49897766 C-31.44260014 168.28304223 -31.44797765 166.06710684 -31.45337296 163.85117149 C-31.47500256 154.63362472 -31.49373934 145.41607971 -31.50499535 136.19851398 C-31.52123481 122.98663384 -31.55441184 109.77504777 -31.61139619 96.5632785 C-31.65009322 87.27484707 -31.66962779 77.98649432 -31.67491591 68.6979844 C-31.67856973 63.14986452 -31.69059465 57.60205829 -31.72301865 52.05402565 C-31.75309474 46.83286079 -31.75941257 41.61219942 -31.74763489 36.39096642 C-31.74741412 34.47697447 -31.75572222 32.56295919 -31.77328873 30.64904785 C-31.79600977 28.03053457 -31.78767252 25.41384252 -31.77180481 22.7953186 C-31.7856869 22.04247804 -31.79956898 21.28963747 -31.81387174 20.51398355 C-31.71044717 13.56069273 -28.62644899 8.78990029 -23.8513031 3.88569641 C-16.52379129 -0.54489212 -8.28473405 -0.02551113 0 0 Z " fill="#798B97" transform="translate(184.16380310058594,250.7393035888672)"/>
<path d="M0 0 C1.09073822 -0.00860046 2.18147644 -0.01720093 3.30526733 -0.02606201 C4.50222229 -0.03032196 5.69917725 -0.03458191 6.93240356 -0.03897095 C8.19277435 -0.04714844 9.45314514 -0.05532593 10.75170898 -0.06375122 C14.93187327 -0.08993733 19.11204742 -0.10527278 23.29226685 -0.11953735 C24.73190441 -0.12489794 26.17154191 -0.13027545 27.61117935 -0.13566971 C33.59897685 -0.15729106 39.58677168 -0.17602847 45.57459831 -0.1872921 C54.15416877 -0.20353807 62.73328687 -0.23673938 71.3126868 -0.29369295 C77.34674585 -0.332384 83.38068385 -0.3519236 89.41486371 -0.35721266 C93.01849981 -0.36086659 96.62165308 -0.37289144 100.22515488 -0.4053154 C104.24503281 -0.44096904 108.26393692 -0.43702745 112.28396606 -0.42959595 C113.47687256 -0.44600128 114.66977905 -0.46240662 115.89883423 -0.47930908 C123.85997729 -0.41890598 123.85997729 -0.41890598 127.95343018 2.25286865 C130.02443521 5.62032858 130.28245928 8.26603239 130.73757935 12.15390015 C131.41664325 12.15238127 132.09570716 12.15086238 132.79534876 12.14929748 C173.02816981 12.05981567 213.26097803 11.99116935 253.4938784 11.94963883 C258.32299633 11.94463591 263.15211406 11.93945863 267.98123169 11.93417358 C268.94263578 11.93312434 269.90403988 11.9320751 270.89457743 11.93099406 C286.46841759 11.91358138 302.04219878 11.88203894 317.61600395 11.84528896 C333.59214456 11.80790356 349.56825425 11.78566938 365.54443681 11.77754617 C375.40530136 11.77205341 385.26599925 11.75469527 395.1268125 11.72223428 C401.88564154 11.70111603 408.64438421 11.694694 415.40324385 11.69989464 C419.30476491 11.70246062 423.20599441 11.69848392 427.10746384 11.67707825 C430.67924916 11.6576243 434.25054666 11.65662218 437.82235436 11.67030457 C439.72671537 11.67279704 441.63107058 11.65553451 443.53534853 11.63757491 C449.86645294 11.68205458 454.00351584 11.7437264 458.73757935 16.15390015 C462.03502578 21.1000698 461.06517955 26.71834119 461.05007935 32.52890015 C461.06619263 33.7612439 461.08230591 34.99358765 461.09890747 36.26327515 C461.099552 37.45179077 461.10019653 38.6403064 461.1008606 39.86483765 C461.10533203 41.49364868 461.10533203 41.49364868 461.1098938 43.15536499 C460.68591097 46.57002536 459.78438634 48.40981603 457.73757935 51.15390015 C454.31663693 53.43452842 453.05570712 53.37315021 449.05007935 53.27890015 C448.05621216 53.26085327 447.06234497 53.2428064 446.0383606 53.22421265 C444.89947388 53.18940796 444.89947388 53.18940796 443.73757935 53.15390015 C443.74218831 53.97958685 443.74679728 54.80527355 443.75154591 55.65598106 C443.86209517 75.77136145 443.94476999 95.88668929 443.99664021 116.0023098 C444.02239273 125.73019718 444.05748669 135.45788144 444.11477661 145.18563843 C444.16470209 153.66698586 444.19689181 162.14818616 444.20802182 170.62967646 C444.21452513 175.11825636 444.22974778 179.60641541 444.26622963 184.09486008 C444.30033392 188.3253256 444.31060345 192.55519955 444.30311775 196.78578949 C444.30448589 198.33290199 444.31433244 199.88003562 444.33360672 201.42702866 C444.43839554 210.27658622 444.00681266 217.69583899 438.73757935 225.15390015 C436.38601685 227.4078064 436.38601685 227.4078064 434.11257935 228.71640015 C433.35718872 229.17143921 432.6017981 229.62647827 431.82351685 230.0953064 C428.61566532 231.72326101 426.05377002 232.27989256 422.5076437 232.29091454 C421.64047204 232.29598908 420.77330039 232.30106362 419.8798508 232.30629194 C418.9265644 232.3067897 417.973278 232.30728745 416.99110413 232.30780029 C415.47263589 232.31437367 415.47263589 232.31437367 413.92349154 232.32107985 C410.51508341 232.33448553 407.10670116 232.34065073 403.69827271 232.34677124 C401.26088341 232.35467089 398.82349528 232.36293975 396.3861084 232.37155151 C389.05910878 232.39552428 381.73211343 232.41070314 374.40508804 232.42361158 C372.33487989 232.42732427 370.26467241 232.43129746 368.19446492 232.43536425 C355.3338505 232.4606046 342.473235 232.4826539 329.61260128 232.49509239 C326.63383416 232.49802201 323.65506708 232.50098368 320.67630005 232.5039978 C319.93595658 232.50474385 319.19561311 232.5054899 318.43283499 232.50625856 C306.44753537 232.51890426 294.46238437 232.55211672 282.47715419 232.59379964 C270.16665485 232.63626201 257.85623149 232.65979249 245.54565912 232.66501296 C238.63599428 232.66842251 231.72656156 232.68012336 224.81696892 232.71311569 C218.31381533 232.74411664 211.81095508 232.74950887 205.30773544 232.73773193 C202.92372061 232.73751117 200.53968704 232.74581863 198.15573692 232.76338577 C194.89432008 232.78610621 191.63436546 232.77776763 188.37294006 232.76190186 C187.43526871 232.77578394 186.49759736 232.78966603 185.53151172 232.80396879 C178.67529181 232.72210586 173.51584824 230.85325998 167.73757935 227.15390015 C165.4836731 224.80233765 165.4836731 224.80233765 164.17507935 222.52890015 C163.72004028 221.77350952 163.26500122 221.0181189 162.7961731 220.23983765 C160.761959 216.23146006 160.61388885 213.08570671 160.61732483 208.64299011 C160.61604319 207.64684198 160.61604319 207.64684198 160.61473566 206.63056964 C160.61308607 204.40109589 160.61859373 202.17169706 160.62405396 199.94223022 C160.62433596 198.34574892 160.62417782 196.74926748 160.62361145 195.15278625 C160.62332401 190.81424798 160.62921208 186.47573723 160.63618541 182.13720536 C160.64242787 177.60482309 160.64302345 173.07244023 160.64421082 168.54005432 C160.64732149 159.95531766 160.65553134 151.37059369 160.66556031 142.78586262 C160.67672961 133.01330842 160.68223396 123.24075361 160.68725574 113.4681946 C160.69771416 93.36342112 160.71605638 73.25866505 160.73757935 53.15390015 C150.83757935 53.15390015 140.93757935 53.15390015 130.73757935 53.15390015 C130.07757935 56.12390015 129.41757935 59.09390015 128.73757935 62.15390015 C125.12254823 65.76893126 123.0513856 66.27171281 118.16189575 66.3309021 C116.77498032 66.35015495 116.77498032 66.35015495 115.36004639 66.36979675 C114.36314789 66.37718369 113.36624939 66.38457062 112.33914185 66.3921814 C111.31203094 66.40025314 110.28492004 66.40832489 109.22668457 66.41664124 C107.05292445 66.43047337 104.87914268 66.44119942 102.70535278 66.44906616 C99.3823439 66.46629766 96.06032515 66.51019443 92.73757935 66.55429077 C90.62560749 66.56441627 88.51362719 66.57293282 86.40164185 66.5796814 C85.40879181 66.59718948 84.41594177 66.61469757 83.39300537 66.63273621 C79.04724586 66.61907887 76.4171141 66.53516263 72.57107544 64.37728882 C70.73757935 62.15390015 70.73757935 62.15390015 70.73757935 58.15390015 C64.13757935 58.15390015 57.53757935 58.15390015 50.73757935 58.15390015 C50.40757935 59.80390015 50.07757935 61.45390015 49.73757935 63.15390015 C47.69311507 65.2210121 46.37087366 66.04600441 43.50158691 66.53485107 C42.68791656 66.53723785 41.87424622 66.53962463 41.03591919 66.54208374 C39.64329361 66.55626846 39.64329361 66.55626846 38.22253418 66.57073975 C37.22460846 66.56466705 36.22668274 66.55859436 35.19851685 66.55233765 C34.16248322 66.55520782 33.12644958 66.558078 32.059021 66.56103516 C29.86511693 66.56307638 27.67119468 66.55754248 25.47732544 66.54501343 C22.14568444 66.52905868 18.81527472 66.54480999 15.4836731 66.5640564 C13.3469517 66.56207207 11.21023106 66.55822448 9.07351685 66.55233765 C8.08773651 66.55841034 7.10195618 66.56448303 6.08630371 66.57073975 C-4.30145075 66.46704662 -13.25774363 63.94714138 -21.26242065 57.15390015 C-28.58769139 49.42877838 -30.77839463 41.60192646 -30.67990112 31.15560913 C-30.32484131 21.59020855 -27.07428388 15.04464166 -20.5553894 8.1343689 C-14.73572739 3.10784651 -7.676599 0.04505591 0 0 Z M176.73757935 53.15390015 C176.73757935 61.73390015 176.73757935 70.31390015 176.73757935 79.15390015 C189.27757935 79.15390015 201.81757935 79.15390015 214.73757935 79.15390015 C214.73757935 70.57390015 214.73757935 61.99390015 214.73757935 53.15390015 C202.19757935 53.15390015 189.65757935 53.15390015 176.73757935 53.15390015 Z M229.73757935 53.15390015 C229.73757935 61.73390015 229.73757935 70.31390015 229.73757935 79.15390015 C242.27757935 79.15390015 254.81757935 79.15390015 267.73757935 79.15390015 C267.73757935 70.57390015 267.73757935 61.99390015 267.73757935 53.15390015 C255.19757935 53.15390015 242.65757935 53.15390015 229.73757935 53.15390015 Z M283.73757935 53.15390015 C283.73757935 61.73390015 283.73757935 70.31390015 283.73757935 79.15390015 C296.27757935 79.15390015 308.81757935 79.15390015 321.73757935 79.15390015 C321.73757935 70.57390015 321.73757935 61.99390015 321.73757935 53.15390015 C309.19757935 53.15390015 296.65757935 53.15390015 283.73757935 53.15390015 Z M336.73757935 53.15390015 C336.73757935 61.73390015 336.73757935 70.31390015 336.73757935 79.15390015 C349.44694388 80.11309747 361.98794441 80.23358536 374.73757935 80.15390015 C374.73757935 71.24390015 374.73757935 62.33390015 374.73757935 53.15390015 C362.19757935 53.15390015 349.65757935 53.15390015 336.73757935 53.15390015 Z M390.73757935 53.15390015 C390.73757935 62.06390015 390.73757935 70.97390015 390.73757935 80.15390015 C402.94757935 80.15390015 415.15757935 80.15390015 427.73757935 80.15390015 C427.73757935 71.24390015 427.73757935 62.33390015 427.73757935 53.15390015 C415.52757935 53.15390015 403.31757935 53.15390015 390.73757935 53.15390015 Z M176.73757935 95.15390015 C176.73757935 105.05390015 176.73757935 114.95390015 176.73757935 125.15390015 C188.94757935 125.15390015 201.15757935 125.15390015 213.73757935 125.15390015 C214.83669483 121.85655369 214.85152494 119.4243127 214.8352356 115.9546814 C214.83273804 114.86582642 214.83024048 113.77697144 214.82766724 112.65512085 C214.81856323 111.27284302 214.80945923 109.89056519 214.80007935 108.46640015 C214.77945435 104.07327515 214.75882935 99.68015015 214.73757935 95.15390015 C202.19757935 95.15390015 189.65757935 95.15390015 176.73757935 95.15390015 Z M229.73757935 95.15390015 C229.73757935 105.05390015 229.73757935 114.95390015 229.73757935 125.15390015 C242.27757935 125.15390015 254.81757935 125.15390015 267.73757935 125.15390015 C267.73757935 115.25390015 267.73757935 105.35390015 267.73757935 95.15390015 C255.19757935 95.15390015 242.65757935 95.15390015 229.73757935 95.15390015 Z M283.73757935 95.15390015 C283.40757935 105.05390015 283.07757935 114.95390015 282.73757935 125.15390015 C295.27757935 125.15390015 307.81757935 125.15390015 320.73757935 125.15390015 C322.14670031 122.33565823 321.84941487 119.98138733 321.8352356 116.83358765 C321.83273804 115.70162964 321.83024048 114.56967163 321.82766724 113.40341187 C321.81856323 111.959823 321.80945923 110.51623413 321.80007935 109.02890015 C321.77945435 104.45015015 321.75882935 99.87140015 321.73757935 95.15390015 C309.19757935 95.15390015 296.65757935 95.15390015 283.73757935 95.15390015 Z M336.73757935 95.15390015 C336.73757935 105.05390015 336.73757935 114.95390015 336.73757935 125.15390015 C349.27757935 125.15390015 361.81757935 125.15390015 374.73757935 125.15390015 C374.73757935 115.25390015 374.73757935 105.35390015 374.73757935 95.15390015 C362.19757935 95.15390015 349.65757935 95.15390015 336.73757935 95.15390015 Z M390.73757935 95.15390015 C390.40757935 105.05390015 390.07757935 114.95390015 389.73757935 125.15390015 C402.27757935 125.15390015 414.81757935 125.15390015 427.73757935 125.15390015 C427.73757935 115.25390015 427.73757935 105.35390015 427.73757935 95.15390015 C415.52757935 95.15390015 403.31757935 95.15390015 390.73757935 95.15390015 Z M176.73757935 140.15390015 C176.73757935 150.38390015 176.73757935 160.61390015 176.73757935 171.15390015 C188.94757935 171.15390015 201.15757935 171.15390015 213.73757935 171.15390015 C213.73757935 160.92390015 213.73757935 150.69390015 213.73757935 140.15390015 C201.52757935 140.15390015 189.31757935 140.15390015 176.73757935 140.15390015 Z M229.73757935 140.15390015 C229.73757935 150.38390015 229.73757935 160.61390015 229.73757935 171.15390015 C242.27757935 171.15390015 254.81757935 171.15390015 267.73757935 171.15390015 C267.73757935 160.92390015 267.73757935 150.69390015 267.73757935 140.15390015 C255.19757935 140.15390015 242.65757935 140.15390015 229.73757935 140.15390015 Z M282.73757935 140.15390015 C282.73757935 150.38390015 282.73757935 160.61390015 282.73757935 171.15390015 C295.27757935 171.15390015 307.81757935 171.15390015 320.73757935 171.15390015 C320.73757935 161.25390015 320.73757935 151.35390015 320.73757935 141.15390015 C308.034013 140.10618333 295.48886876 140.07844873 282.73757935 140.15390015 Z M336.73757935 141.15390015 C336.73757935 151.05390015 336.73757935 160.95390015 336.73757935 171.15390015 C349.27757935 171.15390015 361.81757935 171.15390015 374.73757935 171.15390015 C374.73757935 161.25390015 374.73757935 151.35390015 374.73757935 141.15390015 C362.19757935 141.15390015 349.65757935 141.15390015 336.73757935 141.15390015 Z M389.73757935 141.15390015 C389.73757935 151.05390015 389.73757935 160.95390015 389.73757935 171.15390015 C402.27757935 171.15390015 414.81757935 171.15390015 427.73757935 171.15390015 C427.73757935 161.25390015 427.73757935 151.35390015 427.73757935 141.15390015 C415.19757935 141.15390015 402.65757935 141.15390015 389.73757935 141.15390015 Z M176.73757935 186.15390015 C176.65507935 190.36140015 176.57257935 194.56890015 176.48757935 198.90390015 C176.45116333 200.22486694 176.41474731 201.54583374 176.37722778 202.90682983 C176.36723755 203.95258179 176.35724731 204.99833374 176.34695435 206.07577515 C176.32600708 207.14408569 176.30505981 208.21239624 176.28347778 209.31307983 C176.54830875 212.21722284 176.54830875 212.21722284 178.28640747 214.5093689 C181.60681914 216.73708732 184.48915574 216.6581104 188.34695435 216.54452515 C189.07376404 216.53886536 189.80057373 216.53320557 190.54940796 216.52737427 C192.8628118 216.50504568 195.17464655 216.45486063 197.48757935 216.40390015 C199.0591715 216.38383038 200.63078802 216.36558044 202.2024231 216.34921265 C206.04856073 216.30859873 209.89132147 216.23031587 213.73757935 216.15390015 C213.73757935 206.25390015 213.73757935 196.35390015 213.73757935 186.15390015 C201.52757935 186.15390015 189.31757935 186.15390015 176.73757935 186.15390015 Z M229.73757935 186.15390015 C229.73757935 196.05390015 229.73757935 205.95390015 229.73757935 216.15390015 C242.27757935 216.15390015 254.81757935 216.15390015 267.73757935 216.15390015 C267.73757935 206.25390015 267.73757935 196.35390015 267.73757935 186.15390015 C255.19757935 186.15390015 242.65757935 186.15390015 229.73757935 186.15390015 Z M282.73757935 186.15390015 C282.73757935 196.05390015 282.73757935 205.95390015 282.73757935 216.15390015 C295.27757935 216.15390015 307.81757935 216.15390015 320.73757935 216.15390015 C320.73757935 206.25390015 320.73757935 196.35390015 320.73757935 186.15390015 C308.19757935 186.15390015 295.65757935 186.15390015 282.73757935 186.15390015 Z M336.73757935 186.15390015 C336.73757935 196.05390015 336.73757935 205.95390015 336.73757935 216.15390015 C349.27757935 216.15390015 361.81757935 216.15390015 374.73757935 216.15390015 C374.73757935 206.25390015 374.73757935 196.35390015 374.73757935 186.15390015 C362.19757935 186.15390015 349.65757935 186.15390015 336.73757935 186.15390015 Z M389.73757935 186.15390015 C389.73757935 196.05390015 389.73757935 205.95390015 389.73757935 216.15390015 C394.50742641 216.24582439 399.27419221 216.32542514 404.04421997 216.37362671 C405.66607078 216.39372158 407.28784932 216.42100269 408.90945435 216.45565796 C411.24296915 216.50427285 413.57552492 216.52688903 415.90945435 216.54452515 C416.6325177 216.56517029 417.35558105 216.58581543 418.10055542 216.60708618 C421.41559916 216.60855818 423.41882813 216.36656934 426.2024231 214.5093689 C428.16770871 211.49393067 428.19847561 209.65960949 428.12820435 206.07577515 C428.11821411 205.03002319 428.10822388 203.98427124 428.09793091 202.90682983 C428.06151489 201.58586304 428.02509888 200.26489624 427.98757935 198.90390015 C427.90507935 194.69640015 427.82257935 190.48890015 427.73757935 186.15390015 C415.19757935 186.15390015 402.65757935 186.15390015 389.73757935 186.15390015 Z " fill="#000000" transform="translate(30.262420654296875,-0.153900146484375)"/>
<path d="M0 0 C1.97920908 -0.00573832 1.97920908 -0.00573832 3.99840218 -0.01159257 C7.64569034 -0.02185067 11.29287997 -0.01969636 14.94017613 -0.01541197 C18.87958716 -0.01294079 22.8189747 -0.02196374 26.75837708 -0.02944946 C34.46997711 -0.04218723 42.18154231 -0.04399133 49.8931511 -0.0416492 C56.16195679 -0.03986498 62.43075192 -0.0416179 68.69955635 -0.04587364 C70.03869523 -0.04676643 70.03869523 -0.04676643 71.40488743 -0.04767724 C73.21861457 -0.04888901 75.03234172 -0.05010315 76.84606887 -0.05131962 C93.84809565 -0.06219144 110.85010258 -0.06003426 127.85213048 -0.05393478 C143.40079619 -0.04876497 158.94939927 -0.06002338 174.49805259 -0.07903299 C190.47108053 -0.09841147 206.44407884 -0.10666744 222.41711861 -0.10290974 C231.38172185 -0.10099784 240.34627176 -0.10348431 249.3108654 -0.11762428 C256.94181614 -0.12953911 264.57268072 -0.13094177 272.20363265 -0.11883412 C276.09539632 -0.11294637 279.9870024 -0.11184308 283.87875557 -0.12383652 C287.44477314 -0.13469826 291.01050161 -0.13158872 294.57650567 -0.11757483 C296.47029153 -0.11367989 298.36409026 -0.1244726 300.25784582 -0.13587171 C308.28425647 -0.08504882 315.64353931 0.58168538 322.2111969 5.57319641 C326.77597744 10.2466622 328.21073514 14.38735468 328.22438049 20.86103821 C328.23383698 22.15225082 328.24329346 23.44346344 328.2530365 24.77380371 C328.24766803 26.16917735 328.24151539 27.56454816 328.2346344 28.95991516 C328.23665709 30.40147041 328.23957015 31.84302466 328.24333191 33.28457642 C328.24774188 36.29632877 328.24136452 39.30781321 328.22731018 42.3195343 C328.21017243 46.18001576 328.22009624 50.03987356 328.23802757 53.90033245 C328.24886216 56.87289136 328.24542145 59.84530203 328.2376442 62.81786537 C328.23564366 64.24163194 328.23809635 65.66541199 328.24508286 67.08916283 C328.25269613 69.07561868 328.23903579 71.06212182 328.22438049 73.04853821 C328.22199371 74.17849716 328.21960693 75.30845612 328.21714783 76.47265625 C327.8361969 79.26069641 327.8361969 79.26069641 326.55802917 81.1177063 C324.13502839 82.72614748 321.71907056 82.72276006 318.87135315 82.85444641 C315.69005869 81.92631444 314.65042331 79.96012564 312.8361969 77.26069641 C312.32394409 74.42628479 312.32394409 74.42628479 312.3061676 71.29292297 C312.28967667 70.11530396 312.27318573 68.93768494 312.25619507 67.72438049 C312.25905769 65.83196625 312.25905769 65.83196625 312.26197815 63.90132141 C312.24034225 61.91543366 312.2187026 59.92954594 312.19683361 57.94366074 C312.17130524 55.17095524 312.163982 52.39830684 312.15626526 49.62550354 C312.13883806 44.75586725 312.09209614 39.88641994 312.04620361 35.01698303 C312.02362107 32.42511543 312.00786 29.83317824 311.99935913 27.2412262 C311.99232468 26.07621582 311.98529022 24.91120544 311.9780426 23.71089172 C311.97456314 22.6800647 311.97108368 21.64923767 311.96749878 20.58717346 C312.09752972 18.29998291 312.09752972 18.29998291 310.8361969 17.26069641 C309.10651003 17.16245491 307.37277146 17.13514043 305.64029694 17.13485527 C304.50681902 17.13224752 303.37334111 17.12963978 302.20551538 17.12695301 C300.31407053 17.13029909 300.31407053 17.13029909 298.38441467 17.13371277 C297.04370376 17.13256189 295.70299316 17.1309746 294.36228323 17.12898552 C290.66095322 17.12478756 286.9596488 17.12688498 283.25831866 17.12997174 C279.27327467 17.13222374 275.28823524 17.12874724 271.30319214 17.12599182 C263.48971621 17.12153297 255.67624985 17.1225111 247.86277354 17.12540446 C241.51555021 17.12765805 235.16832957 17.12797121 228.82110596 17.12688065 C227.91953777 17.12672741 227.01796958 17.12657418 226.08908114 17.1264163 C224.2578634 17.12609659 222.42664567 17.12577238 220.59542793 17.12544371 C203.40292146 17.12258858 186.21042031 17.12587646 169.01791471 17.13124408 C154.24916887 17.13571215 139.48043088 17.13493622 124.71168518 17.13032532 C107.5828973 17.12498013 90.45411409 17.12286328 73.32532549 17.12593758 C71.50064627 17.12625615 69.67596706 17.12657052 67.85128784 17.12688065 C66.50443764 17.12711206 66.50443764 17.12711206 65.13037834 17.12734815 C58.78692996 17.12821347 52.44348454 17.1267501 46.10003662 17.12440109 C38.37502161 17.12160351 30.65001677 17.12234046 22.92500293 17.12768184 C18.97964726 17.13031943 15.03430858 17.13132295 11.08895302 17.12803268 C7.48307123 17.12507089 3.8772223 17.12666056 0.27134353 17.13201024 C-1.6634782 17.1336711 -3.59830217 17.13037582 -5.53312159 17.12695301 C-6.6665995 17.12956075 -7.80007741 17.1321685 -8.96790314 17.13485527 C-9.9542542 17.13501762 -10.94060527 17.13517998 -11.95684576 17.13534725 C-14.1386145 17.01355052 -14.1386145 17.01355052 -15.1638031 18.26069641 C-15.26594809 20.73502112 -15.30267583 23.18158472 -15.29751587 25.65655518 C-15.29978143 26.44004052 -15.30204698 27.22352587 -15.30438119 28.0307532 C-15.31075032 30.67634463 -15.30988997 33.32188523 -15.30906677 35.96748352 C-15.31205645 37.85598823 -15.31545852 39.74449232 -15.31924438 41.63299561 C-15.32810799 46.77753796 -15.33042348 51.92206371 -15.33106017 57.06661296 C-15.33200727 61.35366765 -15.33568325 65.64071843 -15.33923227 69.92777163 C-15.34738575 80.03769061 -15.34981568 90.14760069 -15.34910583 100.25752258 C-15.34850476 110.70429793 -15.35906047 121.15102169 -15.3748495 131.59778398 C-15.38790227 140.55147926 -15.39329069 149.50515764 -15.39265043 158.45886236 C-15.39239477 163.81332145 -15.39528268 169.16773472 -15.40582848 174.52218437 C-15.41547153 179.55605098 -15.41561488 184.58982761 -15.40831184 189.62369728 C-15.40726126 191.47568772 -15.4096567 193.32768365 -15.4156723 195.17966461 C-15.42332874 197.69916875 -15.41879 200.21835722 -15.41104126 202.737854 C-15.41618482 203.47840827 -15.42132839 204.21896254 -15.42662781 204.98195785 C-15.52263103 209.07301549 -15.52263103 209.07301549 -13.1638031 212.26069641 C-10.74331908 212.56446928 -10.74331908 212.56446928 -7.87888336 212.51237869 C-6.75099789 212.51759419 -5.62311242 212.52280968 -4.4610486 212.52818322 C-2.58666904 212.52149106 -2.58666904 212.52149106 -0.67442322 212.5146637 C0.64486191 212.51778368 1.96414704 212.52090366 3.32341051 212.52411819 C6.99777318 212.53250387 10.67203259 212.52832391 14.34639573 212.52214575 C18.30417997 212.5176376 22.26194591 212.52459684 26.21972656 212.53010559 C33.97793062 212.53901882 41.73609608 212.53706902 49.49430168 212.53128031 C55.79715854 212.52677139 62.10000454 212.52614757 68.40286255 212.52832794 C69.2984558 212.52863441 70.19404906 212.52894087 71.1167815 212.52925663 C72.93591798 212.52989605 74.75505445 212.53054448 76.57419091 212.53120181 C93.64942268 212.53691076 110.724633 212.53033837 127.79986125 212.51960108 C142.46481591 212.51066505 157.12973891 212.51221694 171.79469299 212.5214386 C188.80703932 212.53213128 205.81936684 212.53636138 222.83171606 212.53021407 C224.64432112 212.52957694 226.45692618 212.5289482 228.26953125 212.52832794 C229.60743557 212.52786512 229.60743557 212.52786512 230.97236827 212.52739294 C237.27077817 212.52566299 243.56917617 212.52858755 249.86758423 212.53328705 C257.53875908 212.53888477 265.20989297 212.53740289 272.8810631 212.52672556 C276.79821314 212.52145384 280.71529479 212.51943747 284.63244438 212.52602386 C288.87062865 212.5330425 293.10863887 212.52468658 297.34681702 212.5146637 C298.59640339 212.51912514 299.84598977 212.52358658 301.1334424 212.52818322 C302.82527061 212.52035998 302.82527061 212.52035998 304.55127716 212.51237869 C305.53063091 212.51205399 306.50998466 212.51172928 307.51901579 212.51139474 C310.03019042 212.48466657 310.03019042 212.48466657 311.8361969 210.26069641 C312.14059767 208.35080123 312.14059767 208.35080123 312.09448242 206.13682556 C312.10472443 204.84138573 312.10472443 204.84138573 312.11517334 203.51977539 C312.11262039 202.57012405 312.11006744 201.62047272 312.10743713 200.64204407 C312.11266388 199.64355942 312.11789062 198.64507477 312.12327576 197.61633301 C312.13353607 195.44301048 312.13929968 193.26966324 312.14115715 191.09631729 C312.14480756 187.65883559 312.16149782 184.22164585 312.18191528 180.78422546 C312.23745538 171.00918499 312.26803006 161.23410094 312.29249573 151.4589386 C312.30835188 145.48487974 312.33855254 139.5110272 312.37726021 133.53707504 C312.38892961 131.25729433 312.39484073 128.97747674 312.39494133 126.69766617 C312.39513292 123.51093711 312.41336651 120.3247785 312.43556213 117.13813782 C312.43098495 116.19253494 312.42640778 115.24693207 312.42169189 114.27267456 C312.49254422 107.88890214 312.49254422 107.88890214 314.24234009 104.69023132 C316.12667103 103.0001693 317.27218543 102.56798381 319.7736969 102.26069641 C320.44272034 102.15757141 321.11174377 102.05444641 321.80104065 101.94819641 C323.8361969 102.26069641 323.8361969 102.26069641 325.93005371 103.63441467 C328.89124522 107.71434069 328.40200745 111.67276112 328.36964417 116.59370422 C328.37825974 117.64457718 328.38687531 118.69545013 328.39575195 119.77816772 C328.41847917 123.25696862 328.41165837 126.73496806 328.40260315 130.21382141 C328.40783708 132.63274882 328.4141127 135.05167418 328.42138672 137.47059631 C328.43180448 142.54477019 328.42721149 147.6186639 328.41261292 152.69282532 C328.39545556 159.18734175 328.41887663 165.68097098 328.45410252 172.17538834 C328.47609668 177.1735162 328.47462948 182.17143265 328.4663372 187.16959381 C328.46551818 189.56332622 328.47237214 191.95707423 328.48710823 194.35076141 C328.50458276 197.70442619 328.48998351 201.05650849 328.46730042 204.41011047 C328.47899261 205.39429459 328.49068481 206.3784787 328.50273132 207.39248657 C328.41335622 213.90712427 327.01244223 218.20359206 322.8361969 223.26069641 C315.70200581 229.48689955 306.72247989 228.79387339 297.8361969 228.26069641 C297.85714417 228.89048401 297.87809143 229.52027161 297.89967346 230.16914368 C297.98339789 233.05366212 298.03503311 235.93792409 298.0861969 238.82319641 C298.13647034 240.30916321 298.13647034 240.30916321 298.1877594 241.82514954 C298.27276858 248.22209039 297.88112583 252.19148709 293.8361969 257.26069641 C287.71550305 261.79513311 282.45236993 261.8477754 274.98854065 261.79194641 C273.85848099 261.79577332 272.72842133 261.79960022 271.56411743 261.80354309 C269.18304042 261.80625679 266.80193332 261.79893378 264.4209137 261.78218079 C260.78197187 261.76074516 257.14499994 261.78201298 253.50611877 261.80757141 C251.18775506 261.80492843 248.86939256 261.79980407 246.55104065 261.79194641 C245.46653122 261.80004333 244.38202179 261.80814026 243.26464844 261.81648254 C237.14845396 261.74073158 233.46092878 261.39819564 228.8361969 257.26069641 C221.32737487 247.31658074 223.8361969 243.48122088 223.8361969 228.26069641 C174.0061969 228.26069641 124.1761969 228.26069641 72.8361969 228.26069641 C72.8361969 234.86069641 72.8361969 241.46069641 72.8361969 248.26069641 C67.8361969 258.26069641 67.8361969 258.26069641 61.8361969 261.26069641 C60.20907421 261.37117503 58.57756369 261.41982562 56.9467926 261.43769836 C55.9284584 261.4505336 54.91012421 261.46336884 53.8609314 261.47659302 C52.75577682 261.48397995 51.65062225 261.49136688 50.51197815 261.49897766 C49.37721542 261.50704941 48.2424527 261.51512115 47.07330322 261.5234375 C44.66656527 261.5372885 42.25980759 261.54800609 39.8530426 261.55586243 C36.18102951 261.57304512 32.50992358 261.61692015 28.83815002 261.66108704 C26.50026602 261.67121642 24.16237436 261.67973175 21.82447815 261.68647766 C20.72944473 261.70398575 19.63441132 261.72149384 18.50619507 261.73953247 C12.04668235 261.7212578 8.06439499 261.15754466 2.8361969 257.26069641 C-1.84674551 251.39191214 -1.66088093 246.12624693 -1.4138031 238.82319641 C-1.39575623 237.80548157 -1.37770935 236.78776672 -1.3591156 235.73921204 C-1.31228307 233.24537986 -1.24671737 230.75354594 -1.1638031 228.26069641 C-2.1538031 228.30710266 -3.1438031 228.35350891 -4.1638031 228.40132141 C-18.49866157 228.87872647 -18.49866157 228.87872647 -24.1638031 224.26069641 C-28.44224568 220.11418818 -31.05754713 216.95192499 -31.30081749 210.7904253 C-31.31155578 209.313976 -31.31674129 207.83748047 -31.31770325 206.36099243 C-31.3220855 205.54736321 -31.32646775 204.73373399 -31.3309828 203.89544934 C-31.34437473 201.15953003 -31.35055056 198.42364292 -31.35667419 195.68769836 C-31.36457487 193.72981622 -31.3728438 191.77193554 -31.38145447 189.8140564 C-31.40767916 183.37571098 -31.42298282 176.93735904 -31.4372406 170.49897766 C-31.44260014 168.28304223 -31.44797765 166.06710684 -31.45337296 163.85117149 C-31.47500256 154.63362472 -31.49373934 145.41607971 -31.50499535 136.19851398 C-31.52123481 122.98663384 -31.55441184 109.77504777 -31.61139619 96.5632785 C-31.65009322 87.27484707 -31.66962779 77.98649432 -31.67491591 68.6979844 C-31.67856973 63.14986452 -31.69059465 57.60205829 -31.72301865 52.05402565 C-31.75309474 46.83286079 -31.75941257 41.61219942 -31.74763489 36.39096642 C-31.74741412 34.47697447 -31.75572222 32.56295919 -31.77328873 30.64904785 C-31.79600977 28.03053457 -31.78767252 25.41384252 -31.77180481 22.7953186 C-31.7856869 22.04247804 -31.79956898 21.28963747 -31.81387174 20.51398355 C-31.71044717 13.56069273 -28.62644899 8.78990029 -23.8513031 3.88569641 C-16.52379129 -0.54489212 -8.28473405 -0.02551113 0 0 Z " fill="#000000" transform="translate(184.16380310058594,250.7393035888672)"/>
<path d="M0 0 C10.82297866 7.27930216 18.99941025 17.83766877 22.36328125 30.55078125 C24.82960766 43.82196623 22.87203018 58.1122608 15.55078125 69.58984375 C6.20519397 82.18042662 -5.42212748 89.72142107 -20.94921875 92.23828125 C-34.89839381 93.63660931 -46.87027483 89.70328684 -57.94921875 81.23828125 C-67.04809139 73.64009073 -73.13470857 63.65101025 -75.63671875 52.05078125 C-76.93751412 36.18107775 -74.76438738 22.06504971 -64.26171875 9.55078125 C-47.12031532 -8.58200932 -21.54597917 -12.87051206 0 0 Z " fill="#020202" transform="translate(358.94921875,322.76171875)"/>
<path d="M0 0 C1.47670418 0.0114416 2.95330551 0.03741343 4.4296875 0.0703125 C7.0284375 0.1115625 9.6271875 0.1528125 12.3046875 0.1953125 C12.6346875 7.4553125 12.9646875 14.7153125 13.3046875 22.1953125 C15.9446875 19.8853125 18.5846875 17.5753125 21.3046875 15.1953125 C27.27943335 12.14155351 34.66899239 12.07382836 41.02734375 14.03515625 C47.12749532 16.76780333 51.00953294 20.38319487 54.3046875 26.1953125 C56.30060678 32.18307033 56.54352478 39.74579146 54.3984375 45.71875 C50.42171366 52.37211489 44.71393818 56.84904978 37.3046875 59.1953125 C30.53697274 60.10358191 24.86680446 59.29025687 19.3046875 55.1953125 C17.3246875 53.2153125 15.3446875 51.2353125 13.3046875 49.1953125 C12.9746875 97.7053125 12.6446875 146.2153125 12.3046875 196.1953125 C113.9446875 196.1953125 215.5846875 196.1953125 320.3046875 196.1953125 C320.3046875 196.5253125 320.3046875 196.8553125 320.3046875 197.1953125 C279.20747451 197.26392607 238.11026897 197.31681454 197.01301019 197.34850849 C192.16500474 197.35226077 187.31699941 197.35614372 182.46899414 197.36010742 C181.5038125 197.36089435 180.53863086 197.36168128 179.54420129 197.36249206 C163.90044972 197.37555859 148.2567311 197.39921928 132.6129991 197.42677089 C116.57020063 197.45479043 100.52741945 197.47148144 84.4845975 197.47757798 C74.57922757 197.48170161 64.67395078 197.49474217 54.7686095 197.5190619 C47.98317893 197.53487652 41.19779675 197.53972259 34.41234907 197.53581663 C30.49302275 197.53388839 26.57385957 197.53691733 22.654562 197.55292892 C19.07004871 197.56746647 15.48580916 197.5683053 11.9012836 197.55800918 C9.98278837 197.55612993 8.06429662 197.56912381 6.1458475 197.58255643 C4.44918262 197.57359671 4.44918262 197.57359671 2.71824169 197.56445599 C1.24815443 197.56616473 1.24815443 197.56616473 -0.25163156 197.56790799 C-2.6953125 197.1953125 -2.6953125 197.1953125 -4.51023901 195.88237178 C-6.49158988 193.06173965 -6.10277723 189.88112261 -6.0695343 186.5589447 C-6.07350871 185.77375051 -6.07748311 184.98855631 -6.08157796 184.17956835 C-6.0912273 181.54002137 -6.07936717 178.90100683 -6.06762695 176.26147461 C-6.07005403 174.37267354 -6.07377253 172.48387375 -6.07868958 170.59507751 C-6.08811306 165.45885274 -6.07866124 160.32281803 -6.06535745 155.18660808 C-6.05406286 149.81968189 -6.05814887 144.45276534 -6.06010437 139.08583069 C-6.0609879 130.0730579 -6.04989396 121.06036025 -6.03149414 112.04760742 C-6.01031922 101.61554988 -6.00681765 91.1836024 -6.0130561 80.75152773 C-6.018743 70.73006922 -6.01311248 60.70864963 -6.00188255 50.68719673 C-5.99722827 46.41568854 -5.99636628 42.14420407 -5.9984684 37.87269402 C-6.00034666 32.84699152 -5.99228317 27.82140168 -5.976408 22.79572487 C-5.97215151 20.94696392 -5.97132371 19.09819156 -5.97409821 17.2494278 C-5.97730102 14.73439219 -5.96828665 12.21969721 -5.95600891 9.70469666 C-5.95978823 8.96550662 -5.96356756 8.22631659 -5.96746141 7.46472687 C-5.92139461 2.16513615 -5.757862 0.30432674 0 0 Z " fill="#576A73" transform="translate(173.6953125,266.8046875)"/>
<path d="M0 0 C1.14233597 -0.00073013 2.28467194 -0.00146027 3.46162415 -0.00221252 C7.21709569 0.00125584 10.97130905 0.04008472 14.7265625 0.0793457 C17.33829064 0.08867641 19.95002755 0.0957913 22.56176758 0.1007843 C28.72055258 0.11627941 34.87888992 0.15724807 41.03747845 0.20753175 C48.05318649 0.26356121 55.06891674 0.2909457 62.08479309 0.31600893 C76.50731261 0.3681687 90.9293485 0.45980538 105.3515625 0.56762695 C105.3515625 12.11762695 105.3515625 23.66762695 105.3515625 35.56762695 C102.58265625 35.5934082 99.81375 35.61918945 96.9609375 35.64575195 C94.27675241 35.68417397 91.59275932 35.72933361 88.90869141 35.77514648 C87.04452697 35.80335701 85.1802429 35.82457117 83.31591797 35.83862305 C80.63446809 35.86005179 77.95445664 35.90669993 75.2734375 35.95825195 C74.44100525 35.95948059 73.608573 35.96070923 72.75091553 35.9619751 C67.96219512 36.08165207 67.96219512 36.08165207 63.85644531 38.41821289 C62.1875715 40.58450339 62.1875715 40.58450339 61.3515625 43.56762695 C58.08119522 43.71272857 54.81165243 43.80162068 51.5390625 43.88012695 C50.61029297 43.92202148 49.68152344 43.96391602 48.72460938 44.00708008 C46.17614985 44.05308115 43.85589949 44.04787108 41.3515625 43.56762695 C39.40234375 41.1730957 39.40234375 41.1730957 38.3515625 38.56762695 C35.16265427 36.44168814 34.38368781 36.32031666 30.73168945 36.328125 C29.3292675 36.32252815 29.3292675 36.32252815 27.89851379 36.31681824 C26.88915268 36.3209523 25.87979156 36.32508636 24.83984375 36.3293457 C22.69856141 36.31392025 20.55728526 36.2976162 18.41601562 36.28051758 C15.0432369 36.2640937 11.67091095 36.25511255 8.2980957 36.26220703 C5.04065972 36.26483612 1.78459601 36.23663264 -1.47265625 36.2043457 C-2.47189621 36.21455246 -3.47113617 36.22475922 -4.50065613 36.23527527 C-11.01391946 36.14492683 -15.71315496 34.99846557 -20.6484375 30.56762695 C-24.00427044 26.01876213 -25.39235791 21.46194428 -25.08984375 15.80200195 C-23.9613169 10.08945895 -20.92928887 6.2952108 -16.25927734 2.98298645 C-10.96881163 -0.24939843 -6.06094142 -0.10227769 0 0 Z " fill="#798B97" transform="translate(39.6484375,14.432373046875)"/>
<path d="M0 0 C104.28 0 208.56 0 316 0 C316 3.3 316 6.6 316 10 C211.72 10 107.44 10 0 10 C0 6.7 0 3.4 0 0 Z " fill="#89BAD4" transform="translate(160,28)"/>
<path d="M0 0 C1.34721283 0.63815344 2.68747118 1.29325371 4 2 C4 5 4 5 1.796875 7.44848633 C0.78773671 8.4164761 -0.22840552 9.3771967 -1.25 10.33203125 C-2.34416145 11.3882458 -3.4378983 12.44490037 -4.53125 13.50195312 C-6.26388552 15.1601855 -8.0008448 16.81329625 -9.74609375 18.45825195 C-11.42737517 20.0487499 -13.08935741 21.65753441 -14.75 23.26953125 C-15.53745605 23.99641899 -15.53745605 23.99641899 -16.34082031 24.73799133 C-18.88297354 27.22651702 -19.95141957 28.63422614 -20.42578125 32.20581055 C-20.18153012 35.08045741 -20.18153012 35.08045741 -18.4375 37.4375 C-16.02191143 39.30522979 -16.02191143 39.30522979 -12.71850586 38.93188477 C-8.3129623 37.82782333 -6.0820763 35.85905397 -3.06640625 32.65234375 C-2.28220558 31.85540855 -2.28220558 31.85540855 -1.48216248 31.04237366 C0.17243397 29.35438609 1.80485907 27.64670483 3.4375 25.9375 C4.56044437 24.78443772 5.68478045 23.63272906 6.81054688 22.48242188 C9.55671779 19.67035712 12.28320527 16.84044392 15 14 C20.32499967 18.93718457 21.22938719 24.75272598 21.5 31.75 C21.2317382 42.20103247 17.46679429 50.56925387 10.2421875 58.09375 C3.09323577 64.17160444 -6.24506857 67.51648359 -15.61328125 67.24609375 C-25.35564631 66.24156184 -33.67385889 61.85856346 -40.3125 54.6875 C-47.35683372 45.88208285 -48.89985354 35.98835235 -48 25 C-45.57252875 15.08204605 -39.93153246 7.7810402 -31.44140625 2.32421875 C-21.55665034 -3.03727286 -10.60568504 -4.25135163 0 0 Z " fill="#EB5F5F" transform="translate(346,333)"/>
<path d="M0 0 C5.78604746 3.74097896 9.89387499 9.62597792 11.8125 16.171875 C12.71851901 23.06894474 11.77947368 28.42040507 7.8125 34.171875 C3.26664049 39.28596695 -1.41508687 43.52534488 -8.37890625 44.46875 C-16.07758156 44.90247819 -22.29445014 42.63057632 -28.078125 37.4921875 C-33.65754626 31.39815943 -34.72979437 25.33402534 -34.55859375 17.20703125 C-33.85043797 11.41506236 -31.44570705 7.25434609 -27.1796875 3.3203125 C-19.38553851 -2.74819465 -9.24290629 -4.08228361 0 0 Z " fill="#020303" transform="translate(279.1875,281.828125)"/>
<path d="M0 0 C4.4698805 3.26645113 7.49026269 7.40047557 9.234375 12.6328125 C9.8963918 20.07577282 10.40528629 26.86248529 5.71875 33.0234375 C0.29149186 38.9077279 -5.5030591 42.69358665 -13.703125 43.0703125 C-21.4386255 42.76604168 -25.94961098 39.79712619 -31.140625 34.1953125 C-35.75847642 28.90594085 -37.30645072 24.27853477 -37.140625 17.32421875 C-36.13131295 10.08030209 -32.28165879 4.12970964 -26.50390625 -0.25 C-18.29101062 -5.52840034 -8.25852417 -4.60268067 0 0 Z " fill="#020202" transform="translate(219.765625,283.3671875)"/>
<path d="M0 0 C0.83965302 -0.0087616 1.67930603 -0.01752319 2.54440308 -0.02655029 C5.31341599 -0.04851392 8.08082503 -0.03400153 10.84985352 -0.01708984 C12.77889817 -0.02045918 14.70794075 -0.02531278 16.63697815 -0.03158569 C20.67795036 -0.03895316 24.7183695 -0.02825671 28.75927734 -0.00488281 C33.93241953 0.02358574 39.10426363 0.00721235 44.27735806 -0.02274513 C48.26062244 -0.04083781 52.24358057 -0.03505071 56.22685432 -0.02210617 C58.13379127 -0.01877661 60.04075625 -0.02284338 61.94766045 -0.03450394 C64.61689433 -0.04724309 67.28404573 -0.02779326 69.953125 0 C70.73721237 -0.01012115 71.52129974 -0.02024231 72.32914734 -0.03067017 C76.31322191 0.04595718 78.86836687 0.49566048 82.07411194 2.96084595 C84.54125977 5.64697266 84.54125977 5.64697266 84.60375977 9.27197266 C83.56940399 12.55757336 83.14289444 13.59859427 80.54125977 15.64697266 C77.62461869 15.9484511 74.92066255 16.06695851 72.00244141 16.05102539 C71.13060715 16.05788864 70.25877289 16.06475189 69.36051941 16.07182312 C66.47398668 16.0901483 63.58799452 16.08624543 60.70141602 16.08056641 C58.69746218 16.08512557 56.69350991 16.09043034 54.68955994 16.09645081 C50.48714857 16.10539323 46.28492713 16.10294603 42.08251953 16.09301758 C36.69409164 16.08152839 31.3063191 16.10173301 25.91797733 16.13093472 C21.77872037 16.14927142 17.63962116 16.14900927 13.50033379 16.1432972 C11.5135856 16.14314366 9.52682692 16.14921448 7.54011726 16.16158867 C4.76281634 16.17644853 1.98673512 16.16585854 -0.79052734 16.14868164 C-2.02423569 16.16318359 -2.02423569 16.16318359 -3.28286743 16.17797852 C-6.88633677 16.13125478 -9.02353602 15.96778651 -11.96534729 13.79920959 C-13.45874023 11.64697266 -13.45874023 11.64697266 -14.02124023 8.70947266 C-12.60455036 0.99638335 -6.89077495 -0.08871845 0 0 Z " fill="#030304" transform="translate(397.458740234375,434.35302734375)"/>
<path d="M0 0 C-1.051875 0.99 -1.051875 0.99 -2.125 2 C-12.36760695 12.30063872 -16.31950383 22.30029762 -16.38720703 36.57348633 C-16.20786424 47.18393002 -12.30677352 56.24472887 -5 64 C-2.00255896 66.49107722 0.11872893 67.46093457 4 68 C4 68.33 4 68.66 4 69 C-6.89608422 69.52722988 -15.4825159 66.94804365 -24 60 C-30.45675466 54.00341494 -34.51057427 45.92124895 -35.23828125 37.1171875 C-35.47511484 26.77129907 -33.27365377 18.95144221 -26.765625 10.81640625 C-19.40224113 3.24124364 -10.4797045 -0.64161456 0 0 Z " fill="#E54343" transform="translate(333,331)"/>
<path d="M0 0 C14.19 0 28.38 0 43 0 C43 6.27 43 12.54 43 19 C28.81 19 14.62 19 0 19 C0 12.73 0 6.46 0 0 Z " fill="#81AAC1" transform="translate(424,478)"/>
<path d="M0 0 C14.19 0 28.38 0 43 0 C43 6.27 43 12.54 43 19 C28.81 19 14.62 19 0 19 C0 12.73 0 6.46 0 0 Z " fill="#B4D2E2" transform="translate(198,478)"/>
<path d="M0 0 C1.02569595 -0.00619858 2.05139191 -0.01239716 3.10816956 -0.01878357 C5.27596081 -0.02588304 7.44380657 -0.02270555 9.61157227 -0.01000977 C12.92631585 0.00384318 16.2382298 -0.03019937 19.55273438 -0.06835938 C21.66015694 -0.0693107 23.76758304 -0.06745104 25.875 -0.0625 C26.86471298 -0.07575821 27.85442596 -0.08901642 28.87413025 -0.10267639 C33.54694086 -0.03954641 35.80458295 0.05464962 39.66430664 2.87915039 C41.50390625 5.56640625 41.50390625 5.56640625 41.56640625 9.19140625 C40.38667569 12.93878566 39.78618977 13.63132664 36.50390625 15.56640625 C34.26550293 15.94735718 34.26550293 15.94735718 31.79882812 15.95458984 C30.87106567 15.96404633 29.94330322 15.97350281 28.98742676 15.98324585 C27.49511536 15.97413681 27.49511536 15.97413681 25.97265625 15.96484375 C24.94458862 15.96771393 23.916521 15.97058411 22.8572998 15.97354126 C20.68529713 15.9755813 18.51327605 15.97005568 16.34130859 15.95751953 C13.01618377 15.94146553 9.6922745 15.95737079 6.3671875 15.9765625 C4.25650773 15.97458006 2.14582872 15.97073636 0.03515625 15.96484375 C-0.95971802 15.97091644 -1.95459229 15.97698914 -2.97961426 15.98324585 C-4.37125793 15.96906113 -4.37125793 15.96906113 -5.79101562 15.95458984 C-6.60501831 15.95220306 -7.419021 15.94981628 -8.25769043 15.94735718 C-11.09427778 15.46460209 -12.45919501 14.58530625 -14.49609375 12.56640625 C-15.34771207 5.85991197 -15.34771207 5.85991197 -13.11889648 2.47460938 C-9.0167205 -0.50990217 -4.9505693 -0.02475875 0 0 Z " fill="#020202" transform="translate(440.49609375,406.43359375)"/>
<path d="M0 0 C1.14233597 -0.00073013 2.28467194 -0.00146027 3.46162415 -0.00221252 C7.21709569 0.00125584 10.97130905 0.04008472 14.7265625 0.0793457 C17.33829064 0.08867641 19.95002755 0.0957913 22.56176758 0.1007843 C28.72055258 0.11627941 34.87888992 0.15724807 41.03747845 0.20753175 C48.05318649 0.26356121 55.06891674 0.2909457 62.08479309 0.31600893 C76.5072797 0.36816859 90.92941483 0.45602555 105.3515625 0.56762695 C105.3515625 0.89762695 105.3515625 1.22762695 105.3515625 1.56762695 C103.37292206 1.56643356 103.37292206 1.56643356 101.35430908 1.56521606 C88.93494357 1.56161682 76.5159924 1.58934593 64.0967598 1.64790535 C57.71154263 1.67700191 51.32669382 1.69498323 44.94140625 1.68774414 C38.78143232 1.6811664 32.62218729 1.70354834 26.4623642 1.74618149 C24.11001937 1.75734031 21.75760086 1.75798805 19.40525055 1.74805069 C16.11473161 1.7359295 12.8264551 1.76086768 9.53613281 1.79467773 C8.55933563 1.78245682 7.58253845 1.7702359 6.57614136 1.75764465 C4.0274115 1.8049673 1.81200806 1.90102697 -0.6484375 2.56762695 C-5.92565781 8.43278314 -6.03135041 14.3200602 -6.015625 21.8918457 C-5.4866959 27.1867636 -3.50342627 31.14239436 -0.6484375 35.56762695 C-7.51490425 36.08261196 -13.30835466 36.41568839 -19.0234375 32.17700195 C-23.06374786 28.17554073 -24.83167274 23.70797472 -25.2109375 18.06762695 C-24.94345898 13.06319008 -23.14217756 9.14871052 -19.6484375 5.56762695 C-13.37281855 0.37164151 -7.95496693 -0.13423915 0 0 Z " fill="#576973" transform="translate(39.6484375,14.432373046875)"/>
<path d="M0 0 C7.92 0 15.84 0 24 0 C24 5.61 24 11.22 24 17 C16.08 17 8.16 17 0 17 C0 11.39 0 5.78 0 0 Z " fill="#B4D2E2" transform="translate(442,479)"/>
<path d="M0 0 C14.19 0 28.38 0 43 0 C43 0.33 43 0.66 43 1 C34.75 1 26.5 1 18 1 C18 6.61 18 12.22 18 18 C26.25 18 34.5 18 43 18 C43 18.33 43 18.66 43 19 C28.81 19 14.62 19 0 19 C0 12.73 0 6.46 0 0 Z " fill="#7EA8BF" transform="translate(198,478)"/>
<path d="M0 0 C2.4375 1.5625 2.4375 1.5625 4 4 C4.72468526 8.42863214 4.49454049 10.28066838 1.9375 14 C-1 16 -1 16 -4.5625 16.125 C-8.66488116 14.78240253 -10.00630003 13.82125828 -12 10 C-12 6.22089384 -11.83289714 3.99306967 -9.375 1.0625 C-6.02317947 -0.43699866 -3.63019782 -0.45377473 0 0 Z " fill="#F5E7A7" transform="translate(210,295)"/>
<path d="M0 0 C3 2.0625 3 2.0625 5 5 C5.1506132 9.29247606 4.66257079 11.22050496 1.875 14.5 C-1.93532871 16.48799759 -3.91964404 16.20899436 -8 15 C-10.81972931 12.63506574 -10.97850831 11.1719335 -11.4375 7.5 C-11 4 -11 4 -9.4375 1.5625 C-6.01685857 -0.63021887 -3.99048721 -0.63007693 0 0 Z " fill="#F5E8A8" transform="translate(271,295)"/>
</svg>
