<?xml version="1.0" encoding="UTF-8"?>
<svg version="1.1" xmlns="http://www.w3.org/2000/svg" width="512" height="512">
<path d="M0 0 C0.91956482 -0.0071553 1.83912964 -0.01431061 2.78656006 -0.02168274 C3.79335815 -0.02437164 4.80015625 -0.02706055 5.83746338 -0.02983093 C7.43059357 -0.03968773 7.43059357 -0.03968773 9.0559082 -0.04974365 C12.57716948 -0.06948394 16.09838809 -0.08114082 19.61968994 -0.09111023 C20.82178352 -0.09518576 22.02387711 -0.09926128 23.26239777 -0.10346031 C29.62465748 -0.12432398 35.9868956 -0.13862455 42.34918213 -0.147995 C48.920999 -0.15906105 55.49247744 -0.19346285 62.06417465 -0.23316669 C67.11711253 -0.25930978 72.16996949 -0.2676848 77.22296906 -0.27127647 C79.64545223 -0.27614822 82.06793165 -0.28777883 84.49034882 -0.30631447 C87.88236832 -0.33065621 91.27350831 -0.32974949 94.66558838 -0.32279968 C95.66428955 -0.33560974 96.66299072 -0.3484198 97.69195557 -0.36161804 C104.95377905 -0.30744702 109.27656271 1.12784322 114.69000244 6.18232727 C115.24945557 6.85135071 115.80890869 7.52037415 116.38531494 8.20967102 C116.96023682 8.88127258 117.53515869 9.55287415 118.12750244 10.24482727 C120.5642635 13.59709461 120.63012185 16.46212016 120.60797119 20.47138977 C120.60474854 21.49941711 120.60152588 22.52744446 120.59820557 23.58662415 C120.58982666 24.65847961 120.58144775 25.73033508 120.57281494 26.83467102 C120.56830322 27.91812805 120.5637915 29.00158508 120.55914307 30.11787415 C120.54735237 32.79436187 120.53089557 35.47073879 120.51031494 38.14717102 C122.31863297 38.13384735 122.31863297 38.13384735 124.16348267 38.12025452 C135.55061103 38.03900282 146.9376802 37.97912601 158.32503319 37.93992233 C164.17874656 37.91908942 170.03222502 37.89085007 175.88580322 37.84541321 C181.5397941 37.80180257 187.19355968 37.77800162 192.84770584 37.76766205 C194.99977792 37.76029799 197.15183833 37.74591789 199.30381393 37.72425079 C202.32913154 37.69501483 205.35353009 37.69122348 208.37896729 37.69306946 C209.69959671 37.6714978 209.69959671 37.6714978 211.04690552 37.64949036 C219.75214701 37.70658831 227.56124444 40.45004385 233.97906494 46.44404602 C239.54768559 52.63771592 242.77540981 59.56120596 242.73736572 67.96894836 C242.73721466 69.08965729 242.7370636 70.21036621 242.73690796 71.36503601 C242.72658539 72.55899994 242.71626282 73.75296387 242.70562744 74.98310852 C242.7013826 76.83484177 242.7013826 76.83484177 242.697052 78.72398376 C242.68588017 82.65681251 242.66078058 86.58941139 242.63531494 90.52217102 C242.62415319 93.19274061 242.61615613 95.86330803 242.60797119 98.53388977 C242.58595056 105.07173841 242.55144086 111.60941577 242.51031494 118.14717102 C247.79031494 118.14717102 253.07031494 118.14717102 258.51031494 118.14717102 C258.51031494 128.70717102 258.51031494 139.26717102 258.51031494 150.14717102 C253.23031494 150.14717102 247.95031494 150.14717102 242.51031494 150.14717102 C242.51031494 158.06717102 242.51031494 165.98717102 242.51031494 174.14717102 C260.99031494 174.14717102 279.47031494 174.14717102 298.51031494 174.14717102 C298.51031494 182.39717102 298.51031494 190.64717102 298.51031494 199.14717102 C291.17933682 201.28834683 283.84757062 203.42626158 276.51324463 205.55586243 C274.01789388 206.2814816 271.52309776 207.00901091 269.02886963 207.73847961 C265.44599807 208.78597786 261.86119554 209.82661626 258.27593994 210.86592102 C257.15914856 211.19402771 256.04235718 211.5221344 254.89172363 211.86018372 C253.85094666 212.160495 252.81016968 212.46080627 251.737854 212.7702179 C250.36551605 213.16992798 250.36551605 213.16992798 248.9654541 213.57771301 C246.51031494 214.14717102 246.51031494 214.14717102 242.51031494 214.14717102 C242.53126221 215.04435852 242.55220947 215.94154602 242.5737915 216.86592102 C242.6423911 220.22816961 242.69231788 223.58966337 242.7300415 226.9523468 C242.7500279 228.4013602 242.77722691 229.85029427 242.81207275 231.29902649 C243.03251999 240.70693629 243.08885237 247.92235892 236.54547119 255.38935852 C235.89449463 255.92818665 235.24351807 256.46701477 234.57281494 257.02217102 C233.9244165 257.5764679 233.27601807 258.13076477 232.60797119 258.70185852 C225.14216748 263.8458946 220.5669256 262.14717102 210.51031494 262.14717102 C210.51031494 314.94717102 210.51031494 367.74717102 210.51031494 422.14717102 C199.95031494 422.14717102 189.39031494 422.14717102 178.51031494 422.14717102 C178.51031494 405.64717102 178.51031494 389.14717102 178.51031494 372.14717102 C94.03031494 372.14717102 9.55031494 372.14717102 -77.48968506 372.14717102 C-77.48968506 388.64717102 -77.48968506 405.14717102 -77.48968506 422.14717102 C-88.04968506 422.14717102 -98.60968506 422.14717102 -109.48968506 422.14717102 C-109.48968506 369.34717102 -109.48968506 316.54717102 -109.48968506 262.14717102 C-114.43968506 262.14717102 -119.38968506 262.14717102 -124.48968506 262.14717102 C-131.24358361 259.8958715 -135.45350705 256.00508343 -139.48968506 250.14717102 C-141.56063244 245.96588323 -141.72316584 242.51508641 -141.68499756 237.87763977 C-141.68216766 237.19663712 -141.67933777 236.51563446 -141.67642212 235.81399536 C-141.66529031 233.65403647 -141.64019962 231.49450308 -141.61468506 229.33467102 C-141.60464617 227.86397391 -141.59552191 226.39327026 -141.58734131 224.92256165 C-141.56537419 221.33062816 -141.53089326 217.73894117 -141.48968506 214.14717102 C-142.86942505 213.99743835 -142.86942505 213.99743835 -144.27703857 213.84468079 C-149.61422269 213.07754776 -154.7239906 211.48935175 -159.89202881 209.98701477 C-161.50858116 209.52302025 -161.50858116 209.52302025 -163.15779114 209.0496521 C-166.58219258 208.06567724 -170.00469508 207.07527155 -173.42718506 206.08467102 C-175.75583851 205.41432316 -178.0846133 204.74439661 -180.41351318 204.0749054 C-186.10723009 202.43798714 -191.79833152 200.79237766 -197.48968506 199.14717102 C-197.48968506 190.89717102 -197.48968506 182.64717102 -197.48968506 174.14717102 C-179.00968506 174.14717102 -160.52968506 174.14717102 -141.48968506 174.14717102 C-141.48968506 166.22717102 -141.48968506 158.30717102 -141.48968506 150.14717102 C-146.76968506 150.14717102 -152.04968506 150.14717102 -157.48968506 150.14717102 C-157.48968506 139.58717102 -157.48968506 129.02717102 -157.48968506 118.14717102 C-152.20968506 118.14717102 -146.92968506 118.14717102 -141.48968506 118.14717102 C-141.51063232 116.50313293 -141.53157959 114.85909485 -141.55316162 113.16523743 C-141.62586106 107.03381649 -141.67159414 100.90243327 -141.70941162 94.77070618 C-141.72945886 92.12285442 -141.7567039 89.47504656 -141.79144287 86.8273468 C-141.84026249 83.00936514 -141.86272386 79.19197166 -141.88031006 75.37373352 C-141.9009552 74.20041473 -141.92160034 73.02709595 -141.94287109 71.81822205 C-141.9454894 62.10840815 -139.95476338 53.91849225 -133.19281006 46.67842102 C-125.57252671 39.82715709 -117.84839888 37.83947201 -107.81243896 37.92012024 C-106.85571289 37.91982819 -105.89898682 37.91953613 -104.91326904 37.91923523 C-101.76416828 37.9206239 -98.61530678 37.93616345 -95.46624756 37.95185852 C-93.27764007 37.95559029 -91.0890309 37.95843649 -88.90042114 37.96043396 C-83.14977376 37.96805748 -77.39922795 37.98769504 -71.64862061 38.00984192 C-65.77664565 38.03032791 -59.90465423 38.03944157 -54.03265381 38.04951477 C-42.51828635 38.07094208 -31.00399416 38.10506262 -19.48968506 38.14717102 C-19.52896118 37.17276062 -19.52896118 37.17276062 -19.56903076 36.17866516 C-19.67400164 33.18925395 -19.73832317 30.20023183 -19.80218506 27.20967102 C-19.86502686 25.67729797 -19.86502686 25.67729797 -19.92913818 24.1139679 C-20.04300269 16.98604988 -18.94042172 11.8397275 -14.48968506 6.14717102 C-10.10784698 2.1362758 -5.95126923 0.03181781 0 0 Z M-4.48968506 15.14717102 C-8.54013652 23.32892892 -8.54013652 23.32892892 -7.48968506 38.14717102 C30.79031494 38.14717102 69.07031494 38.14717102 108.51031494 38.14717102 C109.5607664 23.32892892 109.5607664 23.32892892 105.51031494 15.14717102 C100.14322911 11.82831685 95.20625223 11.71534029 89.01422119 11.75898743 C87.62503983 11.75110199 87.62503983 11.75110199 86.20779419 11.74305725 C83.16262685 11.72991074 80.11798711 11.73857647 77.07281494 11.74873352 C74.94724426 11.74671125 72.82167427 11.74379854 70.69610596 11.74003601 C66.247715 11.7356199 61.79950512 11.74202087 57.35113525 11.75605774 C51.65830571 11.77314905 45.96590053 11.76330407 40.27308655 11.74534035 C35.88581158 11.73448334 31.49863668 11.73795768 27.11135864 11.74572372 C25.01266428 11.74772042 22.91396074 11.74528514 20.8152771 11.73828506 C17.87874389 11.73063914 14.9428914 11.74231901 12.00640869 11.75898743 C11.14490204 11.75291473 10.28339539 11.74684204 9.39578247 11.74058533 C4.04515112 11.79665552 0.11423429 12.30023742 -4.48968506 15.14717102 Z M-77.48968506 262.14717102 C-77.48968506 294.48717102 -77.48968506 326.82717102 -77.48968506 360.14717102 C6.99031494 360.14717102 91.47031494 360.14717102 178.51031494 360.14717102 C178.51031494 327.80717102 178.51031494 295.46717102 178.51031494 262.14717102 C94.03031494 262.14717102 9.55031494 262.14717102 -77.48968506 262.14717102 Z " fill="#5A648C" transform="translate(205.48968505859375,41.85282897949219)"/>
<path d="M0 0 C0.91956482 -0.0071553 1.83912964 -0.01431061 2.78656006 -0.02168274 C3.79335815 -0.02437164 4.80015625 -0.02706055 5.83746338 -0.02983093 C7.43059357 -0.03968773 7.43059357 -0.03968773 9.0559082 -0.04974365 C12.57716948 -0.06948394 16.09838809 -0.08114082 19.61968994 -0.09111023 C20.82178352 -0.09518576 22.02387711 -0.09926128 23.26239777 -0.10346031 C29.62465748 -0.12432398 35.9868956 -0.13862455 42.34918213 -0.147995 C48.920999 -0.15906105 55.49247744 -0.19346285 62.06417465 -0.23316669 C67.11711253 -0.25930978 72.16996949 -0.2676848 77.22296906 -0.27127647 C79.64545223 -0.27614822 82.06793165 -0.28777883 84.49034882 -0.30631447 C87.88236832 -0.33065621 91.27350831 -0.32974949 94.66558838 -0.32279968 C95.66428955 -0.33560974 96.66299072 -0.3484198 97.69195557 -0.36161804 C104.95377905 -0.30744702 109.27656271 1.12784322 114.69000244 6.18232727 C115.24945557 6.85135071 115.80890869 7.52037415 116.38531494 8.20967102 C116.96023682 8.88127258 117.53515869 9.55287415 118.12750244 10.24482727 C120.5642635 13.59709461 120.63012185 16.46212016 120.60797119 20.47138977 C120.60474854 21.49941711 120.60152588 22.52744446 120.59820557 23.58662415 C120.58982666 24.65847961 120.58144775 25.73033508 120.57281494 26.83467102 C120.56830322 27.91812805 120.5637915 29.00158508 120.55914307 30.11787415 C120.54735237 32.79436187 120.53089557 35.47073879 120.51031494 38.14717102 C122.31863297 38.13384735 122.31863297 38.13384735 124.16348267 38.12025452 C135.55061103 38.03900282 146.9376802 37.97912601 158.32503319 37.93992233 C164.17874656 37.91908942 170.03222502 37.89085007 175.88580322 37.84541321 C181.5397941 37.80180257 187.19355968 37.77800162 192.84770584 37.76766205 C194.99977792 37.76029799 197.15183833 37.74591789 199.30381393 37.72425079 C202.32913154 37.69501483 205.35353009 37.69122348 208.37896729 37.69306946 C209.69959671 37.6714978 209.69959671 37.6714978 211.04690552 37.64949036 C219.75214701 37.70658831 227.56124444 40.45004385 233.97906494 46.44404602 C251.24481567 65.64778918 242.51031494 94.52692754 242.51031494 118.14717102 C115.79031494 118.14717102 -10.92968506 118.14717102 -141.48968506 118.14717102 C-141.48968506 55.56194375 -141.48968506 55.56194375 -133.19281006 46.67842102 C-125.57252671 39.82715709 -117.84839888 37.83947201 -107.81243896 37.92012024 C-106.85571289 37.91982819 -105.89898682 37.91953613 -104.91326904 37.91923523 C-101.76416828 37.9206239 -98.61530678 37.93616345 -95.46624756 37.95185852 C-93.27764007 37.95559029 -91.0890309 37.95843649 -88.90042114 37.96043396 C-83.14977376 37.96805748 -77.39922795 37.98769504 -71.64862061 38.00984192 C-65.77664565 38.03032791 -59.90465423 38.03944157 -54.03265381 38.04951477 C-42.51828635 38.07094208 -31.00399416 38.10506262 -19.48968506 38.14717102 C-19.52896118 37.17276062 -19.52896118 37.17276062 -19.56903076 36.17866516 C-19.67400164 33.18925395 -19.73832317 30.20023183 -19.80218506 27.20967102 C-19.84407959 26.18808899 -19.88597412 25.16650696 -19.92913818 24.1139679 C-20.04300269 16.98604988 -18.94042172 11.8397275 -14.48968506 6.14717102 C-10.10784698 2.1362758 -5.95126923 0.03181781 0 0 Z M-4.48968506 15.14717102 C-8.54013652 23.32892892 -8.54013652 23.32892892 -7.48968506 38.14717102 C30.79031494 38.14717102 69.07031494 38.14717102 108.51031494 38.14717102 C109.5607664 23.32892892 109.5607664 23.32892892 105.51031494 15.14717102 C100.14322911 11.82831685 95.20625223 11.71534029 89.01422119 11.75898743 C87.62503983 11.75110199 87.62503983 11.75110199 86.20779419 11.74305725 C83.16262685 11.72991074 80.11798711 11.73857647 77.07281494 11.74873352 C74.94724426 11.74671125 72.82167427 11.74379854 70.69610596 11.74003601 C66.247715 11.7356199 61.79950512 11.74202087 57.35113525 11.75605774 C51.65830571 11.77314905 45.96590053 11.76330407 40.27308655 11.74534035 C35.88581158 11.73448334 31.49863668 11.73795768 27.11135864 11.74572372 C25.01266428 11.74772042 22.91396074 11.74528514 20.8152771 11.73828506 C17.87874389 11.73063914 14.9428914 11.74231901 12.00640869 11.75898743 C11.14490204 11.75291473 10.28339539 11.74684204 9.39578247 11.74058533 C4.04515112 11.79665552 0.11423429 12.30023742 -4.48968506 15.14717102 Z " fill="#5A648C" transform="translate(205.48968505859375,41.85282897949219)"/>
<path d="M0 0 C137.28 0 274.56 0 416 0 C416 10.56 416 21.12 416 32 C291.92 32 167.84 32 40 32 C32.39491186 88.23203874 32.39491186 88.23203874 46.89453125 136.2421875 C47.52746094 136.78101563 48.16039063 137.31984375 48.8125 137.875 C49.75029297 138.70644531 49.75029297 138.70644531 50.70703125 139.5546875 C59.30649112 144.97513069 70.46690583 143.52334529 80 144 C80 176.34 80 208.68 80 242 C164.48 242 248.96 242 336 242 C336 209.66 336 177.32 336 144 C346.56 144 357.12 144 368 144 C368 196.8 368 249.6 368 304 C357.44 304 346.88 304 336 304 C336 287.5 336 271 336 254 C251.52 254 167.04 254 80 254 C80 270.5 80 287 80 304 C69.44 304 58.88 304 48 304 C48 251.2 48 198.4 48 144 C43.05 144 38.1 144 33 144 C26.24610145 141.74870048 22.03617801 137.85791241 18 132 C15.92905262 127.81871221 15.76651921 124.36791539 15.8046875 119.73046875 C15.8075174 119.04946609 15.81034729 118.36846344 15.81326294 117.66682434 C15.82439475 115.50686545 15.84948543 113.34733206 15.875 111.1875 C15.88503889 109.71680289 15.89416315 108.24609924 15.90234375 106.77539062 C15.92431087 103.18345714 15.9587918 99.59177015 16 96 C14.62026001 95.85026733 14.62026001 95.85026733 13.21264648 95.69750977 C7.87546237 94.93037674 2.76569446 93.34218073 -2.40234375 91.83984375 C-3.48004532 91.53051407 -4.55774689 91.22118439 -5.66810608 90.90248108 C-9.09250752 89.91850622 -12.51501003 88.92810053 -15.9375 87.9375 C-18.26615346 87.26715214 -20.59492824 86.59722559 -22.92382812 85.92773438 C-28.61754503 84.29081612 -34.30864646 82.64520664 -40 81 C-40 72.75 -40 64.5 -40 56 C-21.52 56 -3.04 56 16 56 C16 48.08 16 40.16 16 32 C10.72 32 5.44 32 0 32 C0 21.44 0 10.88 0 0 Z " fill="#AAB4DC" transform="translate(48,160)"/>
<path d="M0 0 C0.91956482 -0.0071553 1.83912964 -0.01431061 2.78656006 -0.02168274 C3.79335815 -0.02437164 4.80015625 -0.02706055 5.83746338 -0.02983093 C7.43059357 -0.03968773 7.43059357 -0.03968773 9.0559082 -0.04974365 C12.57716948 -0.06948394 16.09838809 -0.08114082 19.61968994 -0.09111023 C20.82178352 -0.09518576 22.02387711 -0.09926128 23.26239777 -0.10346031 C29.62465748 -0.12432398 35.9868956 -0.13862455 42.34918213 -0.147995 C48.920999 -0.15906105 55.49247744 -0.19346285 62.06417465 -0.23316669 C67.11711253 -0.25930978 72.16996949 -0.2676848 77.22296906 -0.27127647 C79.64545223 -0.27614822 82.06793165 -0.28777883 84.49034882 -0.30631447 C87.88236832 -0.33065621 91.27350831 -0.32974949 94.66558838 -0.32279968 C95.66428955 -0.33560974 96.66299072 -0.3484198 97.69195557 -0.36161804 C104.95377905 -0.30744702 109.27656271 1.12784322 114.69000244 6.18232727 C115.24945557 6.85135071 115.80890869 7.52037415 116.38531494 8.20967102 C116.96023682 8.88127258 117.53515869 9.55287415 118.12750244 10.24482727 C120.5642635 13.59709461 120.63012185 16.46212016 120.60797119 20.47138977 C120.60474854 21.49941711 120.60152588 22.52744446 120.59820557 23.58662415 C120.58982666 24.65847961 120.58144775 25.73033508 120.57281494 26.83467102 C120.56830322 27.91812805 120.5637915 29.00158508 120.55914307 30.11787415 C120.54735237 32.79436187 120.53089557 35.47073879 120.51031494 38.14717102 C122.31863297 38.13384735 122.31863297 38.13384735 124.16348267 38.12025452 C135.55061103 38.03900282 146.9376802 37.97912601 158.32503319 37.93992233 C164.17874656 37.91908942 170.03222502 37.89085007 175.88580322 37.84541321 C181.5397941 37.80180257 187.19355968 37.77800162 192.84770584 37.76766205 C194.99977792 37.76029799 197.15183833 37.74591789 199.30381393 37.72425079 C202.32913154 37.69501483 205.35353009 37.69122348 208.37896729 37.69306946 C209.69959671 37.6714978 209.69959671 37.6714978 211.04690552 37.64949036 C219.75214701 37.70658831 227.56124444 40.45004385 233.97906494 46.44404602 C241.5833846 54.90191176 242.83312653 63.06397315 242.51031494 74.14717102 C241.28114827 71.68883769 240.05198161 69.23050435 238.82281494 66.77217102 C235.5093272 61.02302252 230.75205938 57.28538916 224.51031494 55.14717102 C221.77945457 54.84855581 221.77945457 54.84855581 218.85739422 54.88990211 C217.15693149 54.88022878 217.15693149 54.88022878 215.42211598 54.87036002 C214.1814699 54.87345722 212.94082382 54.87655442 211.6625824 54.87974548 C210.32753073 54.87600831 208.99248125 54.87140652 207.65743524 54.86601484 C203.99004187 54.85377764 200.32273967 54.85404614 196.65533054 54.85640359 C192.69952225 54.85681157 188.74374326 54.84577435 184.78794861 54.83628845 C177.03817643 54.81967349 169.28843468 54.81417868 161.53864618 54.8130637 C155.23924861 54.81211345 148.93986108 54.80800432 142.64046669 54.80166245 C124.78116844 54.78404861 106.92189423 54.77482379 89.06258722 54.77632339 C87.61830058 54.77644326 87.61830058 54.77644326 86.14483643 54.77656555 C85.18080323 54.77664731 84.21677004 54.77672907 83.22352371 54.77681331 C67.59961024 54.77762623 51.97579316 54.75848744 36.35190757 54.73028882 C20.31004773 54.70156425 4.26823491 54.68774829 -11.7736513 54.68947637 C-20.78020624 54.69014042 -29.78666013 54.68464141 -38.79319191 54.66312027 C-46.46159027 54.64491408 -54.12984177 54.64055648 -61.79825238 54.65413912 C-65.71017079 54.66067167 -69.62180739 54.66077584 -73.53369904 54.64343262 C-77.11712632 54.62770915 -80.70004819 54.63055758 -84.28346308 54.64800088 C-86.18907576 54.65252398 -88.09470406 54.63740764 -90.00025588 54.62152159 C-98.02446461 54.68617832 -103.52673173 55.67440879 -109.73187256 61.11201477 C-110.27070068 61.76299133 -110.80952881 62.4139679 -111.36468506 63.08467102 C-111.91898193 63.73306946 -112.47327881 64.3814679 -113.04437256 65.04951477 C-116.93214485 70.69203834 -116.82550933 76.05762797 -116.90374756 82.69795227 C-116.92311371 83.7118956 -116.94247986 84.72583893 -116.96243286 85.77050781 C-117.02207932 89.00014405 -117.06855457 92.22981622 -117.11468506 95.45967102 C-117.15287855 97.6530457 -117.19193108 99.8464056 -117.23187256 102.03974915 C-117.32938107 107.40881167 -117.40906907 112.77772204 -117.48968506 118.14717102 C-125.40968506 118.14717102 -133.32968506 118.14717102 -141.48968506 118.14717102 C-141.58178589 110.35441735 -141.66134905 102.56357154 -141.70941162 94.77070618 C-141.72945886 92.12285442 -141.7567039 89.47504656 -141.79144287 86.8273468 C-141.84026249 83.00936514 -141.86272386 79.19197166 -141.88031006 75.37373352 C-141.9009552 74.20041473 -141.92160034 73.02709595 -141.94287109 71.81822205 C-141.9454894 62.10840815 -139.95476338 53.91849225 -133.19281006 46.67842102 C-125.57252671 39.82715709 -117.84839888 37.83947201 -107.81243896 37.92012024 C-106.85571289 37.91982819 -105.89898682 37.91953613 -104.91326904 37.91923523 C-101.76416828 37.9206239 -98.61530678 37.93616345 -95.46624756 37.95185852 C-93.27764007 37.95559029 -91.0890309 37.95843649 -88.90042114 37.96043396 C-83.14977376 37.96805748 -77.39922795 37.98769504 -71.64862061 38.00984192 C-65.77664565 38.03032791 -59.90465423 38.03944157 -54.03265381 38.04951477 C-42.51828635 38.07094208 -31.00399416 38.10506262 -19.48968506 38.14717102 C-19.52896118 37.17276062 -19.52896118 37.17276062 -19.56903076 36.17866516 C-19.67400164 33.18925395 -19.73832317 30.20023183 -19.80218506 27.20967102 C-19.84407959 26.18808899 -19.88597412 25.16650696 -19.92913818 24.1139679 C-20.04300269 16.98604988 -18.94042172 11.8397275 -14.48968506 6.14717102 C-10.10784698 2.1362758 -5.95126923 0.03181781 0 0 Z M-4.48968506 15.14717102 C-8.54013652 23.32892892 -8.54013652 23.32892892 -7.48968506 38.14717102 C30.79031494 38.14717102 69.07031494 38.14717102 108.51031494 38.14717102 C109.5607664 23.32892892 109.5607664 23.32892892 105.51031494 15.14717102 C100.14322911 11.82831685 95.20625223 11.71534029 89.01422119 11.75898743 C87.62503983 11.75110199 87.62503983 11.75110199 86.20779419 11.74305725 C83.16262685 11.72991074 80.11798711 11.73857647 77.07281494 11.74873352 C74.94724426 11.74671125 72.82167427 11.74379854 70.69610596 11.74003601 C66.247715 11.7356199 61.79950512 11.74202087 57.35113525 11.75605774 C51.65830571 11.77314905 45.96590053 11.76330407 40.27308655 11.74534035 C35.88581158 11.73448334 31.49863668 11.73795768 27.11135864 11.74572372 C25.01266428 11.74772042 22.91396074 11.74528514 20.8152771 11.73828506 C17.87874389 11.73063914 14.9428914 11.74231901 12.00640869 11.75898743 C11.14490204 11.75291473 10.28339539 11.74684204 9.39578247 11.74058533 C4.04515112 11.79665552 0.11423429 12.30023742 -4.48968506 15.14717102 Z " fill="#71799C" transform="translate(205.48968505859375,41.85282897949219)"/>
<path d="M0 0 C137.28 0 274.56 0 416 0 C416 5.28 416 10.56 416 16 C286.64 16 157.28 16 24 16 C24 21.28 24 26.56 24 32 C16.08 32 8.16 32 0 32 C0 21.44 0 10.88 0 0 Z " fill="#B9C3EB" transform="translate(48,160)"/>
<path d="M0 0 C129.36 0 258.72 0 392 0 C392 5.28 392 10.56 392 16 C262.64 16 133.28 16 0 16 C0 10.72 0 5.44 0 0 Z " fill="#AAB4DC" transform="translate(72,176)"/>
<path d="M0 0 C10.56 0 21.12 0 32 0 C32 52.8 32 105.6 32 160 C21.44 160 10.88 160 0 160 C0 107.2 0 54.4 0 0 Z " fill="#AAB4DC" transform="translate(384,304)"/>
<path d="M0 0 C7.92 0 15.84 0 24 0 C24.0093457 2.80564453 24.01869141 5.61128906 24.02832031 8.50195312 C24.06213211 17.7860139 24.11770459 27.06985337 24.18390274 36.35373688 C24.22336208 41.9809534 24.25555828 47.6080138 24.27099609 53.23535156 C24.28617261 58.66906572 24.32063644 64.1023506 24.36830902 69.53587341 C24.38311244 71.60579186 24.39104042 73.67577159 24.39188385 75.7457428 C24.39425833 78.65192083 24.42137728 81.55691718 24.45410156 84.46289062 C24.4490712 85.31309784 24.44404083 86.16330505 24.43885803 87.03927612 C24.55706832 93.85286047 26.48038761 99.01802575 30.89453125 104.2421875 C35.16668417 107.87917308 38.45572549 109.96044853 44 111 C44 111.33 44 111.66 44 112 C39.66689672 112.116965 35.3342042 112.1875089 31 112.25 C29.77925781 112.28351563 28.55851562 112.31703125 27.30078125 112.3515625 C18.84552566 112.44297067 13.18148465 111.66426268 6.7578125 106.03515625 C6.21898437 105.38417969 5.68015625 104.73320312 5.125 104.0625 C4.57070312 103.41410156 4.01640625 102.76570313 3.4453125 102.09765625 C0.19726543 97.38359874 -0.24200278 93.40333749 -0.1953125 87.73046875 C-0.1924826 87.04946609 -0.18965271 86.36846344 -0.18673706 85.66682434 C-0.17560525 83.50686545 -0.15051457 81.34733206 -0.125 79.1875 C-0.11496111 77.71680289 -0.10583685 76.24609924 -0.09765625 74.77539062 C-0.07568913 71.18345714 -0.0412082 67.59177015 0 64 C-1.37973999 63.85026733 -1.37973999 63.85026733 -2.78735352 63.69750977 C-8.12453763 62.93037674 -13.23430554 61.34218073 -18.40234375 59.83984375 C-19.48004532 59.53051407 -20.55774689 59.22118439 -21.66810608 58.90248108 C-25.09250752 57.91850622 -28.51501003 56.92810053 -31.9375 55.9375 C-34.26615346 55.26715214 -36.59492824 54.59722559 -38.92382812 53.92773438 C-44.61754503 52.29081612 -50.30864646 50.64520664 -56 49 C-56 40.75 -56 32.5 -56 24 C-37.52 24 -19.04 24 0 24 C0 16.08 0 8.16 0 0 Z " fill="#71799B" transform="translate(64,192)"/>
<path d="M0 0 C84.48 0 168.96 0 256 0 C256 3.96 256 7.92 256 12 C171.52 12 87.04 12 0 12 C0 8.04 0 4.08 0 0 Z " fill="#9BA5CD" transform="translate(128,402)"/>
<path d="M0 0 C0.91956482 -0.0071553 1.83912964 -0.01431061 2.78656006 -0.02168274 C3.79335815 -0.02437164 4.80015625 -0.02706055 5.83746338 -0.02983093 C7.43059357 -0.03968773 7.43059357 -0.03968773 9.0559082 -0.04974365 C12.57716948 -0.06948394 16.09838809 -0.08114082 19.61968994 -0.09111023 C20.82178352 -0.09518576 22.02387711 -0.09926128 23.26239777 -0.10346031 C29.62465748 -0.12432398 35.9868956 -0.13862455 42.34918213 -0.147995 C48.920999 -0.15906105 55.49247744 -0.19346285 62.06417465 -0.23316669 C67.11711253 -0.25930978 72.16996949 -0.2676848 77.22296906 -0.27127647 C79.64545223 -0.27614822 82.06793165 -0.28777883 84.49034882 -0.30631447 C87.88236832 -0.33065621 91.27350831 -0.32974949 94.66558838 -0.32279968 C95.66428955 -0.33560974 96.66299072 -0.3484198 97.69195557 -0.36161804 C104.95377905 -0.30744702 109.27656271 1.12784322 114.69000244 6.18232727 C115.24945557 6.85135071 115.80890869 7.52037415 116.38531494 8.20967102 C116.96023682 8.88127258 117.53515869 9.55287415 118.12750244 10.24482727 C120.5642635 13.59709461 120.63012185 16.46212016 120.60797119 20.47138977 C120.60474854 21.49941711 120.60152588 22.52744446 120.59820557 23.58662415 C120.58982666 24.65847961 120.58144775 25.73033508 120.57281494 26.83467102 C120.56830322 27.91812805 120.5637915 29.00158508 120.55914307 30.11787415 C120.54735251 32.79432996 120.52941702 35.47075741 120.51031494 38.14717102 C116.55031494 38.14717102 112.59031494 38.14717102 108.51031494 38.14717102 C108.45424072 36.53648743 108.45424072 36.53648743 108.39703369 34.89326477 C108.33132382 33.45703482 108.26487826 32.02083841 108.19781494 30.58467102 C108.17525635 29.88019836 108.15269775 29.17572571 108.12945557 28.4499054 C107.87301168 23.39096683 107.1113755 19.54512629 104.51031494 15.14717102 C99.45401739 12.7942429 94.58621038 12.85688126 89.12774658 12.87251282 C88.2017717 12.86740189 87.27579681 12.86229095 86.32176208 12.85702515 C83.27126542 12.84316399 80.22099555 12.84408324 77.17047119 12.84638977 C75.04347144 12.8425011 72.91647246 12.83816608 70.78947449 12.83340454 C66.33514893 12.82594993 61.88090265 12.82622826 57.42657471 12.83149719 C51.72588987 12.83729253 46.02552986 12.8203554 40.32489872 12.79715252 C35.93334565 12.78240285 31.54187061 12.78154514 27.15029716 12.78466225 C25.04880568 12.78414972 22.94730976 12.77892479 20.84584236 12.76885033 C17.9044409 12.75647873 14.96366962 12.763282 12.02227783 12.77485657 C11.15920013 12.76721283 10.29612244 12.75956909 9.40689087 12.75169373 C4.04479326 12.79820163 0.24050708 13.55009072 -4.48968506 16.14717102 C-6.8499946 20.64362663 -6.897993 25.52922482 -7.11468506 30.52217102 C-7.17269287 31.62625305 -7.17269287 31.62625305 -7.23187256 32.75263977 C-7.32526504 34.55044508 -7.40852216 36.3487721 -7.48968506 38.14717102 C-11.44968506 38.14717102 -15.40968506 38.14717102 -19.48968506 38.14717102 C-19.62565841 34.5000635 -19.72427456 30.85810831 -19.80218506 27.20967102 C-19.84407959 26.18808899 -19.88597412 25.16650696 -19.92913818 24.1139679 C-20.04300269 16.98604988 -18.94042172 11.8397275 -14.48968506 6.14717102 C-10.10784698 2.1362758 -5.95126923 0.03181781 0 0 Z " fill="#59638C" transform="translate(205.48968505859375,41.85282897949219)"/>
<path d="M0 0 C18.48 0 36.96 0 56 0 C56 8.25 56 16.5 56 25 C48.66902187 27.14117581 41.33725568 29.27909056 34.00292969 31.40869141 C31.50757894 32.13431057 29.01278281 32.86183989 26.51855469 33.59130859 C22.93568313 34.63880684 19.3508806 35.67944524 15.765625 36.71875 C14.64883362 37.04685669 13.53204224 37.37496338 12.38140869 37.7130127 C11.34063171 38.01332397 10.29985474 38.31363525 9.22753906 38.62304688 C8.31264709 38.88952026 7.39775513 39.15599365 6.45513916 39.43054199 C4 40 4 40 0 40 C0 26.8 0 13.6 0 0 Z " fill="#AAB3DB" transform="translate(448,216)"/>
<path d="M0 0 C18.48 0 36.96 0 56 0 C56 13.2 56 26.4 56 40 C51.5839745 39.36913921 47.88813928 38.80671029 43.70727539 37.60131836 C42.72678726 37.32110336 41.74629913 37.04088837 40.73609924 36.75218201 C39.70041306 36.45111038 38.66472687 36.15003876 37.59765625 35.83984375 C36.51995468 35.53051407 35.44225311 35.22118439 34.33189392 34.90248108 C30.90749248 33.91850622 27.48498997 32.92810053 24.0625 31.9375 C21.73384654 31.26715214 19.40507176 30.59722559 17.07617188 29.92773438 C11.38245497 28.29081612 5.69135354 26.64520664 0 25 C0 16.75 0 8.5 0 0 Z " fill="#AAB3DC" transform="translate(8,216)"/>
<path d="M0 0 C0.66700928 -0.00525696 1.33401855 -0.01051392 2.02124023 -0.01593018 C4.22606835 -0.0291334 6.4301743 -0.0203906 8.63500977 -0.01025391 C10.16813801 -0.0122748 11.70126531 -0.01518638 13.23439026 -0.01895142 C16.44818266 -0.02337538 19.66172495 -0.01694249 22.87548828 -0.00292969 C26.99265464 0.01414809 31.10923371 0.00433082 35.22637844 -0.01364708 C38.39285189 -0.02449542 41.55918647 -0.02103356 44.72566414 -0.0132637 C46.2435011 -0.01126384 47.76135071 -0.01371349 49.2791729 -0.02070236 C51.4025999 -0.02833282 53.52508084 -0.01669115 55.6484375 0 C57.46020729 0.00358017 57.46020729 0.00358017 59.30857849 0.00723267 C62.6136583 0.41597788 63.98765978 1.14356382 66.38891602 3.38818359 C66.07641602 6.76318359 66.07641602 6.76318359 65.38891602 10.38818359 C61.76915327 12.80135876 60.07132846 12.65156132 55.76196289 12.67871094 C55.09334732 12.68542816 54.42473175 12.69214539 53.7358551 12.69906616 C51.52638312 12.71805971 49.31721454 12.72197063 47.10766602 12.72412109 C45.57214228 12.7305469 44.03661978 12.73727509 42.50109863 12.74429321 C39.28317423 12.75626849 36.06535722 12.75997367 32.84741211 12.75878906 C28.72109901 12.75858558 24.59547241 12.78591596 20.4693222 12.82033348 C17.29861274 12.84255154 14.12807001 12.84662823 10.95729065 12.84556961 C9.43581266 12.84793219 7.91433053 12.85679259 6.39292908 12.87223434 C4.26675008 12.89179783 2.14207149 12.88609695 0.01586914 12.87402344 C-1.194198 12.87687347 -2.40426514 12.87972351 -3.65100098 12.88265991 C-6.61108398 12.38818359 -6.61108398 12.38818359 -8.50183105 10.51797485 C-9.87640636 7.8787585 -10.06293216 6.32519672 -9.61108398 3.38818359 C-7.07286341 -0.33390735 -4.26526068 0.00843398 0 0 Z " fill="#B3E5FE" transform="translate(115.611083984375,105.61181640625)"/>
<path d="M0 0 C5.67476113 1.96434039 9.31400331 5.62800662 12 11 C12.59057744 16.67862925 12.29370905 21.16922672 9 26 C4.99653611 30.03627917 1.41408246 32.12458106 -4.3125 32.3125 C-8.94226662 32.25237316 -11.4369151 31.06591027 -15 28 C-19.3022759 23.23261319 -20.36282503 19.56252705 -20.28125 13.28125 C-19.69180611 8.50020514 -16.85179203 5.75038822 -13.375 2.6875 C-8.92314854 -0.47565762 -5.3540278 -0.48837416 0 0 Z " fill="#97F386" transform="translate(324,224)"/>
<path d="M0 0 C5.67476113 1.96434039 9.31400331 5.62800662 12 11 C12.59057744 16.67862925 12.29370905 21.16922672 9 26 C4.99653611 30.03627917 1.41408246 32.12458106 -4.3125 32.3125 C-8.94226662 32.25237316 -11.4369151 31.06591027 -15 28 C-19.3022759 23.23261319 -20.36282503 19.56252705 -20.28125 13.28125 C-19.69180611 8.50020514 -16.85179203 5.75038822 -13.375 2.6875 C-8.92314854 -0.47565762 -5.3540278 -0.48837416 0 0 Z " fill="#FBCD7D" transform="translate(260,224)"/>
<path d="M0 0 C5.67476113 1.96434039 9.31400331 5.62800662 12 11 C12.59057744 16.67862925 12.29370905 21.16922672 9 26 C4.99653611 30.03627917 1.41408246 32.12458106 -4.3125 32.3125 C-8.94226662 32.25237316 -11.4369151 31.06591027 -15 28 C-19.48735572 23.14880463 -20.37944978 19.62737243 -20.28125 13.0234375 C-19.64340739 8.4345143 -16.71392374 5.62893282 -13.375 2.6875 C-8.92314854 -0.47565762 -5.3540278 -0.48837416 0 0 Z " fill="#FB6D95" transform="translate(196,224)"/>
</svg>
