<?xml version="1.0" encoding="UTF-8"?>
<svg version="1.1" xmlns="http://www.w3.org/2000/svg" width="512" height="512">
<path d="M0 0 C1.08179079 -0.00445784 2.16358157 -0.00891569 3.2781539 -0.01350862 C5.05229721 -0.01323207 5.05229721 -0.01323207 6.8622818 -0.01294994 C8.1232828 -0.01662663 9.3842838 -0.02030332 10.68349695 -0.02409142 C14.18159171 -0.03408937 17.67966932 -0.03782466 21.17777634 -0.04048073 C24.95166754 -0.04439038 28.72554524 -0.05396831 32.4994278 -0.0626936 C41.61279608 -0.0824401 50.72616545 -0.09252225 59.83954978 -0.10142139 C64.13446611 -0.10580755 68.42938121 -0.11117354 72.72429657 -0.11641026 C87.0074386 -0.13342127 101.29057987 -0.1479143 115.57373047 -0.155159 C119.27884166 -0.1570688 122.98395285 -0.15898914 126.68906403 -0.16094494 C127.60991706 -0.16142868 128.5307701 -0.16191242 129.47952777 -0.16241082 C144.38874255 -0.17070687 159.29787699 -0.19603718 174.2070567 -0.22852562 C189.52459747 -0.26163092 204.84209745 -0.27961092 220.15967417 -0.28280324 C228.75559631 -0.2849652 237.35140131 -0.29366772 245.94728851 -0.31926441 C253.26968879 -0.34101894 260.59194346 -0.34899857 267.91437238 -0.33929763 C271.64667261 -0.33476654 275.37867273 -0.33656904 279.1109314 -0.35605907 C283.16790544 -0.37706065 287.22421999 -0.36666186 291.28122711 -0.35352612 C292.44614355 -0.36449536 293.61105998 -0.37546461 294.81127691 -0.38676625 C307.62417479 -0.28705572 319.00354605 3.15619465 328.50937653 11.91156483 C335.59119115 19.34291108 339.71128045 28.78079932 339.69994354 39.06337452 C339.70200554 40.51250484 339.70200554 40.51250484 339.70410919 41.99091053 C339.70051392 43.03891834 339.69691864 44.08692616 339.69321442 45.16669178 C339.69336044 46.27932896 339.69350647 47.39196613 339.69365692 48.53831959 C339.69296082 52.21223374 339.68518253 55.88609705 339.67734528 59.56000233 C339.67548002 62.10876405 339.67405663 64.65752613 339.67305756 67.20628834 C339.66963085 73.22684643 339.66175107 79.24738274 339.65170807 85.26793212 C339.6405202 92.12402149 339.63502974 98.98011175 339.63001263 105.83620799 C339.61956773 119.93555576 339.60198496 134.03488742 339.57968903 148.13422108 C340.69496979 148.27754871 341.81025055 148.42087635 342.9593277 148.56854725 C348.24397879 149.39426285 350.70656417 151.66510195 353.95468903 155.94672108 C355.3811852 160.93945769 355.29715123 165.33987874 352.95468903 169.94672108 C350.57968903 173.13422108 350.57968903 173.13422108 344.57968903 176.13422108 C338.30968903 176.13422108 332.03968903 176.13422108 325.57968903 176.13422108 C325.57968903 246.75422108 325.57968903 317.37422108 325.57968903 390.13422108 C331.51968903 390.13422108 337.45968903 390.13422108 343.57968903 390.13422108 C349.19107751 392.93991532 351.84322855 394.66130012 354.57968903 400.13422108 C355.1224984 406.53937169 354.44760333 409.94307293 350.57968903 415.13422108 C346.70918759 417.687105 344.12772263 418.26504438 339.57968903 418.13422108 C339.58635086 418.69940952 339.5930127 419.26459797 339.5998764 419.84691334 C339.66630626 425.73551202 339.71152134 431.62400404 339.74448395 437.51288319 C339.75955954 439.70986728 339.78002328 441.90682134 339.80600739 444.1037035 C339.84244405 447.26369108 339.85942787 450.42328032 339.87265778 453.58343983 C339.88814163 454.56382725 339.90362549 455.54421467 339.91957855 456.5543108 C339.92080891 461.55285975 339.91153249 465.10809445 336.57968903 469.13422108 C333.16032111 471.69874701 329.72413117 471.2936227 325.57968903 471.13422108 C325.63769684 472.01465076 325.69570465 472.89508045 325.75547028 473.80218983 C326.11790783 483.13236809 326.11790783 483.13236809 324.53672028 486.07562733 C321.32488978 489.23094468 318.67853148 490.25595608 314.31699371 490.31122303 C313.43557709 490.32405827 312.55416046 490.3368935 311.64603424 490.35011768 C310.21327148 490.36119808 310.21327148 490.36119808 308.75156403 490.37250233 C307.76980194 490.38057407 306.78803986 490.38864582 305.7765274 490.39696217 C303.69514485 490.410809 301.61373953 490.42152846 299.53232574 490.42938709 C296.35626604 490.44657723 293.18125329 490.49045564 290.00547028 490.5346117 C287.98334252 490.54474057 285.9612059 490.55325607 283.93906403 490.56000233 C282.99198578 490.57751041 282.04490753 490.5950185 281.06912994 490.61305714 C275.26455566 490.59406251 272.00990573 489.98356525 267.57968903 486.13422108 C265.33865752 481.65215806 266.57968903 476.14531987 266.57968903 471.13422108 C189.35968903 471.13422108 112.13968903 471.13422108 32.57968903 471.13422108 C32.57968903 475.42422108 32.57968903 479.71422108 32.57968903 484.13422108 C30.34742577 487.18889711 28.8896525 488.47923934 25.57968903 490.13422108 C24.16177567 490.24356079 22.73900242 490.29320414 21.31699371 490.31122303 C20.43557709 490.32405827 19.55416046 490.3368935 18.64603424 490.35011768 C17.21327148 490.36119808 17.21327148 490.36119808 15.75156403 490.37250233 C14.76980194 490.38057407 13.78803986 490.38864582 12.7765274 490.39696217 C10.69514485 490.410809 8.61373953 490.42152846 6.53232574 490.42938709 C3.35626604 490.44657723 0.18125329 490.49045564 -2.99452972 490.5346117 C-5.01665748 490.54474057 -7.0387941 490.55325607 -9.06093597 490.56000233 C-10.00801422 490.57751041 -10.95509247 490.5950185 -11.93087006 490.61305714 C-17.73544434 490.59406251 -20.99009427 489.98356525 -25.42031097 486.13422108 C-26.86239039 483.25006225 -26.51425984 480.71700579 -26.48281097 477.50922108 C-26.47378754 476.32070545 -26.4647641 475.13218983 -26.45546722 473.90765858 C-26.44386566 472.9924242 -26.4322641 472.07718983 -26.42031097 471.13422108 C-27.99812347 471.22703358 -27.99812347 471.22703358 -29.60781097 471.32172108 C-33.64491546 471.12317495 -35.30393676 470.62732045 -38.42031097 468.13422108 C-40.25913535 465.15764818 -40.6664426 462.93017609 -40.64736176 459.45746326 C-40.64721069 458.5368108 -40.64705963 457.61615833 -40.64690399 456.66760731 C-40.63658142 455.6820586 -40.62625885 454.6965099 -40.61562347 453.68109608 C-40.61279358 452.6657378 -40.60996368 451.65037952 -40.60704803 450.60425282 C-40.59586099 447.36412191 -40.57075889 444.12426831 -40.54531097 440.88422108 C-40.53527928 438.6863084 -40.52615376 436.4883914 -40.51796722 434.29047108 C-40.49592649 428.90495994 -40.46246348 423.51961032 -40.42031097 418.13422108 C-42.31136566 417.95826405 -42.31136566 417.95826405 -44.24062347 417.77875233 C-47.71370379 417.4555925 -48.39700349 417.1529684 -51.29531097 414.82172108 C-54.7168614 410.49446613 -55.88939945 407.86818623 -55.74062347 402.16156483 C-55.06675177 397.89645005 -52.50387075 395.08644028 -49.35781097 392.32172108 C-42.05399893 387.84519112 -36.26334423 390.13422108 -26.42031097 390.13422108 C-26.42031097 319.51422108 -26.42031097 248.89422108 -26.42031097 176.13422108 C-32.69031097 176.13422108 -38.96031097 176.13422108 -45.42031097 176.13422108 C-53.697338 171.40449135 -53.697338 171.40449135 -55.42031097 166.13422108 C-56.13751054 161.65172378 -55.81282393 158.87719203 -53.67031097 154.82172108 C-49.45510279 149.78688908 -46.94458852 148.96017491 -40.42031097 148.13422108 C-40.42307635 147.55591352 -40.42584173 146.97760597 -40.42869091 146.38177395 C-40.49510101 132.27490923 -40.54466438 118.16806811 -40.57574749 104.06107998 C-40.59118069 97.23888611 -40.6122018 90.41679694 -40.64662933 83.5946703 C-40.67985754 77.0070301 -40.69718068 70.41946983 -40.7049427 63.83174229 C-40.71047209 61.32242976 -40.72126956 58.81312297 -40.73750114 56.30385685 C-40.75937924 52.78054833 -40.76227349 49.2576846 -40.76088715 45.73431873 C-40.77167297 44.7042873 -40.7824588 43.67425587 -40.79357147 42.61301136 C-40.74387589 30.88849485 -37.26947789 20.76095582 -29.45156097 11.90375233 C-21.4223841 4.15094205 -11.13793853 0.02135701 0 0 Z " fill="#FED1BF" transform="translate(106.4203109741211,10.865778923034668)"/>
<path d="M0 0 C1.08179079 -0.00445784 2.16358157 -0.00891569 3.2781539 -0.01350862 C5.05229721 -0.01323207 5.05229721 -0.01323207 6.8622818 -0.01294994 C8.1232828 -0.01662663 9.3842838 -0.02030332 10.68349695 -0.02409142 C14.18159171 -0.03408937 17.67966932 -0.03782466 21.17777634 -0.04048073 C24.95166754 -0.04439038 28.72554524 -0.05396831 32.4994278 -0.0626936 C41.61279608 -0.0824401 50.72616545 -0.09252225 59.83954978 -0.10142139 C64.13446611 -0.10580755 68.42938121 -0.11117354 72.72429657 -0.11641026 C87.0074386 -0.13342127 101.29057987 -0.1479143 115.57373047 -0.155159 C119.27884166 -0.1570688 122.98395285 -0.15898914 126.68906403 -0.16094494 C127.60991706 -0.16142868 128.5307701 -0.16191242 129.47952777 -0.16241082 C144.38874255 -0.17070687 159.29787699 -0.19603718 174.2070567 -0.22852562 C189.52459747 -0.26163092 204.84209745 -0.27961092 220.15967417 -0.28280324 C228.75559631 -0.2849652 237.35140131 -0.29366772 245.94728851 -0.31926441 C253.26968879 -0.34101894 260.59194346 -0.34899857 267.91437238 -0.33929763 C271.64667261 -0.33476654 275.37867273 -0.33656904 279.1109314 -0.35605907 C283.16790544 -0.37706065 287.22421999 -0.36666186 291.28122711 -0.35352612 C292.44614355 -0.36449536 293.61105998 -0.37546461 294.81127691 -0.38676625 C307.62417479 -0.28705572 319.00354605 3.15619465 328.50937653 11.91156483 C358.64134812 43.53073674 339.57968903 140.13658536 339.57968903 149.13422108 C214.17968903 149.13422108 88.77968903 149.13422108 -40.42031097 149.13422108 C-40.42031097 24.33064965 -40.42031097 24.33064965 -29.45156097 11.90375233 C-21.4223841 4.15094205 -11.13793853 0.02135701 0 0 Z " fill="#FEA81A" transform="translate(106.4203109741211,10.865778923034668)"/>
<path d="M0 0 C31.35 0 62.7 0 95 0 C95.33 7.26 95.66 14.52 96 22 C97.66342837 23.66342837 99.7825709 23.36048097 102.0625 23.5625 C102.98160156 23.64628906 103.90070313 23.73007813 104.84765625 23.81640625 C105.91306641 23.90728516 105.91306641 23.90728516 107 24 C107.029729 25.21115479 107.029729 25.21115479 107.06005859 26.44677734 C107.15505899 30.08985875 107.26483912 33.73234686 107.375 37.375 C107.4059375 38.64601562 107.436875 39.91703125 107.46875 41.2265625 C107.50742188 42.43828125 107.54609375 43.65 107.5859375 44.8984375 C107.6173584 46.01911621 107.6487793 47.13979492 107.68115234 48.29443359 C107.73411203 51.14710412 107.73411203 51.14710412 110 53 C112.61558468 53.30710343 112.61558468 53.30710343 115.703125 53.25878906 C116.89776367 53.26509338 118.09240234 53.27139771 119.32324219 53.27789307 C120.61907227 53.2738446 121.91490234 53.26979614 123.25 53.265625 C124.58756582 53.26697178 125.92513117 53.26891243 127.26269531 53.27142334 C130.06710466 53.274374 132.87138669 53.27007894 135.67578125 53.26074219 C139.27404922 53.24934754 142.87201886 53.25590734 146.47027588 53.26788712 C149.23260758 53.27510736 151.99486833 53.27281706 154.75720215 53.26763153 C156.73038933 53.26564475 158.70357926 53.27172842 160.67675781 53.27789307 C161.87139648 53.27158875 163.06603516 53.26528442 164.296875 53.25878906 C165.35229492 53.25719788 166.40771484 53.25560669 167.49511719 53.25396729 C170.1722834 53.24916529 170.1722834 53.24916529 172 51 C172.39764263 49.01178687 172.73775349 47.01055661 173 45 C177.37821909 44.9259281 181.75610782 44.87143625 186.13476562 44.83520508 C187.62473909 44.820104 189.11466801 44.79962142 190.60449219 44.77368164 C192.7442523 44.73735416 194.88342566 44.72028779 197.0234375 44.70703125 C198.31169434 44.6913208 199.59995117 44.67561035 200.92724609 44.65942383 C201.94125488 44.77181396 202.95526367 44.8842041 204 45 C204.66 45.99 205.32 46.98 206 48 C209.45747847 49.33505114 213.23198199 49.30111185 216.8984375 49.53515625 C217.56984772 49.57813339 218.24125793 49.62111053 218.93301392 49.66539001 C220.35675615 49.75543055 221.7806199 49.84356708 223.20458984 49.92993164 C225.3334327 50.05996107 227.46159816 50.19846751 229.58984375 50.33789062 C246.10077012 52.0538095 246.10077012 52.0538095 262 49 C263.39238047 47.13252737 263.39238047 47.13252737 264 45 C264.33 44.01 264.66 43.02 265 42 C265.39308695 37.20433923 265.48270142 34.93092416 263.25 30.625 C261.03772899 28.04401716 260.09719223 27.14775156 257 26 C253.93464157 25.78336232 253.93464157 25.78336232 250.53125 25.953125 C249.24629639 25.99421387 247.96134277 26.03530273 246.63745117 26.07763672 C245.25826065 26.13411967 243.87911035 26.19159233 242.5 26.25 C241.80758209 26.27644592 241.11516418 26.30289185 240.40176392 26.33013916 C231.65242785 26.6643473 222.90972116 27.09434803 214.1875 27.875 C213.37152344 27.94106445 212.55554688 28.00712891 211.71484375 28.07519531 C209.25912509 28.29178872 209.25912509 28.29178872 206 29 C205.01 30.485 205.01 30.485 204 32 C200.92724609 32.34057617 200.92724609 32.34057617 197.0234375 32.29296875 C196.33819 32.28872391 195.6529425 32.28447906 194.94692993 32.28010559 C192.75588871 32.26329753 190.56576368 32.22564405 188.375 32.1875 C186.89063827 32.17245579 185.40626215 32.15876693 183.921875 32.14648438 C180.28095167 32.1133879 176.64056522 32.06159207 173 32 C173 29.36 173 26.72 173 24 C174.04800781 23.92652344 174.04800781 23.92652344 175.1171875 23.8515625 C176.02726563 23.77679688 176.93734375 23.70203125 177.875 23.625 C178.77992188 23.55539063 179.68484375 23.48578125 180.6171875 23.4140625 C183.17941903 23.20431868 183.17941903 23.20431868 185 21 C185.33 14.07 185.66 7.14 186 0 C217.02 0 248.04 0 280 0 C280 70.95 280 141.9 280 215 C242.71 215 205.42 215 167 215 C169.66229438 212.33770562 171.74477243 210.87531722 174.9375 209 C199.08129632 193.77475641 214.03076813 167.12203968 221 140 C221.91983206 135.67584106 222.57279163 131.39909157 223 127 C223.09539062 126.05898438 223.19078125 125.11796875 223.2890625 124.1484375 C223.6560749 118.84772473 223.6560749 118.84772473 220.86833954 114.40016937 C217.43329847 111.52579545 215.96481074 111.37575978 211.54797363 111.37854004 C209.59221153 111.36172684 209.59221153 111.36172684 207.59693909 111.34457397 C206.15902264 111.35748409 204.72111065 111.37089818 203.28320312 111.38476562 C201.76349773 111.38126333 200.243796 111.37560351 198.72410583 111.36795044 C194.60205304 111.35370814 190.48066778 111.37075807 186.35867882 111.39423561 C182.04352448 111.41435021 177.7283977 111.40846474 173.41320801 111.40612793 C166.16679889 111.4061815 158.92065057 111.42593442 151.67431641 111.45800781 C143.29851225 111.49490039 134.92304973 111.5036833 126.54717493 111.4967103 C118.48737128 111.49040334 110.42768469 111.50116315 102.36790466 111.52067566 C98.93898347 111.52884685 95.51012213 111.53155972 92.08119202 111.52998352 C88.04275649 111.52910406 84.00464522 111.54333703 79.96629524 111.56921005 C78.48485448 111.57636738 77.0033792 111.57845755 75.52192497 111.57509232 C73.49860332 111.57137313 71.47527479 111.58797867 69.45202637 111.60559082 C68.32010612 111.60931953 67.18818588 111.61304825 66.02196503 111.61688995 C62.6267025 112.04732484 60.73402754 112.97364699 58 115 C52.87458308 125.25083384 59.16975889 140.48077903 62.5078125 150.6796875 C71.2921472 176.44060699 86.99191925 199.62194604 111.26953125 212.9765625 C112.12611328 213.48316406 112.12611328 213.48316406 113 214 C113 214.33 113 214.66 113 215 C75.71 215 38.42 215 0 215 C0 144.05 0 73.1 0 0 Z " fill="#59595A" transform="translate(116,187)"/>
<path d="M0 0 C0.65675294 -0.00205263 1.31350589 -0.00410527 1.99016044 -0.0062201 C4.20627417 -0.01190605 6.42232608 -0.0104309 8.63844585 -0.00901413 C10.23718214 -0.01159685 11.83591777 -0.01460975 13.43465251 -0.01801753 C17.84010465 -0.02610168 22.24554051 -0.02787789 26.65099919 -0.028615 C31.39753129 -0.03046309 36.14405488 -0.03800916 40.89058208 -0.04475021 C51.27477249 -0.05834385 61.65895904 -0.06435979 72.04315686 -0.06876087 C78.52400402 -0.07152142 85.00484969 -0.07575841 91.48569584 -0.08026505 C109.42058023 -0.0924588 127.35546342 -0.10275807 145.29035187 -0.10614014 C146.4386703 -0.1063597 147.58698873 -0.10657927 148.77010469 -0.10680549 C149.92120745 -0.10702377 151.07231021 -0.10724204 152.25829488 -0.10746694 C154.59095975 -0.10791041 156.92362462 -0.10835697 159.25628948 -0.10880661 C160.41337765 -0.10902804 161.57046581 -0.10924947 162.76261725 -0.10947761 C181.51778433 -0.11342686 200.27291257 -0.1308843 219.02806465 -0.15416613 C238.27230133 -0.17786278 257.51651851 -0.19034121 276.76077002 -0.19150805 C287.57032617 -0.19242574 298.37983173 -0.19820153 309.18937397 -0.21632767 C318.39276356 -0.23170586 327.59608693 -0.23686261 336.79948691 -0.22858956 C341.49689407 -0.22467503 346.19416779 -0.22565175 350.89155865 -0.23964691 C355.19036362 -0.25233767 359.48893422 -0.25123099 363.78773864 -0.2390562 C365.34427524 -0.23709081 366.90082816 -0.24021631 368.45734177 -0.24890056 C370.57139006 -0.25995027 372.68460489 -0.2525359 374.79862976 -0.24050903 C375.97337713 -0.24110612 377.14812449 -0.24170321 378.35847026 -0.24231839 C383.33038115 0.33305594 386.56020668 1.99243678 389.90057659 5.69392776 C392.75179373 9.81235252 393.22226841 13.18294511 392.58807659 18.13142776 C390.62178603 23.81681648 388.15170048 25.34961582 382.58807659 28.13142776 C376.31807659 28.13142776 370.04807659 28.13142776 363.58807659 28.13142776 C363.58807659 99.08142776 363.58807659 170.03142776 363.58807659 243.13142776 C351.70807659 243.13142776 339.82807659 243.13142776 327.58807659 243.13142776 C327.58807659 172.18142776 327.58807659 101.23142776 327.58807659 28.13142776 C296.56807659 28.13142776 265.54807659 28.13142776 233.58807659 28.13142776 C233.58807659 35.06142776 233.58807659 41.99142776 233.58807659 49.13142776 C230.58807659 52.13142776 230.58807659 52.13142776 228.10760784 52.42439651 C227.21428753 52.38959183 226.32096722 52.35478714 225.40057659 52.31892776 C224.4995219 52.29185745 223.59846722 52.26478714 222.67010784 52.23689651 C221.98303753 52.20209183 221.29596722 52.16728714 220.58807659 52.13142776 C220.58807659 54.77142776 220.58807659 57.41142776 220.58807659 60.13142776 C230.81807659 60.13142776 241.04807659 60.13142776 251.58807659 60.13142776 C252.24807659 58.81142776 252.90807659 57.49142776 253.58807659 56.13142776 C256.42007933 55.48620155 258.90004035 55.14660623 261.77557659 54.94392776 C262.63038616 54.87351273 263.48519573 54.80309769 264.36590862 54.73054886 C267.4385958 54.49781006 270.51181653 54.3109171 273.58807659 54.13142776 C275.51079388 54.01275345 275.51079388 54.01275345 277.47235394 53.89168167 C280.94045539 53.68380313 284.40914937 53.50825371 287.87997723 53.35271072 C289.26210394 53.28882743 290.64395266 53.21859516 292.025424 53.14183426 C293.99058661 53.03621858 295.95736961 52.96223501 297.92401409 52.88924026 C299.06402874 52.83912796 300.20404339 52.78901566 301.37860394 52.7373848 C306.25171351 53.33568077 309.36048248 55.65831483 312.46307659 59.38142776 C314.24497705 63.73718444 314.44708183 67.69029988 312.89667034 72.09627151 C310.61593772 76.61002268 308.16297916 78.27780641 303.58807659 80.13142776 C300.52191448 80.45515823 300.52191448 80.45515823 297.24823284 80.37361526 C295.40962688 80.3325264 295.40962688 80.3325264 293.53387737 80.29060745 C292.23176311 80.23807816 290.92964886 80.18554886 289.58807659 80.13142776 C288.9236253 80.10472 288.259174 80.07801224 287.57458782 80.05049515 C283.42481886 79.87524208 279.27996389 79.64705653 275.13470745 79.38679886 C272.99655933 79.25463413 270.8579025 79.13623555 268.71893597 79.01814651 C267.34063009 78.93434027 265.96237251 78.84973506 264.58417034 78.76424026 C263.35883587 78.69092484 262.1335014 78.61760941 260.87103558 78.5420723 C257.71955754 78.14787388 255.37871219 77.63878774 252.58807659 76.13142776 C252.25807659 75.14142776 251.92807659 74.15142776 251.58807659 73.13142776 C241.35807659 73.13142776 231.12807659 73.13142776 220.58807659 73.13142776 C220.58807659 75.11142776 220.58807659 77.09142776 220.58807659 79.13142776 C219.45062542 80.98216629 219.45062542 80.98216629 217.58807659 82.13142776 C214.96966839 82.51237869 214.96966839 82.51237869 211.78729534 82.51961136 C210.59595989 82.52906784 209.40462444 82.53852432 208.17718792 82.54826736 C206.24589031 82.53915833 206.24589031 82.53915833 204.27557659 82.52986526 C202.94183474 82.53188632 201.60809396 82.53479802 200.27435589 82.53856277 C197.48005933 82.54298472 194.68605061 82.53655966 191.89178753 82.52254105 C188.31033194 82.50544871 184.72955077 82.51529066 181.14811993 82.53325844 C178.39429933 82.54410008 175.64063858 82.54064831 172.88681316 82.53287506 C170.92419274 82.52990105 168.96156611 82.53901068 166.99896526 82.54826736 C165.21196209 82.53408264 165.21196209 82.53408264 163.38885784 82.51961136 C161.81358318 82.51603119 161.81358318 82.51603119 160.20648479 82.51237869 C157.58807659 82.13142776 157.58807659 82.13142776 155.74681377 80.78335953 C153.95139602 78.22375614 154.25164497 76.01807263 154.29510784 72.93220901 C154.30477581 71.72371292 154.31444378 70.51521683 154.32440472 69.27009964 C154.34954144 68.00746292 154.37467815 66.7448262 154.40057659 65.44392776 C154.41411175 64.16968948 154.4276469 62.8954512 154.44159222 61.58259964 C154.4769946 58.43178719 154.52637869 55.28181732 154.58807659 52.13142776 C153.88940472 52.15463089 153.19073284 52.17783401 152.47088909 52.20174026 C151.56081097 52.21978714 150.65073284 52.23783401 149.71307659 52.25642776 C148.35569378 52.29123245 148.35569378 52.29123245 146.97088909 52.32674026 C144.58807659 52.13142776 144.58807659 52.13142776 142.58807659 50.13142776 C142.58807659 42.87142776 142.58807659 35.61142776 142.58807659 28.13142776 C111.23807659 28.13142776 79.88807659 28.13142776 47.58807659 28.13142776 C47.58807659 99.08142776 47.58807659 170.03142776 47.58807659 243.13142776 C35.70807659 243.13142776 23.82807659 243.13142776 11.58807659 243.13142776 C11.58807659 172.18142776 11.58807659 101.23142776 11.58807659 28.13142776 C5.31807659 28.13142776 -0.95192341 28.13142776 -7.41192341 28.13142776 C-15.68895044 23.40169804 -15.68895044 23.40169804 -17.41192341 18.13142776 C-18.12912298 13.64893047 -17.80443636 10.87439871 -15.66192341 6.81892776 C-10.95152451 1.19261797 -7.25143321 0.00769752 0 0 Z " fill="#E5E6E7" transform="translate(68.4119234085083,158.86857223510742)"/>
<path d="M0 0 C125.4 0 250.8 0 380 0 C380 46 380 46 377 51 C373.58063208 53.56452594 370.14444215 53.15940162 366 53 C366.05800781 53.88042969 366.11601562 54.76085937 366.17578125 55.66796875 C366.53821881 64.99814701 366.53821881 64.99814701 364.95703125 67.94140625 C361.74520075 71.0967236 359.09884245 72.121735 354.73730469 72.17700195 C353.85588806 72.18983719 352.97447144 72.20267242 352.06634521 72.21589661 C351.11117004 72.22328354 350.15599487 72.23067047 349.171875 72.23828125 C348.19011292 72.246353 347.20835083 72.25442474 346.19683838 72.26274109 C344.11545582 72.27658792 342.0340505 72.28730739 339.95263672 72.29516602 C336.77657702 72.31235615 333.60156426 72.35623456 330.42578125 72.40039062 C328.40365349 72.4105195 326.38151688 72.41903499 324.359375 72.42578125 C323.41229675 72.44328934 322.46521851 72.46079742 321.48944092 72.47883606 C315.68486663 72.45984143 312.4302167 71.84934417 308 68 C305.75896849 63.51793698 307 58.01109879 307 53 C229.78 53 152.56 53 73 53 C73 57.29 73 61.58 73 66 C70.76773674 69.05467603 69.30996348 70.34501826 66 72 C64.58208665 72.10933972 63.1593134 72.15898306 61.73730469 72.17700195 C60.85588806 72.18983719 59.97447144 72.20267242 59.06634521 72.21589661 C58.11117004 72.22328354 57.15599487 72.23067047 56.171875 72.23828125 C54.69923187 72.25038887 54.69923187 72.25038887 53.19683838 72.26274109 C51.11545582 72.27658792 49.0340505 72.28730739 46.95263672 72.29516602 C43.77657702 72.31235615 40.60156426 72.35623456 37.42578125 72.40039062 C35.40365349 72.4105195 33.38151688 72.41903499 31.359375 72.42578125 C29.93875763 72.45204338 29.93875763 72.45204338 28.48944092 72.47883606 C22.68486663 72.45984143 19.4302167 71.84934417 15 68 C13.55792059 65.11584117 13.90605113 62.58278472 13.9375 59.375 C13.94652344 58.18648438 13.95554687 56.99796875 13.96484375 55.7734375 C13.97644531 54.85820312 13.98804687 53.94296875 14 53 C12.4221875 53.0928125 12.4221875 53.0928125 10.8125 53.1875 C6.77539551 52.98895388 5.11637422 52.49309937 2 50 C-5.45952039 35.08095922 0 16.67999467 0 0 Z " fill="#FEA819" transform="translate(66,429)"/>
<path d="M0 0 C31.02 0 62.04 0 94 0 C94 70.95 94 141.9 94 215 C56.71 215 19.42 215 -19 215 C-16.33770562 212.33770562 -14.25522757 210.87531722 -11.0625 209 C13.08129632 193.77475641 28.03076813 167.12203968 35 140 C35.91983206 135.67584106 36.57279163 131.39909157 37 127 C37.09539062 126.05898438 37.19078125 125.11796875 37.2890625 124.1484375 C37.5986662 118.96569418 37.5986662 118.96569418 35.22021484 114.40551758 C31.06096525 110.42112209 25.32313712 111.27370142 19.91796875 111.29296875 C18.88111938 111.27834595 17.84427002 111.26372314 16.77600098 111.24865723 C12.91340274 111.2013889 9.05037579 111.19699166 5.1875 111.1875 C-3.454375 111.125625 -12.09625 111.06375 -21 111 C-21 92.19 -21 73.38 -21 54 C-19.02 53.34 -17.04 52.68 -15 52 C-13.53977565 48.47548841 -13.53977565 48.47548841 -13 45 C-8.62178091 44.9259281 -4.24389218 44.87143625 0.13476562 44.83520508 C1.62473909 44.820104 3.11466801 44.79962142 4.60449219 44.77368164 C6.7442523 44.73735416 8.88342566 44.72028779 11.0234375 44.70703125 C12.31169434 44.6913208 13.59995117 44.67561035 14.92724609 44.65942383 C15.94125488 44.77181396 16.95526367 44.8842041 18 45 C18.66 45.99 19.32 46.98 20 48 C23.45747847 49.33505114 27.23198199 49.30111185 30.8984375 49.53515625 C31.56984772 49.57813339 32.24125793 49.62111053 32.93301392 49.66539001 C34.35675615 49.75543055 35.7806199 49.84356708 37.20458984 49.92993164 C39.3334327 50.05996107 41.46159816 50.19846751 43.58984375 50.33789062 C60.10077012 52.0538095 60.10077012 52.0538095 76 49 C77.39238047 47.13252737 77.39238047 47.13252737 78 45 C78.33 44.01 78.66 43.02 79 42 C79.39308695 37.20433923 79.48270142 34.93092416 77.25 30.625 C75.03772899 28.04401716 74.09719223 27.14775156 71 26 C67.93464157 25.78336232 67.93464157 25.78336232 64.53125 25.953125 C63.24629639 25.99421387 61.96134277 26.03530273 60.63745117 26.07763672 C59.25826065 26.13411967 57.87911035 26.19159233 56.5 26.25 C55.80758209 26.27644592 55.11516418 26.30289185 54.40176392 26.33013916 C45.65242785 26.6643473 36.90972116 27.09434803 28.1875 27.875 C27.37152344 27.94106445 26.55554688 28.00712891 25.71484375 28.07519531 C23.25912509 28.29178872 23.25912509 28.29178872 20 29 C19.34 29.99 18.68 30.98 18 32 C14.92724609 32.34057617 14.92724609 32.34057617 11.0234375 32.29296875 C10.33819 32.28872391 9.6529425 32.28447906 8.94692993 32.28010559 C6.75588871 32.26329753 4.56576368 32.22564405 2.375 32.1875 C0.89063827 32.17245579 -0.59373785 32.15876693 -2.078125 32.14648438 C-5.71904833 32.1133879 -9.35943478 32.06159207 -13 32 C-13 29.36 -13 26.72 -13 24 C-11.95199219 23.92652344 -11.95199219 23.92652344 -10.8828125 23.8515625 C-9.97273438 23.77679688 -9.06265625 23.70203125 -8.125 23.625 C-6.76761719 23.52058594 -6.76761719 23.52058594 -5.3828125 23.4140625 C-2.82058097 23.20431868 -2.82058097 23.20431868 -1 21 C-0.67 14.07 -0.34 7.14 0 0 Z " fill="#58595A" transform="translate(302,187)"/>
<path d="M0 0 C0.65675294 -0.00205263 1.31350589 -0.00410527 1.99016044 -0.0062201 C4.20627417 -0.01190605 6.42232608 -0.0104309 8.63844585 -0.00901413 C10.23718214 -0.01159685 11.83591777 -0.01460975 13.43465251 -0.01801753 C17.84010465 -0.02610168 22.24554051 -0.02787789 26.65099919 -0.028615 C31.39753129 -0.03046309 36.14405488 -0.03800916 40.89058208 -0.04475021 C51.27477249 -0.05834385 61.65895904 -0.06435979 72.04315686 -0.06876087 C78.52400402 -0.07152142 85.00484969 -0.07575841 91.48569584 -0.08026505 C109.42058023 -0.0924588 127.35546342 -0.10275807 145.29035187 -0.10614014 C146.4386703 -0.1063597 147.58698873 -0.10657927 148.77010469 -0.10680549 C149.92120745 -0.10702377 151.07231021 -0.10724204 152.25829488 -0.10746694 C154.59095975 -0.10791041 156.92362462 -0.10835697 159.25628948 -0.10880661 C160.41337765 -0.10902804 161.57046581 -0.10924947 162.76261725 -0.10947761 C181.51778433 -0.11342686 200.27291257 -0.1308843 219.02806465 -0.15416613 C238.27230133 -0.17786278 257.51651851 -0.19034121 276.76077002 -0.19150805 C287.57032617 -0.19242574 298.37983173 -0.19820153 309.18937397 -0.21632767 C318.39276356 -0.23170586 327.59608693 -0.23686261 336.79948691 -0.22858956 C341.49689407 -0.22467503 346.19416779 -0.22565175 350.89155865 -0.23964691 C355.19036362 -0.25233767 359.48893422 -0.25123099 363.78773864 -0.2390562 C365.34427524 -0.23709081 366.90082816 -0.24021631 368.45734177 -0.24890056 C370.57139006 -0.25995027 372.68460489 -0.2525359 374.79862976 -0.24050903 C375.97337713 -0.24110612 377.14812449 -0.24170321 378.35847026 -0.24231839 C383.33038115 0.33305594 386.56020668 1.99243678 389.90057659 5.69392776 C392.75179373 9.81235252 393.22226841 13.18294511 392.58807659 18.13142776 C391.24284429 22.02107087 389.42799303 24.61460142 385.86523336 26.80687672 C382.24130081 28.27158652 379.67599866 28.5083415 375.77856827 28.5117445 C375.11527664 28.51640442 374.45198501 28.52106434 373.76859364 28.52586547 C371.54810822 28.53780733 369.3282356 28.52842361 367.10774517 28.51910782 C365.49887976 28.5232811 363.89001729 28.52875859 362.2811603 28.53542763 C357.8615583 28.54990169 353.44214247 28.54563141 349.0225302 28.53826082 C344.25556818 28.53353631 339.48864685 28.54603262 334.72169781 28.55627823 C325.38352716 28.5734855 316.04542375 28.57430226 306.70724136 28.56906532 C299.11828734 28.56502607 291.5293532 28.56646427 283.94040012 28.57181358 C282.86084324 28.57256201 281.78128636 28.57331043 280.66901563 28.57408153 C278.47599494 28.57561298 276.28297427 28.57715133 274.08995359 28.5786965 C253.5184454 28.59242845 232.94697522 28.5869789 212.37546789 28.57551128 C193.55001545 28.56557757 174.72466127 28.57852074 155.89922399 28.60244548 C136.57464794 28.62681976 117.25011768 28.6364485 97.92552656 28.62979275 C87.07405708 28.62629689 76.2226632 28.62855681 65.37120533 28.64604378 C56.13385591 28.66074483 46.89663531 28.66142863 37.65928847 28.64397287 C32.94550361 28.63544331 28.2319491 28.63336094 23.51817608 28.64862442 C19.2033285 28.66242331 14.88890966 28.65777048 10.5740872 28.63838518 C9.01291538 28.63461008 7.45170961 28.63759049 5.89056791 28.64799684 C-8.71781931 28.73845232 -8.71781931 28.73845232 -14.41192341 24.13142776 C-17.15505245 20.23795428 -17.95515336 16.76460701 -17.76739216 12.08845901 C-17.00122074 7.87030648 -14.47943887 5.06954742 -11.34942341 2.31892776 C-7.55117662 -0.00902994 -4.35580171 0.00462376 0 0 Z " fill="#E5E6E7" transform="translate(68.4119234085083,400.8685722351074)"/>
<path d="M0 0 C7.13549939 1.22924019 11.51403226 5.69790462 15.80859375 11.40234375 C38.54378363 47.29105994 23 125.20585932 23 144 C-102.4 144 -227.8 144 -357 144 C-357 136.99792417 -356.89592708 130.83144398 -356 124 C-355.25919325 123.99902319 -354.5183865 123.99804638 -353.75513107 123.99703997 C-309.87316694 123.93879947 -265.99125259 123.86502664 -222.10934978 123.77101372 C-216.84332652 123.75974522 -211.577303 123.74860682 -206.3112793 123.73754883 C-205.26288506 123.73534514 -204.21449083 123.73314146 -203.13432708 123.730871 C-186.14691437 123.69547457 -169.15950171 123.67062368 -152.17206577 123.64965298 C-134.74835085 123.6279096 -117.32468388 123.59487314 -99.90100974 123.55129844 C-89.14502447 123.52475649 -78.389099 123.50707986 -67.63308259 123.50065396 C-60.26265324 123.49540785 -52.8922992 123.4792171 -45.52191017 123.45433434 C-41.26616902 123.44029265 -37.01056276 123.43115846 -32.75479698 123.43499184 C-28.86051288 123.43839334 -24.96651727 123.42808797 -21.07229229 123.40676448 C-19.66172457 123.40148098 -18.25112702 123.401278 -16.84055946 123.40660437 C-14.92601555 123.41309871 -13.01143481 123.39944862 -11.09693623 123.38476086 C-10.03258014 123.38286225 -8.96822405 123.38096365 -7.87161475 123.37900752 C-4.56573754 122.94268426 -2.68357841 121.94623384 0 120 C1.90339961 117.19189857 2.25062471 114.95948018 2.25396729 111.60679626 C2.25960693 110.73370819 2.26524658 109.86062012 2.27105713 108.96107483 C2.26700867 108.01090988 2.26296021 107.06074493 2.25878906 106.08178711 C2.2622937 105.07474731 2.26579834 104.06770752 2.26940918 103.03015137 C2.27822142 99.6958123 2.27237594 96.36168505 2.265625 93.02734375 C2.26697253 90.70528625 2.2689138 88.38322902 2.27142334 86.06117249 C2.27437453 81.1879712 2.27007979 76.31484316 2.26074219 71.44165039 C2.24939211 65.21673917 2.25587894 58.99200127 2.26788712 52.76709652 C2.27514378 47.96705338 2.27279958 43.16705072 2.26763153 38.3670063 C2.26630324 36.07345115 2.26791381 33.77989225 2.27259064 31.48634148 C2.27771352 28.26545495 2.26986324 25.04484104 2.25878906 21.82397461 C2.26486176 20.41998161 2.26486176 20.41998161 2.27105713 18.98762512 C2.22995883 12.48125107 1.34543059 6.36193462 0 0 Z " fill="#F6921E" transform="translate(423,16)"/>
<path d="M0 0 C11.88 0 23.76 0 36 0 C36 70.95 36 141.9 36 215 C24.12 215 12.24 215 0 215 C0 144.05 0 73.1 0 0 Z " fill="#FEA819" transform="translate(396,187)"/>
<path d="M0 0 C11.88 0 23.76 0 36 0 C36 70.95 36 141.9 36 215 C24.12 215 12.24 215 0 215 C0 144.05 0 73.1 0 0 Z " fill="#FEA819" transform="translate(80,187)"/>
<path d="M0 0 C3.63 0 7.26 0 11 0 C11.0742212 6.45952852 11.12863632 12.91880816 11.16479492 19.37866211 C11.17987052 21.57564621 11.20033426 23.77260026 11.22631836 25.96948242 C11.26275502 29.12947 11.27973884 32.28905924 11.29296875 35.44921875 C11.30845261 36.42960617 11.32393646 37.40999359 11.33988953 38.42008972 C11.34111988 43.41863867 11.33184346 46.97387337 8 51 C4.58063208 53.56452594 1.14444215 53.15940162 -3 53 C-2.94199219 53.88042969 -2.88398438 54.76085937 -2.82421875 55.66796875 C-2.46178119 64.99814701 -2.46178119 64.99814701 -4.04296875 67.94140625 C-7.25479925 71.0967236 -9.90115755 72.121735 -14.26269531 72.17700195 C-15.14411194 72.18983719 -16.02552856 72.20267242 -16.93365479 72.21589661 C-17.88882996 72.22328354 -18.84400513 72.23067047 -19.828125 72.23828125 C-20.80988708 72.246353 -21.79164917 72.25442474 -22.80316162 72.26274109 C-24.88454418 72.27658792 -26.9659495 72.28730739 -29.04736328 72.29516602 C-32.22342298 72.31235615 -35.39843574 72.35623456 -38.57421875 72.40039062 C-40.59634651 72.4105195 -42.61848312 72.41903499 -44.640625 72.42578125 C-45.58770325 72.44328934 -46.53478149 72.46079742 -47.51055908 72.47883606 C-53.31513337 72.45984143 -56.5697833 71.84934417 -61 68 C-63.24103151 63.51793698 -62 58.01109879 -62 53 C-139.22 53 -216.44 53 -296 53 C-296 57.29 -296 61.58 -296 66 C-298.23226326 69.05467603 -299.69003652 70.34501826 -303 72 C-304.41791335 72.10933972 -305.8406866 72.15898306 -307.26269531 72.17700195 C-308.14411194 72.18983719 -309.02552856 72.20267242 -309.93365479 72.21589661 C-310.88882996 72.22328354 -311.84400513 72.23067047 -312.828125 72.23828125 C-314.30076813 72.25038887 -314.30076813 72.25038887 -315.80316162 72.26274109 C-317.88454418 72.27658792 -319.9659495 72.28730739 -322.04736328 72.29516602 C-325.22342298 72.31235615 -328.39843574 72.35623456 -331.57421875 72.40039062 C-333.59634651 72.4105195 -335.61848312 72.41903499 -337.640625 72.42578125 C-339.06124237 72.45204338 -339.06124237 72.45204338 -340.51055908 72.47883606 C-346.31513337 72.45984143 -349.5697833 71.84934417 -354 68 C-355.44207941 65.11584117 -355.09394887 62.58278472 -355.0625 59.375 C-355.05347656 58.18648438 -355.04445313 56.99796875 -355.03515625 55.7734375 C-355.02355469 54.85820312 -355.01195312 53.94296875 -355 53 C-356.5778125 53.0928125 -356.5778125 53.0928125 -358.1875 53.1875 C-362.25699071 52.98736111 -364.00125735 52.73414771 -367 50 C-367.40575752 47.6781653 -367.74536027 45.3432273 -368 43 C-367.23803356 42.99902319 -366.47606711 42.99804638 -365.69101077 42.99703997 C-320.55648021 42.93880053 -275.42199803 42.8650285 -230.28752707 42.77101372 C-224.87129107 42.75974521 -219.4550548 42.74860681 -214.03881836 42.73754883 C-212.42136779 42.7342433 -212.42136779 42.7342433 -210.77124145 42.730871 C-193.29883904 42.69547376 -175.82643669 42.67062333 -158.35401169 42.64965298 C-140.43309213 42.62791024 -122.5122192 42.59487439 -104.59133929 42.55129844 C-93.52825963 42.52475538 -82.46523812 42.50707957 -71.40212818 42.50065396 C-63.82145206 42.49540819 -56.24084917 42.47921858 -48.66021226 42.45433434 C-44.28295613 42.44029149 -39.90583117 42.43115889 -35.5285511 42.43499184 C-31.52324481 42.43839281 -27.51821908 42.42809098 -23.51297029 42.40676448 C-22.06202572 42.40148007 -20.61105213 42.40127894 -19.16010771 42.40660437 C-17.19110569 42.41309654 -15.22206785 42.39945127 -13.25310993 42.38476086 C-12.15837622 42.38286225 -11.06364251 42.38096365 -9.93573505 42.37900752 C-6.5903984 41.94711986 -4.70014704 40.99053533 -2 39 C-0.39048457 35.78096915 -0.75765252 32.25161168 -0.68359375 28.7109375 C-0.6524221 27.48330185 -0.6524221 27.48330185 -0.62062073 26.23086548 C-0.55515188 23.61233034 -0.49625274 20.99369361 -0.4375 18.375 C-0.39431224 16.60155193 -0.35069786 14.82811419 -0.30664062 13.0546875 C-0.19947324 8.70322954 -0.09819831 4.35166923 0 0 Z " fill="#F59219" transform="translate(435,429)"/>
<path d="M0 0 C30.03 0 60.06 0 91 0 C91 6.93 91 13.86 91 21 C88 24 88 24 85.51953125 24.29296875 C84.62621094 24.25816406 83.73289062 24.22335938 82.8125 24.1875 C81.46091797 24.14689453 81.46091797 24.14689453 80.08203125 24.10546875 C79.39496094 24.07066406 78.70789063 24.03585938 78 24 C78 26.64 78 29.28 78 32 C88.23 32 98.46 32 109 32 C109.66 30.68 110.32 29.36 111 28 C113.83200273 27.35477379 116.31196376 27.01517847 119.1875 26.8125 C120.04230957 26.74208496 120.89711914 26.67166992 121.77783203 26.59912109 C124.85051921 26.36638229 127.92373994 26.17948933 131 26 C132.28181152 25.92088379 133.56362305 25.84176758 134.88427734 25.76025391 C138.3523788 25.55237536 141.82107278 25.37682595 145.29190063 25.22128296 C146.67402735 25.15739966 148.05587607 25.08716739 149.43734741 25.01040649 C151.40251002 24.90479082 153.36929302 24.83080724 155.3359375 24.7578125 C156.47595215 24.7077002 157.6159668 24.65758789 158.79052734 24.60595703 C163.66363692 25.204253 166.77240589 27.52688706 169.875 31.25 C171.65690046 35.60575668 171.85900524 39.55887211 170.30859375 43.96484375 C168.02786113 48.47859492 165.57490257 50.14637865 161 52 C157.93383789 52.32373047 157.93383789 52.32373047 154.66015625 52.2421875 C153.43441895 52.21479492 152.20868164 52.18740234 150.94580078 52.15917969 C148.99262939 52.08038574 148.99262939 52.08038574 147 52 C146.33554871 51.97329224 145.67109741 51.94658447 144.98651123 51.91906738 C140.83674227 51.74381431 136.6918873 51.51562876 132.54663086 51.25537109 C130.40848273 51.12320636 128.26982591 51.00480778 126.13085938 50.88671875 C124.7525535 50.80291251 123.37429592 50.71830729 121.99609375 50.6328125 C120.77075928 50.55949707 119.5454248 50.48618164 118.28295898 50.41064453 C115.13148095 50.01644612 112.7906356 49.50735997 110 48 C109.67 47.01 109.34 46.02 109 45 C98.77 45 88.54 45 78 45 C78 46.98 78 48.96 78 51 C76.86254883 52.85073853 76.86254883 52.85073853 75 54 C72.3815918 54.38095093 72.3815918 54.38095093 69.19921875 54.38818359 C67.41221558 54.40236832 67.41221558 54.40236832 65.58911133 54.4168396 C63.65781372 54.40773056 63.65781372 54.40773056 61.6875 54.3984375 C60.35375815 54.40045855 59.02001737 54.40337026 57.6862793 54.40713501 C54.89198274 54.41155696 52.09797402 54.4051319 49.30371094 54.39111328 C45.72225535 54.37402094 42.14147418 54.38386289 38.56004333 54.40183067 C35.80622274 54.41267231 33.05256199 54.40922054 30.29873657 54.4014473 C28.33611615 54.39847329 26.37348952 54.40758292 24.41088867 54.4168396 C23.21955322 54.40738312 22.02821777 54.39792664 20.80078125 54.38818359 C19.22550659 54.38460342 19.22550659 54.38460342 17.6184082 54.38095093 C15 54 15 54 13.15873718 52.65193176 C11.36331942 50.09232837 11.66356838 47.88664486 11.70703125 44.80078125 C11.71669922 43.59228516 11.72636719 42.38378906 11.73632812 41.13867188 C11.76146484 39.87603516 11.78660156 38.61339844 11.8125 37.3125 C11.83280273 35.40114258 11.83280273 35.40114258 11.85351562 33.45117188 C11.88891801 30.30035943 11.9383021 27.15038955 12 24 C10.95199219 24.03480469 10.95199219 24.03480469 9.8828125 24.0703125 C8.97273437 24.08835938 8.06265625 24.10640625 7.125 24.125 C6.22007812 24.14820313 5.31515625 24.17140625 4.3828125 24.1953125 C2 24 2 24 0 22 C0 14.74 0 7.48 0 0 Z " fill="#929497" transform="translate(211,187)"/>
<path d="M0 0 C3.82161085 0.53636644 5.19324775 1.9802516 7.5 5 C33.30781086 39.77962493 16 117.88189558 16 138 C-109.07 138 -234.14 138 -363 138 C-363 135.03 -363 132.06 -363 129 C-362.23803356 128.99902319 -361.47606711 128.99804638 -360.69101077 128.99703997 C-315.55648021 128.93880053 -270.42199803 128.8650285 -225.28752707 128.77101372 C-219.87129107 128.75974521 -214.4550548 128.74860681 -209.03881836 128.73754883 C-207.42136779 128.7342433 -207.42136779 128.7342433 -205.77124145 128.730871 C-188.29883904 128.69547376 -170.82643669 128.67062333 -153.35401169 128.64965298 C-135.43309213 128.62791024 -117.5122192 128.59487439 -99.59133929 128.55129844 C-88.52825963 128.52475538 -77.46523812 128.50707957 -66.40212818 128.50065396 C-58.82145206 128.49540819 -51.24084917 128.47921858 -43.66021226 128.45433434 C-39.28295613 128.44029149 -34.90583117 128.43115889 -30.5285511 128.43499184 C-26.52324481 128.43839281 -22.51821908 128.42809098 -18.51297029 128.40676448 C-17.06202572 128.40148007 -15.61105213 128.40127894 -14.16010771 128.40660437 C-12.19110569 128.41309654 -10.22206785 128.39945127 -8.25310993 128.38476086 C-7.15837622 128.38286225 -6.06364251 128.38096365 -4.93573505 128.37900752 C-1.5903984 127.94711986 0.29985296 126.99053533 3 125 C4.17802371 122.64395257 4.13073375 121.23333459 4.14044189 118.60606384 C4.14615204 117.68234985 4.15186218 116.75863586 4.15774536 115.80693054 C4.15886322 114.79032852 4.15998108 113.7737265 4.16113281 112.72631836 C4.16609772 111.65783661 4.17106262 110.58935486 4.17617798 109.48849487 C4.19083119 105.93893803 4.19760838 102.38942593 4.203125 98.83984375 C4.20887575 96.37561542 4.21463349 93.91138711 4.22039795 91.44715881 C4.23091822 86.2711669 4.23675354 81.09519056 4.24023438 75.91918945 C4.24570813 69.29715804 4.26970809 62.67533338 4.29820633 56.05336666 C4.31686569 50.95831205 4.32204017 45.86330679 4.32357025 40.7682209 C4.32659202 38.32786496 4.33460443 35.8875098 4.34775543 33.44718742 C4.36487736 30.0244484 4.36291991 26.60220826 4.35644531 23.17944336 C4.3656601 22.17701096 4.37487488 21.17457855 4.3843689 20.14176941 C4.34736956 13.87382782 3.30703831 8.81506379 1 3 C0.67 2.01 0.34 1.02 0 0 Z " fill="#EF7816" transform="translate(430,21)"/>
<path d="M0 0 C2.65696068 0.15182632 4.44234524 0.47324024 6.41015625 2.33203125 C9.99408356 6.62647476 11.36976198 9.18815653 11.27734375 14.8359375 C10.78108228 18.70817486 9.34285473 20.85564234 7 24 C2.60943526 26.70164915 -0.69174265 27.37584821 -5.80950832 27.38031673 C-6.47279995 27.38497665 -7.13609158 27.38963657 -7.81948295 27.3944377 C-10.03996837 27.40637957 -12.25984099 27.39699585 -14.48033142 27.38768005 C-16.08919683 27.39185334 -17.6980593 27.39733082 -19.3069163 27.40399987 C-23.72651829 27.41847392 -28.14593412 27.41420364 -32.56554639 27.40683305 C-37.33250842 27.40210855 -42.09942974 27.41460486 -46.86637878 27.42485046 C-56.20454943 27.44205773 -65.54265284 27.4428745 -74.88083523 27.43763756 C-82.46978926 27.43359831 -90.05872339 27.4350365 -97.64767647 27.44038582 C-98.72723335 27.44113424 -99.80679024 27.44188266 -100.91906096 27.44265376 C-103.11208165 27.44418522 -105.30510232 27.44572357 -107.498123 27.44726873 C-128.06963119 27.46100068 -148.64110137 27.45555114 -169.2126087 27.44408352 C-188.03806114 27.43414981 -206.86341532 27.44709298 -225.6888526 27.47101771 C-245.01342866 27.49539199 -264.33795891 27.50502073 -283.66255003 27.49836498 C-294.51401951 27.49486912 -305.36541339 27.49712905 -316.21687126 27.51461601 C-325.45422069 27.52931707 -334.69144128 27.53000087 -343.92878812 27.5125451 C-348.64257298 27.50401555 -353.35612749 27.50193318 -358.06990051 27.51719666 C-362.38474809 27.53099554 -366.69916693 27.52634272 -371.0139894 27.50695742 C-372.57516122 27.50318232 -374.13636698 27.50616272 -375.69750869 27.51656907 C-390.26034996 27.60674254 -390.26034996 27.60674254 -396 23 C-397.5 20.875 -397.5 20.875 -398 19 C-397.67 18.34 -397.34 17.68 -397 17 C-396.18377778 16.99940291 -395.36755557 16.99880582 -394.52659935 16.99819064 C-346.16866579 16.9623098 -297.81079452 16.90569102 -249.4529187 16.82207905 C-243.64870712 16.81206139 -237.84449526 16.80221729 -232.0402832 16.79248047 C-230.88475146 16.7905391 -229.72921972 16.78859772 -228.53867186 16.78659752 C-209.81957634 16.75556222 -191.10049308 16.73859259 -172.38137668 16.72680578 C-153.17900711 16.71440215 -133.976702 16.68691858 -114.77437311 16.64538693 C-102.9220487 16.62022898 -91.06983115 16.6068844 -79.21747965 16.60857043 C-71.09386943 16.60860014 -62.9703682 16.59400437 -54.84680044 16.56783572 C-50.15737307 16.5531637 -45.46816923 16.54500913 -40.77872276 16.55419731 C-36.48581997 16.56246635 -32.19336687 16.55237882 -27.90053088 16.52766338 C-26.34726369 16.52196582 -24.79395407 16.52301674 -23.24069952 16.53148755 C-12.42032473 16.7407929 -12.42032473 16.7407929 -3 12 C-0.33924463 8.61358407 -0.41644892 4.16448924 0 0 Z " fill="#D1D3D3" transform="translate(450,402)"/>
<path d="M0 0 C2.65696068 0.15182632 4.44234524 0.47324024 6.41015625 2.33203125 C9.99408356 6.62647476 11.36976198 9.18815653 11.27734375 14.8359375 C10.78108228 18.70817486 9.34285473 20.85564234 7 24 C2.60943526 26.70164915 -0.69174265 27.37584821 -5.80950832 27.38031673 C-6.47279995 27.38497665 -7.13609158 27.38963657 -7.81948295 27.3944377 C-10.03996837 27.40637957 -12.25984099 27.39699585 -14.48033142 27.38768005 C-16.08919683 27.39185334 -17.6980593 27.39733082 -19.3069163 27.40399987 C-23.72651829 27.41847392 -28.14593412 27.41420364 -32.56554639 27.40683305 C-37.33250842 27.40210855 -42.09942974 27.41460486 -46.86637878 27.42485046 C-56.20454943 27.44205773 -65.54265284 27.4428745 -74.88083523 27.43763756 C-82.46978926 27.43359831 -90.05872339 27.4350365 -97.64767647 27.44038582 C-98.72723335 27.44113424 -99.80679024 27.44188266 -100.91906096 27.44265376 C-103.11208165 27.44418522 -105.30510232 27.44572357 -107.498123 27.44726873 C-128.06963119 27.46100068 -148.64110137 27.45555114 -169.2126087 27.44408352 C-188.03806114 27.43414981 -206.86341532 27.44709298 -225.6888526 27.47101771 C-245.01342866 27.49539199 -264.33795891 27.50502073 -283.66255003 27.49836498 C-294.51401951 27.49486912 -305.36541339 27.49712905 -316.21687126 27.51461601 C-325.45422069 27.52931707 -334.69144128 27.53000087 -343.92878812 27.5125451 C-348.64257298 27.50401555 -353.35612749 27.50193318 -358.06990051 27.51719666 C-362.38474809 27.53099554 -366.69916693 27.52634272 -371.0139894 27.50695742 C-372.57516122 27.50318232 -374.13636698 27.50616272 -375.69750869 27.51656907 C-390.26034996 27.60674254 -390.26034996 27.60674254 -396 23 C-397.5 20.875 -397.5 20.875 -398 19 C-397.67 18.34 -397.34 17.68 -397 17 C-396.18377778 16.99940291 -395.36755557 16.99880582 -394.52659935 16.99819064 C-346.16866579 16.9623098 -297.81079452 16.90569102 -249.4529187 16.82207905 C-243.64870712 16.81206139 -237.84449526 16.80221729 -232.0402832 16.79248047 C-230.88475146 16.7905391 -229.72921972 16.78859772 -228.53867186 16.78659752 C-209.81957634 16.75556222 -191.10049308 16.73859259 -172.38137668 16.72680578 C-153.17900711 16.71440215 -133.976702 16.68691858 -114.77437311 16.64538693 C-102.9220487 16.62022898 -91.06983115 16.6068844 -79.21747965 16.60857043 C-71.09386943 16.60860014 -62.9703682 16.59400437 -54.84680044 16.56783572 C-50.15737307 16.5531637 -45.46816923 16.54500913 -40.77872276 16.55419731 C-36.48581997 16.56246635 -32.19336687 16.55237882 -27.90053088 16.52766338 C-26.34726369 16.52196582 -24.79395407 16.52301674 -23.24069952 16.53148755 C-12.42032473 16.7407929 -12.42032473 16.7407929 -3 12 C-0.33924463 8.61358407 -0.41644892 4.16448924 0 0 Z " fill="#D1D3D3" transform="translate(450,160)"/>
<path d="M0 0 C3.63 0 7.26 0 11 0 C11 70.95 11 141.9 11 215 C-26.29 215 -63.58 215 -102 215 C-94.31026171 207.31026171 -87.73165731 204.27355681 -77.00275993 204.12887192 C-74.46214484 204.13148068 -71.92315678 204.16731654 -69.3828125 204.203125 C-67.59446548 204.20135439 -65.80611884 204.19606433 -64.01779175 204.18743896 C-59.34065629 204.17227176 -54.66461103 204.19589909 -49.98760986 204.23065186 C-42.48270081 204.28137692 -34.97782969 204.27947693 -27.47280502 204.26424408 C-24.85958265 204.26560456 -22.24715459 204.28791633 -19.63406372 204.31280518 C-18.03224811 204.31624904 -16.43043111 204.31910855 -14.82861328 204.32128906 C-14.10646133 204.33372147 -13.38430939 204.34615387 -12.64027405 204.35896301 C-8.25318507 204.34316333 -5.48785576 203.700027 -2 201 C-0.44844942 197.89689885 -0.84611755 194.61131418 -0.84178162 191.2046814 C-0.83684364 190.39034563 -0.83190566 189.57600986 -0.82681805 188.73699725 C-0.81139196 185.993124 -0.80306864 183.24927423 -0.79467773 180.50537109 C-0.78510322 178.54450777 -0.7750934 176.58364652 -0.76467896 174.62278748 C-0.73757755 169.28631252 -0.71659639 163.94982868 -0.69667697 158.61332273 C-0.67484964 153.04124031 -0.64744507 147.46918545 -0.62062073 141.89712524 C-0.57064975 131.33970706 -0.5257273 120.78227361 -0.48259836 110.2248255 C-0.43326358 98.20806089 -0.37833154 86.19132394 -0.32291877 74.17458606 C-0.20903112 49.44974983 -0.1022069 24.72488708 0 0 Z " fill="#474544" transform="translate(385,187)"/>
<path d="M0 0 C8.35758538 5.03418314 13.68381741 11.48237749 16.4375 20.9375 C17.54966839 29.13242495 16.66785889 35.83105552 12.4375 42.9375 C12.09847656 43.56269531 11.75945312 44.18789062 11.41015625 44.83203125 C7.68863362 50.91095967 1.65570045 53.82839978 -4.5625 56.9375 C-16.58490601 57.79888016 -24.91189244 57.68120653 -34.3125 49.5625 C-41.24779053 41.47132771 -44.08167608 35.08823222 -43.87109375 24.1875 C-43.07065752 15.75758932 -38.55282759 9.68040102 -32.5625 3.9375 C-23.38717127 -3.03574983 -10.68082266 -4.9953386 0 0 Z " fill="#E4E5E6" transform="translate(269.5625,58.0625)"/>
<path d="M0 0 C16.17 0 32.34 0 49 0 C49 18.81 49 37.62 49 57 C32.83 57 16.66 57 0 57 C0 38.19 0 19.38 0 0 Z " fill="#7B3007" transform="translate(232,241)"/>
<path d="M0 0 C0.33 0 0.66 0 1 0 C1 1.65 1 3.3 1 5 C2.918125 4.87625 2.918125 4.87625 4.875 4.75 C13.66135584 4.77758667 21.76068147 8.93473971 28 15 C35.55480198 24.351166 37.00558032 33.10901271 36 45 C35.13909859 48.37512484 33.86111111 51.06716546 32 54 C31.32904297 55.06154297 31.32904297 55.06154297 30.64453125 56.14453125 C25.47323172 63.61726703 19.02446144 68.20554816 10 70 C3.82927931 70.48678875 -2.37961946 70.28340069 -8.5625 70.1875 C-10.2558475 70.17242858 -11.94920794 70.15874451 -13.64257812 70.14648438 C-17.76204222 70.11366704 -21.8808763 70.06202063 -26 70 C-23.6732056 65.8997105 -21.31679508 61.91570437 -18.6875 58 C-7.17728022 39.9336379 -2.4671762 21.06470739 0 0 Z " fill="#EFAB96" transform="translate(340,306)"/>
<path d="M0 0 C3.3 0 6.6 0 10 0 C10 70.95 10 141.9 10 215 C-1.88 215 -13.76 215 -26 215 C-26 211.7 -26 208.4 -26 205 C-24.75863281 204.96261719 -23.51726562 204.92523438 -22.23828125 204.88671875 C-20.59632489 204.8210405 -18.95439913 204.7545938 -17.3125 204.6875 C-16.49587891 204.66494141 -15.67925781 204.64238281 -14.83789062 204.61914062 C-10.12910394 204.40943757 -6.80530039 204.06315767 -3 201 C-0.52179251 197.28268876 -0.71059815 194.42491474 -0.7215271 190.12239075 C-0.7157347 189.31128411 -0.7099423 188.50017746 -0.70397437 187.66449183 C-0.68692368 184.93750219 -0.68409352 182.21068128 -0.68115234 179.48364258 C-0.67185766 177.53248172 -0.66168969 175.58132484 -0.65071106 173.63017273 C-0.62334512 168.32474294 -0.60824214 163.0193398 -0.59528303 157.71385789 C-0.57968129 152.17246321 -0.55288169 146.63112319 -0.5272522 141.08976746 C-0.48041195 130.59259516 -0.44369325 120.09541264 -0.41057932 109.59818906 C-0.37239496 97.64909907 -0.32297518 85.7000639 -0.27259517 73.75102007 C-0.1691973 49.16738732 -0.07996248 24.58371936 0 0 Z " fill="#F6921A" transform="translate(422,187)"/>
<path d="M0 0 C20.12309421 -0.09342166 40.24614445 -0.16396857 60.36941051 -0.20724869 C69.71290013 -0.22787812 79.05625504 -0.25600598 88.3996582 -0.30175781 C96.54292287 -0.34161394 104.68608998 -0.36743004 112.82944947 -0.37635398 C117.14174971 -0.38157082 121.45377085 -0.39384007 125.76598167 -0.42292023 C129.8248377 -0.45007009 133.88329965 -0.45844594 137.94223785 -0.45243073 C139.43177494 -0.45353116 140.9213252 -0.4614879 142.41078377 -0.4768219 C144.4452015 -0.49673891 146.47983067 -0.48955081 148.514328 -0.48101807 C149.65274234 -0.48470524 150.79115667 -0.48839241 151.96406841 -0.49219131 C155.67414291 0.1092934 157.33035174 1.40734075 160 4 C164.67397073 13.34794145 159.15510955 29.90108838 156.10083008 39.39160156 C151.0997949 53.91865834 143.82764051 67.18680903 134 79 C133.23042969 79.93328125 132.46085938 80.8665625 131.66796875 81.828125 C125.51338371 88.94716037 118.72901979 94.66669114 111 100 C110.02925537 100.69206543 109.05851074 101.38413086 108.05834961 102.09716797 C102.96610747 104.95720693 97.59549591 104.62996752 91.890625 104.63671875 C90.72803162 104.64766068 89.56543823 104.6586026 88.36761475 104.6698761 C85.91341572 104.68570466 83.45912844 104.69094822 81.00488281 104.6862793 C77.27517656 104.68749182 73.54941636 104.74724571 69.8203125 104.81054688 C67.42709285 104.81869178 65.03385835 104.82336123 62.640625 104.82421875 C61.53817444 104.84779953 60.43572388 104.87138031 59.29986572 104.89567566 C50.83059589 104.79652909 45.65653851 102.10795011 39 97 C38.02402611 96.25656342 38.02402611 96.25656342 37.02833557 95.49810791 C35.42375127 94.22636817 33.86574213 92.89646089 32.3125 91.5625 C31.52842773 90.89444336 31.52842773 90.89444336 30.72851562 90.21289062 C29.48044795 89.14802555 28.23936493 88.07498145 27 87 C27.99 86.505 27.99 86.505 29 86 C30.51140967 87.11226434 32.00837308 88.24415528 33.5 89.3828125 C42.73737035 94.919172 52.98610684 94.04523362 63.46289062 93.91259766 C66.99302532 93.87507414 70.51693064 93.91234219 74.046875 93.95703125 C90.7797186 94.0343465 90.7797186 94.0343465 105 86 C106.00184326 85.27055176 106.00184326 85.27055176 107.02392578 84.52636719 C108.78086462 83.23277099 110.42281713 81.87584483 112.0625 80.4375 C112.64410889 79.92993164 113.22571777 79.42236328 113.82495117 78.89941406 C136.26837223 58.69450086 146.51745681 30.13653076 151 1 C101.17 1 51.34 1 0 1 C0 0.67 0 0.34 0 0 Z " fill="#F9C3AD" transform="translate(179,298)"/>
<path d="M0 0 C0.89074219 0.45246094 1.78148437 0.90492187 2.69921875 1.37109375 C12.07938215 6.70742136 18.52511 14.7797353 22 25 C25.00050785 37.45534554 23.14015784 48.35383854 16.6484375 59.2734375 C10.37630635 68.41883544 1.22920074 74.04995243 -9.47265625 76.5859375 C-21.44043859 78.54665609 -31.41619585 75.78075597 -41.38671875 69.08203125 C-49.61766293 62.52434329 -55.34185114 53.42484332 -57 43 C-57.8876285 31.21345766 -56.36943737 21.2425466 -48.76171875 11.91015625 C-36.39564377 -1.49784965 -17.51662565 -9.06704742 0 0 Z M-40.53125 17.09765625 C-46.64342936 25.01422899 -47.8318362 33.18889085 -47 43 C-46.06450652 46.28149787 -44.71467499 49.06055715 -43 52 C-42.443125 53.051875 -41.88625 54.10375 -41.3125 55.1875 C-38.12166025 59.06825104 -34.311546 61.479871 -30 64 C-29.42636719 64.37769531 -28.85273438 64.75539062 -28.26171875 65.14453125 C-21.56492637 67.6775149 -11.734356 67.17365474 -4.9921875 65.0546875 C-0.67721676 62.72899141 2.77034795 59.69103091 6 56 C6.70125 55.236875 7.4025 54.47375 8.125 53.6875 C13.25044946 46.34102244 14.21863234 38.78430814 13 30 C10.27963513 21.49885979 5.44491632 14.94342443 -2 10 C-15.5108244 3.10051503 -30.37419261 6.15007317 -40.53125 17.09765625 Z " fill="#5B5B5B" transform="translate(273,49)"/>
<path d="M0 0 C21.12 0 42.24 0 64 0 C64 9.57 64 19.14 64 29 C61.32806098 31.67193902 60.02973245 31.25316128 56.296875 31.25878906 C55.10223633 31.26509338 53.90759766 31.27139771 52.67675781 31.27789307 C51.38092773 31.2738446 50.08509766 31.26979614 48.75 31.265625 C47.41243418 31.26697178 46.07486883 31.26891243 44.73730469 31.27142334 C41.93289534 31.274374 39.12861331 31.27007894 36.32421875 31.26074219 C32.72595078 31.24934754 29.12798114 31.25590734 25.52972412 31.26788712 C22.76739242 31.27510736 20.00513167 31.27281706 17.24279785 31.26763153 C15.26961067 31.26564475 13.29642074 31.27172842 11.32324219 31.27789307 C10.12860352 31.27158875 8.93396484 31.26528442 7.703125 31.25878906 C6.64770508 31.25719788 5.59228516 31.25560669 4.50488281 31.25396729 C2 31 2 31 0 29 C0 19.43 0 9.86 0 0 Z " fill="#E5E6E7" transform="translate(224,210)"/>
<path d="M0 0 C1.32874146 -0.02332397 1.32874146 -0.02332397 2.68432617 -0.04711914 C3.48346436 -0.06331299 4.28260254 -0.07950684 5.10595703 -0.09619141 C8.67945858 0.19608758 10.67496283 1.72911089 13.28198242 4.08178711 C16.15005948 7.52347958 16.82502259 10.52936314 16.62963867 15.02319336 C15.99191028 18.79940529 14.58618927 20.98929897 12.28198242 24.08178711 C8.01442923 26.69312233 4.91343318 27.44780281 -0.05786133 27.32397461 C-1.89646729 27.28288574 -1.89646729 27.28288574 -3.7722168 27.2409668 C-5.72538818 27.16217285 -5.72538818 27.16217285 -7.71801758 27.08178711 C-8.38246887 27.05507935 -9.04692017 27.02837158 -9.73150635 27.00085449 C-13.88127531 26.82560142 -18.02613028 26.59741587 -22.17138672 26.3371582 C-24.30953484 26.20499347 -26.44819167 26.08659489 -28.5871582 25.96850586 C-29.96546408 25.88469962 -31.34372166 25.8000944 -32.72192383 25.71459961 C-34.55992554 25.60462646 -34.55992554 25.60462646 -36.43505859 25.49243164 C-39.78881684 25.07293128 -43.23466259 24.5651421 -45.71801758 22.08178711 C-45.84464849 19.25762329 -45.90322306 16.46883918 -45.90551758 13.64428711 C-45.91776367 12.85473633 -45.93000977 12.06518555 -45.94262695 11.25170898 C-45.94789037 9.19371276 -45.84008043 7.13616702 -45.71801758 5.08178711 C-42.68226108 2.04603061 -39.00507775 2.37694612 -34.90551758 2.01928711 C-34.02202637 1.93694824 -33.13853516 1.85460937 -32.22827148 1.76977539 C-21.50315789 0.81571825 -10.76025469 0.32378382 0 0 Z " fill="#EA7818" transform="translate(365.718017578125,211.918212890625)"/>
<path d="M0 0 C6.91740922 -0.51030068 12.28636244 -0.19327048 18 4 C23.06461955 8.74948767 25.99099361 13.29238311 26.375 20.3125 C26.20099122 26.84870497 23.75435387 31.24564613 19.1875 35.8125 C11.37213385 41.17598658 5.39262038 41.39436452 -3.9375 41.1875 C-5.67870117 41.16719727 -5.67870117 41.16719727 -7.45507812 41.14648438 C-10.30387052 41.1113141 -13.15168844 41.06209287 -16 41 C-15.50371094 40.08863281 -15.00742187 39.17726563 -14.49609375 38.23828125 C-8.08134776 26.12347996 -3.21874858 13.34372577 0 0 Z " fill="#5B5A5C" transform="translate(338,323)"/>
<path d="M0 0 C19.47 0 38.94 0 59 0 C59 13 59 13 56.625 16.25 C53.3079345 18.461377 51.65972495 19.12729925 47.73730469 19.17700195 C46.85588806 19.18983719 45.97447144 19.20267242 45.06634521 19.21589661 C44.11117004 19.22328354 43.15599487 19.23067047 42.171875 19.23828125 C40.69923187 19.25038887 40.69923187 19.25038887 39.19683838 19.26274109 C37.11545582 19.27658792 35.0340505 19.28730739 32.95263672 19.29516602 C29.77657702 19.31235615 26.60156426 19.35623456 23.42578125 19.40039062 C21.40365349 19.4105195 19.38151688 19.41903499 17.359375 19.42578125 C15.93875763 19.45204338 15.93875763 19.45204338 14.48944092 19.47883606 C8.68486663 19.45984143 5.4302167 18.84934417 1 15 C-1.24103151 10.51793698 0 5.01109879 0 0 Z " fill="#57585A" transform="translate(373,482)"/>
<path d="M0 0 C19.47 0 38.94 0 59 0 C59 13 59 13 56.625 16.25 C53.3079345 18.461377 51.65972495 19.12729925 47.73730469 19.17700195 C46.85588806 19.18983719 45.97447144 19.20267242 45.06634521 19.21589661 C44.11117004 19.22328354 43.15599487 19.23067047 42.171875 19.23828125 C40.69923187 19.25038887 40.69923187 19.25038887 39.19683838 19.26274109 C37.11545582 19.27658792 35.0340505 19.28730739 32.95263672 19.29516602 C29.77657702 19.31235615 26.60156426 19.35623456 23.42578125 19.40039062 C21.40365349 19.4105195 19.38151688 19.41903499 17.359375 19.42578125 C15.93875763 19.45204338 15.93875763 19.45204338 14.48944092 19.47883606 C8.68486663 19.45984143 5.4302167 18.84934417 1 15 C-1.24103151 10.51793698 0 5.01109879 0 0 Z " fill="#57585A" transform="translate(80,482)"/>
<path d="M0 0 C12.71782572 -0.16259325 25.43540189 -0.28677388 38.1540575 -0.3626852 C44.06068088 -0.39912956 49.96659023 -0.44851985 55.87280273 -0.52807617 C61.57871652 -0.60444858 67.28394597 -0.64605638 72.99033165 -0.6641407 C75.16118827 -0.67701878 77.33200981 -0.70216689 79.50257301 -0.7401104 C101.44179676 -1.10818024 101.44179676 -1.10818024 110 7 C110.99 7.99 111.98 8.98 113 10 C75.71 10 38.42 10 0 10 C0 6.7 0 3.4 0 0 Z " fill="#494748" transform="translate(116,392)"/>
<path d="M0 0 C3.63 0 7.26 0 11 0 C11 18.81 11 37.62 11 57 C-5.17 57 -21.34 57 -38 57 C-38 53.7 -38 50.4 -38 47 C-37.05680908 46.99589111 -36.11361816 46.99178223 -35.1418457 46.98754883 C-31.62806324 46.96051141 -28.11601318 46.91137159 -24.6027832 46.84741211 C-23.08498832 46.82427549 -21.56703387 46.80984652 -20.04907227 46.80444336 C-17.8611357 46.79512078 -15.67569313 46.75406849 -13.48828125 46.70703125 C-12.17384033 46.6913208 -10.85939941 46.67561035 -9.50512695 46.65942383 C-5.91837036 46.22184133 -5.91837036 46.22184133 -3.07617188 44.046875 C-0.20531186 39.83375964 -0.27042146 36.53683203 -0.29296875 31.54296875 C-0.27784744 30.64000565 -0.26272614 29.73704254 -0.24714661 28.80671692 C-0.20428851 25.93339021 -0.19543351 23.06111442 -0.1875 20.1875 C-0.1643542 18.23499814 -0.13898869 16.28252124 -0.11132812 14.33007812 C-0.04849442 9.55329259 -0.01614441 4.77716228 0 0 Z " fill="#6C2F05" transform="translate(270,241)"/>
<path d="M0 0 C1.65 0 3.3 0 5 0 C5.08703823 3.43734063 5.14040272 6.87439837 5.1875 10.3125 C5.21263672 11.28896484 5.23777344 12.26542969 5.26367188 13.27148438 C5.27333984 14.20927734 5.28300781 15.14707031 5.29296875 16.11328125 C5.3086792 16.97735596 5.32438965 17.84143066 5.34057617 18.73168945 C4.92656244 21.48910997 4.21702533 22.35707312 2 24 C-0.48046875 24.29296875 -0.48046875 24.29296875 -3.1875 24.1875 C-4.53908203 24.14689453 -4.53908203 24.14689453 -5.91796875 24.10546875 C-6.60503906 24.07066406 -7.29210937 24.03585938 -8 24 C-8 26.64 -8 29.28 -8 32 C2.23 32 12.46 32 23 32 C23 36.29 23 40.58 23 45 C12.77 45 2.54 45 -8 45 C-8 46.98 -8 48.96 -8 51 C-8.33 51 -8.66 51 -9 51 C-9 41.76 -9 32.52 -9 23 C-30.12 23 -51.24 23 -73 23 C-73 32.24 -73 41.48 -73 51 C-73.33 51 -73.66 51 -74 51 C-74 42.09 -74 33.18 -74 24 C-77.3 24 -80.6 24 -84 24 C-84.66 23.34 -85.32 22.68 -86 22 C-86 21.01 -86 20.02 -86 19 C-57.95 18.67 -29.9 18.34 -1 18 C-0.67 12.06 -0.34 6.12 0 0 Z " fill="#808285" transform="translate(297,187)"/>
<path d="M0 0 C0.87430664 -0.00630432 1.74861328 -0.01260864 2.64941406 -0.019104 C4.06818848 -0.01303131 4.06818848 -0.01303131 5.515625 -0.00683594 C6.48467773 -0.00874939 7.45373047 -0.01066284 8.45214844 -0.01263428 C10.50325785 -0.01399673 12.55437586 -0.01029612 14.60546875 -0.00195312 C17.75280039 0.00874547 20.8995612 -0.00184647 24.046875 -0.01464844 C26.0364596 -0.01332685 28.02604384 -0.01076448 30.015625 -0.00683594 C30.96147461 -0.0108844 31.90732422 -0.01493286 32.88183594 -0.019104 C33.75614258 -0.01279968 34.63044922 -0.00649536 35.53125 0 C36.68802246 0.00238678 36.68802246 0.00238678 37.86816406 0.00482178 C39.765625 0.25878906 39.765625 0.25878906 41.765625 2.25878906 C42.06640625 5.19238281 42.06640625 5.19238281 42.078125 8.69628906 C42.09488281 9.85 42.11164063 11.00371094 42.12890625 12.19238281 C41.765625 15.25878906 41.765625 15.25878906 40.50219727 16.9271698 C38.36643201 18.56489384 37.28609255 18.63340341 34.6171875 18.63110352 C33.78622559 18.63733231 32.95526367 18.6435611 32.09912109 18.64997864 C31.20531738 18.64076889 30.31151367 18.63155914 29.390625 18.62207031 C28.00931396 18.62281807 28.00931396 18.62281807 26.60009766 18.62358093 C24.65329836 18.62124063 22.70649603 18.6115147 20.75976562 18.5949707 C17.777069 18.57137958 14.7952662 18.57440991 11.8125 18.58105469 C9.92186966 18.57547787 8.03124309 18.56836797 6.140625 18.55957031 C4.79991943 18.56093742 4.79991943 18.56093742 3.43212891 18.56233215 C2.60116699 18.55280014 1.77020508 18.54326813 0.9140625 18.53344727 C-0.18156006 18.52653618 -0.18156006 18.52653618 -1.29931641 18.51948547 C-3.234375 18.25878906 -3.234375 18.25878906 -6.234375 16.25878906 C-6.59765625 13.07128906 -6.59765625 13.07128906 -6.546875 9.25878906 C-6.54300781 8.00066406 -6.53914063 6.74253906 -6.53515625 5.44628906 C-6.07905434 0.6127935 -4.47149582 0.00922608 0 0 Z " fill="#58595A" transform="translate(348.234375,102.7412109375)"/>
<path d="M0 0 C0.87430664 -0.00630432 1.74861328 -0.01260864 2.64941406 -0.019104 C4.06818848 -0.01303131 4.06818848 -0.01303131 5.515625 -0.00683594 C6.48467773 -0.00874939 7.45373047 -0.01066284 8.45214844 -0.01263428 C10.50325785 -0.01399673 12.55437586 -0.01029612 14.60546875 -0.00195312 C17.75280039 0.00874547 20.8995612 -0.00184647 24.046875 -0.01464844 C26.0364596 -0.01332685 28.02604384 -0.01076448 30.015625 -0.00683594 C30.96147461 -0.0108844 31.90732422 -0.01493286 32.88183594 -0.019104 C33.75614258 -0.01279968 34.63044922 -0.00649536 35.53125 0 C36.68802246 0.00238678 36.68802246 0.00238678 37.86816406 0.00482178 C39.765625 0.25878906 39.765625 0.25878906 41.765625 2.25878906 C42.06640625 5.19238281 42.06640625 5.19238281 42.078125 8.69628906 C42.09488281 9.85 42.11164063 11.00371094 42.12890625 12.19238281 C41.765625 15.25878906 41.765625 15.25878906 40.50219727 16.9271698 C38.36643201 18.56489384 37.28609255 18.63340341 34.6171875 18.63110352 C33.78622559 18.63733231 32.95526367 18.6435611 32.09912109 18.64997864 C31.20531738 18.64076889 30.31151367 18.63155914 29.390625 18.62207031 C28.00931396 18.62281807 28.00931396 18.62281807 26.60009766 18.62358093 C24.65329836 18.62124063 22.70649603 18.6115147 20.75976562 18.5949707 C17.777069 18.57137958 14.7952662 18.57440991 11.8125 18.58105469 C9.92186966 18.57547787 8.03124309 18.56836797 6.140625 18.55957031 C4.79991943 18.56093742 4.79991943 18.56093742 3.43212891 18.56233215 C2.60116699 18.55280014 1.77020508 18.54326813 0.9140625 18.53344727 C-0.18156006 18.52653618 -0.18156006 18.52653618 -1.29931641 18.51948547 C-3.234375 18.25878906 -3.234375 18.25878906 -6.234375 16.25878906 C-6.59765625 13.07128906 -6.59765625 13.07128906 -6.546875 9.25878906 C-6.54300781 8.00066406 -6.53914063 6.74253906 -6.53515625 5.44628906 C-6.07905434 0.6127935 -4.47149582 0.00922608 0 0 Z " fill="#58595A" transform="translate(128.234375,102.7412109375)"/>
<path d="M0 0 C0.87430664 -0.00630432 1.74861328 -0.01260864 2.64941406 -0.019104 C4.06818848 -0.01303131 4.06818848 -0.01303131 5.515625 -0.00683594 C6.48467773 -0.00874939 7.45373047 -0.01066284 8.45214844 -0.01263428 C10.50325785 -0.01399673 12.55437586 -0.01029612 14.60546875 -0.00195312 C17.75280039 0.00874547 20.8995612 -0.00184647 24.046875 -0.01464844 C26.0364596 -0.01332685 28.02604384 -0.01076448 30.015625 -0.00683594 C30.96147461 -0.0108844 31.90732422 -0.01493286 32.88183594 -0.019104 C33.75614258 -0.01279968 34.63044922 -0.00649536 35.53125 0 C36.68802246 0.00238678 36.68802246 0.00238678 37.86816406 0.00482178 C39.765625 0.25878906 39.765625 0.25878906 41.765625 2.25878906 C42.06640625 5.19238281 42.06640625 5.19238281 42.078125 8.69628906 C42.09488281 9.85 42.11164063 11.00371094 42.12890625 12.19238281 C41.765625 15.25878906 41.765625 15.25878906 40.50219727 16.9271698 C38.36643201 18.56489384 37.28609255 18.63340341 34.6171875 18.63110352 C33.78622559 18.63733231 32.95526367 18.6435611 32.09912109 18.64997864 C31.20531738 18.64076889 30.31151367 18.63155914 29.390625 18.62207031 C28.00931396 18.62281807 28.00931396 18.62281807 26.60009766 18.62358093 C24.65329836 18.62124063 22.70649603 18.6115147 20.75976562 18.5949707 C17.777069 18.57137958 14.7952662 18.57440991 11.8125 18.58105469 C9.92186966 18.57547787 8.03124309 18.56836797 6.140625 18.55957031 C4.79991943 18.56093742 4.79991943 18.56093742 3.43212891 18.56233215 C2.60116699 18.55280014 1.77020508 18.54326813 0.9140625 18.53344727 C-0.18156006 18.52653618 -0.18156006 18.52653618 -1.29931641 18.51948547 C-3.234375 18.25878906 -3.234375 18.25878906 -6.234375 16.25878906 C-6.59765625 13.07128906 -6.59765625 13.07128906 -6.546875 9.25878906 C-6.54300781 8.00066406 -6.53914063 6.74253906 -6.53515625 5.44628906 C-6.07905434 0.6127935 -4.47149582 0.00922608 0 0 Z " fill="#58595A" transform="translate(348.234375,76.7412109375)"/>
<path d="M0 0 C0.87430664 -0.00630432 1.74861328 -0.01260864 2.64941406 -0.019104 C4.06818848 -0.01303131 4.06818848 -0.01303131 5.515625 -0.00683594 C6.48467773 -0.00874939 7.45373047 -0.01066284 8.45214844 -0.01263428 C10.50325785 -0.01399673 12.55437586 -0.01029612 14.60546875 -0.00195312 C17.75280039 0.00874547 20.8995612 -0.00184647 24.046875 -0.01464844 C26.0364596 -0.01332685 28.02604384 -0.01076448 30.015625 -0.00683594 C30.96147461 -0.0108844 31.90732422 -0.01493286 32.88183594 -0.019104 C33.75614258 -0.01279968 34.63044922 -0.00649536 35.53125 0 C36.68802246 0.00238678 36.68802246 0.00238678 37.86816406 0.00482178 C39.765625 0.25878906 39.765625 0.25878906 41.765625 2.25878906 C42.06640625 5.19238281 42.06640625 5.19238281 42.078125 8.69628906 C42.09488281 9.85 42.11164063 11.00371094 42.12890625 12.19238281 C41.765625 15.25878906 41.765625 15.25878906 40.50219727 16.9271698 C38.36643201 18.56489384 37.28609255 18.63340341 34.6171875 18.63110352 C33.78622559 18.63733231 32.95526367 18.6435611 32.09912109 18.64997864 C31.20531738 18.64076889 30.31151367 18.63155914 29.390625 18.62207031 C28.00931396 18.62281807 28.00931396 18.62281807 26.60009766 18.62358093 C24.65329836 18.62124063 22.70649603 18.6115147 20.75976562 18.5949707 C17.777069 18.57137958 14.7952662 18.57440991 11.8125 18.58105469 C9.92186966 18.57547787 8.03124309 18.56836797 6.140625 18.55957031 C4.79991943 18.56093742 4.79991943 18.56093742 3.43212891 18.56233215 C2.60116699 18.55280014 1.77020508 18.54326813 0.9140625 18.53344727 C-0.18156006 18.52653618 -0.18156006 18.52653618 -1.29931641 18.51948547 C-3.234375 18.25878906 -3.234375 18.25878906 -6.234375 16.25878906 C-6.59765625 13.07128906 -6.59765625 13.07128906 -6.546875 9.25878906 C-6.54300781 8.00066406 -6.53914063 6.74253906 -6.53515625 5.44628906 C-6.07905434 0.6127935 -4.47149582 0.00922608 0 0 Z " fill="#58595A" transform="translate(128.234375,76.7412109375)"/>
<path d="M0 0 C0.87430664 -0.00630432 1.74861328 -0.01260864 2.64941406 -0.019104 C4.06818848 -0.01303131 4.06818848 -0.01303131 5.515625 -0.00683594 C6.48467773 -0.00874939 7.45373047 -0.01066284 8.45214844 -0.01263428 C10.50325785 -0.01399673 12.55437586 -0.01029612 14.60546875 -0.00195312 C17.75280039 0.00874547 20.8995612 -0.00184647 24.046875 -0.01464844 C26.0364596 -0.01332685 28.02604384 -0.01076448 30.015625 -0.00683594 C30.96147461 -0.0108844 31.90732422 -0.01493286 32.88183594 -0.019104 C33.75614258 -0.01279968 34.63044922 -0.00649536 35.53125 0 C36.68802246 0.00238678 36.68802246 0.00238678 37.86816406 0.00482178 C39.765625 0.25878906 39.765625 0.25878906 41.765625 2.25878906 C42.06640625 5.19238281 42.06640625 5.19238281 42.078125 8.69628906 C42.09488281 9.85 42.11164063 11.00371094 42.12890625 12.19238281 C41.765625 15.25878906 41.765625 15.25878906 40.50219727 16.9271698 C38.36643201 18.56489384 37.28609255 18.63340341 34.6171875 18.63110352 C33.78622559 18.63733231 32.95526367 18.6435611 32.09912109 18.64997864 C31.20531738 18.64076889 30.31151367 18.63155914 29.390625 18.62207031 C28.00931396 18.62281807 28.00931396 18.62281807 26.60009766 18.62358093 C24.65329836 18.62124063 22.70649603 18.6115147 20.75976562 18.5949707 C17.777069 18.57137958 14.7952662 18.57440991 11.8125 18.58105469 C9.92186966 18.57547787 8.03124309 18.56836797 6.140625 18.55957031 C4.79991943 18.56093742 4.79991943 18.56093742 3.43212891 18.56233215 C2.60116699 18.55280014 1.77020508 18.54326813 0.9140625 18.53344727 C-0.18156006 18.52653618 -0.18156006 18.52653618 -1.29931641 18.51948547 C-3.234375 18.25878906 -3.234375 18.25878906 -6.234375 16.25878906 C-6.59765625 13.07128906 -6.59765625 13.07128906 -6.546875 9.25878906 C-6.54300781 8.00066406 -6.53914063 6.74253906 -6.53515625 5.44628906 C-6.07905434 0.6127935 -4.47149582 0.00922608 0 0 Z " fill="#58595A" transform="translate(348.234375,50.7412109375)"/>
<path d="M0 0 C0.87430664 -0.00630432 1.74861328 -0.01260864 2.64941406 -0.019104 C4.06818848 -0.01303131 4.06818848 -0.01303131 5.515625 -0.00683594 C6.48467773 -0.00874939 7.45373047 -0.01066284 8.45214844 -0.01263428 C10.50325785 -0.01399673 12.55437586 -0.01029612 14.60546875 -0.00195312 C17.75280039 0.00874547 20.8995612 -0.00184647 24.046875 -0.01464844 C26.0364596 -0.01332685 28.02604384 -0.01076448 30.015625 -0.00683594 C30.96147461 -0.0108844 31.90732422 -0.01493286 32.88183594 -0.019104 C33.75614258 -0.01279968 34.63044922 -0.00649536 35.53125 0 C36.68802246 0.00238678 36.68802246 0.00238678 37.86816406 0.00482178 C39.765625 0.25878906 39.765625 0.25878906 41.765625 2.25878906 C42.06640625 5.19238281 42.06640625 5.19238281 42.078125 8.69628906 C42.09488281 9.85 42.11164063 11.00371094 42.12890625 12.19238281 C41.765625 15.25878906 41.765625 15.25878906 40.50219727 16.9271698 C38.36643201 18.56489384 37.28609255 18.63340341 34.6171875 18.63110352 C33.78622559 18.63733231 32.95526367 18.6435611 32.09912109 18.64997864 C31.20531738 18.64076889 30.31151367 18.63155914 29.390625 18.62207031 C28.00931396 18.62281807 28.00931396 18.62281807 26.60009766 18.62358093 C24.65329836 18.62124063 22.70649603 18.6115147 20.75976562 18.5949707 C17.777069 18.57137958 14.7952662 18.57440991 11.8125 18.58105469 C9.92186966 18.57547787 8.03124309 18.56836797 6.140625 18.55957031 C4.79991943 18.56093742 4.79991943 18.56093742 3.43212891 18.56233215 C2.60116699 18.55280014 1.77020508 18.54326813 0.9140625 18.53344727 C-0.18156006 18.52653618 -0.18156006 18.52653618 -1.29931641 18.51948547 C-3.234375 18.25878906 -3.234375 18.25878906 -6.234375 16.25878906 C-6.59765625 13.07128906 -6.59765625 13.07128906 -6.546875 9.25878906 C-6.54300781 8.00066406 -6.53914063 6.74253906 -6.53515625 5.44628906 C-6.07905434 0.6127935 -4.47149582 0.00922608 0 0 Z " fill="#58595A" transform="translate(128.234375,50.7412109375)"/>
<path d="M0 0 C1.35513954 0.00539291 1.35513954 0.00539291 2.73765564 0.01089478 C3.68389801 0.01074875 4.63014038 0.01060272 5.60505676 0.01045227 C8.74880729 0.0111518 11.89249938 0.01894608 15.03623962 0.02676392 C17.20957405 0.02862795 19.3829089 0.03005192 21.5562439 0.03105164 C27.28884533 0.03487795 33.0214216 0.0447092 38.75401306 0.05575562 C44.59873616 0.0659673 50.44346331 0.07054873 56.28819275 0.07559204 C67.76541737 0.08633137 79.24262328 0.10340915 90.71983337 0.12442017 C91.34483337 2.99942017 91.34483337 2.99942017 91.71983337 6.12442017 C89.04857758 8.79567596 87.03322351 8.37011271 83.40092468 8.39547729 C82.51358643 8.39142883 81.62624817 8.38738037 80.71202087 8.38320923 C79.31188751 8.38846619 79.31188751 8.38846619 77.88346863 8.39382935 C74.787182 8.40265719 71.69112246 8.39679378 68.59483337 8.39004517 C66.45013892 8.39139151 64.30544475 8.39333179 62.16075134 8.39584351 C57.66153564 8.3987962 53.16239925 8.39449245 48.66319275 8.38516235 C42.88573393 8.37376777 37.10846091 8.38032647 31.33100891 8.39230728 C26.90105276 8.39952195 22.47114093 8.39723976 18.04118347 8.3920517 C15.91044595 8.39071411 13.77970444 8.3923667 11.64897156 8.3970108 C8.67508736 8.40206957 5.70150732 8.39437493 2.72764587 8.38320923 C1.84030762 8.38725769 0.95296936 8.39130615 0.03874207 8.39547729 C-6.05163903 8.35294776 -6.05163903 8.35294776 -8.28016663 6.12442017 C-7.50629463 -0.22133019 -6.18950414 0.01040733 0 0 Z " fill="#FFC71C" transform="translate(126.28016662597656,19.875579833984375)"/>
<path d="M0 0 C1 1 1 1 1.3125 3.6875 C0.81233361 8.98926374 -1.7256988 11.78941386 -5.5 15.375 C-14.36690984 19.49177957 -26.74454552 16.70693832 -36.25 16 C-37.5924198 15.90325487 -38.93486768 15.80689859 -40.27734375 15.7109375 C-43.51852462 15.47775902 -46.75937131 15.24071047 -50 15 C-50.02687279 13.18757948 -50.04633715 11.37504767 -50.0625 9.5625 C-50.07410156 8.55316406 -50.08570313 7.54382813 -50.09765625 6.50390625 C-50 4 -50 4 -49 3 C-46.08099143 2.6091704 -43.18019431 2.28164428 -40.25 2 C-38.9201709 1.86972412 -38.9201709 1.86972412 -37.56347656 1.73681641 C-25.12372856 0.57318255 -12.50072205 -0.31110394 0 0 Z " fill="#F59119" transform="translate(371,212)"/>
<path d="M0 0 C6.84635503 5.89547238 9.54777223 13.46344008 10.2734375 22.34765625 C10.58606694 33.78267934 8.06511404 43.17711773 0.71875 52.19140625 C-6.94219622 60.25281102 -16.37588216 65.31113037 -27.54296875 66.203125 C-38.52668402 66.39781419 -46.22864724 63.54673431 -55 57 C-52 57 -52 57 -48.43359375 58.47265625 C-43.61855288 60.33948841 -39.18201123 60.48039004 -34.0625 60.4375 C-33.22009766 60.45748047 -32.37769531 60.47746094 -31.50976562 60.49804688 C-25.18259662 60.49317608 -20.5523044 58.96584021 -15 56 C-13.71222656 55.33097656 -13.71222656 55.33097656 -12.3984375 54.6484375 C-4.16511321 49.46684731 0.64395634 42.04588781 4 33 C5.94924047 21.11950269 4.58947046 11.12295244 0 0 Z " fill="#484442" transform="translate(286,60)"/>
<path d="M0 0 C21.12 0 42.24 0 64 0 C64 9.57 64 19.14 64 29 C61.32806098 31.67193902 60.02973245 31.25316128 56.296875 31.25878906 C55.10223633 31.26509338 53.90759766 31.27139771 52.67675781 31.27789307 C51.38092773 31.2738446 50.08509766 31.26979614 48.75 31.265625 C47.41243418 31.26697178 46.07486883 31.26891243 44.73730469 31.27142334 C41.93289534 31.274374 39.12861331 31.27007894 36.32421875 31.26074219 C32.72595078 31.24934754 29.12798114 31.25590734 25.52972412 31.26788712 C22.76739242 31.27510736 20.00513167 31.27281706 17.24279785 31.26763153 C15.26961067 31.26564475 13.29642074 31.27172842 11.32324219 31.27789307 C10.12860352 31.27158875 8.93396484 31.26528442 7.703125 31.25878906 C6.64770508 31.25719788 5.59228516 31.25560669 4.50488281 31.25396729 C2 31 2 31 0 29 C0 28.01 0 27.02 0 26 C19.47 25.67 38.94 25.34 59 25 C59.33 17.08 59.66 9.16 60 1 C40.2 1 20.4 1 0 1 C0 0.67 0 0.34 0 0 Z " fill="#CBCBCB" transform="translate(224,210)"/>
<path d="M0 0 C5.69387767 5.0612246 9.67191977 11.51444404 10.23828125 19.2578125 C10.38661087 26.98656645 10.25136857 33.30047492 6 40 C5.32904297 41.06154297 5.32904297 41.06154297 4.64453125 42.14453125 C-0.52676828 49.61726703 -6.97553856 54.20554816 -16 56 C-22.17072069 56.48678875 -28.37961946 56.28340069 -34.5625 56.1875 C-36.2558475 56.17242858 -37.94920794 56.15874451 -39.64257812 56.14648438 C-43.76204222 56.11366704 -47.8808763 56.06202063 -52 56 C-51.34 54.68 -50.68 53.36 -50 52 C-49.15405273 51.99589111 -48.30810547 51.99178223 -47.43652344 51.98754883 C-44.23769014 51.96025875 -41.04010218 51.91085267 -37.84179688 51.84741211 C-36.4688665 51.82449789 -35.09576699 51.80990009 -33.72265625 51.80444336 C-22.26744014 51.75001434 -12.3657638 50.17487182 -3.5625 42.375 C3.59795059 34.34752199 5.83474072 26.28903013 5.5078125 15.609375 C4.8723994 11.09305421 3.43433138 7.73693286 1.09375 3.85546875 C0 2 0 2 0 0 Z " fill="#E29077" transform="translate(366,320)"/>
<path d="M0 0 C0.33 0 0.66 0 1 0 C1 2.97 1 5.94 1 9 C11.23 9 21.46 9 32 9 C32 13.29 32 17.58 32 22 C21.77 22 11.54 22 1 22 C1 23.98 1 25.96 1 28 C0.67 28 0.34 28 0 28 C0 18.76 0 9.52 0 0 Z " fill="#949698" transform="translate(288,210)"/>
<path d="M0 0 C11.88 0 23.76 0 36 0 C36 3.3 36 6.6 36 10 C24.12 10 12.24 10 0 10 C0 6.7 0 3.4 0 0 Z " fill="#F69520" transform="translate(80,392)"/>
<path d="M0 0 C1.32 0 2.64 0 4 0 C4.76294657 11.57983353 4.76294657 11.57983353 2.95703125 14.94140625 C-0.25479925 18.0967236 -2.90115755 19.121735 -7.26269531 19.17700195 C-8.14411194 19.18983719 -9.02552856 19.20267242 -9.93365479 19.21589661 C-10.88882996 19.22328354 -11.84400513 19.23067047 -12.828125 19.23828125 C-14.30076813 19.25038887 -14.30076813 19.25038887 -15.80316162 19.26274109 C-17.88454418 19.27658792 -19.9659495 19.28730739 -22.04736328 19.29516602 C-25.22342298 19.31235615 -28.39843574 19.35623456 -31.57421875 19.40039062 C-33.59634651 19.4105195 -35.61848312 19.41903499 -37.640625 19.42578125 C-39.06124237 19.45204338 -39.06124237 19.45204338 -40.51055908 19.47883606 C-46.27802057 19.45996288 -49.63288805 18.89532246 -54 15 C-54 14.34 -54 13.68 -54 13 C-53.40753479 13.00666183 -52.81506958 13.01332367 -52.20465088 13.02018738 C-46.04046045 13.08653768 -39.87637141 13.13179933 -33.71191406 13.16479492 C-31.4110909 13.17988495 -29.11029651 13.20035927 -26.80957031 13.22631836 C-23.50318298 13.26269147 -20.19717584 13.27972432 -16.890625 13.29296875 C-15.3466806 13.31619453 -15.3466806 13.31619453 -13.77154541 13.33988953 C-12.81085144 13.34011612 -11.85015747 13.34034271 -10.86035156 13.34057617 C-10.01651917 13.34723801 -9.17268677 13.35389984 -8.30328369 13.36076355 C-5.45294448 12.91431464 -4.09286982 11.9560868 -2 10 C-1.09438854 7.5170581 -1.09438854 7.5170581 -0.75 4.8125 C-0.60046875 3.91144531 -0.4509375 3.01039063 -0.296875 2.08203125 C-0.19890625 1.39496094 -0.1009375 0.70789063 0 0 Z " fill="#424244" transform="translate(428,482)"/>
<path d="M0 0 C1.32 0 2.64 0 4 0 C4.76294657 11.57983353 4.76294657 11.57983353 2.95703125 14.94140625 C-0.25479925 18.0967236 -2.90115755 19.121735 -7.26269531 19.17700195 C-8.14411194 19.18983719 -9.02552856 19.20267242 -9.93365479 19.21589661 C-10.88882996 19.22328354 -11.84400513 19.23067047 -12.828125 19.23828125 C-14.30076813 19.25038887 -14.30076813 19.25038887 -15.80316162 19.26274109 C-17.88454418 19.27658792 -19.9659495 19.28730739 -22.04736328 19.29516602 C-25.22342298 19.31235615 -28.39843574 19.35623456 -31.57421875 19.40039062 C-33.59634651 19.4105195 -35.61848312 19.41903499 -37.640625 19.42578125 C-39.06124237 19.45204338 -39.06124237 19.45204338 -40.51055908 19.47883606 C-46.27802057 19.45996288 -49.63288805 18.89532246 -54 15 C-54 14.34 -54 13.68 -54 13 C-53.40753479 13.00666183 -52.81506958 13.01332367 -52.20465088 13.02018738 C-46.04046045 13.08653768 -39.87637141 13.13179933 -33.71191406 13.16479492 C-31.4110909 13.17988495 -29.11029651 13.20035927 -26.80957031 13.22631836 C-23.50318298 13.26269147 -20.19717584 13.27972432 -16.890625 13.29296875 C-15.3466806 13.31619453 -15.3466806 13.31619453 -13.77154541 13.33988953 C-12.81085144 13.34011612 -11.85015747 13.34034271 -10.86035156 13.34057617 C-10.01651917 13.34723801 -9.17268677 13.35389984 -8.30328369 13.36076355 C-5.45294448 12.91431464 -4.09286982 11.9560868 -2 10 C-1.09438854 7.5170581 -1.09438854 7.5170581 -0.75 4.8125 C-0.60046875 3.91144531 -0.4509375 3.01039063 -0.296875 2.08203125 C-0.19890625 1.39496094 -0.1009375 0.70789063 0 0 Z " fill="#444345" transform="translate(135,482)"/>
<path d="M0 0 C1.32 0.66 2.64 1.32 4 2 C4.0810206 4.10353495 4.13919907 6.20795952 4.1875 8.3125 C4.22230469 9.48425781 4.25710938 10.65601562 4.29296875 11.86328125 C4 15 4 15 2.74195862 16.67376709 C0.5958791 18.30767575 -0.48928165 18.36974193 -3.16430664 18.35644531 C-4.41559105 18.36094696 -4.41559105 18.36094696 -5.69215393 18.36553955 C-6.5890947 18.35319275 -7.48603546 18.34084595 -8.41015625 18.328125 C-9.33340195 18.32625183 -10.25664764 18.32437866 -11.20787048 18.32244873 C-13.15888075 18.3157274 -15.10987752 18.30181129 -17.06079102 18.28125 C-20.05432596 18.2500851 -23.04733452 18.24027824 -26.04101562 18.234375 C-27.93490228 18.22520543 -29.82878356 18.21482981 -31.72265625 18.203125 C-32.62162125 18.19887512 -33.52058624 18.19462524 -34.4467926 18.19024658 C-35.27783005 18.18063904 -36.10886749 18.17103149 -36.96508789 18.16113281 C-37.69772354 18.15430481 -38.43035919 18.14747681 -39.18519592 18.14044189 C-41 18 -41 18 -43 17 C-42.67 15.68 -42.34 14.36 -42 13 C-40.79351807 12.97494385 -39.58703613 12.9498877 -38.34399414 12.92407227 C-33.88424339 12.83017477 -29.42465487 12.72991167 -24.96508789 12.62768555 C-23.03185815 12.58426959 -21.09858841 12.54259958 -19.1652832 12.50268555 C-16.39261798 12.44514369 -13.62015543 12.3814038 -10.84765625 12.31640625 C-9.97786636 12.29969376 -9.10807648 12.28298126 -8.21192932 12.26576233 C-4.28884034 12.54973787 -4.28884034 12.54973787 -1 11 C-0.76636119 9.15108054 -0.58696365 7.29511969 -0.4375 5.4375 C-0.35371094 4.42558594 -0.26992188 3.41367188 -0.18359375 2.37109375 C-0.09271484 1.19740234 -0.09271484 1.19740234 0 0 Z " fill="#4E4842" transform="translate(386,103)"/>
<path d="M0 0 C1.32 0.66 2.64 1.32 4 2 C4.0810206 4.10353495 4.13919907 6.20795952 4.1875 8.3125 C4.22230469 9.48425781 4.25710937 10.65601562 4.29296875 11.86328125 C4 15 4 15 2.74195862 16.67376709 C0.5958791 18.30767575 -0.48928165 18.36974193 -3.16430664 18.35644531 C-4.41559105 18.36094696 -4.41559105 18.36094696 -5.69215393 18.36553955 C-6.5890947 18.35319275 -7.48603546 18.34084595 -8.41015625 18.328125 C-9.33340195 18.32625183 -10.25664764 18.32437866 -11.20787048 18.32244873 C-13.15888075 18.3157274 -15.10987752 18.30181129 -17.06079102 18.28125 C-20.05432596 18.2500851 -23.04733452 18.24027824 -26.04101562 18.234375 C-27.93490228 18.22520543 -29.82878356 18.21482981 -31.72265625 18.203125 C-32.62162125 18.19887512 -33.52058624 18.19462524 -34.4467926 18.19024658 C-35.27783005 18.18063904 -36.10886749 18.17103149 -36.96508789 18.16113281 C-37.69772354 18.15430481 -38.43035919 18.14747681 -39.18519592 18.14044189 C-41 18 -41 18 -43 17 C-42.67 15.68 -42.34 14.36 -42 13 C-40.79351807 12.97494385 -39.58703613 12.9498877 -38.34399414 12.92407227 C-33.88424339 12.83017477 -29.42465487 12.72991167 -24.96508789 12.62768555 C-23.03185815 12.58426959 -21.09858841 12.54259958 -19.1652832 12.50268555 C-16.39261798 12.44514369 -13.62015543 12.3814038 -10.84765625 12.31640625 C-9.97786636 12.29969376 -9.10807648 12.28298126 -8.21192932 12.26576233 C-4.28884034 12.54973787 -4.28884034 12.54973787 -1 11 C-0.76636119 9.15108054 -0.58696365 7.29511969 -0.4375 5.4375 C-0.35371094 4.42558594 -0.26992187 3.41367188 -0.18359375 2.37109375 C-0.09271484 1.19740234 -0.09271484 1.19740234 0 0 Z " fill="#4E4842" transform="translate(166,103)"/>
<path d="M0 0 C1.32 0.66 2.64 1.32 4 2 C4.0810206 4.10353495 4.13919907 6.20795952 4.1875 8.3125 C4.22230469 9.48425781 4.25710938 10.65601562 4.29296875 11.86328125 C4 15 4 15 2.74195862 16.67376709 C0.5958791 18.30767575 -0.48928165 18.36974193 -3.16430664 18.35644531 C-4.41559105 18.36094696 -4.41559105 18.36094696 -5.69215393 18.36553955 C-6.5890947 18.35319275 -7.48603546 18.34084595 -8.41015625 18.328125 C-9.33340195 18.32625183 -10.25664764 18.32437866 -11.20787048 18.32244873 C-13.15888075 18.3157274 -15.10987752 18.30181129 -17.06079102 18.28125 C-20.05432596 18.2500851 -23.04733452 18.24027824 -26.04101562 18.234375 C-27.93490228 18.22520543 -29.82878356 18.21482981 -31.72265625 18.203125 C-32.62162125 18.19887512 -33.52058624 18.19462524 -34.4467926 18.19024658 C-35.27783005 18.18063904 -36.10886749 18.17103149 -36.96508789 18.16113281 C-37.69772354 18.15430481 -38.43035919 18.14747681 -39.18519592 18.14044189 C-41 18 -41 18 -43 17 C-42.67 15.68 -42.34 14.36 -42 13 C-40.79351807 12.97494385 -39.58703613 12.9498877 -38.34399414 12.92407227 C-33.88424339 12.83017477 -29.42465487 12.72991167 -24.96508789 12.62768555 C-23.03185815 12.58426959 -21.09858841 12.54259958 -19.1652832 12.50268555 C-16.39261798 12.44514369 -13.62015543 12.3814038 -10.84765625 12.31640625 C-9.97786636 12.29969376 -9.10807648 12.28298126 -8.21192932 12.26576233 C-4.28884034 12.54973787 -4.28884034 12.54973787 -1 11 C-0.76636119 9.15108054 -0.58696365 7.29511969 -0.4375 5.4375 C-0.35371094 4.42558594 -0.26992188 3.41367188 -0.18359375 2.37109375 C-0.09271484 1.19740234 -0.09271484 1.19740234 0 0 Z " fill="#4E4842" transform="translate(386,77)"/>
<path d="M0 0 C1.32 0.66 2.64 1.32 4 2 C4.0810206 4.10353495 4.13919907 6.20795952 4.1875 8.3125 C4.22230469 9.48425781 4.25710937 10.65601562 4.29296875 11.86328125 C4 15 4 15 2.74195862 16.67376709 C0.5958791 18.30767575 -0.48928165 18.36974193 -3.16430664 18.35644531 C-4.41559105 18.36094696 -4.41559105 18.36094696 -5.69215393 18.36553955 C-6.5890947 18.35319275 -7.48603546 18.34084595 -8.41015625 18.328125 C-9.33340195 18.32625183 -10.25664764 18.32437866 -11.20787048 18.32244873 C-13.15888075 18.3157274 -15.10987752 18.30181129 -17.06079102 18.28125 C-20.05432596 18.2500851 -23.04733452 18.24027824 -26.04101562 18.234375 C-27.93490228 18.22520543 -29.82878356 18.21482981 -31.72265625 18.203125 C-32.62162125 18.19887512 -33.52058624 18.19462524 -34.4467926 18.19024658 C-35.27783005 18.18063904 -36.10886749 18.17103149 -36.96508789 18.16113281 C-37.69772354 18.15430481 -38.43035919 18.14747681 -39.18519592 18.14044189 C-41 18 -41 18 -43 17 C-42.67 15.68 -42.34 14.36 -42 13 C-40.79351807 12.97494385 -39.58703613 12.9498877 -38.34399414 12.92407227 C-33.88424339 12.83017477 -29.42465487 12.72991167 -24.96508789 12.62768555 C-23.03185815 12.58426959 -21.09858841 12.54259958 -19.1652832 12.50268555 C-16.39261798 12.44514369 -13.62015543 12.3814038 -10.84765625 12.31640625 C-9.97786636 12.29969376 -9.10807648 12.28298126 -8.21192932 12.26576233 C-4.28884034 12.54973787 -4.28884034 12.54973787 -1 11 C-0.76636119 9.15108054 -0.58696365 7.29511969 -0.4375 5.4375 C-0.35371094 4.42558594 -0.26992187 3.41367188 -0.18359375 2.37109375 C-0.09271484 1.19740234 -0.09271484 1.19740234 0 0 Z " fill="#4E4842" transform="translate(166,77)"/>
<path d="M0 0 C1.32 0.66 2.64 1.32 4 2 C4.0810206 4.10353495 4.13919907 6.20795952 4.1875 8.3125 C4.22230469 9.48425781 4.25710938 10.65601563 4.29296875 11.86328125 C4 15 4 15 2.74195862 16.67376709 C0.5958791 18.30767575 -0.48928165 18.36974193 -3.16430664 18.35644531 C-4.41559105 18.36094696 -4.41559105 18.36094696 -5.69215393 18.36553955 C-6.5890947 18.35319275 -7.48603546 18.34084595 -8.41015625 18.328125 C-9.33340195 18.32625183 -10.25664764 18.32437866 -11.20787048 18.32244873 C-13.15888075 18.3157274 -15.10987752 18.30181129 -17.06079102 18.28125 C-20.05432596 18.2500851 -23.04733452 18.24027824 -26.04101562 18.234375 C-27.93490228 18.22520543 -29.82878356 18.21482981 -31.72265625 18.203125 C-32.62162125 18.19887512 -33.52058624 18.19462524 -34.4467926 18.19024658 C-35.27783005 18.18063904 -36.10886749 18.17103149 -36.96508789 18.16113281 C-37.69772354 18.15430481 -38.43035919 18.14747681 -39.18519592 18.14044189 C-41 18 -41 18 -43 17 C-42.67 15.68 -42.34 14.36 -42 13 C-40.79351807 12.97494385 -39.58703613 12.9498877 -38.34399414 12.92407227 C-33.88424339 12.83017477 -29.42465487 12.72991167 -24.96508789 12.62768555 C-23.03185815 12.58426959 -21.09858841 12.54259958 -19.1652832 12.50268555 C-16.39261798 12.44514369 -13.62015543 12.3814038 -10.84765625 12.31640625 C-9.97786636 12.29969376 -9.10807648 12.28298126 -8.21192932 12.26576233 C-4.28884034 12.54973787 -4.28884034 12.54973787 -1 11 C-0.76636119 9.15108054 -0.58696365 7.29511969 -0.4375 5.4375 C-0.35371094 4.42558594 -0.26992188 3.41367187 -0.18359375 2.37109375 C-0.09271484 1.19740234 -0.09271484 1.19740234 0 0 Z " fill="#4E4842" transform="translate(386,51)"/>
<path d="M0 0 C1.32 0.66 2.64 1.32 4 2 C4.0810206 4.10353495 4.13919907 6.20795952 4.1875 8.3125 C4.22230469 9.48425781 4.25710937 10.65601563 4.29296875 11.86328125 C4 15 4 15 2.74195862 16.67376709 C0.5958791 18.30767575 -0.48928165 18.36974193 -3.16430664 18.35644531 C-4.41559105 18.36094696 -4.41559105 18.36094696 -5.69215393 18.36553955 C-6.5890947 18.35319275 -7.48603546 18.34084595 -8.41015625 18.328125 C-9.33340195 18.32625183 -10.25664764 18.32437866 -11.20787048 18.32244873 C-13.15888075 18.3157274 -15.10987752 18.30181129 -17.06079102 18.28125 C-20.05432596 18.2500851 -23.04733452 18.24027824 -26.04101562 18.234375 C-27.93490228 18.22520543 -29.82878356 18.21482981 -31.72265625 18.203125 C-32.62162125 18.19887512 -33.52058624 18.19462524 -34.4467926 18.19024658 C-35.27783005 18.18063904 -36.10886749 18.17103149 -36.96508789 18.16113281 C-37.69772354 18.15430481 -38.43035919 18.14747681 -39.18519592 18.14044189 C-41 18 -41 18 -43 17 C-42.67 15.68 -42.34 14.36 -42 13 C-40.79351807 12.97494385 -39.58703613 12.9498877 -38.34399414 12.92407227 C-33.88424339 12.83017477 -29.42465487 12.72991167 -24.96508789 12.62768555 C-23.03185815 12.58426959 -21.09858841 12.54259958 -19.1652832 12.50268555 C-16.39261798 12.44514369 -13.62015543 12.3814038 -10.84765625 12.31640625 C-9.97786636 12.29969376 -9.10807648 12.28298126 -8.21192932 12.26576233 C-4.28884034 12.54973787 -4.28884034 12.54973787 -1 11 C-0.76636119 9.15108054 -0.58696365 7.29511969 -0.4375 5.4375 C-0.35371094 4.42558594 -0.26992187 3.41367187 -0.18359375 2.37109375 C-0.09271484 1.19740234 -0.09271484 1.19740234 0 0 Z " fill="#4E4842" transform="translate(166,51)"/>
<path d="M0 0 C4.55555556 0.55555556 4.55555556 0.55555556 6 2 C6.28659671 5.55743849 6.4490807 9.11499153 6.62109375 12.6796875 C6.75917866 16.1336172 6.75917866 16.1336172 9 19 C8.86714936 22.71981784 8.75057131 25.110434 6.3125 28 C3.10029355 29.38906225 1.3063364 29.05521374 -2 28 C-3.9375 26.375 -3.9375 26.375 -5 24 C-4.56363636 17.56363636 -4.56363636 17.56363636 -3 16 C-2.71406667 12.4099482 -2.55089829 8.81985155 -2.37890625 5.22265625 C-2 2 -2 2 0 0 Z " fill="#5C5C5E" transform="translate(254,64)"/>
<path d="M0 0 C1.32 0 2.64 0 4 0 C4 4.29 4 8.58 4 13 C-6.23 13 -16.46 13 -27 13 C-27 11.68 -27 10.36 -27 9 C-26.2479126 8.97494385 -25.4958252 8.9498877 -24.72094727 8.92407227 C-21.33460804 8.80849486 -17.94857387 8.68559655 -14.5625 8.5625 C-12.78649414 8.50352539 -12.78649414 8.50352539 -10.97460938 8.44335938 C-9.84990234 8.40146484 -8.72519531 8.35957031 -7.56640625 8.31640625 C-6.52427979 8.27974854 -5.48215332 8.24309082 -4.40844727 8.20532227 C-2.0500174 8.26484659 -2.0500174 8.26484659 -1 7 C-0.63239269 4.67182036 -0.29758419 2.3381615 0 0 Z " fill="#808285" transform="translate(316,219)"/>
<path d="M0 0 C3.0625 0.1875 3.0625 0.1875 5.0625 2.1875 C4.69568342 5.12203261 4.19812754 6.05187246 2.0625 8.1875 C-0.4375 8.4375 -0.4375 8.4375 -2.9375 8.1875 C-3.5975 7.5275 -4.2575 6.8675 -4.9375 6.1875 C-4.21574268 0.26908996 -4.21574268 0.26908996 0 0 Z " fill="#FFC61C" transform="translate(230.9375,19.8125)"/>
<path d="M0 0 C15.18 0.33 30.36 0.66 46 1 C46 1.33 46 1.66 46 2 C32.14 2 18.28 2 4 2 C4 2.66 4 3.32 4 4 C2.68 3.34 1.36 2.68 0 2 C0 1.34 0 0.68 0 0 Z " fill="#49494B" transform="translate(374,495)"/>
</svg>
