<?xml version="1.0" encoding="UTF-8"?>
<svg version="1.1" xmlns="http://www.w3.org/2000/svg" width="512" height="512">
<path d="M0 0 C1.83887772 -0.00302244 3.67775419 -0.00691239 5.51662844 -0.01159257 C10.55825058 -0.02186935 15.59980158 -0.01969154 20.64142954 -0.01541197 C26.08327731 -0.01294417 31.52510797 -0.02195961 36.96694946 -0.02944946 C47.62384941 -0.0421971 58.28072416 -0.04399006 68.93763045 -0.0416492 C77.60055051 -0.0398659 86.26346292 -0.04161594 94.92638206 -0.04587364 C96.15950909 -0.04646883 97.39263612 -0.04706402 98.66313064 -0.04767724 C101.16827006 -0.048889 103.67340948 -0.05010314 106.17854889 -0.05131962 C126.99440638 -0.06095646 147.81025262 -0.0613993 168.62611119 -0.05601571 C169.61871468 -0.05575908 169.61871468 -0.05575908 170.63137078 -0.05549726 C171.96956048 -0.0551506 173.30775019 -0.05480207 174.64593989 -0.05445167 C195.46528589 -0.04909522 216.28458952 -0.05702373 237.10392761 -0.07548523 C260.50757233 -0.09621417 283.91119257 -0.10689512 307.31484717 -0.10290974 C319.70175302 -0.1009975 332.08862028 -0.10348756 344.47551918 -0.11762428 C355.02100102 -0.12953774 365.56642053 -0.13094334 376.11190323 -0.11883412 C381.49057567 -0.11294515 386.86913407 -0.1118466 392.24779892 -0.12383652 C397.17581698 -0.13469405 402.10362578 -0.13159337 407.03163406 -0.11757483 C408.81016694 -0.11492756 410.58871622 -0.11729537 412.36723302 -0.1253107 C427.65220286 -0.18939064 440.30732608 0.9431385 451.8790741 11.99116516 C458.58619897 19.31869908 461.19969589 26.92603285 461.30485535 36.72944641 C461.31292709 37.44676941 461.32099884 38.16409241 461.32931519 38.90315247 C461.3431088 40.41602696 461.35385195 41.92893195 461.36174011 43.44184875 C461.3732968 44.98784002 461.39380667 46.53379026 461.42326355 48.07954407 C461.46588494 50.31728627 461.4820962 52.55384908 461.49235535 54.79194641 C461.50986343 55.48058777 461.52737152 56.16922913 461.54541016 56.8787384 C461.53018679 60.24789708 461.26463551 61.99503698 459.22746277 64.72749329 C457.0665741 66.26069641 457.0665741 66.26069641 454.0665741 66.26069641 C454.0893681 69.36649135 454.16665228 72.46860125 454.2540741 75.57319641 C454.25987488 76.45427063 454.26567566 77.33534485 454.27165222 78.24311829 C454.35512746 80.68245038 454.47850425 82.89070064 455.0665741 85.26069641 C457.39966624 87.39687906 457.39966624 87.39687906 460.0665741 88.26069641 C462.00322891 90.19735122 461.2006553 93.12440392 461.21430379 95.70322365 C461.21402725 97.10687324 461.21402725 97.10687324 461.21374512 98.53887939 C461.21742181 99.52498138 461.22109849 100.51108338 461.2248866 101.52706724 C461.23597236 104.85877364 461.23977559 108.1904489 461.24357605 111.52217102 C461.24983721 113.90015259 461.25648369 116.27813317 461.26348877 118.65611267 C461.28275765 125.81487014 461.2933256 132.97362824 461.30221656 140.13240442 C461.30659757 143.50374258 461.3119651 146.87507917 461.31720543 150.24641609 C461.3342251 161.45577512 461.34871687 172.66513316 461.35595417 183.87450314 C461.35786409 186.78554218 461.35978441 189.69658122 461.36174011 192.60762024 C461.36222385 193.33115102 461.36270759 194.05468181 461.36320599 194.80013777 C461.37149711 206.50748028 461.39681511 218.2147203 461.42932079 229.9220181 C461.46242531 241.94317202 461.48040624 253.96427396 461.48359841 265.98547369 C461.48576105 272.73416429 461.49447271 279.48270572 461.52005959 286.23135185 C461.54334616 292.58510079 461.54757091 298.93858166 461.5372982 305.29236221 C461.53680282 307.62154215 461.54312399 309.95073529 461.55685425 312.2798748 C461.5745858 315.46678983 461.56745993 318.65274428 461.55432129 321.83966064 C461.56529054 322.75535055 461.57625978 323.67104045 461.58756143 324.61447853 C461.48395044 335.06818571 457.32052571 343.80683274 450.0665741 351.26069641 C447.22283465 353.6032012 444.29828575 355.4979446 441.0665741 357.26069641 C440.45298035 357.60100891 439.8393866 357.94132141 439.2071991 358.29194641 C432.84841105 361.22677166 425.9146641 360.52038522 419.0665741 360.26069641 C419.08752136 360.88524719 419.10846863 361.50979797 419.13005066 362.15327454 C419.21393253 365.02224701 419.26545921 367.89096049 419.3165741 370.76069641 C419.36684753 372.23409485 419.36684753 372.23409485 419.4181366 373.73725891 C419.50275043 380.08329655 418.85688046 385.02110623 415.0665741 390.26069641 C410.72448232 393.62581754 406.61447561 394.37804983 401.22550964 394.42182922 C400.26738876 394.43143677 399.30926788 394.44104431 398.32211304 394.45094299 C396.77829704 394.45731781 396.77829704 394.45731781 395.20329285 394.46382141 C393.6052758 394.47237152 393.6052758 394.47237152 391.97497559 394.48109436 C389.72142019 394.49053584 387.46785105 394.49707496 385.21427917 394.50093079 C381.77742768 394.5106305 378.34117578 394.54166017 374.90446472 394.57319641 C372.71241097 394.57972745 370.52035296 394.58497752 368.32829285 394.58882141 C367.30515488 394.60116821 366.28201691 394.61351501 365.22787476 394.62623596 C359.38834049 394.6081237 355.20197261 394.1202716 350.0665741 391.26069641 C346.12035231 387.0029308 344.93879452 384.53881529 344.96891785 378.81538391 C344.9721405 377.73901672 344.97536316 376.66264954 344.97868347 375.55366516 C344.98706238 374.42573547 344.99544128 373.29780579 345.0040741 372.13569641 C345.00858582 371.00003235 345.01309753 369.86436829 345.01774597 368.69429016 C345.02955795 365.88304003 345.04602903 363.07189411 345.0665741 360.26069641 C344.00859241 360.26530538 342.95061073 360.26991434 341.860569 360.27466297 C316.13930803 360.38557047 290.418078 360.46778217 264.69662857 360.51975727 C252.25800844 360.54555895 239.81954609 360.58074716 227.38102722 360.63789368 C216.54192272 360.68766831 205.70293245 360.71997312 194.86371684 360.73113889 C189.12228555 360.73766766 183.38118114 360.7530532 177.63985443 360.78934669 C172.2390149 360.82321213 166.8386378 360.83376842 161.43770218 360.82623482 C159.4526862 360.82761359 157.46765522 360.83760209 155.48273087 360.85672379 C152.77729716 360.88151426 150.07362113 360.87565324 147.3681488 360.86196899 C146.57826482 360.8765332 145.78838084 360.89109741 144.97456098 360.90610296 C141.06301007 360.85243226 139.42147842 360.60062751 136.54772568 357.84811687 C135.0665741 355.26069641 135.0665741 355.26069641 135.0665741 353.26069641 C128.7965741 353.26069641 122.5265741 353.26069641 116.0665741 353.26069641 C115.7365741 354.91069641 115.4065741 356.56069641 115.0665741 358.26069641 C111.90931791 360.36553387 111.19282798 360.50790232 107.59513855 360.48774719 C106.6944313 360.48759613 105.79372406 360.48744507 104.86572266 360.48728943 C103.89688644 360.47696686 102.92805023 360.46664429 101.92985535 360.45600891 C100.43798958 360.45176407 100.43798958 360.45176407 98.91598511 360.44743347 C95.73689279 360.4362313 92.55808138 360.41112655 89.3790741 360.38569641 C87.22478129 360.37566666 85.07048407 360.3665408 82.91618347 360.35835266 C77.63288438 360.33629187 72.3497493 360.30281397 67.0665741 360.26069641 C67.0911972 361.35026894 67.0911972 361.35026894 67.11631775 362.46185303 C67.1615702 364.46427417 67.20611866 366.46671133 67.25004578 368.46916199 C67.29900016 370.56928276 67.35968086 372.66913834 67.42692566 374.76875305 C67.49685139 381.18331122 66.93339498 385.07435818 63.0665741 390.26069641 C58.68943632 393.54354974 54.71353028 394.37701166 49.33317566 394.42182922 C48.39830322 394.43143677 47.46343079 394.44104431 46.50022888 394.45094299 C45.49602905 394.45519287 44.49182922 394.45944275 43.4571991 394.46382141 C42.41642212 394.46952148 41.37564514 394.47522156 40.30332947 394.48109436 C38.10104893 394.49053594 35.89875431 394.497075 33.69645691 394.50093079 C30.34301298 394.51062002 26.99018633 394.54164522 23.6368866 394.57319641 C21.49366106 394.57972856 19.35043115 394.5849782 17.2071991 394.58882141 C16.21109619 394.60116821 15.21499329 394.61351501 14.18870544 394.62623596 C8.10971237 394.60698106 3.58513457 393.87261752 -1.9334259 391.26069641 C-6.06055397 387.02774455 -7.06311918 383.73517881 -7.03108215 377.93647766 C-7.0278595 376.90845032 -7.02463684 375.88042297 -7.02131653 374.82124329 C-7.00874817 373.21346008 -7.00874817 373.21346008 -6.9959259 371.57319641 C-6.99141418 370.48973938 -6.98690247 369.40628235 -6.98225403 368.28999329 C-6.97046333 365.61350556 -6.95400654 362.93712864 -6.9334259 360.26069641 C-7.94920715 360.31870422 -8.9649884 360.37671204 -10.0115509 360.43647766 C-21.62182718 360.90094535 -30.50329889 359.16030827 -39.8084259 351.63569641 C-45.72506986 345.97723328 -50.61968091 338.17535016 -51.06222707 329.83256423 C-51.06401564 328.91906176 -51.06580421 328.00555929 -51.06764698 327.06437492 C-51.07210482 326.00710886 -51.07656267 324.94984279 -51.0811556 323.86053836 C-51.08097124 322.70005359 -51.08078687 321.53956882 -51.08059692 320.34391785 C-51.08427361 319.11023944 -51.0879503 317.87656103 -51.0917384 316.60549843 C-51.10085871 313.17915169 -51.1054735 309.75285283 -51.10812771 306.32649851 C-51.11203388 302.63172062 -51.12161201 298.93695655 -51.13034058 295.2421875 C-51.15009622 286.31825989 -51.16017008 277.39433117 -51.16906837 268.47038716 C-51.17345277 264.26673222 -51.17881919 260.06307854 -51.18405724 255.85942459 C-51.20106867 241.88342233 -51.2155625 227.90742086 -51.22280598 213.93140984 C-51.22471583 210.30516941 -51.22663617 206.678929 -51.22859192 203.0526886 C-51.22907566 202.15141743 -51.2295594 201.25014627 -51.2300578 200.32156385 C-51.23835685 185.72388455 -51.26369203 171.12628723 -51.2961726 156.52864371 C-51.32925598 141.53772264 -51.3472559 126.54684321 -51.35045022 111.55588543 C-51.35261414 103.14057209 -51.36134547 94.72537829 -51.38691139 86.31010056 C-51.40863588 79.14276412 -51.41666024 71.97557628 -51.40694461 64.80821066 C-51.40240493 61.15324688 -51.40426638 57.49858957 -51.42370605 53.84366798 C-51.44462921 49.87544444 -51.43433617 45.90764121 -51.4211731 41.93937683 C-51.43214234 40.79227639 -51.44311159 39.64517595 -51.45441324 38.46331489 C-51.36818797 27.68213199 -48.13540766 19.30891102 -40.9334259 11.26069641 C-29.14490962 -0.01527569 -15.38842669 -0.03578617 0 0 Z " fill="#000101" transform="translate(50.93342590332031,58.73930358886719)"/>
<path d="M0 0 C0.91191494 -0.00521549 1.82382989 -0.01043099 2.76337862 -0.01580453 C4.27589999 -0.00911236 4.27589999 -0.00911236 5.81897736 -0.002285 C7.41813468 -0.00696498 7.41813468 -0.00696498 9.04959822 -0.01173949 C12.645672 -0.01975907 16.24157888 -0.01338044 19.83765411 -0.00710678 C22.40610097 -0.00981488 24.97454704 -0.01337479 27.54299164 -0.0177269 C33.80926363 -0.02663801 40.07548781 -0.02469127 46.34176171 -0.01890162 C51.43275796 -0.01439187 56.52374079 -0.01376924 61.61473846 -0.01594925 C62.70001975 -0.01640895 62.70001975 -0.01640895 63.80722591 -0.01687793 C65.27686839 -0.01751736 66.74651086 -0.01816579 68.21615332 -0.01882312 C82.00940942 -0.02453144 95.80263896 -0.01796065 109.5958907 -0.00722238 C121.44097748 0.00171359 133.28602507 0.00016168 145.13111115 -0.00905991 C158.87372054 -0.01975368 172.61630665 -0.02398207 186.35891962 -0.01783538 C187.82327175 -0.01719825 189.28762388 -0.01656951 190.75197601 -0.01594925 C191.83281808 -0.01548642 191.83281808 -0.01548642 192.93549535 -0.01501425 C198.02263316 -0.01328462 203.10975625 -0.01620815 208.19689178 -0.02090836 C215.03893944 -0.0270908 221.88091159 -0.02271335 228.72295189 -0.01111984 C231.24092676 -0.00846496 233.75890783 -0.00925235 236.27688026 -0.01364517 C239.70058502 -0.01906947 243.12404798 -0.01230451 246.54773712 -0.002285 C248.0602585 -0.00897717 248.0602585 -0.00897717 249.60333586 -0.01580453 C250.97120827 -0.00798129 250.97120827 -0.00798129 252.36671448 0 C253.55323317 0.00048706 253.55323317 0.00048706 254.76372194 0.00098395 C256.68335724 0.25168228 256.68335724 0.25168228 258.68335724 2.25168228 C258.88133548 5.1804111 258.95251571 8.01470672 258.93732452 10.94467545 C258.94044451 11.85560534 258.94356449 12.76653523 258.94677901 13.70506907 C258.95479503 16.77600999 258.94842138 19.84675529 258.9421463 22.91769791 C258.94485456 25.11176546 258.94841456 27.3058321 258.95276642 29.499897 C258.96191229 35.4728854 258.95833713 41.44580498 258.95200825 47.41879463 C258.9469596 53.65724122 258.95163653 59.89568176 258.95478058 66.13412857 C258.95865717 77.28425964 258.95242534 88.43436536 258.9422619 99.58449036 C258.93332598 109.70127173 258.9348779 119.81800721 258.94409943 129.93478775 C258.95479417 141.67336327 258.95879091 153.41191643 258.9528749 165.15049696 C258.94975001 171.36789649 258.94936002 177.58526438 258.95594788 183.8026619 C258.96170706 189.64665068 258.9577507 195.49055244 258.94615936 201.33453178 C258.94350511 203.48484337 258.94429081 205.63516223 258.94868469 207.78547096 C258.95411151 210.70997735 258.94734104 213.63420098 258.93732452 216.55868912 C258.94178597 217.41918067 258.94624741 218.27967221 258.95084405 219.16623926 C258.91165726 225.02338226 258.91165726 225.02338226 256.68335724 227.25168228 C254.76372194 227.50238061 254.76372194 227.50238061 252.36671448 227.50336456 C251.45479953 227.50858006 250.54288459 227.51379555 249.60333586 227.51916909 C248.09081448 227.51247693 248.09081448 227.51247693 246.54773712 227.50564957 C244.9485798 227.51032954 244.9485798 227.51032954 243.31711626 227.51510406 C239.72104248 227.52312364 236.1251356 227.516745 232.52906036 227.51047134 C229.96061351 227.51317945 227.39216743 227.51673936 224.82372284 227.52109146 C218.55745085 227.53000258 212.29122666 227.52805583 206.02495277 227.52226618 C200.93395651 227.51775643 195.84297369 227.5171338 190.75197601 227.51931381 C189.66669473 227.51977351 189.66669473 227.51977351 188.55948856 227.5202425 C187.08984609 227.52088192 185.62020362 227.52153035 184.15056115 227.52218768 C170.35730506 227.52789601 156.56407552 227.52132522 142.77082378 227.51058695 C130.92573699 227.50165098 119.08068941 227.50320288 107.23560333 227.51242447 C93.49299394 227.52311824 79.75040783 227.52734664 66.00779486 227.52119994 C64.54344273 227.52056282 63.0790906 227.51993408 61.61473846 227.51931381 C60.53389639 227.51885099 60.53389639 227.51885099 59.43121913 227.51837881 C54.34408132 227.51664918 49.25695823 227.51957272 44.16982269 227.52427292 C37.32777503 227.53045536 30.48580289 227.52607791 23.64376259 227.51448441 C21.12578772 227.51182952 18.60780665 227.51261692 16.08983421 227.51700974 C12.66612946 227.52243403 9.24266649 227.51566907 5.81897736 227.50564957 C4.81062977 227.51011101 3.80228219 227.51457245 2.76337862 227.51916909 C1.3955062 227.51134585 1.3955062 227.51134585 0 227.50336456 C-0.79101246 227.50303986 -1.58202493 227.50271515 -2.39700747 227.50238061 C-4.31664276 227.25168228 -4.31664276 227.25168228 -6.31664276 225.25168228 C-6.514621 222.32295346 -6.58580124 219.48865784 -6.57061005 216.55868912 C-6.57373003 215.64775922 -6.57685001 214.73682933 -6.58006454 213.7982955 C-6.58808056 210.72735457 -6.5817069 207.65660927 -6.57543182 204.58566666 C-6.57814009 202.39159911 -6.58170009 200.19753247 -6.58605194 198.00346756 C-6.59519781 192.03047917 -6.59162265 186.05755958 -6.58529377 180.08456993 C-6.58024512 173.84612334 -6.58492205 167.60768281 -6.5880661 161.36923599 C-6.59194269 150.21910492 -6.58571086 139.06899921 -6.57554743 127.9188742 C-6.5666115 117.80209283 -6.56816342 107.68535735 -6.57738495 97.56857681 C-6.58807969 85.83000129 -6.59207643 74.09144814 -6.58616042 62.3528676 C-6.58303554 56.13546808 -6.58264555 49.91810019 -6.5892334 43.70070267 C-6.59499258 37.85671388 -6.59103622 32.01281212 -6.57944489 26.16883278 C-6.57679063 24.01852119 -6.57757633 21.86820234 -6.58197021 19.7178936 C-6.58739703 16.79338721 -6.58062657 13.86916359 -6.57061005 10.94467545 C-6.57507149 10.0841839 -6.57953293 9.22369235 -6.58412957 8.3371253 C-6.54485174 2.46637321 -6.18386252 0.00253843 0 0 Z " fill="#E4EDF8" transform="translate(52.31664276123047,125.74831771850586)"/>
<path d="M0 0 C1.19978418 -0.0039821 2.39956836 -0.00796419 3.63570964 -0.01206696 C4.94504596 -0.00624128 6.25438228 -0.00041559 7.60339546 0.00558662 C9.0151315 0.00471415 10.42686723 0.00296239 11.83860123 0.00040829 C15.71302338 -0.00406095 19.58733483 0.00393263 23.46174288 0.01396441 C27.64163551 0.0226027 31.82152192 0.01967848 36.00142097 0.01815987 C43.24175558 0.01711126 50.48205414 0.02338537 57.72237968 0.03463554 C68.1906654 0.0508908 78.65893369 0.05609858 89.12723066 0.05861153 C106.11141177 0.06298859 123.09557366 0.076298 140.07974434 0.09521675 C156.57811576 0.11357526 173.07648196 0.12773191 189.57486153 0.13623238 C191.10034525 0.13702055 191.10034525 0.13702055 192.65664683 0.13782464 C197.75859129 0.14043472 202.86053579 0.14296213 207.96248031 0.14544845 C250.28706352 0.16618129 292.6116253 0.20155583 334.93618965 0.24609566 C334.93618965 4.53609566 334.93618965 8.82609566 334.93618965 13.24609566 C332.95618965 12.75109566 332.95618965 12.75109566 330.93618965 12.24609566 C323.65188275 11.25406943 317.92105806 13.00596855 311.93618965 17.24609566 C307.40423597 21.96152924 304.81953112 26.22089722 304.79638195 32.8508482 C304.79069071 33.80162135 304.78499947 34.7523945 304.77913576 35.73197895 C304.77736595 37.3019827 304.77736595 37.3019827 304.77556038 38.90370369 C304.77047256 40.0140211 304.76538474 41.12433851 304.76014274 42.2683019 C304.74438088 46.00837576 304.73588331 49.74843024 304.72744942 53.4885273 C304.72034245 55.48139043 304.71322925 57.47425358 304.70560909 59.46711481 C304.67228416 68.18698753 304.65076233 76.90687204 304.63240924 85.62678757 C304.62761364 87.89785277 304.62263038 90.16891748 304.61760402 92.43998218 C304.58662978 106.54621458 304.55994719 120.65245111 304.54318523 134.758708 C304.53923579 138.02623248 304.5352328 141.29375688 304.53116035 144.5612812 C304.52964781 145.77945854 304.52964781 145.77945854 304.52810472 147.02224552 C304.51110591 160.17154069 304.47000587 173.3206474 304.41913737 186.46985061 C304.36732749 199.97364148 304.33823846 213.47733553 304.33098835 226.98122495 C304.32633008 234.56162029 304.31162114 242.14170712 304.27124405 249.72200394 C304.23688972 256.17942013 304.22302632 262.63647215 304.23566819 269.09397448 C304.24148296 272.38662951 304.23442182 275.67835593 304.20749855 278.97092819 C304.17981779 282.54778716 304.18932831 286.12272678 304.20793343 289.69960213 C304.1911385 290.73065624 304.17434357 291.76171035 304.1570397 292.82400852 C304.25332237 300.25062788 306.33422088 305.39546622 310.93618965 311.24609566 C315.98874041 315.84108292 321.040479 316.38850391 327.62368965 316.30859566 C328.67653145 316.30182808 328.67653145 316.30182808 329.75064278 316.29492378 C331.47919503 316.28316492 333.20770331 316.26523019 334.93618965 316.24609566 C334.93618965 320.53609566 334.93618965 324.82609566 334.93618965 329.24609566 C334.00097575 329.24848401 333.06576185 329.25087236 332.10220814 329.25333309 C309.36875293 329.31207204 286.63540419 329.38791995 263.90206623 329.48181057 C252.90848625 329.526817 241.91493901 329.56622041 230.92129707 329.5925312 C221.3416207 329.6154721 211.76204755 329.64882613 202.18245298 329.69479722 C197.10796554 329.7187823 192.03358066 329.73747637 186.95903778 329.74370956 C182.18609713 329.74973659 177.41341906 329.76964959 172.64057541 329.80037117 C170.88577914 329.80918977 169.1309486 329.81286612 167.37613106 329.81110382 C164.9859062 329.80946081 162.59649117 329.82606586 160.20637703 329.84736824 C159.50696296 329.84252066 158.8075489 329.83767309 158.08694047 329.83267862 C155.30912137 329.87372637 153.38266556 329.94522073 151.04430294 331.52101612 C149.64767433 333.49275514 149.64767433 333.49275514 148.93618965 337.24609566 C142.33618965 337.24609566 135.73618965 337.24609566 128.93618965 337.24609566 C127.94618965 335.26609566 126.95618965 333.28609566 125.93618965 331.24609566 C123.39466873 329.9753352 121.63561215 330.12424182 118.78970528 330.12825203 C117.15387741 330.12657524 117.15387741 330.12657524 115.48500252 330.12486458 C113.6819339 330.13037079 113.6819339 330.13037079 111.84243965 330.13598824 C109.90518344 330.13558628 107.96792721 330.13517446 106.03067112 330.13439405 C103.94368241 330.13422958 101.8567036 330.13625672 99.76971626 330.13856125 C95.4149344 330.14219228 91.06023953 330.13305624 86.70547676 330.12077522 C85.97027904 330.11875329 85.23508131 330.11673136 84.47760487 330.11464816 C82.97383045 330.11047919 81.47005612 330.10627643 79.96628189 330.10204065 C69.82745696 330.07391642 59.68881889 330.05372051 49.54995918 330.07104683 C42.71283667 330.08263531 35.87610391 330.0729196 29.03905106 330.03898925 C25.42347575 330.02188925 21.80860325 330.01546026 18.19302559 330.03510666 C14.14985258 330.05687507 10.10822679 330.03176816 6.0650959 330.00317574 C4.879244 330.0169677 3.69339211 330.03075966 2.4716053 330.04496956 C-5.35907448 329.93791882 -10.98180729 328.33639219 -17.06381035 323.24609566 C-21.05285955 318.25727914 -23.1851317 313.7222138 -23.19803143 307.27655697 C-23.20248927 306.24443232 -23.20694711 305.21230768 -23.21154004 304.14890653 C-23.21135568 303.01138132 -23.21117132 301.8738561 -23.21098137 300.70186043 C-23.21465806 299.49621018 -23.21833475 298.29055993 -23.22212285 297.04837483 C-23.23125207 293.69571823 -23.2358599 290.34311059 -23.23851216 286.99044621 C-23.24241473 283.37680749 -23.25199311 279.76318296 -23.26072502 276.1495533 C-23.28049092 267.41951048 -23.29055587 258.68946649 -23.29945281 249.95940688 C-23.30383557 245.84863651 -23.30920241 241.73786743 -23.31444168 237.62709808 C-23.3314542 223.96252682 -23.34594844 210.29795635 -23.35319042 196.63337612 C-23.35510033 193.08704629 -23.35702066 189.54071647 -23.35897636 185.99438667 C-23.3594601 185.11295969 -23.35994384 184.2315327 -23.36044224 183.32339581 C-23.3687428 169.044394 -23.39408003 154.76547596 -23.42655704 140.48651073 C-23.45962592 125.82785458 -23.47763903 111.16924099 -23.48083466 96.51054734 C-23.48299994 88.27972322 -23.49175106 80.04902126 -23.51729584 71.81823349 C-23.53900052 64.80855128 -23.54705444 57.79902089 -23.53732906 50.78930888 C-23.53278361 47.21358274 -23.53468433 43.63816985 -23.5540905 40.06248665 C-23.5749619 36.18327744 -23.56473911 32.30449993 -23.55155754 28.4252491 C-23.56252679 27.29887749 -23.57349603 26.17250589 -23.58479768 25.01200181 C-23.52273071 17.45216734 -22.36380789 12.14883248 -17.35287285 6.22265816 C-16.80373222 5.77664253 -16.2545916 5.33062691 -15.68881035 4.87109566 C-15.14482597 4.40961128 -14.6008416 3.94812691 -14.04037285 3.47265816 C-9.58546291 0.70814883 -5.16811871 -0.0037973 0 0 Z M7.93618965 53.24609566 C7.73821141 56.17482448 7.66703118 59.0091201 7.68222237 61.93908882 C7.67910239 62.85001872 7.6759824 63.76094861 7.67276788 64.69948244 C7.66475186 67.77042337 7.67112551 70.84116867 7.67740059 73.91211128 C7.67469233 76.10617883 7.67113233 78.30024547 7.66678047 80.49431038 C7.6576346 86.46729877 7.66120976 92.44021836 7.66753864 98.41320801 C7.67258729 104.6516546 7.66791036 110.89009513 7.66476631 117.12854195 C7.66088972 128.27867302 7.66712156 139.42877873 7.67728499 150.57890373 C7.68622091 160.69568511 7.68466899 170.81242058 7.67544746 180.92920113 C7.66475272 192.66777665 7.66075598 204.4063298 7.66667199 216.14491034 C7.66979688 222.36230986 7.67018687 228.57967775 7.66359901 234.79707527 C7.65783983 240.64106406 7.66179619 246.48496582 7.67338753 252.32894516 C7.67604178 254.47925675 7.67525608 256.6295756 7.6708622 258.77988434 C7.66543538 261.70439073 7.67220585 264.62861435 7.68222237 267.55310249 C7.67776092 268.41359404 7.67329948 269.27408559 7.66870284 270.16065264 C7.50032122 274.67819053 7.50032122 274.67819053 9.93618965 278.24609566 C11.92930632 278.54839583 11.92930632 278.54839583 14.25283241 278.49777794 C15.62070483 278.50560118 15.62070483 278.50560118 17.01621103 278.51358247 C18.02455862 278.50912102 19.0329062 278.50465958 20.07180977 278.50006294 C21.13791465 278.50318292 22.20401954 278.50630291 23.30243063 278.50951743 C26.89850441 278.51753701 30.49441129 278.51115838 34.09048653 278.50488472 C36.65893338 278.50759282 39.22737946 278.51115273 41.79582405 278.51550484 C48.06209604 278.52441595 54.32832023 278.52246921 60.59459412 278.51667956 C65.68559038 278.51216981 70.7765732 278.51154718 75.86757088 278.51372719 C76.59109174 278.51403365 77.31461259 278.51434012 78.06005833 278.51465587 C79.5297008 278.5152953 80.99934327 278.51594372 82.46898574 278.51660106 C96.26224183 278.52230938 110.05547137 278.51573859 123.84872311 278.50500032 C135.6938099 278.49606435 147.53885748 278.49761625 159.38394356 278.50683784 C173.12655295 278.51753162 186.86913906 278.52176001 200.61175203 278.51561332 C202.07610416 278.51497619 203.54045629 278.51434745 205.00480843 278.51372719 C205.72536981 278.51341864 206.44593119 278.51311009 207.18832776 278.51279218 C212.27546557 278.51106256 217.36258866 278.51398609 222.4497242 278.51868629 C229.29177186 278.52486874 236.133744 278.52049129 242.9757843 278.50889778 C245.49375917 278.50624289 248.01174024 278.50703029 250.52971268 278.51142311 C253.95341743 278.51684741 257.3768804 278.51008245 260.80056953 278.50006294 C262.31309091 278.50675511 262.31309091 278.50675511 263.85616827 278.51358247 C264.76808321 278.50836697 265.67999816 278.50315148 266.61954689 278.49777794 C267.41055935 278.49745323 268.20157182 278.49712853 269.01655436 278.49679399 C271.17547257 278.41320237 271.17547257 278.41320237 272.93618965 276.24609566 C273.13416789 273.31736684 273.20534813 270.48307121 273.19015694 267.55310249 C273.19327692 266.6421726 273.1963969 265.7312427 273.19961143 264.79270887 C273.20762745 261.72176795 273.20125379 258.65102265 273.19497871 255.58008003 C273.19768698 253.38601248 273.20124698 251.19194584 273.20559883 248.99788094 C273.2147447 243.02489254 273.21116954 237.05197296 273.20484066 231.07898331 C273.19979201 224.84053671 273.20446894 218.60209618 273.20761299 212.36364937 C273.21148958 201.2135183 273.20525775 190.06341258 273.19509432 178.91328758 C273.18615839 168.79650621 273.18771031 158.67977073 273.19693184 148.56299019 C273.20762658 136.82441467 273.21162332 125.08586151 273.20570731 113.34728098 C273.20258243 107.12988145 273.20219244 100.91251356 273.20878029 94.69511604 C273.21453947 88.85112726 273.21058312 83.0072255 273.19899178 77.16324615 C273.19633752 75.01293457 273.19712322 72.86261571 273.20151711 70.71230698 C273.20694392 67.78780059 273.20017346 64.86357696 273.19015694 61.93908882 C273.19461838 61.07859727 273.19907982 60.21810573 273.20367646 59.33153868 C273.37205809 54.81400079 273.37205809 54.81400079 270.93618965 51.24609566 C268.94307298 50.94379548 268.94307298 50.94379548 266.61954689 50.99441338 C265.25167447 50.98659013 265.25167447 50.98659013 263.85616827 50.97860885 C262.3436469 50.98530101 262.3436469 50.98530101 260.80056953 50.99212837 C259.73446465 50.98900839 258.66835977 50.98588841 257.56994867 50.98267388 C253.97387489 50.9746543 250.37796801 50.98103294 246.78189278 50.98730659 C244.21344592 50.98459849 241.64499985 50.98103858 239.07655525 50.97668648 C232.81028326 50.96777536 226.54405908 50.9697221 220.27778518 50.97551176 C215.18678893 50.98002151 210.0958061 50.98064414 205.00480843 50.97846413 C204.28128757 50.97815766 203.55776671 50.97785119 202.81232098 50.97753544 C201.3426785 50.97689602 199.87303603 50.97624759 198.40339357 50.97559026 C184.61013747 50.96988193 170.81690793 50.97645272 157.02365619 50.98719099 C145.17856941 50.99612696 133.33352182 50.99457506 121.48843575 50.98535347 C107.74582635 50.9746597 94.00324024 50.9704313 80.26062727 50.976578 C78.79627514 50.97721512 77.33192301 50.97784386 75.86757088 50.97846413 C75.1470095 50.97877268 74.42644812 50.97908123 73.68405154 50.97939913 C68.59691373 50.98112875 63.50979064 50.97820522 58.42265511 50.97350502 C51.58060745 50.96732258 44.7386353 50.97170003 37.896595 50.98329353 C35.37862014 50.98594842 32.86063906 50.98516102 30.34266663 50.9807682 C26.91896187 50.97534391 23.49549891 50.98210886 20.07180977 50.99212837 C18.55928839 50.98543621 18.55928839 50.98543621 17.01621103 50.97860885 C16.10429609 50.98382434 15.19238114 50.98903984 14.25283241 50.99441338 C13.06631372 50.99490043 13.06631372 50.99490043 11.85582495 50.99539733 C9.69690674 51.07898894 9.69690674 51.07898894 7.93618965 53.24609566 Z " fill="#576A74" transform="translate(38.06381034851074,74.75390434265137)"/>
<path d="M0 0 C94.62857143 0 94.62857143 0 102.1875 5.1875 C108.83154431 11.83154431 109.40999173 17.74420579 109.51171875 26.81640625 C109.50785156 28.11449219 109.50398438 29.41257812 109.5 30.75 C109.49234848 33.34896795 109.50199006 35.9480605 109.53125 38.546875 C109.52673828 39.68995117 109.52222656 40.83302734 109.51757812 42.01074219 C110.10467701 45.64861606 111.11388499 46.78121746 114 49 C115.485 49.495 115.485 49.495 117 50 C117 56.6 117 63.2 117 70 C115.35 70.66 113.7 71.32 112 72 C109.30400782 74.69599218 109.75838719 76.7777035 109.73897475 80.44074297 C109.74699275 81.81084119 109.74699275 81.81084119 109.75517273 83.20861816 C109.75177587 84.65842614 109.75177587 84.65842614 109.74831039 86.13752317 C109.7429863 89.39708624 109.75186836 92.65646181 109.76049805 95.91601562 C109.75938589 98.24488384 109.75732921 100.57375177 109.75439453 102.90261841 C109.74966099 107.92924046 109.75080434 112.95581587 109.75617027 117.98243713 C109.76375936 125.93294374 109.75315907 133.88336968 109.7389679 141.8338623 C109.73436635 144.5541151 109.72991603 147.27436813 109.72552967 149.99462128 C109.72388246 151.01447947 109.72388246 151.01447947 109.72220197 152.05494085 C109.71002178 159.79866825 109.70247473 167.54239834 109.6965332 175.28613281 C109.69598514 175.99414502 109.69543708 176.70215723 109.69487242 177.43162435 C109.68642405 188.88990076 109.68974535 200.34815363 109.69568755 211.80643016 C109.70131202 223.57454231 109.68773382 235.34253633 109.65813476 247.11061239 C109.63947915 255.01090261 109.6428018 262.91078132 109.66230237 270.81106472 C109.6691922 275.7347867 109.65520989 280.65828646 109.63535309 285.5819664 C109.6303123 287.86114628 109.63377383 290.1403637 109.64648628 292.4195137 C109.66264347 295.53872564 109.64790344 298.65637028 109.6257782 301.7755127 C109.6378157 302.67106574 109.64985319 303.56661878 109.66225547 304.48930979 C109.5653573 311.2194534 107.6068607 316.32347183 104 322 C101.6484375 324.25390625 101.6484375 324.25390625 99.375 325.5625 C98.61960937 326.01753906 97.86421875 326.47257812 97.0859375 326.94140625 C68.22100056 341.59009147 32.36925336 329 0 329 C0 220.43 0 111.86 0 0 Z " fill="#788A96" transform="translate(388,75)"/>
<path d="M0 0 C1.40074788 -0.00576172 1.40074788 -0.00576172 2.82979369 -0.01163983 C3.86264943 -0.01077335 4.89550518 -0.00990687 5.95965958 -0.00901413 C7.59746081 -0.01347081 7.59746081 -0.01347081 9.26834893 -0.01801753 C12.95177602 -0.02673595 16.63517072 -0.02821543 20.31860733 -0.02970505 C22.94952845 -0.03433101 25.5804489 -0.03935537 28.21136856 -0.04475021 C35.37671203 -0.05834538 42.54204991 -0.06436026 49.70740414 -0.06876087 C54.18030733 -0.07152164 58.65320835 -0.07575872 63.12611008 -0.08026505 C75.5064658 -0.0924599 87.88681979 -0.10275837 100.2671814 -0.10614014 C101.0599216 -0.1063597 101.8526618 -0.10657927 102.66942443 -0.10680549 C103.46408153 -0.10702377 104.25873864 -0.10724204 105.07747626 -0.10746694 C106.6878012 -0.1079104 108.29812614 -0.10835697 109.90845108 -0.10880661 C110.70723097 -0.10902804 111.50601087 -0.10924947 112.32899621 -0.10947761 C125.27082766 -0.11342523 138.21260279 -0.13087719 151.15441248 -0.15416613 C164.43667277 -0.17787505 177.71890481 -0.1903418 191.00118661 -0.19150805 C198.4606395 -0.19242515 205.92001905 -0.19818584 213.37945175 -0.21632767 C219.73190516 -0.23172256 226.08426256 -0.23685282 232.43673107 -0.22858956 C235.67799796 -0.22468066 238.91903087 -0.2272536 242.16028214 -0.23964691 C245.67463022 -0.25229804 249.18847946 -0.24652639 252.70282364 -0.23606491 C254.23872292 -0.24814952 254.23872292 -0.24814952 255.80565047 -0.26047826 C262.24311677 -0.21555232 266.77674263 0.5179207 271.66724014 5.06892776 C272.23829483 5.74955276 272.80934952 6.43017776 273.39770889 7.13142776 C273.98165421 7.81205276 274.56559952 8.49267776 275.16724014 9.19392776 C278.27800558 13.44445024 277.73344205 18.06499043 277.73237991 23.09412003 C277.7360566 24.02208871 277.73973329 24.9500574 277.74352139 25.90614635 C277.75457229 29.02901587 277.75840446 32.15185214 277.76221085 35.27473831 C277.76847444 37.50847861 277.77512114 39.74221786 277.78212357 41.97595596 C277.79954297 48.05463038 277.81008792 54.13329692 277.8183291 60.21199012 C277.8234773 64.00867776 277.82955312 67.80536296 277.83584023 71.60204887 C277.85271094 82.11664594 277.86734565 92.63124186 277.87458897 103.14585018 C277.87649882 105.87403426 277.87841916 108.60221833 277.88037491 111.33040237 C277.88085865 112.00846755 277.88134239 112.68653273 277.88184079 113.38514534 C277.89013883 124.36623075 277.91547207 135.34720713 277.94795559 146.32824495 C277.98104414 157.60590178 277.99870672 168.8835053 278.00223321 180.16121703 C278.00458524 186.491755 278.0135659 192.82212068 278.03869438 199.15261269 C278.06195606 205.10913168 278.06621581 211.06536472 278.055933 217.02191734 C278.05543707 219.20680949 278.06177426 221.39171563 278.07548904 223.57656479 C278.09318288 226.56265835 278.08611367 229.5477229 278.07295609 232.53381729 C278.08940995 233.82649797 278.08940995 233.82649797 278.10619622 235.14529341 C278.03881296 241.49257972 276.60284399 246.94467112 272.13789541 251.65985507 C267.95646601 255.28621404 264.48732593 257.37806318 258.94552612 257.39148998 C257.54588029 257.40208837 257.54588029 257.40208837 256.11795878 257.41290087 C254.58529648 257.40927824 254.58529648 257.40927824 253.0216713 257.40558243 C251.93358964 257.41081911 250.84550799 257.41605579 249.72445416 257.42145115 C246.06569756 257.43649481 242.40708028 257.43715727 238.74829483 257.43782425 C236.13017413 257.44544282 233.51205567 257.4538698 230.89393997 257.46304703 C223.77196661 257.4858969 216.65002305 257.4938177 209.528018 257.49887347 C205.08021158 257.50213068 200.6324138 257.50865333 196.18461227 257.51587486 C183.86766081 257.53544121 171.55071739 257.55184507 159.23374939 257.5547514 C158.05145055 257.55503275 158.05145055 257.55503275 156.84526689 257.55531979 C155.24741983 257.55568604 153.64957278 257.55604974 152.05172572 257.5564109 C151.2585613 257.55659371 150.46539688 257.55677652 149.64819717 257.55696487 C148.45699669 257.5572357 148.45699669 257.5572357 147.24173155 257.55751199 C134.37569431 257.56105317 121.50982448 257.58807177 108.64384529 257.62546276 C95.43156606 257.66355257 82.21936989 257.68290892 69.00703454 257.68321091 C61.58997256 257.68379535 54.17311026 257.69227849 46.7560997 257.72120857 C39.7793042 257.74829657 32.80291022 257.74962151 25.82608223 257.73355293 C23.26546429 257.7317345 20.70482386 257.73846449 18.14425468 257.75437164 C14.64792651 257.77476757 11.15299108 257.76431636 7.65668106 257.7461586 C6.13740308 257.76595855 6.13740308 257.76595855 4.58743262 257.7861585 C-1.99630544 257.70808657 -6.30624081 256.35335805 -11.41479111 252.13142776 C-17.07312078 246.17529127 -17.70990617 240.82713437 -17.67548752 232.95946121 C-17.67931307 232.03316166 -17.68313861 231.10686211 -17.68708009 230.15249288 C-17.69740241 227.04726899 -17.69341935 223.94223027 -17.68944931 220.83699417 C-17.69379622 218.61118778 -17.6989793 216.38538289 -17.70493698 214.15958023 C-17.71834085 208.11206168 -17.71890407 202.06460557 -17.71637368 196.01707506 C-17.71530486 190.96977718 -17.7201851 185.92249198 -17.7249791 180.87519681 C-17.73671407 168.28706514 -17.73584647 155.69897172 -17.72942229 143.1108406 C-17.72425413 132.18418886 -17.73550604 121.25762629 -17.75452051 110.33099218 C-17.77390348 99.10638016 -17.7818627 87.88180917 -17.77839726 76.65717638 C-17.77658325 70.35748137 -17.77923236 64.05786804 -17.7931118 57.75818634 C-17.80567589 51.83367787 -17.80375934 45.90934799 -17.79070091 39.9848423 C-17.78833246 37.81082537 -17.79107941 35.63679593 -17.79932404 33.46279335 C-17.80977026 30.49410835 -17.80170758 27.52602494 -17.78901291 24.5573616 C-17.79638719 23.69791683 -17.80376148 22.83847205 -17.81135923 21.9529835 C-17.75511653 15.69710195 -16.78203823 10.74711864 -12.44213486 5.95174026 C-11.75248642 5.39228714 -11.06283798 4.83283401 -10.35229111 4.25642776 C-9.66006454 3.68150589 -8.96783798 3.10658401 -8.25463486 2.51424026 C-5.32736806 0.31412892 -3.60722147 0.00555036 0 0 Z M-2.41479111 17.13142776 C-2.61276935 20.06015658 -2.68394958 22.89445221 -2.66875839 25.82442093 C-2.67187837 26.73535082 -2.67499835 27.64628072 -2.67821288 28.58481455 C-2.6862289 31.65575548 -2.67985525 34.72650078 -2.67358017 37.79744339 C-2.67628843 39.99151094 -2.67984843 42.18557758 -2.68420029 44.37964249 C-2.69334615 50.35263088 -2.689771 56.32555046 -2.68344212 62.29854012 C-2.67839347 68.53698671 -2.68307039 74.77542724 -2.68621445 81.01387405 C-2.69009104 92.16400513 -2.6838592 103.31411084 -2.67369577 114.46423584 C-2.66475985 124.58101721 -2.66631177 134.69775269 -2.67553329 144.81453323 C-2.68622804 156.55310876 -2.69022478 168.29166191 -2.68430877 180.03024244 C-2.68118388 186.24764197 -2.68079389 192.46500986 -2.68738174 198.68240738 C-2.69314093 204.52639617 -2.68918457 210.37029792 -2.67759323 216.21427727 C-2.67493898 218.36458885 -2.67572468 220.51490771 -2.68011856 222.66521645 C-2.68554538 225.58972284 -2.67877491 228.51394646 -2.66875839 231.4384346 C-2.67321984 232.29892615 -2.67768128 233.1594177 -2.68227792 234.04598475 C-2.85065954 238.56352264 -2.85065954 238.56352264 -0.41479111 242.13142776 C1.57832556 242.43372794 1.57832556 242.43372794 3.90185165 242.38311005 C5.26972407 242.39093329 5.26972407 242.39093329 6.66523027 242.39891458 C7.67357786 242.39445313 8.68192544 242.38999169 9.72082901 242.38539505 C10.78693389 242.38851503 11.85303878 242.39163501 12.95144987 242.39484954 C16.54752365 242.40286912 20.14343053 242.39649049 23.73950577 242.39021683 C26.30795262 242.39292493 28.8763987 242.39648484 31.44484329 242.40083694 C37.71111528 242.40974806 43.97733947 242.40780132 50.24361336 242.40201166 C55.33460962 242.39750191 60.42559244 242.39687928 65.51659012 242.3990593 C66.24011098 242.39936576 66.96363183 242.39967223 67.70907757 242.39998798 C69.17872004 242.40062741 70.64836251 242.40127583 72.11800498 242.40193316 C85.91126107 242.40764149 99.70449062 242.4010707 113.49774235 242.39033243 C125.34282914 242.38139646 137.18787672 242.38294836 149.0329628 242.39216995 C162.7755722 242.40286373 176.5181583 242.40709212 190.26077127 242.40094543 C191.7251234 242.4003083 193.18947553 242.39967956 194.65382767 242.3990593 C195.37438905 242.39875074 196.09495043 242.39844219 196.837347 242.39812429 C201.92448482 242.39639467 207.0116079 242.3993182 212.09874344 242.4040184 C218.9407911 242.41020084 225.78276324 242.4058234 232.62480354 242.39422989 C235.14277841 242.391575 237.66075948 242.3923624 240.17873192 242.39675522 C243.60243667 242.40217952 247.02589964 242.39541456 250.44958878 242.38539505 C251.96211015 242.39208722 251.96211015 242.39208722 253.50518751 242.39891458 C254.41710246 242.39369908 255.3290174 242.38848359 256.26856613 242.38311005 C257.0595786 242.38278534 257.85059106 242.38246064 258.6655736 242.38212609 C260.82449181 242.29853448 260.82449181 242.29853448 262.58520889 240.13142776 C262.78318713 237.20269895 262.85436737 234.36840332 262.83917618 231.4384346 C262.84229616 230.52750471 262.84541614 229.61657481 262.84863067 228.67804098 C262.85664669 225.60710005 262.85027303 222.53635475 262.84399796 219.46541214 C262.84670622 217.27134459 262.85026622 215.07727795 262.85461807 212.88321304 C262.86376394 206.91022465 262.86018878 200.93730507 262.8538599 194.96431541 C262.84881125 188.72586882 262.85348818 182.48742829 262.85663223 176.24898148 C262.86050883 165.0988504 262.85427699 153.94874469 262.84411356 142.79861969 C262.83517764 132.68183832 262.83672955 122.56510284 262.84595108 112.4483223 C262.85664583 100.70974677 262.86064256 88.97119362 262.85472655 77.23261309 C262.85160167 71.01521356 262.85121168 64.79784567 262.85779953 58.58044815 C262.86355872 52.73645936 262.85960236 46.89255761 262.84801102 41.04857826 C262.84535676 38.89826668 262.84614247 36.74794782 262.85053635 34.59763908 C262.85596316 31.67313269 262.8491927 28.74890907 262.83917618 25.82442093 C262.84363762 24.96392938 262.84809906 24.10343783 262.8526957 23.21687078 C263.02107733 18.69933289 263.02107733 18.69933289 260.58520889 15.13142776 C258.59209223 14.82912759 258.59209223 14.82912759 256.26856613 14.87974548 C254.90069371 14.87192224 254.90069371 14.87192224 253.50518751 14.86394095 C251.99266614 14.87063312 251.99266614 14.87063312 250.44958878 14.87746048 C249.38348389 14.8743405 248.31737901 14.87122052 247.21896791 14.86800599 C243.62289414 14.85998641 240.02698725 14.86636504 236.43091202 14.8726387 C233.86246516 14.8699306 231.29401909 14.86637069 228.72557449 14.86201859 C222.4593025 14.85310747 216.19307832 14.85505421 209.92680442 14.86084387 C204.83580817 14.86535362 199.74482535 14.86597625 194.65382767 14.86379623 C193.93030681 14.86348977 193.20678595 14.8631833 192.46134022 14.86286755 C190.99169774 14.86222812 189.52205527 14.8615797 188.05241281 14.86092237 C174.25915671 14.85521404 160.46592717 14.86178483 146.67267543 14.8725231 C134.82758865 14.88145907 122.98254106 14.87990717 111.13745499 14.87068558 C97.39484559 14.8599918 83.65225949 14.85576341 69.90964651 14.8619101 C68.44529438 14.86254723 66.98094225 14.86317597 65.51659012 14.86379623 C64.79602874 14.86410479 64.07546736 14.86441334 63.33307078 14.86473124 C58.24593297 14.86646086 53.15880988 14.86353733 48.07167435 14.85883713 C41.22962669 14.85265469 34.38765454 14.85703213 27.54561424 14.86862564 C25.02763938 14.87128053 22.5096583 14.87049313 19.99168587 14.86610031 C16.56798111 14.86067601 13.14451815 14.86744097 9.72082901 14.87746048 C8.20830764 14.87076831 8.20830764 14.87076831 6.66523027 14.86394095 C5.75331533 14.86915645 4.84140038 14.87437194 3.90185165 14.87974548 C2.71533296 14.88023254 2.71533296 14.88023254 1.50484419 14.88072944 C-0.65407402 14.96432105 -0.65407402 14.96432105 -2.41479111 17.13142776 Z " fill="#040404" transform="translate(48.414791107177734,110.86857223510742)"/>
<path d="M0 0 C22.44 0 44.88 0 68 0 C77 12 77 12 77 19 C76.3766124 19.00364563 75.75322479 19.00729126 75.11094666 19.01104736 C68.60524613 19.05295394 62.10024574 19.12235701 55.5949707 19.20751953 C53.16926079 19.23569345 50.74345967 19.25692571 48.31762695 19.27099609 C44.82455884 19.29247427 41.33258309 19.33915262 37.83984375 19.390625 C36.22069313 19.39246796 36.22069313 19.39246796 34.5688324 19.39434814 C28.18512964 19.51769376 24.10345804 20.0377727 19 24 C14.63941621 29.1499227 14.4279426 33.13965554 14.49829102 39.58203125 C14.49288803 40.52911957 14.48748505 41.47620789 14.48191833 42.45199585 C14.46944434 45.57248497 14.48591365 48.69204909 14.50390625 51.8125 C14.50375123 53.98673552 14.50226178 56.16097131 14.49949646 58.33520508 C14.49811306 62.88798261 14.51066105 67.44044489 14.53344727 71.99316406 C14.56183141 77.82401928 14.55909364 83.65435078 14.54635715 89.48524475 C14.53939658 93.97371887 14.54719366 98.4620723 14.55961418 102.95053101 C14.56412497 105.10028622 14.56446874 107.25005441 14.56054878 109.39981079 C14.55763291 112.40613283 14.57416205 115.41173745 14.59594727 118.41796875 C14.58919479 119.74603043 14.58919479 119.74603043 14.58230591 121.10092163 C14.64292494 126.14502913 15.20131702 129.6318248 18 134 C22.22398227 137.9071836 25.34408216 139.10718167 31.0222168 139.20532227 C32.04304855 139.22526749 33.06388031 139.24521271 34.11564636 139.26576233 C35.21572525 139.28247482 36.31580414 139.29918732 37.44921875 139.31640625 C39.14084892 139.3475779 39.14084892 139.3475779 40.86665344 139.37937927 C44.4735396 139.44482847 48.08049929 139.50373844 51.6875 139.5625 C54.13086702 139.60568961 56.57422656 139.64930404 59.01757812 139.69335938 C65.01164444 139.80130552 71.00576558 139.90041392 77 140 C77 149.57 77 159.14 77 169 C73.14779946 167.45911979 69.61717496 165.81891359 65.96484375 163.90234375 C59.1357349 160.76611285 50.78489921 160.77600515 43.7265625 163.05859375 C34.82071879 167.19745562 28.33839357 173.16724079 24.66015625 182.38671875 C22.36020178 191.49127223 23.23333135 200.89102226 28 209 C32.52927465 215.65310551 38.52883978 220.64092198 46.453125 222.609375 C55.33277531 223.97128456 62.88821026 222.93099697 71 219 C72.33533009 218.0026679 73.66908517 217.00321658 75 216 C75.66 216 76.32 216 77 216 C77 228.87 77 241.74 77 255 C72.71 252.69 68.42 250.38 64 248 C55.03452794 245.75863198 46.97212629 246.23162539 39 251 C38.30003906 251.4125 37.60007812 251.825 36.87890625 252.25 C30.43982861 256.53460365 26.43348364 262.69954907 24 270 C23.02271327 280.48489053 24.19784388 289.55438753 30.609375 298.16015625 C36.12651829 304.12018948 42.98805436 307.48976327 51.03125 308.30859375 C60.29853312 308.65298603 66.0706556 306.60949006 74 302 C74.99 301.67 75.98 301.34 77 301 C77.68766935 312.11732115 75.999301 319.25087374 69 328 C46.23 328 23.46 328 0 328 C0 219.76 0 111.52 0 0 Z " fill="#8C9BA7" transform="translate(388,75)"/>
<path d="M0 0 C1.22154282 -0.01260864 2.44308563 -0.02521729 3.7016449 -0.03820801 C5.01319046 -0.03011108 6.32473602 -0.02201416 7.67602539 -0.01367188 C9.04456355 -0.01636908 10.41309984 -0.0202534 11.78163147 -0.02526855 C14.64562276 -0.03115504 17.5091139 -0.02263038 20.37304688 -0.00390625 C24.03279249 0.01886234 27.69136327 0.00576986 31.35106564 -0.01819611 C34.1762415 -0.03269624 37.00114191 -0.02802871 39.82632637 -0.01768494 C41.82814934 -0.01374156 43.82998327 -0.02583071 45.83177185 -0.03820801 C57.33264724 0.08019733 57.33264724 0.08019733 61.83618164 4.51757812 C66.14350959 9.70922857 66.41737573 13.61298716 66.36962891 20.06787109 C66.38255226 21.48368469 66.38255226 21.48368469 66.39573669 22.92810059 C66.41838313 26.038937 66.41165922 29.14887144 66.40258789 32.25976562 C66.40782463 34.42921211 66.4141013 36.5986563 66.42137146 38.76809692 C66.43177371 43.31246665 66.42721739 47.85652321 66.41259766 52.40087891 C66.3954243 58.21380606 66.41888887 64.02574341 66.45408726 69.8385601 C66.47608972 74.31855779 66.47461257 78.79831978 66.46632195 83.27835464 C66.46550372 85.42089039 66.4723423 87.56344367 66.48709297 89.7059288 C66.5045878 92.70739574 66.48995389 95.70709884 66.46728516 98.70849609 C66.48482346 100.02577194 66.48482346 100.02577194 66.50271606 101.36965942 C66.40800168 107.55907325 64.88936883 111.78416348 60.83618164 116.51757812 C57.17028323 119.49582975 54.35029892 119.90350735 49.68823242 119.95336914 C48.4699173 119.9725087 47.25160217 119.99164825 45.99636841 120.0113678 C44.03375565 120.0163755 44.03375565 120.0163755 42.03149414 120.02148438 C40.66535126 120.03113457 39.29921145 120.04122772 37.93307495 120.05174255 C35.07339293 120.06967188 32.21398228 120.07526695 29.35424805 120.07348633 C25.7032523 120.07318166 22.05400962 120.11412899 18.40342903 120.16580296 C15.58251068 120.19928546 12.76201081 120.20524036 9.94091415 120.20365715 C7.94510664 120.20888327 5.94942979 120.24132786 3.95388794 120.27430725 C-2.61816953 120.22477402 -7.12123577 120.03834366 -11.93191528 115.29405212 C-15.54374288 110.08559218 -15.46058713 105.17066612 -15.4543457 99.04907227 C-15.46106293 98.10212997 -15.46778015 97.15518768 -15.47470093 96.17955017 C-15.49367594 93.05389133 -15.49760468 89.92844721 -15.49975586 86.80273438 C-15.50618335 84.62706921 -15.51291168 82.45140492 -15.51992798 80.27574158 C-15.53189895 75.71709183 -15.5356089 71.15851787 -15.53442383 66.59985352 C-15.53422048 60.76108385 -15.56154068 54.92280002 -15.59596825 49.08414555 C-15.61821267 44.5914029 -15.62226214 40.09877772 -15.62120438 35.60598564 C-15.62356334 33.45341757 -15.63240342 31.3008464 -15.64786911 29.1483326 C-15.66748198 26.13703535 -15.66170953 23.12679302 -15.6496582 20.11547852 C-15.66089722 19.22853302 -15.67213623 18.34158752 -15.68371582 17.42776489 C-15.61432325 10.59842809 -13.7117325 7.04166985 -8.79905701 2.17492676 C-5.6169135 0.1736199 -3.7399867 0.01110033 0 0 Z " fill="#000101" transform="translate(417.163818359375,94.482421875)"/>
<path d="M0 0 C10.23 0 20.46 0 31 0 C33.6281872 2.6281872 33.24354967 4.50762306 33.26748681 8.08544302 C33.26079465 9.37618034 33.26079465 9.37618034 33.25396729 10.69299316 C33.25708727 11.60392306 33.26020725 12.51485295 33.26342177 13.45338678 C33.2714378 16.52432771 33.26506414 19.59507301 33.25878906 22.66601562 C33.26149733 24.86008317 33.26505732 27.05414982 33.26940918 29.24821472 C33.27855505 35.22120311 33.27497989 41.1941227 33.26865101 47.16711235 C33.26360236 53.40555894 33.26827929 59.64399948 33.27142334 65.88244629 C33.27529993 77.03257736 33.2690681 88.18268308 33.25890467 99.33280808 C33.24996874 109.44958945 33.25152066 119.56632493 33.26074219 129.68310547 C33.27143693 141.42168099 33.27543367 153.16023414 33.26951766 164.89881468 C33.26639278 171.11621421 33.26600279 177.33358209 33.27259064 183.55097961 C33.27834982 189.3949684 33.27439346 195.23887016 33.26280212 201.0828495 C33.26014787 203.23316109 33.26093357 205.38347995 33.26532745 207.53378868 C33.27075427 210.45829507 33.26398381 213.3825187 33.25396729 216.30700684 C33.25842873 217.16749838 33.26289017 218.02798993 33.26748681 218.91455698 C33.22830003 224.77169997 33.22830003 224.77169997 31 227 C20.77 227 10.54 227 0 227 C0 152.09 0 77.18 0 0 Z " fill="#D5E2F3" transform="translate(278,126)"/>
<path d="M0 0 C16.83 0 33.66 0 51 0 C51 30.03 51 60.06 51 91 C34.17 91 17.34 91 0 91 C0 60.97 0 30.94 0 0 Z " fill="#94B8E1" transform="translate(417,109)"/>
<path d="M0 0 C4.23287978 1.38530611 5.18846481 2.29608097 7.4375 6.125 C8.02819579 9.66678414 7.98131506 13.16915979 7.9521637 16.75305176 C7.96258199 18.37738026 7.96258199 18.37738026 7.97321075 20.03452349 C7.99153368 23.66970842 7.98120126 27.30424466 7.97094727 30.93945312 C7.97800298 33.54288727 7.98674652 36.14631731 7.99705505 38.7497406 C8.01869984 45.09084002 8.01856708 51.43176002 8.01042951 57.77288425 C8.00413061 62.92624894 8.00526551 68.07956128 8.01170158 73.23292542 C8.01260324 73.96627508 8.01350489 74.69962474 8.01443387 75.45519713 C8.01628506 76.94496581 8.01814762 78.43473449 8.02002143 79.92450315 C8.03660136 93.89529298 8.02787886 107.86598182 8.01103585 121.83676559 C7.99633656 134.62071437 8.01097008 147.40442817 8.03980602 160.18834668 C8.06919165 173.31364883 8.08017489 186.43884248 8.07062382 199.56417608 C8.06960126 201.04847556 8.06860665 202.53277507 8.0676403 204.01707458 C8.06716391 204.74738531 8.06668752 205.47769603 8.0661967 206.23013738 C8.06403157 211.3775522 8.07384175 216.52486441 8.08841133 221.67225647 C8.10774614 228.5998408 8.10086892 235.52698044 8.07621193 242.45454597 C8.07118883 245.00028831 8.07473232 247.54606374 8.08736038 250.09177971 C8.10320965 253.56067803 8.08841468 257.02811968 8.06568909 260.49694824 C8.08344268 262.01663798 8.08344268 262.01663798 8.10155493 263.56702852 C8.03937751 268.22191997 7.95658408 270.42386018 5.12089443 274.25409698 C1.60014999 276.70881304 -0.3560032 276.81333584 -4.5625 276.125 C-6.74517727 274.75132656 -6.74517727 274.75132656 -8.5625 272.125 C-9.17162407 268.6026549 -9.10587418 265.10822456 -9.0771637 261.54127502 C-9.08410922 260.45107667 -9.09105475 259.36087832 -9.09821075 258.23764366 C-9.11655836 254.57171597 -9.10619442 250.90642975 -9.09594727 247.24047852 C-9.10300178 244.61748773 -9.11174481 241.99450101 -9.12205505 239.371521 C-9.14371413 232.97881588 -9.1435633 226.58628864 -9.13542951 220.19355888 C-9.12913327 214.99821769 -9.13026307 209.80292844 -9.13670158 204.60758781 C-9.13760324 203.86855194 -9.13850489 203.12951606 -9.13943387 202.36808516 C-9.14128505 200.86680093 -9.14314761 199.36551673 -9.14502143 197.86423253 C-9.16160666 183.78090068 -9.15287471 169.69766895 -9.13603585 155.6143431 C-9.1213395 142.72686701 -9.13596499 129.83962407 -9.16480602 116.95217801 C-9.19419169 103.72294658 -9.20517466 90.4938228 -9.19562382 77.26456016 C-9.19460125 75.76844944 -9.19360664 74.27233871 -9.1926403 72.77622795 C-9.19216391 72.04009402 -9.19168752 71.30396009 -9.1911967 70.54551907 C-9.18903139 65.35653814 -9.19884283 60.16765899 -9.21341133 54.97870064 C-9.23274636 47.99449728 -9.22586875 41.01073501 -9.20121193 34.02655029 C-9.19618868 31.45984554 -9.19973271 28.89310797 -9.21236038 26.32642937 C-9.22820887 22.82901773 -9.21341527 19.33305105 -9.19068909 15.83570862 C-9.20252482 14.81411811 -9.21436054 13.7925276 -9.22655493 12.7399798 C-9.16452521 8.05827756 -9.07803688 5.82858325 -6.24589443 1.96339321 C-3.5625 0.125 -3.5625 0.125 0 0 Z " fill="#44585F" transform="translate(365.5625,100.875)"/>
<path d="M0 0 C8.30586395 4.50368636 13.9449493 10.25394899 17.453125 19.14453125 C19.62097525 26.9882076 19.2032169 35.44306647 15.7578125 42.83984375 C10.65383514 51.3648654 4.09197899 57.7554071 -5.6875 60.25390625 C-14.95940878 61.31059306 -23.56278963 60.91220853 -31.28125 55.40234375 C-38.47415995 49.415304 -43.99150533 41.87026063 -44.99609375 32.3203125 C-45.36418126 22.31502462 -43.50441925 14.73488639 -36.7890625 7.09375 C-26.46024287 -2.52062558 -13.17255871 -6.05853261 0 0 Z " fill="#020303" transform="translate(455.6875,323.74609375)"/>
<path d="M0 0 C7.92875535 5.35993742 12.01345524 12.04036572 15 21 C16.01204033 31.90017207 13.63137486 40.61483793 6.765625 49.1796875 C0.276313 55.86999589 -7.11471604 58.99096236 -16.375 59.3125 C-25.4265661 59.10199846 -32.38166181 56.18549329 -39 50 C-46.32222556 41.99856347 -48.73191731 34.43483426 -48.4765625 23.60546875 C-47.40049157 15.46437474 -43.15576011 7.94007139 -37.02734375 2.46875 C-25.68772931 -5.746462 -12.39494422 -6.66840464 0 0 Z " fill="#020202" transform="translate(459,240)"/>
<path d="M0 0 C4.71922788 2.03662496 7.49600761 4.74116912 9.95703125 9.24609375 C11.96649906 14.3206945 11.38249175 18.60798706 9.3046875 23.57421875 C6.8074321 28.01670468 3.54619335 30.56886227 -1.1953125 32.38671875 C-6.53360643 33.42319163 -11.08666059 32.74331374 -15.62109375 29.69921875 C-19.42308352 26.52932157 -21.81389834 23.68858669 -22.640625 18.69921875 C-22.88190378 12.77984603 -22.29247628 8.92681915 -18.1953125 4.38671875 C-12.43725291 -0.68585756 -7.53908913 -2.10611565 0 0 Z " fill="#C1CFD9" transform="translate(448.1953125,251.61328125)"/>
<path d="M0 0 C5.22522754 2.61261377 9.36911872 6.73823745 12 12 C12.54695292 18.34465389 11.63545526 22.71099897 8 28 C3.11883485 32.64305954 -0.96700606 33.35728013 -7.49609375 33.28125 C-12.42639397 32.72745653 -15.11220763 29.98376992 -18.3125 26.4375 C-21.27712819 22.15525928 -21.47617993 18.06057883 -21 13 C-19.45010291 7.0070646 -16.61154507 4.22222571 -11.47265625 1.10546875 C-7.53798453 -0.65363409 -4.19934643 -0.92083967 0 0 Z " fill="#C1CFD9" transform="translate(447,336)"/>
<path d="M0 0 C14.19 0 28.38 0 43 0 C43 5.94 43 11.88 43 18 C28.81 18 14.62 18 0 18 C0 12.06 0 6.12 0 0 Z " fill="#455960" transform="translate(411,419)"/>
<path d="M0 0 C14.19 0 28.38 0 43 0 C43 5.94 43 11.88 43 18 C28.81 18 14.62 18 0 18 C0 12.06 0 6.12 0 0 Z " fill="#455960" transform="translate(59,419)"/>
</svg>
