<?xml version="1.0" encoding="UTF-8"?>
<svg version="1.1" xmlns="http://www.w3.org/2000/svg" width="512" height="512">
<path d="M0 0 C0.83983938 -0.00453111 1.67967877 -0.00906223 2.54496783 -0.01373065 C5.35764586 -0.02638551 8.17013052 -0.02475357 10.98283386 -0.02310181 C13.0001246 -0.02908639 15.01741305 -0.03589178 17.03469849 -0.04345703 C22.51411589 -0.06113173 27.99347083 -0.06581305 33.47291398 -0.0670886 C38.04790681 -0.06898787 42.62288511 -0.07634576 47.19787234 -0.08343279 C57.9927368 -0.09972008 68.7875679 -0.10460145 79.58244324 -0.10317993 C90.71543107 -0.10197852 101.84822503 -0.12307964 112.9811638 -0.15466726 C122.54140472 -0.18082537 132.10158231 -0.19154741 141.66185874 -0.19026911 C147.37085164 -0.18975933 153.07967229 -0.19545176 158.78862953 -0.21662521 C164.15916525 -0.23599953 169.52936424 -0.2361374 174.89991188 -0.22159195 C176.86871838 -0.21950174 178.83754592 -0.22421736 180.80631638 -0.23631287 C183.49895751 -0.25178141 186.19043992 -0.24244675 188.88305664 -0.22705078 C189.65787866 -0.23733791 190.43270068 -0.24762503 191.23100215 -0.25822389 C197.78234905 -0.17572854 202.93508606 1.90409868 207.87419128 6.23226929 C208.41301941 6.88324585 208.95184753 7.53422241 209.50700378 8.20492554 C210.06130066 8.85332397 210.61559753 9.50172241 211.18669128 10.16976929 C214.81664368 15.4381056 214.90452529 20.09927633 214.82731628 26.28695679 C214.82307144 27.57481331 214.82307144 27.57481331 214.81874084 28.88868713 C214.80758449 31.61924429 214.78248837 34.34946824 214.75700378 37.07992554 C214.74696811 38.93604058 214.73784328 40.79216078 214.72966003 42.64828491 C214.70766004 47.18812599 214.67316159 51.72771935 214.63200378 56.26742554 C215.47645554 56.25410187 215.47645554 56.25410187 216.33796692 56.24050903 C222.21045249 56.15184484 228.08274714 56.09161244 233.95573425 56.04769897 C236.14591702 56.02761447 238.33604637 56.00034137 240.52604675 55.96566772 C243.67868754 55.91701144 246.83061782 55.89442476 249.98356628 55.87680054 C250.95879242 55.8561554 251.93401855 55.83551025 252.938797 55.8142395 C258.70735383 55.81234616 262.08047705 56.35946768 266.63200378 60.26742554 C270.26034042 64.08672726 270.94200837 67.1502156 271.13200378 72.26742554 C270.94200837 77.38463548 270.26034042 80.44812382 266.63200378 84.26742554 C262.05988558 88.04439275 260.87801797 88.26742554 254.63200378 88.26742554 C254.63200378 106.74742554 254.63200378 125.22742554 254.63200378 144.26742554 C259.91200378 144.26742554 265.19200378 144.26742554 270.63200378 144.26742554 C270.63200378 168.02742554 270.63200378 191.78742554 270.63200378 216.26742554 C281.19200378 216.26742554 291.75200378 216.26742554 302.63200378 216.26742554 C302.63200378 229.46742554 302.63200378 242.66742554 302.63200378 256.26742554 C313.19200378 256.26742554 323.75200378 256.26742554 334.63200378 256.26742554 C334.61105652 252.48193237 334.59010925 248.69643921 334.56852722 244.79623413 C334.50227693 232.29527081 334.45787243 219.79431019 334.4247551 207.29321861 C334.40413989 199.713078 334.37603943 192.13310384 334.33024597 184.55307007 C334.29034604 177.94541519 334.26456339 171.33788086 334.25564981 164.73010886 C334.25044031 161.23208478 334.23821848 157.73440558 334.20908356 154.23649216 C334.17680403 150.32925763 334.17604641 146.42235885 334.17790222 142.51498413 C334.16352112 141.35836273 334.14914001 140.20174133 334.13432312 139.0100708 C334.16644259 132.76901021 334.41190022 128.99345008 338.63200378 124.26742554 C342.4513055 120.6390889 345.51479385 119.95742096 350.63200378 119.76742554 C355.74921372 119.95742096 358.81270206 120.6390889 362.63200378 124.26742554 C366.14638032 128.74590737 367.13018066 131.61996739 367.11302185 137.29095459 C367.11643955 137.97395083 367.11985725 138.65694707 367.12337852 139.36064017 C367.12993796 141.63648113 367.1080155 143.91112788 367.08610535 146.18685913 C367.08497644 147.82319104 367.08561157 149.45952498 367.08787537 151.09585571 C367.08902176 155.52942155 367.0655246 159.96255341 367.03757954 164.39601851 C367.01255346 169.03246319 367.01022293 173.66891812 367.00547791 178.30541992 C366.99305168 187.08139262 366.96023483 195.85716571 366.92007995 204.63305056 C366.87535128 214.62571623 366.85337244 224.6183915 366.83329821 234.61113238 C366.79150185 255.16336622 366.71815388 275.71532646 366.63200378 296.26742554 C345.51200378 296.26742554 324.39200378 296.26742554 302.63200378 296.26742554 C302.63200378 304.18742554 302.63200378 312.10742554 302.63200378 320.26742554 C292.07200378 320.26742554 281.51200378 320.26742554 270.63200378 320.26742554 C270.63200378 336.10742554 270.63200378 351.94742554 270.63200378 368.26742554 C281.19200378 368.26742554 291.75200378 368.26742554 302.63200378 368.26742554 C302.63200378 405.22742554 302.63200378 442.18742554 302.63200378 480.26742554 C165.35200378 480.26742554 28.07200378 480.26742554 -113.36799622 480.26742554 C-113.36799622 443.30742554 -113.36799622 406.34742554 -113.36799622 368.26742554 C-102.80799622 368.26742554 -92.24799622 368.26742554 -81.36799622 368.26742554 C-81.36799622 294.34742554 -81.36799622 220.42742554 -81.36799622 144.26742554 C-76.08799622 144.26742554 -70.80799622 144.26742554 -65.36799622 144.26742554 C-65.36799622 125.78742554 -65.36799622 107.30742554 -65.36799622 88.26742554 C-67.34799622 88.26742554 -69.32799622 88.26742554 -71.36799622 88.26742554 C-76.13854294 85.78674124 -79.0975404 83.15763807 -81.36799622 78.26742554 C-82.12181157 72.66765434 -82.14103197 67.93242562 -79.74299622 62.76742554 C-75.68916691 58.50023679 -72.43208162 56.05820823 -66.46418762 55.81332397 C-64.54919453 55.81395251 -62.63412295 55.83626999 -60.71955872 55.87680054 C-59.70703033 55.88246033 -58.69450195 55.88812012 -57.65129089 55.89395142 C-54.43136945 55.916263 -51.21257882 55.96645082 -47.99299622 56.01742554 C-45.80421025 56.03749723 -43.61540677 56.05574683 -41.42658997 56.07211304 C-36.07334244 56.11611049 -30.72075014 56.18297036 -25.36799622 56.26742554 C-25.39941711 54.55812866 -25.39941711 54.55812866 -25.43147278 52.81430054 C-25.50426236 48.55775685 -25.54993664 44.3012674 -25.58772278 40.04428101 C-25.60774995 38.2072726 -25.63498004 36.37032724 -25.66975403 34.53353882 C-25.71866686 31.88217552 -25.74105385 29.23166013 -25.75862122 26.57992554 C-25.77926636 25.76813843 -25.7999115 24.95635132 -25.82118225 24.1199646 C-25.82381367 17.3245776 -23.90060616 12.15752118 -19.40315247 7.02523804 C-18.7521759 6.48640991 -18.10119934 5.94758179 -17.43049622 5.39242554 C-16.78209778 4.83812866 -16.13369934 4.28383179 -15.46565247 3.71273804 C-10.49661527 0.28900664 -5.9000423 -0.02338235 0 0 Z " fill="#596B74" transform="translate(129.3679962158203,15.732574462890625)"/>
<path d="M0 0 C5.28 0 10.56 0 16 0 C16 10.56 16 21.12 16 32 C21.28 32 26.56 32 32 32 C32 21.44 32 10.88 32 0 C37.28 0 42.56 0 48 0 C48 10.56 48 21.12 48 32 C53.28 32 58.56 32 64 32 C64 21.44 64 10.88 64 0 C69.28 0 74.56 0 80 0 C80 10.56 80 21.12 80 32 C85.28 32 90.56 32 96 32 C96 21.44 96 10.88 96 0 C101.28 0 106.56 0 112 0 C112 10.56 112 21.12 112 32 C117.28 32 122.56 32 128 32 C128 21.44 128 10.88 128 0 C133.28 0 138.56 0 144 0 C144 10.56 144 21.12 144 32 C149.28 32 154.56 32 160 32 C160 21.44 160 10.88 160 0 C165.28 0 170.56 0 176 0 C176 10.56 176 21.12 176 32 C181.28 32 186.56 32 192 32 C192 21.44 192 10.88 192 0 C197.28 0 202.56 0 208 0 C208 42.24 208 84.48 208 128 C237.04 128 266.08 128 296 128 C296 164.96 296 201.92 296 240 C158.72 240 21.44 240 -120 240 C-120 203.04 -120 166.08 -120 128 C-85.68 128 -51.36 128 -16 128 C-16 96.32 -16 64.64 -16 32 C-10.72 32 -5.44 32 0 32 C0 21.44 0 10.88 0 0 Z " fill="#74868D" transform="translate(136,256)"/>
<path d="M0 0 C0.83983938 -0.00453111 1.67967877 -0.00906223 2.54496783 -0.01373065 C5.35764586 -0.02638551 8.17013052 -0.02475357 10.98283386 -0.02310181 C13.0001246 -0.02908639 15.01741305 -0.03589178 17.03469849 -0.04345703 C22.51411589 -0.06113173 27.99347083 -0.06581305 33.47291398 -0.0670886 C38.04790681 -0.06898787 42.62288511 -0.07634576 47.19787234 -0.08343279 C57.9927368 -0.09972008 68.7875679 -0.10460145 79.58244324 -0.10317993 C90.71543107 -0.10197852 101.84822503 -0.12307964 112.9811638 -0.15466726 C122.54140472 -0.18082537 132.10158231 -0.19154741 141.66185874 -0.19026911 C147.37085164 -0.18975933 153.07967229 -0.19545176 158.78862953 -0.21662521 C164.15916525 -0.23599953 169.52936424 -0.2361374 174.89991188 -0.22159195 C176.86871838 -0.21950174 178.83754592 -0.22421736 180.80631638 -0.23631287 C183.49895751 -0.25178141 186.19043992 -0.24244675 188.88305664 -0.22705078 C189.65787866 -0.23733791 190.43270068 -0.24762503 191.23100215 -0.25822389 C197.78234905 -0.17572854 202.93508606 1.90409868 207.87419128 6.23226929 C208.41301941 6.88324585 208.95184753 7.53422241 209.50700378 8.20492554 C210.06130066 8.85332397 210.61559753 9.50172241 211.18669128 10.16976929 C220.27232484 23.35621582 214.63200378 41.72052517 214.63200378 56.26742554 C140.71200378 56.26742554 66.79200378 56.26742554 -9.36799622 56.26742554 C-9.36799622 85.30742554 -9.36799622 114.34742554 -9.36799622 144.26742554 C-14.64799622 144.26742554 -19.92799622 144.26742554 -25.36799622 144.26742554 C-25.46070235 127.84687745 -25.53203088 111.42643776 -25.5752449 95.00569153 C-25.59584575 87.38076859 -25.62391864 79.75601152 -25.66975403 72.13119507 C-25.70969805 65.48323515 -25.73544704 58.8353954 -25.74435019 52.1873188 C-25.74955224 48.66911055 -25.7617264 45.15124599 -25.79091644 41.63314819 C-25.82328387 37.69997857 -25.82395077 33.76714123 -25.82209778 29.83383179 C-25.83647888 28.6750502 -25.85085999 27.51626862 -25.86567688 26.32237244 C-25.82573651 18.48056316 -24.71540904 13.087336 -19.40315247 7.02523804 C-18.7521759 6.48640991 -18.10119934 5.94758179 -17.43049622 5.39242554 C-16.78209778 4.83812866 -16.13369934 4.28383179 -15.46565247 3.71273804 C-10.49661527 0.28900664 -5.9000423 -0.02338235 0 0 Z " fill="#FAE37E" transform="translate(129.3679962158203,15.732574462890625)"/>
<path d="M0 0 C95.04 0 190.08 0 288 0 C288 21.12 288 42.24 288 64 C280.08 64 272.16 64 264 64 C264 53.44 264 42.88 264 32 C258.72 32 253.44 32 248 32 C248 42.56 248 53.12 248 64 C242.72 64 237.44 64 232 64 C232 53.44 232 42.88 232 32 C226.72 32 221.44 32 216 32 C216 42.56 216 53.12 216 64 C210.72 64 205.44 64 200 64 C200 53.44 200 42.88 200 32 C194.72 32 189.44 32 184 32 C184 42.56 184 53.12 184 64 C178.72 64 173.44 64 168 64 C168 53.44 168 42.88 168 32 C162.72 32 157.44 32 152 32 C152 42.56 152 53.12 152 64 C146.72 64 141.44 64 136 64 C136 53.44 136 42.88 136 32 C130.72 32 125.44 32 120 32 C120 42.56 120 53.12 120 64 C114.72 64 109.44 64 104 64 C104 53.44 104 42.88 104 32 C98.72 32 93.44 32 88 32 C88 42.56 88 53.12 88 64 C82.72 64 77.44 64 72 64 C72 53.44 72 42.88 72 32 C66.72 32 61.44 32 56 32 C56 42.56 56 53.12 56 64 C50.72 64 45.44 64 40 64 C40 53.44 40 42.88 40 32 C34.72 32 29.44 32 24 32 C24 42.56 24 53.12 24 64 C16.08 64 8.16 64 0 64 C0 42.88 0 21.76 0 0 Z " fill="#2D373D" transform="translate(80,224)"/>
<path d="M0 0 C5.28 0 10.56 0 16 0 C16.01458252 2.00231689 16.02916504 4.00463379 16.04418945 6.06762695 C16.09477611 12.72135668 16.1614118 19.37485826 16.23571491 26.02836323 C16.28023259 30.05803192 16.31952826 34.08760383 16.34643555 38.11743164 C16.372656 42.01448284 16.41318674 45.91115781 16.46318626 49.80797386 C16.47972945 51.28648343 16.49132115 52.76505789 16.49761391 54.24364662 C16.55262229 65.99260624 17.12897845 76.77377956 24.96875 86.05859375 C28.24588349 89.19077711 31.87360207 91.18467653 36 93 C36.73712068 93.3446632 37.47424136 93.68932641 38.23369902 94.04443395 C41.46578808 95.16089763 44.05304441 95.2548642 47.47175312 95.26171303 C48.7879817 95.26917852 50.10421029 95.27664401 51.46032459 95.28433573 C52.91945754 95.28255898 54.37859029 95.28059808 55.83772278 95.2784729 C57.38884116 95.2834755 58.93995693 95.28935119 60.49106902 95.29602563 C64.75537578 95.31184402 69.01961669 95.31525733 73.28394926 95.31667423 C77.88174214 95.32036507 82.47949876 95.33551896 87.07727051 95.34928894 C95.0438836 95.37157554 103.01048382 95.38658041 110.97712135 95.39665604 C122.49557378 95.41123424 134.01398135 95.43676866 145.53240748 95.46498732 C164.21975393 95.51047092 182.90710683 95.54707925 201.59448242 95.578125 C219.74879082 95.60830412 237.90308344 95.64265146 256.05737305 95.68261719 C257.17618277 95.68507874 258.2949925 95.68754028 259.44770554 95.69007643 C265.06037925 95.7024509 270.67305276 95.71490746 276.28572619 95.72740483 C322.8571289 95.8309961 369.42855117 95.92004406 416 96 C416 101.28 416 106.56 416 112 C278.72 112 141.44 112 0 112 C0 75.04 0 38.08 0 0 Z " fill="#5A6C75" transform="translate(16,384)"/>
<path d="M0 0 C4.97561331 2.31010618 7.31375694 5.28279041 10 10 C10.49219131 13.33077049 10.49219131 13.33077049 10.48101807 17.02352905 C10.48443577 17.70652529 10.48785347 18.38952153 10.49137473 19.09321463 C10.49793418 21.36905559 10.47601171 23.64370234 10.45410156 25.91943359 C10.45297266 27.5557655 10.45360779 29.19209944 10.45587158 30.82843018 C10.45701798 35.26199601 10.43352081 39.69512787 10.40557575 44.12859297 C10.38054968 48.76503765 10.37821915 53.40149258 10.37347412 58.03799438 C10.36104789 66.81396708 10.32823104 75.58974017 10.28807616 84.36562502 C10.24334749 94.3582907 10.22136865 104.35096597 10.20129442 114.34370685 C10.15949807 134.89594068 10.08615009 155.44790092 10 176 C-11.12 176 -32.24 176 -54 176 C-54 162.8 -54 149.6 -54 136 C-43.44 136 -32.88 136 -22 136 C-22.02094727 132.21450684 -22.04189453 128.42901367 -22.06347656 124.52880859 C-22.12972685 112.02784527 -22.17413135 99.52688466 -22.20724869 87.02579308 C-22.22786389 79.44565246 -22.25596436 71.8656783 -22.30175781 64.28564453 C-22.34165774 57.67798965 -22.36744039 51.07045533 -22.37635398 44.46268332 C-22.38156347 40.96465925 -22.39378531 37.46698004 -22.42292023 33.96906662 C-22.45519976 30.06183209 -22.45595737 26.15493332 -22.45410156 22.24755859 C-22.46848267 21.09093719 -22.48286377 19.9343158 -22.49768066 18.74264526 C-22.46556119 12.50158468 -22.22010357 8.72602454 -18 4 C-12.72867143 -1.00776214 -6.89190982 -0.92775709 0 0 Z " fill="#43525B" transform="translate(486,136)"/>
<path d="M0 0 C0.83983938 -0.00453111 1.67967877 -0.00906223 2.54496783 -0.01373065 C5.35764586 -0.02638551 8.17013052 -0.02475357 10.98283386 -0.02310181 C13.0001246 -0.02908639 15.01741305 -0.03589178 17.03469849 -0.04345703 C22.51411589 -0.06113173 27.99347083 -0.06581305 33.47291398 -0.0670886 C38.04790681 -0.06898787 42.62288511 -0.07634576 47.19787234 -0.08343279 C57.9927368 -0.09972008 68.7875679 -0.10460145 79.58244324 -0.10317993 C90.71543107 -0.10197852 101.84822503 -0.12307964 112.9811638 -0.15466726 C122.54140472 -0.18082537 132.10158231 -0.19154741 141.66185874 -0.19026911 C147.37085164 -0.18975933 153.07967229 -0.19545176 158.78862953 -0.21662521 C164.15916525 -0.23599953 169.52936424 -0.2361374 174.89991188 -0.22159195 C176.86871838 -0.21950174 178.83754592 -0.22421736 180.80631638 -0.23631287 C183.49895751 -0.25178141 186.19043992 -0.24244675 188.88305664 -0.22705078 C189.65787866 -0.23733791 190.43270068 -0.24762503 191.23100215 -0.25822389 C197.80427649 -0.17545243 202.92682595 1.93345564 207.90934753 6.23226929 C208.4571991 6.88324585 209.00505066 7.53422241 209.56950378 8.20492554 C210.13540222 8.85332397 210.70130066 9.50172241 211.28434753 10.16976929 C212.81260369 12.54853321 213.14740179 14.50636087 213.63200378 17.26742554 C212.59317047 17.26466016 211.55433716 17.26189478 210.48402405 17.2590456 C185.20362239 17.19243855 159.92323211 17.14314425 134.64276123 17.11198902 C122.41730124 17.09652202 110.19189922 17.07543561 97.96647644 17.04110718 C87.31045111 17.01119982 76.65446777 16.99184932 65.99840164 16.98516005 C60.35642041 16.98125009 54.7145593 16.97206441 49.07261658 16.95023537 C43.76048579 16.92984921 38.44852445 16.9235961 33.13635826 16.92810249 C31.18851488 16.92727825 29.24066573 16.92132536 27.29285622 16.90980911 C24.6285991 16.8948317 21.9649775 16.89849103 19.30070496 16.90666199 C18.53414518 16.89792346 17.76758541 16.88918494 16.97779655 16.88018161 C9.18365797 16.94456862 2.88101046 19.35148091 -2.89533997 24.65414429 C-7.13362288 29.29714387 -8.47653261 34.74475404 -8.5262146 40.84854126 C-8.54089783 42.2198822 -8.54089783 42.2198822 -8.55587769 43.618927 C-8.56163315 44.61442566 -8.56738861 45.60992432 -8.57331848 46.6355896 C-8.58816788 48.21654419 -8.58816788 48.21654419 -8.60331726 49.82943726 C-8.63491031 53.31395215 -8.65968113 56.79848067 -8.68440247 60.28305054 C-8.70497388 62.69872391 -8.7259704 65.11439369 -8.74737549 67.53005981 C-8.80257677 73.88893735 -8.85199469 80.24784727 -8.90022278 86.60678101 C-8.95045194 93.09525434 -9.00613063 99.58368064 -9.06135559 106.07211304 C-9.16891342 118.80384369 -9.27036373 131.53561518 -9.36799622 144.26742554 C-14.64799622 144.26742554 -19.92799622 144.26742554 -25.36799622 144.26742554 C-25.46070235 127.84687745 -25.53203088 111.42643776 -25.5752449 95.00569153 C-25.59584575 87.38076859 -25.62391864 79.75601152 -25.66975403 72.13119507 C-25.70969805 65.48323515 -25.73544704 58.8353954 -25.74435019 52.1873188 C-25.74955224 48.66911055 -25.7617264 45.15124599 -25.79091644 41.63314819 C-25.82328387 37.69997857 -25.82395077 33.76714123 -25.82209778 29.83383179 C-25.83647888 28.6750502 -25.85085999 27.51626862 -25.86567688 26.32237244 C-25.82573651 18.48056316 -24.71540904 13.087336 -19.40315247 7.02523804 C-18.7521759 6.48640991 -18.10119934 5.94758179 -17.43049622 5.39242554 C-16.78209778 4.83812866 -16.13369934 4.28383179 -15.46565247 3.71273804 C-10.49661527 0.28900664 -5.9000423 -0.02338235 0 0 Z " fill="#F9D161" transform="translate(129.3679962158203,15.732574462890625)"/>
<path d="M0 0 C5.28 0 10.56 0 16 0 C16.00364563 2.36256958 16.00729126 4.72513916 16.01104736 7.15930176 C16.04727124 29.40770689 16.10546322 51.65597703 16.18390274 73.90427399 C16.22370225 85.34276055 16.25609015 96.78117823 16.27099609 108.21972656 C16.28400783 118.19024018 16.31096042 128.16060228 16.35461307 138.13103056 C16.37723847 143.40970983 16.39291002 148.68820214 16.39188385 153.9669342 C16.39113789 158.93775105 16.40906336 163.90815442 16.44116783 168.87886429 C16.44967062 170.70089965 16.45141418 172.52298136 16.44580269 174.34502792 C16.43914686 176.8387754 16.45712003 179.3312134 16.48101807 181.8248291 C16.46937744 182.89879527 16.46937744 182.89879527 16.45750165 183.99445772 C16.565528 190.39033723 18.81615382 195.41540678 22.89453125 200.2421875 C23.52746094 200.78101563 24.16039063 201.31984375 24.8125 201.875 C25.75029297 202.70644531 25.75029297 202.70644531 26.70703125 203.5546875 C32.75051983 207.36404146 39.51922812 207.38592365 46.4375 207.625 C47.82098633 207.68300781 47.82098633 207.68300781 49.23242188 207.7421875 C51.48798068 207.83568217 53.74396176 207.91889361 56 208 C56 213.28 56 218.56 56 224 C37.52 224 19.04 224 0 224 C0 150.08 0 76.16 0 0 Z " fill="#43525B" transform="translate(48,160)"/>
<path d="M0 0 C0.89823486 0.00402832 1.79646973 0.00805664 2.72192383 0.01220703 C6.05701306 0.03303551 9.39180965 0.08888081 12.7265625 0.140625 C20.1928125 0.223125 27.6590625 0.305625 35.3515625 0.390625 C35.3515625 29.430625 35.3515625 58.470625 35.3515625 88.390625 C22.1515625 88.390625 8.9515625 88.390625 -4.6484375 88.390625 C-4.6484375 69.910625 -4.6484375 51.430625 -4.6484375 32.390625 C-6.6284375 32.390625 -8.6084375 32.390625 -10.6484375 32.390625 C-15.41898423 29.9099407 -18.37798168 27.28083753 -20.6484375 22.390625 C-21.40225285 16.7908538 -21.42147325 12.05562509 -19.0234375 6.890625 C-12.98841751 0.53797238 -8.39551327 -0.17849338 0 0 Z " fill="#2D373D" transform="translate(68.6484375,71.609375)"/>
<path d="M0 0 C10.56 0 21.12 0 32 0 C32 34.32 32 68.64 32 104 C21.44 104 10.88 104 0 104 C0 69.68 0 35.36 0 0 Z " fill="#8FA4AA" transform="translate(400,232)"/>
<path d="M0 0 C21.12 0 42.24 0 64 0 C64 13.2 64 26.4 64 40 C42.88 40 21.76 40 0 40 C0 26.8 0 13.6 0 0 Z " fill="#5A6C75" transform="translate(432,272)"/>
<path d="M0 0 C13.2 0 26.4 0 40 0 C40 18.48 40 36.96 40 56 C26.8 56 13.6 56 0 56 C0 37.52 0 19.04 0 0 Z " fill="#43525B" transform="translate(344,104)"/>
<path d="M0 0 C5.28 0 10.56 0 16 0 C16 42.24 16 84.48 16 128 C10.72 128 5.44 128 0 128 C0 85.76 0 43.52 0 0 Z " fill="#F9D161" transform="translate(328,256)"/>
<path d="M0 0 C5.28 0 10.56 0 16 0 C16 42.24 16 84.48 16 128 C10.72 128 5.44 128 0 128 C0 85.76 0 43.52 0 0 Z " fill="#F9D161" transform="translate(296,256)"/>
<path d="M0 0 C5.28 0 10.56 0 16 0 C16 42.24 16 84.48 16 128 C10.72 128 5.44 128 0 128 C0 85.76 0 43.52 0 0 Z " fill="#F9D161" transform="translate(264,256)"/>
<path d="M0 0 C5.28 0 10.56 0 16 0 C16 42.24 16 84.48 16 128 C10.72 128 5.44 128 0 128 C0 85.76 0 43.52 0 0 Z " fill="#F9D161" transform="translate(232,256)"/>
<path d="M0 0 C5.28 0 10.56 0 16 0 C16 42.24 16 84.48 16 128 C10.72 128 5.44 128 0 128 C0 85.76 0 43.52 0 0 Z " fill="#F9D161" transform="translate(200,256)"/>
<path d="M0 0 C5.28 0 10.56 0 16 0 C16 42.24 16 84.48 16 128 C10.72 128 5.44 128 0 128 C0 85.76 0 43.52 0 0 Z " fill="#F9D161" transform="translate(168,256)"/>
<path d="M0 0 C5.28 0 10.56 0 16 0 C16 42.24 16 84.48 16 128 C10.72 128 5.44 128 0 128 C0 85.76 0 43.52 0 0 Z " fill="#F9D161" transform="translate(136,256)"/>
<path d="M0 0 C5.28 0 10.56 0 16 0 C16 42.24 16 84.48 16 128 C10.72 128 5.44 128 0 128 C0 85.76 0 43.52 0 0 Z " fill="#F9D161" transform="translate(104,256)"/>
<path d="M0 0 C4.64033987 2.15444351 8.03598049 5.2220809 10 10 C10.54851096 14.13732054 10.46541986 18.23134214 10.390625 22.3984375 C10.38496521 23.58853424 10.37930542 24.77863098 10.37347412 26.00479126 C10.35113451 29.79527486 10.30093963 33.58480345 10.25 37.375 C10.22993201 39.94920507 10.21168177 42.523425 10.1953125 45.09765625 C10.15468424 51.3990989 10.07638201 57.69848405 10 64 C-0.56 64 -11.12 64 -22 64 C-22.09189302 56.41882578 -22.17151794 48.83958846 -22.21972656 41.25830078 C-22.23982563 38.68010912 -22.26710941 36.10196296 -22.30175781 33.52392578 C-22.35034847 29.81531539 -22.37298658 26.10730844 -22.390625 22.3984375 C-22.41127014 21.24822113 -22.43191528 20.09800476 -22.45318604 18.91293335 C-22.45494774 12.61147807 -22.27883437 8.76395187 -18 4 C-12.72867143 -1.00776214 -6.89190982 -0.92775709 0 0 Z " fill="#296BB1" transform="translate(486,136)"/>
<path d="M0 0 C6.44196127 -0.09195504 12.8816352 -0.17155776 19.32373047 -0.21972656 C21.51391324 -0.23981107 23.70404259 -0.26708417 25.89404297 -0.30175781 C29.04668376 -0.35041409 32.19861404 -0.37300078 35.3515625 -0.390625 C36.32678864 -0.41127014 37.30201477 -0.43191528 38.30679321 -0.45318604 C44.07535005 -0.45507937 47.44847327 0.09204214 52 4 C55.62833663 7.81930172 56.31000458 10.88279006 56.5 16 C56.31000458 21.11720994 55.62833663 24.18069828 52 28 C46.59927896 32.63707926 42.12942739 32.53410965 35.3515625 32.390625 C34.33903412 32.38496521 33.32650574 32.37930542 32.28329468 32.37347412 C29.06337323 32.35116254 25.8445826 32.30097472 22.625 32.25 C20.43621404 32.22992831 18.24741056 32.21167871 16.05859375 32.1953125 C10.70494771 32.15472383 5.35373293 32.07642125 0 32 C0 21.44 0 10.88 0 0 Z " fill="#5A6B75" transform="translate(344,72)"/>
<path d="M0 0 C1.01252838 0.00565979 2.02505676 0.01131958 3.06826782 0.01715088 C6.28818927 0.03946246 9.5069799 0.08965028 12.7265625 0.140625 C14.91534846 0.16069669 17.10415194 0.17894629 19.29296875 0.1953125 C24.64661479 0.23590117 29.99782957 0.31420375 35.3515625 0.390625 C35.3515625 10.950625 35.3515625 21.510625 35.3515625 32.390625 C28.90960123 32.48258004 22.4699273 32.56218276 16.02783203 32.61035156 C13.83764926 32.63043607 11.64751991 32.65770917 9.45751953 32.69238281 C6.30487874 32.74103909 3.15294846 32.76362578 0 32.78125 C-0.97522614 32.80189514 -1.95045227 32.82254028 -2.95523071 32.84381104 C-8.72378755 32.84570437 -12.09691077 32.29858286 -16.6484375 28.390625 C-20.27677413 24.57132328 -20.95844208 21.50783494 -21.1484375 16.390625 C-20.95844208 11.27341506 -20.27677413 8.20992672 -16.6484375 4.390625 C-11.24771646 -0.24645426 -6.77786489 -0.14348465 0 0 Z " fill="#5A6C75" transform="translate(68.6484375,71.609375)"/>
<path d="M0 0 C5.28 0 10.56 0 16 0 C16 31.68 16 63.36 16 96 C10.72 96 5.44 96 0 96 C0 64.32 0 32.64 0 0 Z " fill="#5A6C75" transform="translate(312,288)"/>
<path d="M0 0 C5.28 0 10.56 0 16 0 C16 31.68 16 63.36 16 96 C10.72 96 5.44 96 0 96 C0 64.32 0 32.64 0 0 Z " fill="#5A6C75" transform="translate(280,288)"/>
<path d="M0 0 C5.28 0 10.56 0 16 0 C16 31.68 16 63.36 16 96 C10.72 96 5.44 96 0 96 C0 64.32 0 32.64 0 0 Z " fill="#5A6C75" transform="translate(248,288)"/>
<path d="M0 0 C5.28 0 10.56 0 16 0 C16 31.68 16 63.36 16 96 C10.72 96 5.44 96 0 96 C0 64.32 0 32.64 0 0 Z " fill="#5A6C75" transform="translate(216,288)"/>
<path d="M0 0 C5.28 0 10.56 0 16 0 C16 31.68 16 63.36 16 96 C10.72 96 5.44 96 0 96 C0 64.32 0 32.64 0 0 Z " fill="#5A6C75" transform="translate(184,288)"/>
<path d="M0 0 C5.28 0 10.56 0 16 0 C16 31.68 16 63.36 16 96 C10.72 96 5.44 96 0 96 C0 64.32 0 32.64 0 0 Z " fill="#5A6C75" transform="translate(152,288)"/>
<path d="M0 0 C5.28 0 10.56 0 16 0 C16 31.68 16 63.36 16 96 C10.72 96 5.44 96 0 96 C0 64.32 0 32.64 0 0 Z " fill="#5A6C75" transform="translate(120,288)"/>
<path d="M0 0 C5.28 0 10.56 0 16 0 C16 29.04 16 58.08 16 88 C10.72 88 5.44 88 0 88 C0 58.96 0 29.92 0 0 Z " fill="#43525B" transform="translate(312,72)"/>
<path d="M0 0 C5.28 0 10.56 0 16 0 C16 29.04 16 58.08 16 88 C10.72 88 5.44 88 0 88 C0 58.96 0 29.92 0 0 Z " fill="#43525B" transform="translate(280,72)"/>
<path d="M0 0 C5.28 0 10.56 0 16 0 C16 29.04 16 58.08 16 88 C10.72 88 5.44 88 0 88 C0 58.96 0 29.92 0 0 Z " fill="#43525B" transform="translate(248,72)"/>
<path d="M0 0 C5.28 0 10.56 0 16 0 C16 29.04 16 58.08 16 88 C10.72 88 5.44 88 0 88 C0 58.96 0 29.92 0 0 Z " fill="#43525B" transform="translate(216,72)"/>
<path d="M0 0 C5.28 0 10.56 0 16 0 C16 29.04 16 58.08 16 88 C10.72 88 5.44 88 0 88 C0 58.96 0 29.92 0 0 Z " fill="#43525B" transform="translate(184,72)"/>
<path d="M0 0 C5.28 0 10.56 0 16 0 C16 29.04 16 58.08 16 88 C10.72 88 5.44 88 0 88 C0 58.96 0 29.92 0 0 Z " fill="#43525B" transform="translate(152,72)"/>
<path d="M0 0 C5.28 0 10.56 0 16 0 C16 29.04 16 58.08 16 88 C10.72 88 5.44 88 0 88 C0 58.96 0 29.92 0 0 Z " fill="#43525B" transform="translate(120,72)"/>
<path d="M0 0 C5.28 0 10.56 0 16 0 C16 29.04 16 58.08 16 88 C10.72 88 5.44 88 0 88 C0 58.96 0 29.92 0 0 Z " fill="#BC9834" transform="translate(328,72)"/>
<path d="M0 0 C5.28 0 10.56 0 16 0 C16 29.04 16 58.08 16 88 C10.72 88 5.44 88 0 88 C0 58.96 0 29.92 0 0 Z " fill="#BC9834" transform="translate(296,72)"/>
<path d="M0 0 C5.28 0 10.56 0 16 0 C16 29.04 16 58.08 16 88 C10.72 88 5.44 88 0 88 C0 58.96 0 29.92 0 0 Z " fill="#BC9834" transform="translate(264,72)"/>
<path d="M0 0 C5.28 0 10.56 0 16 0 C16 29.04 16 58.08 16 88 C10.72 88 5.44 88 0 88 C0 58.96 0 29.92 0 0 Z " fill="#BC9834" transform="translate(232,72)"/>
<path d="M0 0 C5.28 0 10.56 0 16 0 C16 29.04 16 58.08 16 88 C10.72 88 5.44 88 0 88 C0 58.96 0 29.92 0 0 Z " fill="#BC9834" transform="translate(200,72)"/>
<path d="M0 0 C5.28 0 10.56 0 16 0 C16 29.04 16 58.08 16 88 C10.72 88 5.44 88 0 88 C0 58.96 0 29.92 0 0 Z " fill="#BC9834" transform="translate(168,72)"/>
<path d="M0 0 C5.28 0 10.56 0 16 0 C16 29.04 16 58.08 16 88 C10.72 88 5.44 88 0 88 C0 58.96 0 29.92 0 0 Z " fill="#BC9834" transform="translate(136,72)"/>
<path d="M0 0 C5.28 0 10.56 0 16 0 C16 29.04 16 58.08 16 88 C10.72 88 5.44 88 0 88 C0 58.96 0 29.92 0 0 Z " fill="#BC9834" transform="translate(104,72)"/>
<path d="M0 0 C5.28 0 10.56 0 16 0 C16 23.76 16 47.52 16 72 C10.72 72 5.44 72 0 72 C0 48.24 0 24.48 0 0 Z " fill="#2D373D" transform="translate(464,200)"/>
<path d="M0 0 C6.24601419 0 7.42788179 0.22303279 12 4 C17.07285885 9.58658062 16.52122348 15.12231854 16.390625 22.3984375 C16.38496521 23.58853424 16.37930542 24.77863098 16.37347412 26.00479126 C16.35113451 29.79527486 16.30093963 33.58480345 16.25 37.375 C16.22993201 39.94920507 16.21168177 42.523425 16.1953125 45.09765625 C16.15127715 51.39880388 16.08226361 57.69924017 16 64 C10.72 64 5.44 64 0 64 C0 42.88 0 21.76 0 0 Z " fill="#4D96CF" transform="translate(480,136)"/>
<path d="M0 0 C18.48 0 36.96 0 56 0 C56 5.28 56 10.56 56 16 C37.52 16 19.04 16 0 16 C0 10.72 0 5.44 0 0 Z " fill="#43525B" transform="translate(344,368)"/>
<path d="M0 0 C6.4411981 -0.09906019 12.88195034 -0.17156012 19.32373047 -0.21972656 C21.51391324 -0.23981107 23.70404259 -0.26708417 25.89404297 -0.30175781 C29.04668376 -0.35041409 32.19861404 -0.37300078 35.3515625 -0.390625 C36.32678864 -0.41127014 37.30201477 -0.43191528 38.30679321 -0.45318604 C44.06493848 -0.45507596 47.47380997 0.07107123 52 4 C55.77696721 8.57211821 56 9.75398581 56 16 C37.52 16 19.04 16 0 16 C0 10.72 0 5.44 0 0 Z " fill="#74868D" transform="translate(344,72)"/>
<path d="M0 0 C7.92 0 15.84 0 24 0 C24 13.2 24 26.4 24 40 C13.88791103 38.73598888 9.88472568 36.46914649 3.48046875 29.09765625 C0.65801236 25.09855578 -0.2521506 21.55887667 -0.1953125 16.69921875 C-0.19031738 15.81838623 -0.18532227 14.93755371 -0.18017578 14.0300293 C-0.16196777 12.92699463 -0.14375977 11.82395996 -0.125 10.6875 C-0.08375 7.160625 -0.0425 3.63375 0 0 Z " fill="#42515A" transform="translate(80,104)"/>
<path d="M0 0 C13.2 0 26.4 0 40 0 C40 5.28 40 10.56 40 16 C26.8 16 13.6 16 0 16 C0 10.72 0 5.44 0 0 Z " fill="#2D373D" transform="translate(344,144)"/>
<path d="M0 0 C13.2 0 26.4 0 40 0 C40 5.28 40 10.56 40 16 C35.64545646 16.08114056 31.2924344 16.14057664 26.9375 16.1875 C25.70837891 16.21263672 24.47925781 16.23777344 23.21289062 16.26367188 C14.89583037 16.33092573 9.34347628 16.19810775 3.125 10.25 C1 7 1 7 0 0 Z " fill="#74868D" transform="translate(64,72)"/>
<path d="M0 0 C5.28 0 10.56 0 16 0 C16 10.56 16 21.12 16 32 C10.72 32 5.44 32 0 32 C0 21.44 0 10.88 0 0 Z " fill="#5A6C75" transform="translate(312,72)"/>
<path d="M0 0 C5.28 0 10.56 0 16 0 C16 10.56 16 21.12 16 32 C10.72 32 5.44 32 0 32 C0 21.44 0 10.88 0 0 Z " fill="#5A6C75" transform="translate(280,72)"/>
<path d="M0 0 C5.28 0 10.56 0 16 0 C16 10.56 16 21.12 16 32 C10.72 32 5.44 32 0 32 C0 21.44 0 10.88 0 0 Z " fill="#5A6C75" transform="translate(248,72)"/>
<path d="M0 0 C5.28 0 10.56 0 16 0 C16 10.56 16 21.12 16 32 C10.72 32 5.44 32 0 32 C0 21.44 0 10.88 0 0 Z " fill="#5A6C75" transform="translate(216,72)"/>
<path d="M0 0 C5.28 0 10.56 0 16 0 C16 10.56 16 21.12 16 32 C10.72 32 5.44 32 0 32 C0 21.44 0 10.88 0 0 Z " fill="#5A6C75" transform="translate(184,72)"/>
<path d="M0 0 C5.28 0 10.56 0 16 0 C16 10.56 16 21.12 16 32 C10.72 32 5.44 32 0 32 C0 21.44 0 10.88 0 0 Z " fill="#5A6C75" transform="translate(152,72)"/>
<path d="M0 0 C5.28 0 10.56 0 16 0 C16 10.56 16 21.12 16 32 C10.72 32 5.44 32 0 32 C0 21.44 0 10.88 0 0 Z " fill="#5A6C75" transform="translate(120,72)"/>
<path d="M0 0 C5.28 0 10.56 0 16 0 C16 5.28 16 10.56 16 16 C10.72 16 5.44 16 0 16 C0 10.72 0 5.44 0 0 Z " fill="#43525B" transform="translate(312,368)"/>
<path d="M0 0 C5.28 0 10.56 0 16 0 C16 5.28 16 10.56 16 16 C10.72 16 5.44 16 0 16 C0 10.72 0 5.44 0 0 Z " fill="#43525B" transform="translate(280,368)"/>
<path d="M0 0 C5.28 0 10.56 0 16 0 C16 5.28 16 10.56 16 16 C10.72 16 5.44 16 0 16 C0 10.72 0 5.44 0 0 Z " fill="#43525B" transform="translate(248,368)"/>
<path d="M0 0 C5.28 0 10.56 0 16 0 C16 5.28 16 10.56 16 16 C10.72 16 5.44 16 0 16 C0 10.72 0 5.44 0 0 Z " fill="#43525B" transform="translate(216,368)"/>
<path d="M0 0 C5.28 0 10.56 0 16 0 C16 5.28 16 10.56 16 16 C10.72 16 5.44 16 0 16 C0 10.72 0 5.44 0 0 Z " fill="#43525B" transform="translate(184,368)"/>
<path d="M0 0 C5.28 0 10.56 0 16 0 C16 5.28 16 10.56 16 16 C10.72 16 5.44 16 0 16 C0 10.72 0 5.44 0 0 Z " fill="#43525B" transform="translate(152,368)"/>
<path d="M0 0 C5.28 0 10.56 0 16 0 C16 5.28 16 10.56 16 16 C10.72 16 5.44 16 0 16 C0 10.72 0 5.44 0 0 Z " fill="#43525B" transform="translate(120,368)"/>
<path d="M0 0 C5.28 0 10.56 0 16 0 C16 5.28 16 10.56 16 16 C10.72 16 5.44 16 0 16 C0 10.72 0 5.44 0 0 Z " fill="#2D373D" transform="translate(312,144)"/>
<path d="M0 0 C5.28 0 10.56 0 16 0 C16 5.28 16 10.56 16 16 C10.72 16 5.44 16 0 16 C0 10.72 0 5.44 0 0 Z " fill="#2D373D" transform="translate(280,144)"/>
<path d="M0 0 C5.28 0 10.56 0 16 0 C16 5.28 16 10.56 16 16 C10.72 16 5.44 16 0 16 C0 10.72 0 5.44 0 0 Z " fill="#2D373D" transform="translate(248,144)"/>
<path d="M0 0 C5.28 0 10.56 0 16 0 C16 5.28 16 10.56 16 16 C10.72 16 5.44 16 0 16 C0 10.72 0 5.44 0 0 Z " fill="#2D373D" transform="translate(216,144)"/>
<path d="M0 0 C5.28 0 10.56 0 16 0 C16 5.28 16 10.56 16 16 C10.72 16 5.44 16 0 16 C0 10.72 0 5.44 0 0 Z " fill="#2D373D" transform="translate(184,144)"/>
<path d="M0 0 C5.28 0 10.56 0 16 0 C16 5.28 16 10.56 16 16 C10.72 16 5.44 16 0 16 C0 10.72 0 5.44 0 0 Z " fill="#2D373D" transform="translate(152,144)"/>
<path d="M0 0 C5.28 0 10.56 0 16 0 C16 5.28 16 10.56 16 16 C10.72 16 5.44 16 0 16 C0 10.72 0 5.44 0 0 Z " fill="#2D373D" transform="translate(120,144)"/>
<path d="M0 0 C5.28 0 10.56 0 16 0 C16 5.28 16 10.56 16 16 C10.72 16 5.44 16 0 16 C0 10.72 0 5.44 0 0 Z " fill="#75878E" transform="translate(312,72)"/>
<path d="M0 0 C5.28 0 10.56 0 16 0 C16 5.28 16 10.56 16 16 C10.72 16 5.44 16 0 16 C0 10.72 0 5.44 0 0 Z " fill="#75878E" transform="translate(280,72)"/>
<path d="M0 0 C5.28 0 10.56 0 16 0 C16 5.28 16 10.56 16 16 C10.72 16 5.44 16 0 16 C0 10.72 0 5.44 0 0 Z " fill="#75878E" transform="translate(248,72)"/>
<path d="M0 0 C5.28 0 10.56 0 16 0 C16 5.28 16 10.56 16 16 C10.72 16 5.44 16 0 16 C0 10.72 0 5.44 0 0 Z " fill="#75878E" transform="translate(216,72)"/>
<path d="M0 0 C5.28 0 10.56 0 16 0 C16 5.28 16 10.56 16 16 C10.72 16 5.44 16 0 16 C0 10.72 0 5.44 0 0 Z " fill="#75878E" transform="translate(184,72)"/>
<path d="M0 0 C5.28 0 10.56 0 16 0 C16 5.28 16 10.56 16 16 C10.72 16 5.44 16 0 16 C0 10.72 0 5.44 0 0 Z " fill="#75878E" transform="translate(152,72)"/>
<path d="M0 0 C5.28 0 10.56 0 16 0 C16 5.28 16 10.56 16 16 C10.72 16 5.44 16 0 16 C0 10.72 0 5.44 0 0 Z " fill="#75878E" transform="translate(120,72)"/>
<path d="M0 0 C0.66 0.33 1.32 0.66 2 1 C-0.64 3.64 -3.28 6.28 -6 9 C-6.33 8.34 -6.66 7.68 -7 7 C-2.25 1.125 -2.25 1.125 0 0 Z " fill="#296098" transform="translate(472,137)"/>
</svg>
