<?xml version="1.0" standalone="no"?>
<!DOCTYPE svg PUBLIC "-//W3C//DTD SVG 20010904//EN"
 "http://www.w3.org/TR/2001/REC-SVG-20010904/DTD/svg10.dtd">
<svg version="1.0" xmlns="http://www.w3.org/2000/svg"
 width="1439.000000pt" height="1439.000000pt" viewBox="0 0 1439.000000 1439.000000"
 preserveAspectRatio="xMidYMid meet">
<metadata>
Created by potrace 1.14, written by Peter Selinger 2001-2017
</metadata>
<g transform="translate(0.000000,1439.000000) scale(0.100000,-0.100000)"
fill="#000000" stroke="none">
<path d="M2584 14380 c-186 -18 -299 -57 -379 -131 -86 -79 -127 -199 -145
-422 -8 -92 -10 -2136 -8 -6737 4 -6173 5 -6610 21 -6687 59 -284 168 -367
522 -394 195 -15 9147 5 9255 21 341 50 439 162 470 544 14 178 14 13106 0
13261 -18 193 -56 299 -136 385 -82 88 -199 132 -399 149 -143 13 -9075 23
-9201 11z m8779 -719 c120 -47 222 -177 262 -336 14 -53 15 -726 15 -6152 0
-6069 0 -6091 -20 -6156 -34 -110 -134 -227 -242 -284 -48 -25 -63 -28 -158
-28 -115 0 -165 16 -202 66 -18 24 -19 233 -21 6319 -2 5063 -5 6309 -15 6367
-21 117 9 188 93 219 60 21 213 14 288 -15z m-2738 -2688 c62 -39 252 -239
327 -344 79 -111 166 -281 202 -395 52 -169 61 -242 60 -489 0 -215 -2 -236
-26 -325 -47 -175 -88 -258 -357 -728 -600 -1048 -624 -1086 -718 -1172 -76
-69 -142 -99 -259 -115 -55 -7 -118 -20 -140 -28 -101 -37 -184 -112 -267
-242 -29 -44 -98 -148 -153 -231 -178 -264 -224 -378 -232 -574 -9 -252 53
-407 303 -755 180 -250 299 -436 630 -985 313 -518 354 -595 381 -699 23 -93
16 -221 -16 -286 -34 -72 -122 -155 -205 -196 -64 -31 -77 -34 -165 -34 -84 0
-102 3 -153 28 -75 37 -161 118 -224 209 -50 72 -540 983 -1427 2651 -251 473
-472 883 -491 912 -48 71 -115 132 -181 162 -44 20 -85 28 -207 38 -171 16
-235 34 -341 97 -83 49 -206 168 -266 257 -48 71 -234 391 -488 836 -502 881
-703 1239 -717 1271 -35 84 -10 163 67 207 89 52 152 43 224 -31 21 -23 106
-153 188 -289 392 -650 434 -703 531 -657 64 30 93 127 64 215 -7 19 -28 57
-49 84 -56 76 -75 110 -125 235 -76 186 -112 248 -193 330 -41 41 -80 86 -87
100 -7 14 -29 80 -50 147 -46 149 -46 150 80 211 102 50 144 53 197 17 44 -30
80 -80 265 -365 198 -305 287 -455 318 -533 35 -86 73 -121 124 -112 86 16
152 82 138 137 -4 13 -38 73 -77 133 -94 146 -286 535 -350 710 -59 158 -76
229 -67 267 10 37 53 86 98 108 77 40 151 18 208 -61 43 -58 740 -1251 1044
-1785 234 -412 252 -460 252 -659 0 -116 -3 -138 -28 -209 -15 -43 -47 -111
-70 -150 -38 -65 -42 -77 -40 -136 4 -225 233 -714 366 -783 l38 -20 57 29
c68 35 141 125 201 249 120 246 158 471 110 645 -27 98 -36 293 -19 397 27
168 90 309 239 532 209 312 355 556 731 1221 123 217 273 478 333 580 244 410
288 450 412 373z m-2667 -5337 c46 -42 153 -204 196 -296 75 -157 94 -316 57
-462 -26 -102 -64 -183 -153 -324 -108 -172 -138 -224 -318 -569 -205 -392
-227 -429 -291 -493 -103 -103 -232 -141 -373 -108 -217 51 -326 196 -326 431
0 51 7 92 21 130 11 31 176 304 366 608 190 304 411 660 490 791 167 276 182
298 226 320 39 19 62 13 105 -28z"/>
</g>
</svg>
