<?xml version="1.0" encoding="UTF-8"?>
<svg version="1.1" xmlns="http://www.w3.org/2000/svg" width="512" height="512">
<path d="M0 0 C0.93821392 -0.00445784 1.87642783 -0.00891569 2.84307247 -0.01350862 C3.87058288 -0.01332426 4.89809329 -0.01313989 5.95674038 -0.01294994 C7.05087244 -0.01662663 8.1450045 -0.02030332 9.27229208 -0.02409142 C12.9516537 -0.03513581 16.63098709 -0.03897341 20.31036282 -0.04278088 C22.94331865 -0.04904499 25.57627359 -0.05569174 28.20922756 -0.0626936 C36.12017352 -0.08244461 44.03112073 -0.09252298 51.94208518 -0.10142139 C55.66992679 -0.10580696 59.39776699 -0.11117311 63.12560749 -0.11641026 C75.52233142 -0.13342199 87.91905446 -0.14791501 100.31578827 -0.155159 C103.53191599 -0.15706881 106.74804371 -0.15898915 109.96417141 -0.16094494 C110.76349936 -0.16142868 111.56282732 -0.16191242 112.38637733 -0.16241082 C125.32795535 -0.17070682 138.26944082 -0.1960367 151.21097846 -0.22852562 C164.50575595 -0.26162844 177.80048647 -0.27961071 191.09530538 -0.28280324 C198.55659185 -0.28496547 206.01774338 -0.29367187 213.4789896 -0.31926441 C219.83492927 -0.34101562 226.19070123 -0.34900025 232.5466739 -0.33929763 C235.78661554 -0.33476545 239.02614071 -0.33877606 242.26604939 -0.35605907 C245.78742201 -0.37378878 249.30792516 -0.36666537 252.82929897 -0.35352612 C253.84119433 -0.36449536 254.85308969 -0.37546461 255.89564854 -0.38676625 C267.78148953 -0.28013319 277.08787373 3.95343519 285.46636868 12.23968983 C296.38871037 23.92639429 297.58435364 36.13100275 298.17047024 51.580266 C298.23785293 53.19579461 298.30595664 54.81129327 298.3747015 56.42676449 C298.56520905 60.95332581 298.7454399 65.48024966 298.92421913 70.00728726 C299.12475178 75.03903423 299.334766 80.0703872 299.54357815 85.10179615 C299.92905329 94.42032548 300.30833385 103.73909388 300.68487453 113.05798817 C301.14375634 124.40594233 301.60939072 135.75360113 302.07989407 147.10107899 C302.12802228 148.26186366 302.12802228 148.26186366 302.17712277 149.44609852 C302.3429194 153.44419118 302.50880328 157.44228021 302.67471886 161.44036794 C304.04713024 194.51471027 305.40364484 227.58968556 306.75054073 260.66507626 C306.89815017 264.28947613 307.04577866 267.91387522 307.19341946 271.53827381 C307.24835791 272.8870891 307.24835791 272.8870891 307.30440623 274.26315318 C307.90459123 288.99543147 308.51005869 303.72748816 309.11747476 318.45946989 C309.75077182 333.82149941 310.37908527 349.18372678 311.00271535 364.54615182 C311.34924437 373.07941928 311.69782179 381.61259097 312.05217648 390.14553738 C312.35160595 397.35596562 312.64646695 404.5665635 312.9357225 411.77740733 C313.08236165 415.42966798 313.23089319 419.0818197 313.38541508 422.73375607 C313.7705713 431.86552379 314.0885874 440.99761171 314.33746243 450.13422108 C314.35823916 450.83091261 314.37901589 451.52760415 314.40042222 452.24540755 C314.52919323 456.58721037 314.62761379 460.92798948 314.68667093 465.27131947 C314.719355 467.28521989 314.77654031 469.298677 314.8346765 471.31200343 C314.92439703 482.27476029 312.06294317 492.9678841 304.33746243 501.13422108 C297.0374945 507.63182184 288.94468244 512.24943746 279.05023003 512.26844215 C277.97268029 512.2729 276.89513055 512.27735784 275.78492779 512.28195077 C274.60177944 512.28176641 273.4186311 512.28158205 272.19962978 512.2813921 C270.31341855 512.28690713 270.31341855 512.28690713 268.38910204 512.29253358 C264.89628828 512.30254414 261.4034917 512.30626885 257.91066563 512.30892289 C254.14429344 512.31282878 250.37793483 512.32240698 246.61157131 512.33113575 C237.5141106 512.3508929 228.41664879 512.36096577 219.31917199 512.36986354 C215.03345962 512.37424798 210.74774848 512.37961442 206.46203709 512.38485241 C192.21238715 512.40186453 177.96273798 512.416358 163.71307945 512.42360115 C160.01568952 512.425511 156.3182996 512.42743134 152.62090969 512.42938709 C151.70195715 512.42987083 150.7830046 512.43035457 149.83620501 512.43085297 C134.95467484 512.43915066 120.07322513 512.46448323 105.19173007 512.49696777 C89.90813099 512.53005762 74.62457276 512.54805168 59.34093767 512.55124539 C50.76183176 512.55340879 42.18284313 512.56213239 33.60377216 512.58770657 C26.2962955 512.60943996 18.98896462 512.61745107 11.6814593 512.60773978 C7.95548949 512.60320258 4.2298203 512.60504705 0.50389194 512.62450123 C-3.54288871 512.6454474 -7.58900603 512.63512355 -11.63581944 512.62196827 C-13.38711937 512.63842214 -13.38711937 512.63842214 -15.1737991 512.65520841 C-26.71688392 512.56481818 -36.35493574 509.34777459 -44.66253757 501.13422108 C-53.85852434 490.32804208 -55.13703168 480.35822291 -54.94084263 466.56270313 C-54.92893251 465.01097631 -54.91758439 463.45924509 -54.90675682 461.90751034 C-54.74941469 444.60282675 -54.05314902 427.31407669 -53.32450879 410.02584922 C-53.12496403 405.2526006 -52.93387245 400.4790114 -52.74162388 395.70546436 C-52.36608731 386.41213731 -51.9831493 377.1191302 -51.59760243 367.82621365 C-51.14763139 356.97242404 -50.70564732 346.11831324 -50.26399713 335.2641824 C-49.47551129 315.89177011 -48.68053236 296.51963004 -47.88153172 277.14764881 C-47.10829622 258.40009097 -46.33882055 239.65238434 -45.57391453 220.90448475 C-45.526688 219.74698107 -45.47946148 218.58947739 -45.43080384 217.39689784 C-45.24091216 212.74248661 -45.05103222 208.0880749 -44.86117131 203.43366241 C-44.04052392 183.31779074 -43.2169115 163.2020403 -42.39279994 143.0863103 C-42.26008734 139.84646522 -42.12743614 136.60661764 -41.99479699 133.36676955 C-41.53041448 122.02558219 -41.06509025 110.68443451 -40.59732229 99.34338623 C-40.40417668 94.66054709 -40.21139925 89.97769375 -40.01974964 85.29479313 C-39.84382292 80.99666734 -39.66664536 76.69859488 -39.48852127 72.40055961 C-39.42480203 70.85824541 -39.36150145 69.31591383 -39.29869796 67.77356207 C-39.09979758 62.89314378 -38.88830134 58.01347099 -38.66253757 53.13422108 C-38.62666245 52.34700077 -38.59078732 51.55978046 -38.55382507 50.74870498 C-38.44005116 48.3076332 -38.31869094 45.86704764 -38.1951828 43.42645073 C-38.1607869 42.67962419 -38.12639099 41.93279765 -38.09095279 41.16334 C-37.41466047 28.36329127 -32.51802557 18.07452501 -23.27191257 9.21625233 C-16.55104649 3.8536451 -8.66603303 0.01914321 0 0 Z " fill="#E0E1E5" transform="translate(126.66253757476807,-0.13422107696533203)"/>
<path d="M0 0 C1.12799515 -0.0049649 2.2559903 -0.00992981 3.41816711 -0.01504517 C7.13352072 -0.02959599 10.84883161 -0.0364577 14.56420898 -0.04199219 C15.8399925 -0.04481956 17.11577602 -0.04764694 18.43021965 -0.05056 C24.48986604 -0.06398701 30.54949004 -0.07388835 36.60914856 -0.07776189 C43.55987643 -0.08223172 50.51040658 -0.09973952 57.46107441 -0.12876248 C63.51695266 -0.15315472 69.57275055 -0.16071446 75.62867546 -0.16243744 C78.1868796 -0.16544593 80.74508328 -0.17341273 83.30325508 -0.18662262 C96.37825914 -0.24930974 108.81727263 -0.29397978 121.49780273 3.16113281 C122.71025162 3.47177673 123.9227005 3.78242065 125.17189026 4.10247803 C148.94351351 10.3289688 169.80904166 22.18562824 187.49780273 39.16113281 C188.37952148 39.9796875 189.26124023 40.79824219 190.16967773 41.64160156 C214.92646093 65.31440131 230.87718266 99.90979794 231.84082031 134.27954102 C231.95671968 143.58953361 231.32509269 150.9334038 226.49780273 159.16113281 C226.11366211 159.84304688 225.72952148 160.52496094 225.33374023 161.22753906 C220.6130943 168.66175358 212.0793386 174.17380599 203.71204382 176.70035142 C201.15890737 177.23165661 198.81936479 177.29034307 196.21057034 177.29535389 C195.1330206 177.29981173 194.05547086 177.30426958 192.94526809 177.30886251 C191.76211975 177.30867814 190.57897141 177.30849378 189.35997009 177.30830383 C187.47375886 177.31381887 187.47375886 177.31381887 185.54944235 177.31944531 C182.05662859 177.32945588 178.56383201 177.33318059 175.07100594 177.33583462 C171.30463375 177.33974052 167.53827514 177.34931871 163.77191162 177.35804749 C154.67445091 177.37780463 145.5769891 177.38787751 136.4795123 177.39677528 C132.19379993 177.40115972 127.90808879 177.40652615 123.6223774 177.41176414 C109.37272746 177.42877627 95.12307829 177.44326974 80.87341976 177.45051289 C77.17602983 177.45242274 73.47863991 177.45434308 69.78125 177.45629883 C68.86229746 177.45678257 67.94334491 177.45726631 66.99654532 177.45776471 C52.11501515 177.4660624 37.23356543 177.49139497 22.35207038 177.52387951 C7.0684713 177.55696936 -8.21508693 177.57496342 -23.49872202 177.57815713 C-32.07782793 177.58032052 -40.65681656 177.58904413 -49.23588753 177.6146183 C-56.54336419 177.63635169 -63.85069507 177.6443628 -71.15820039 177.63465152 C-74.8841702 177.63011432 -78.60983939 177.63195878 -82.33576775 177.65141296 C-86.3825484 177.67235913 -90.42866572 177.66203529 -94.47547913 177.64888 C-95.64301241 177.65984925 -96.8105457 177.6708185 -98.01345879 177.68212014 C-109.55654361 177.59172992 -119.19459543 174.37468633 -127.50219727 166.16113281 C-134.9586469 157.39907916 -138.07655648 148.78941146 -137.93969727 137.34863281 C-137.93212402 136.44137451 -137.92455078 135.53411621 -137.91674805 134.59936523 C-137.02457986 96.97526527 -117.79210337 62.25468021 -91.22875977 36.58300781 C-66.88916835 13.78454175 -33.30467863 0.03542134 0 0 Z " fill="#9196A0" transform="translate(209.502197265625,334.8388671875)"/>
<path d="M0 0 C62.04 0 124.08 0 188 0 C185.68772567 20.81046899 185.68772567 20.81046899 184.8515625 27.19140625 C184.75425842 27.94162048 184.65695435 28.69183472 184.55670166 29.46478271 C184.24853188 31.83100983 183.93713829 34.19679336 183.625 36.5625 C183.51706116 37.38527435 183.40912231 38.20804871 183.2979126 39.05575562 C181.83627656 50.1701176 180.21922986 61.24250603 178.37719727 72.30102539 C177.08023928 80.19364124 176.11841689 88.10188962 175.21655273 96.0480957 C174.08423165 105.78757182 172.60619027 115.46354616 171.10391235 125.15118408 C169.66045412 134.46589808 168.33016187 143.77063635 167.359375 153.1484375 C167 156 167 156 166 159 C165.42299127 159.00238835 164.84598253 159.00477671 164.25148869 159.00723743 C150.13367495 159.06668293 136.01602447 159.14241779 121.89839268 159.23571491 C115.07086811 159.28045259 108.24339314 159.3199162 101.41577148 159.34643555 C94.81501602 159.37208918 88.21446683 159.41313902 81.61384392 159.46318626 C79.10757176 159.47974871 76.60126109 159.49132858 74.09494209 159.49761391 C52.1866233 159.34800461 52.1866233 159.34800461 30.92506409 164.0995636 C27.80029838 165.0614751 25.24965588 165.15474552 22 165 C19.92784708 150.32668562 17.85880111 135.65293591 15.79338932 120.97867107 C14.8341761 114.16420385 13.87397082 107.34987925 12.91137695 100.53588867 C11.98172555 93.95506998 11.05490906 87.37385599 10.12978935 80.79239845 C9.77709484 78.28658744 9.42346441 75.78090796 9.06886482 73.27536583 C8.57082608 69.75513287 8.07617388 66.23443895 7.58227539 62.71362305 C7.43625885 61.68718689 7.29024231 60.66075073 7.13980103 59.60321045 C6.34372504 53.89998872 5.70575391 48.21128088 5.24857235 42.47051716 C4.99863796 39.98646291 4.59737225 37.57568301 4.125 35.125 C3.05841667 29.54159786 2.20030557 23.93568587 1.375 18.3125 C1.23980957 17.42127441 1.10461914 16.53004883 0.96533203 15.61181641 C0.84013184 14.7460498 0.71493164 13.8802832 0.5859375 12.98828125 C0.4729834 12.22040283 0.3600293 11.45252441 0.24365234 10.66137695 C-0.08043134 7.12146087 0 3.55472026 0 0 Z " fill="#F5F9F9" transform="translate(147,176)"/>
<path d="M0 0 C0.93821392 -0.00445784 1.87642783 -0.00891569 2.84307247 -0.01350862 C3.87058288 -0.01332426 4.89809329 -0.01313989 5.95674038 -0.01294994 C7.05087244 -0.01662663 8.1450045 -0.02030332 9.27229208 -0.02409142 C12.9516537 -0.03513581 16.63098709 -0.03897341 20.31036282 -0.04278088 C22.94331865 -0.04904499 25.57627359 -0.05569174 28.20922756 -0.0626936 C36.12017352 -0.08244461 44.03112073 -0.09252298 51.94208518 -0.10142139 C55.66992679 -0.10580696 59.39776699 -0.11117311 63.12560749 -0.11641026 C75.52233142 -0.13342199 87.91905446 -0.14791501 100.31578827 -0.155159 C103.53191599 -0.15706881 106.74804371 -0.15898915 109.96417141 -0.16094494 C110.76349936 -0.16142868 111.56282732 -0.16191242 112.38637733 -0.16241082 C125.32795535 -0.17070682 138.26944082 -0.1960367 151.21097846 -0.22852562 C164.50575595 -0.26162844 177.80048647 -0.27961071 191.09530538 -0.28280324 C198.55659185 -0.28496547 206.01774338 -0.29367187 213.4789896 -0.31926441 C219.83492927 -0.34101562 226.19070123 -0.34900025 232.5466739 -0.33929763 C235.78661554 -0.33476545 239.02614071 -0.33877606 242.26604939 -0.35605907 C245.78742201 -0.37378878 249.30792516 -0.36666537 252.82929897 -0.35352612 C253.84119433 -0.36449536 254.85308969 -0.37546461 255.89564854 -0.38676625 C267.78148953 -0.28013319 277.08787373 3.95343519 285.46636868 12.23968983 C298.77810211 26.48299945 297.33746243 39.99278074 297.33746243 60.13422108 C186.45746243 60.13422108 75.57746243 60.13422108 -38.66253757 60.13422108 C-37.15796206 22.5198333 -37.15796206 22.5198333 -23.27191257 9.21625233 C-16.55104649 3.8536451 -8.66603303 0.01914321 0 0 Z " fill="#9196A0" transform="translate(126.66253757476807,-0.13422107696533203)"/>
<path d="M0 0 C0.33 0 0.66 0 1 0 C3.04115481 50.11628856 5.07974986 100.23268069 7.11491632 150.34921281 C7.35523824 156.26715174 7.59558132 162.18508981 7.8359375 168.10302734 C7.88378734 169.28117245 7.93163717 170.45931756 7.980937 171.67316404 C8.75556536 190.74459882 9.53190855 209.81596342 10.30888653 228.88730261 C11.1062153 248.45910237 11.90169882 268.03097651 12.69547272 287.60292077 C13.18525294 299.67791221 13.67646896 311.75284349 14.16952705 323.82770154 C14.50758714 332.1100842 14.84385334 340.39253848 15.17871666 348.675051 C15.37190907 353.45216752 15.5658849 358.22924879 15.76199341 363.00624657 C15.94173096 367.38489205 16.11920136 371.7636235 16.2949152 376.14243224 C16.35866911 377.72140464 16.42323481 379.30034454 16.4887228 380.87924597 C16.84950125 389.58949178 17.09095474 398.28101485 17 407 C16.67 407 16.34 407 16 407 C15.84144531 405.97003906 15.68289063 404.94007813 15.51953125 403.87890625 C11.83765216 380.96973826 4.5333881 354.21760063 -11.96315002 336.94442749 C-18.49907282 329.89717546 -19.24947138 323.90399253 -19.40234375 314.5703125 C-19.45434595 313.13245105 -19.50986776 311.69471335 -19.56858826 310.2571106 C-19.68869201 307.15187678 -19.78553431 304.04708947 -19.8649292 300.94055176 C-19.99708383 295.85255886 -20.1940397 290.7681289 -20.39892578 285.68261719 C-20.79498633 275.67937133 -21.13805534 265.67475123 -21.46972656 255.66918945 C-21.71706376 248.21978361 -21.97003922 240.77057444 -22.22645378 233.32147598 C-22.31340735 230.76776135 -22.39719311 228.21395809 -22.48060608 225.66012573 C-22.76229383 217.26061728 -23.17699672 208.89385305 -23.77012634 200.50997925 C-24.13762156 194.89863346 -24.32149128 189.28409517 -24.5 183.6640625 C-24.54060547 182.4604306 -24.58121094 181.25679871 -24.62304688 180.01669312 C-24.75102678 176.21953541 -24.87588034 172.42228571 -25 168.625 C-25.66465458 148.08272676 -25.66465458 148.08272676 -26.75 127.56005859 C-27.47070298 115.28945687 -27.7207404 102.98578306 -28.125 90.70166016 C-28.64659531 73.92265239 -28.64659531 73.92265239 -29.52734375 57.16015625 C-30.18798174 46.76189525 -30.35352599 36.35293549 -30.5625 25.9375 C-30.6058294 23.89517611 -30.64944748 21.85285832 -30.69335938 19.81054688 C-30.79941915 14.87376433 -30.89959544 9.93691353 -31 5 C-20.77 5 -10.54 5 0 5 C0 3.35 0 1.7 0 0 Z " fill="#C4C7CC" transform="translate(424,55)"/>
<path d="M0 0 C0.96472733 -0.01283524 1.92945465 -0.02567047 2.92341614 -0.03889465 C3.96922348 -0.04628159 5.01503082 -0.05366852 6.0925293 -0.0612793 C7.16544724 -0.06935104 8.23836517 -0.07742279 9.34379578 -0.08573914 C11.61768982 -0.09958665 13.89160471 -0.11030581 16.16552734 -0.11816406 C19.64224666 -0.13537674 23.11801524 -0.17925793 26.59448242 -0.22338867 C28.80215771 -0.23351539 31.00984109 -0.24203156 33.2175293 -0.2487793 C34.25726395 -0.26628738 35.2969986 -0.28379547 36.36824036 -0.30183411 C43.60099652 -0.28011344 43.60099652 -0.28011344 47.48779297 2.07861328 C50.53832685 5.50821939 50.47383877 7.54131213 50.4519043 12.05981445 C50.44868164 13.22641602 50.44545898 14.39301758 50.44213867 15.5949707 C50.43375977 16.81829102 50.42538086 18.04161133 50.41674805 19.30200195 C50.41223633 20.53305664 50.40772461 21.76411133 50.40307617 23.0324707 C50.39126135 26.08069587 50.37478832 29.12882509 50.35424805 32.17700195 C51.58876709 32.15605469 52.82328613 32.13510742 54.09521484 32.11352539 C58.73392858 32.04039438 63.37259283 31.99493981 68.01171875 31.95727539 C70.0085511 31.93732477 72.00532629 31.91015423 74.00195312 31.87524414 C90.63303763 31.59202006 104.50835259 32.25152891 117.35424805 44.17700195 C124.51311654 52.13130028 128.88446763 60.69128238 129.89746094 71.36425781 C129.98403458 72.26534775 130.07060822 73.16643768 130.1598053 74.09483337 C130.22397141 74.78194901 130.28813751 75.46906464 130.35424805 76.17700195 C105.95113783 76.21489964 81.54965988 76.11086382 57.14697266 75.97507286 C51.96346367 75.94641719 46.77994933 75.91876356 41.59643555 75.89099121 C31.83685684 75.83855521 22.07728307 75.78525369 12.31771088 75.73161936 C1.18296423 75.67047146 -9.95178775 75.6103217 -21.08654022 75.55024433 C-43.93961678 75.42691918 -66.79268656 75.30237777 -89.64575195 75.17700195 C-89.66373091 73.57043491 -89.67658408 71.96380993 -89.68725586 70.35717773 C-89.69496002 69.46249786 -89.70266418 68.56781799 -89.71060181 67.64602661 C-89.50266196 59.72914498 -84.63426304 52.97872531 -79.64575195 47.17700195 C-79.16750977 46.58145508 -78.68926758 45.9859082 -78.1965332 45.37231445 C-72.24413415 38.62526263 -62.54927846 33.46023848 -53.64575195 32.17700195 C-50.34688659 32.04527327 -47.05224749 32.06072068 -43.7512207 32.0793457 C-42.80386551 32.08076065 -41.85651031 32.0821756 -40.88044739 32.08363342 C-37.864683 32.08921584 -34.84899377 32.10176514 -31.83325195 32.11450195 C-29.7844249 32.11951922 -27.73559669 32.12408174 -25.68676758 32.12817383 C-20.67306689 32.13917952 -15.65942215 32.15643208 -10.64575195 32.17700195 C-10.67717285 31.03485229 -10.67717285 31.03485229 -10.70922852 29.86962891 C-10.7925299 26.40972164 -10.8444578 22.95002557 -10.89575195 19.48950195 C-10.92926758 18.29131836 -10.9627832 17.09313477 -10.99731445 15.85864258 C-11.01665039 14.12324219 -11.01665039 14.12324219 -11.03637695 12.3527832 C-11.06779785 10.75817261 -11.06779785 10.75817261 -11.09985352 9.13134766 C-10.53494401 5.45609501 -9.20068892 3.82428962 -6.64575195 1.17700195 C-4.23930732 -0.02622036 -2.68815978 0.03109768 0 0 Z " fill="#9196A0" transform="translate(236.645751953125,99.822998046875)"/>
<path d="M0 0 C1.56537254 -0.00430527 1.56537254 -0.00430527 3.16236877 -0.00869751 C5.35312447 -0.01072448 7.54389883 -0.00529122 9.73461914 0.00732422 C13.05461844 0.02338049 16.37339753 0.00743629 19.69335938 -0.01171875 C38.8541417 -0.03089385 53.73183788 1.98097527 68.1484375 15.7265625 C71.77074961 19.6283916 74.33983944 23.60685392 76.62890625 28.3984375 C77.04011719 29.22730469 77.45132813 30.05617188 77.875 30.91015625 C81.24071781 38.70138537 81.83075201 47.02970267 80.62890625 55.3984375 C78.14084332 60.25133383 75.43524548 62.86746027 70.62890625 65.3984375 C67.01499721 65.97642335 63.44716725 65.94521567 59.79345703 65.91601562 C58.17281845 65.92652954 58.17281845 65.92652954 56.5194397 65.93725586 C52.95410321 65.95483529 49.38956308 65.94321087 45.82421875 65.9296875 C43.34088997 65.9323828 40.85756223 65.93626554 38.37423706 65.94128418 C33.17077584 65.94717953 27.96758942 65.93861612 22.76416016 65.91992188 C16.10382181 65.89715635 9.44439825 65.91024017 2.78404427 65.93421173 C-2.34446039 65.94868868 -7.47281285 65.94405448 -12.60132217 65.93370056 C-15.0564494 65.93103731 -17.51159056 65.93428883 -19.96670151 65.94361877 C-23.40378982 65.9538124 -26.83984388 65.93824119 -30.27685547 65.91601562 C-31.28594971 65.92411255 -32.29504395 65.93220947 -33.3347168 65.94055176 C-39.39216425 65.86822942 -44.4197857 65.11692716 -49.37109375 61.3984375 C-53.22370344 56.52497544 -54.00798814 51.50552927 -53.75390625 45.390625 C-51.9445266 31.24792282 -45.31305489 19.44401581 -34.37109375 10.3984375 C-23.59506149 2.81693939 -13.07789732 -0.0812547 0 0 Z " fill="#F4D4A8" transform="translate(247.37109375,366.6015625)"/>
<path d="M0 0 C4.85226212 -0.07532769 9.70416863 -0.12914464 14.55688477 -0.16479492 C16.20049991 -0.17968883 17.84407674 -0.20001089 19.48754883 -0.22631836 C56.03250098 -0.79576308 90.70700713 13.76720846 117 39 C117.88171875 39.81855469 118.7634375 40.63710938 119.671875 41.48046875 C144.4286582 65.1532685 160.37937992 99.74866513 161.34301758 134.1184082 C161.45891694 143.4284008 160.82728995 150.77227099 156 159 C155.61585938 159.68191406 155.23171875 160.36382812 154.8359375 161.06640625 C150.1232676 168.48805987 141.52050005 174.12659643 133.11871338 176.54051208 C129.68989718 177.28412357 126.22618021 177.12115905 122.734375 177.09765625 C121.94097717 177.0962413 121.14757935 177.09482635 120.33013916 177.09336853 C117.80338728 177.08778415 115.27672496 177.07523454 112.75 177.0625 C111.03385545 177.05748298 109.31770951 177.05292043 107.6015625 177.04882812 C103.40100731 177.03781984 99.20051883 177.02056596 95 177 C95 176.67 95 176.34 95 176 C96.27875 175.773125 97.5575 175.54625 98.875 175.3125 C108.40177201 173.14392552 115.88959003 168.6663014 122 161 C123.60050651 158.41823058 124.86544795 155.81391375 126 153 C126.3400708 152.24138672 126.6801416 151.48277344 127.03051758 150.70117188 C128.67360958 146.12318901 128.33825205 141.50649249 128.3125 136.6875 C128.30758545 135.61242187 128.3026709 134.53734375 128.29760742 133.4296875 C127.86412753 103.73075758 115.4386634 73.37138244 96 51 C95.30261719 50.18144531 94.60523438 49.36289062 93.88671875 48.51953125 C77.19545804 29.39721658 56.82129982 16.19823955 33 8 C32.18015625 7.69320313 31.3603125 7.38640625 30.515625 7.0703125 C20.80643292 3.52974246 10.25772366 1.89980032 0 1 C0 0.67 0 0.34 0 0 Z " fill="#81868F" transform="translate(280,335)"/>
<path d="M0 0 C10.23 0 20.46 0 31 0 C29.97287176 9.75771832 28.93934947 19.37721088 27 29 C27.60996826 28.97381592 28.21993652 28.94763184 28.84838867 28.9206543 C31.62782758 28.81634281 34.40685439 28.75157018 37.1875 28.6875 C38.14720703 28.64560547 39.10691406 28.60371094 40.09570312 28.56054688 C47.22378966 28.43722358 47.22378966 28.43722358 51.16796875 31.296875 C53 34 53 34 53.125 37.5625 C51.73206849 41.8186796 50.8607533 42.74508929 47 45 C43.23392999 45.62556953 39.49954923 45.69634352 35.6875 45.75 C34.66076172 45.77964844 33.63402344 45.80929688 32.57617188 45.83984375 C30.05070325 45.91032194 27.52614585 45.9631266 25 46 C24.87995605 46.86536377 24.75991211 47.73072754 24.63623047 48.62231445 C23.21789797 58.8448492 21.79793226 69.06715643 20.37683105 79.28930664 C20.12687809 81.08731619 19.87695912 82.88533046 19.6270752 84.68334961 C16.94465553 103.98375062 14.2581355 123.28361134 11.5144043 142.57540894 C11.29877949 144.0922103 11.08360033 145.60907508 10.86889648 147.12600708 C10.5741968 149.20660902 10.27762471 151.28693514 9.98046875 153.3671875 C9.81442139 154.53362793 9.64837402 155.70006836 9.47729492 156.90185547 C9.05822253 159.62207474 8.56650044 162.3071526 8 165 C2.01067238 164.41281102 -3.70708851 163.21520162 -9.55859375 161.81640625 C-13.69653822 160.83475995 -17.84672193 159.91419957 -22 159 C-20.36834882 142.30321181 -18.13653872 125.75405244 -15.59588623 109.17553711 C-14.10783454 99.46252365 -12.64633331 89.76063891 -11.5 80 C-10.13662625 68.41658308 -8.35731859 56.90076833 -6.59927368 45.37219238 C-4.84912362 33.88216456 -3.19558252 22.39736681 -1.84960938 10.8515625 C-1.74841797 9.98789063 -1.64722656 9.12421875 -1.54296875 8.234375 C-1.46071045 7.50444336 -1.37845215 6.77451172 -1.29370117 6.02246094 C-0.99861941 3.99049311 -0.49799401 1.99197602 0 0 Z " fill="#C4C7CC" transform="translate(335,176)"/>
<path d="M0 0 C6.75855155 -0.07667264 13.51698908 -0.12885867 20.27587891 -0.16479492 C22.5705179 -0.17979151 24.86512867 -0.20019551 27.15966797 -0.22631836 C30.47630825 -0.2631058 33.79256642 -0.2798182 37.109375 -0.29296875 C38.11925476 -0.30845261 39.12913452 -0.32393646 40.1696167 -0.33988953 C55.72140158 -0.34348496 68.29048999 4.62173305 79.51953125 15.328125 C83.14184336 19.2299541 85.71093319 23.20841642 88 28 C88.41121094 28.82886719 88.82242188 29.65773438 89.24609375 30.51171875 C92.61181156 38.30294787 93.20184576 46.63126517 92 55 C89.51429395 59.8482993 86.73220503 62.36725526 82 65 C78.38134766 65.45410156 78.38134766 65.45410156 74.4140625 65.390625 C73.71227875 65.38496521 73.010495 65.37930542 72.28744507 65.37347412 C70.06590913 65.35124483 67.84604077 65.30108056 65.625 65.25 C64.11070053 65.22991731 62.59637554 65.21166964 61.08203125 65.1953125 C57.38748732 65.15142633 53.69390667 65.08249577 50 65 C50.60457031 64.5565625 51.20914063 64.113125 51.83203125 63.65625 C55.47029205 60.87674986 58.5327867 58.40163989 60 54 C61.19156337 37.86806519 56.4771947 26.18048155 46 14 C37.64503421 6.9495815 27.79718443 2.13128076 16.796875 1.68359375 C15.32734375 1.62075195 15.32734375 1.62075195 13.828125 1.55664062 C12.81234375 1.51732422 11.7965625 1.47800781 10.75 1.4375 C9.71875 1.39431641 8.6875 1.35113281 7.625 1.30664062 C5.0834613 1.20074318 2.54182804 1.09866557 0 1 C0 0.67 0 0.34 0 0 Z " fill="#EBB875" transform="translate(236,367)"/>
<path d="M0 0 C4.92547891 -0.09988492 9.85035096 -0.17194055 14.77661133 -0.21972656 C16.44761442 -0.239675 18.11854924 -0.26684401 19.78930664 -0.30175781 C33.3081061 -0.57690848 44.59499815 0.4035668 55 10 C64.50646563 19.4018073 69.03917184 28.69040023 69.1953125 42.12890625 C69.18406032 44.27353605 69.15834258 46.41809988 69.125 48.5625 C69.08375 52.336875 69.0425 56.11125 69 60 C58.77 60 48.54 60 38 60 C36.88146912 52.17028381 36.88146912 52.17028381 36.7890625 48.73046875 C36.26629008 33.89214828 34.07021093 21.42159647 22.8125 10.6875 C16.20143454 5.18013687 8.62578624 1.57505242 0 1 C0 0.67 0 0.34 0 0 Z " fill="#828790" transform="translate(355,0)"/>
<path d="M0 0 C0.96472733 -0.01283524 1.92945465 -0.02567047 2.92341614 -0.03889465 C4.49212715 -0.04997505 4.49212715 -0.04997505 6.0925293 -0.0612793 C7.16544724 -0.06935104 8.23836517 -0.07742279 9.34379578 -0.08573914 C11.61768982 -0.09958665 13.89160471 -0.11030581 16.16552734 -0.11816406 C19.64224666 -0.13537674 23.11801524 -0.17925793 26.59448242 -0.22338867 C28.80215771 -0.23351539 31.00984109 -0.24203156 33.2175293 -0.2487793 C34.25726395 -0.26628738 35.2969986 -0.28379547 36.36824036 -0.30183411 C43.60099652 -0.28011344 43.60099652 -0.28011344 47.48779297 2.07861328 C55.20909859 10.75940097 50.35424805 16.21321063 50.35424805 32.17700195 C30.22424805 32.17700195 10.09424805 32.17700195 -10.64575195 32.17700195 C-10.64575195 6.17700195 -10.64575195 6.17700195 -6.64575195 1.17700195 C-4.23930732 -0.02622036 -2.68815978 0.03109768 0 0 Z " fill="#A8AFB8" transform="translate(236.645751953125,99.822998046875)"/>
<path d="M0 0 C4.46161319 -0.10032167 8.92259567 -0.17213763 13.38500977 -0.21972656 C14.89684512 -0.23960437 16.4086061 -0.26671673 17.92016602 -0.30175781 C32.86985075 -0.63915528 45.60911011 1.42527979 57 12 C65.85754721 21.84171912 68.6950493 30.95049302 70 44 C59.44 44 48.88 44 38 44 C37.01 37.565 37.01 37.565 36 31 C32.33628456 20.10495113 25.199804 10.87241585 15 5.5 C10.05699875 3.25663789 5.34544631 1.89090772 0 1 C0 0.67 0 0.34 0 0 Z " fill="#828790" transform="translate(297,132)"/>
<path d="M0 0 C1.93209068 -0.01879967 1.93209068 -0.01879967 3.9032135 -0.03797913 C5.30063899 -0.02571173 6.69805477 -0.01229185 8.09545898 0.00219727 C9.53604817 0.00136811 10.97663725 -0.00109306 12.41722107 -0.00511169 C15.43094484 -0.00796549 18.44392366 0.00669069 21.45751953 0.03417969 C25.31701637 0.06829397 29.17518438 0.06223098 33.03474522 0.04351711 C36.00741115 0.0329411 38.97976866 0.04188957 41.95240593 0.05690193 C43.37533591 0.06207783 44.79829817 0.0616091 46.22122383 0.05535698 C48.21002504 0.04989744 50.19884233 0.07314629 52.1875 0.09765625 C53.31825455 0.10385483 54.44900909 0.11005341 55.61402893 0.11643982 C59.17021005 0.74430341 60.32809476 1.82536042 62.52905273 4.63110352 C63.46655273 7.06860352 63.46655273 7.06860352 63.52905273 9.63110352 C61.90749645 13.11744953 60.76451982 14.47412546 57.52905273 16.63110352 C54.81021118 16.89852905 54.81021118 16.89852905 51.48461914 16.92163086 C49.61720566 16.94077042 49.61720566 16.94077042 47.71206665 16.96029663 C46.35158442 16.96335429 44.99110011 16.96558205 43.63061523 16.96704102 C42.23440412 16.97346884 40.83819436 16.98019719 39.44198608 16.98721313 C36.51492186 16.99918823 33.58797567 17.00289378 30.66088867 17.00170898 C26.91588366 17.00150588 23.17163822 17.02879723 19.42681313 17.0632534 C16.54253689 17.08552739 13.65844324 17.08954638 10.77408981 17.08848953 C9.39381672 17.09084517 8.01353858 17.09966675 6.63335037 17.11515427 C4.69975861 17.13481846 2.76594376 17.12645257 0.83227539 17.11694336 C-0.81627945 17.12121841 -0.81627945 17.12121841 -2.49813843 17.12557983 C-6.19548726 16.51058858 -7.84548007 15.26636352 -10.47094727 12.63110352 C-11.59594727 9.19360352 -11.59594727 9.19360352 -11.47094727 5.63110352 C-7.94645584 1.13502276 -5.65918843 0.00481003 0 0 Z " fill="#81868F" transform="translate(230.470947265625,21.368896484375)"/>
<path d="M0 0 C1.87202843 -0.01879967 1.87202843 -0.01879967 3.78187561 -0.03797913 C5.13511198 -0.02571171 6.48833833 -0.01229182 7.84155273 0.00219727 C9.23730148 0.00136805 10.63305013 -0.0010933 12.02879333 -0.00511169 C14.94836965 -0.00796511 17.86717684 0.00668667 20.78662109 0.03417969 C24.52506325 0.06829514 28.26213359 0.06223042 32.00064182 0.04351711 C34.88066507 0.03293983 37.76037004 0.04189066 40.64036369 0.05690193 C42.01863599 0.06207684 43.39694161 0.06161029 44.77520943 0.05535698 C46.70174597 0.04989588 48.62829908 0.07315007 50.5546875 0.09765625 C51.64991226 0.10385483 52.74513702 0.11005341 53.87355042 0.11643982 C57.39517892 0.75483116 58.54777819 1.82906539 60.71264648 4.63110352 C61.83764648 8.06860352 61.83764648 8.06860352 61.71264648 11.63110352 C58.95754533 15.0981652 57.20146853 16.39592381 52.79754639 17.09158325 C49.09079643 17.27793065 45.41613273 17.2974949 41.70483398 17.26000977 C40.33293469 17.26083927 38.96103551 17.26330172 37.58914185 17.26731873 C34.72261422 17.27016901 31.85687133 17.25554929 28.99047852 17.22802734 C25.32043865 17.19387938 21.65179508 17.19999041 17.98168755 17.21868992 C15.15227657 17.22926637 12.3231896 17.22031771 9.49380875 17.2053051 C7.48415682 17.19762187 5.47446559 17.20496956 3.46481323 17.21253967 C1.63238571 17.18878517 1.63238571 17.18878517 -0.23706055 17.16455078 C-1.31150421 17.1583522 -2.38594788 17.15215363 -3.49295044 17.14576721 C-6.98155014 16.50324873 -8.13919391 15.4068662 -10.28735352 12.63110352 C-11.34985352 9.19360352 -11.34985352 9.19360352 -11.28735352 5.63110352 C-7.81378269 1.2158674 -5.57494296 0.00489203 0 0 Z " fill="#E1E2E6" transform="translate(231.287353515625,249.368896484375)"/>
<path d="M0 0 C1.28813599 -0.01583633 2.57627197 -0.03167267 3.90344238 -0.04798889 C5.30607465 -0.04414758 6.70870408 -0.03910862 8.11132812 -0.03295898 C9.55334881 -0.03819508 10.99536607 -0.04447151 12.43737793 -0.05174255 C15.45695127 -0.06214351 18.47605326 -0.05758987 21.49560547 -0.04296875 C25.36310656 -0.02577353 29.229123 -0.04928416 33.09645844 -0.08445835 C36.07340314 -0.10642967 39.04999234 -0.1049919 42.0269928 -0.09669304 C43.45273976 -0.09587348 44.87851281 -0.10273788 46.30418396 -0.11746407 C48.29777607 -0.13490121 50.29158225 -0.11705303 52.28515625 -0.09765625 C53.418927 -0.09669449 54.55269775 -0.09573273 55.7208252 -0.09474182 C58.64257812 0.53344727 58.64257812 0.53344727 61.03991699 2.84632874 C62.64257812 5.53344727 62.64257812 5.53344727 62.64257812 9.15844727 C61.51607137 12.96040757 60.99947868 13.6322204 57.64257812 15.53344727 C54.80348206 15.92785645 54.80348206 15.92785645 51.48461914 15.95336914 C50.23975235 15.96928101 48.99488556 15.98519287 47.71229553 16.00158691 C46.35702572 16.00285419 45.00175452 16.00303102 43.64648438 16.00219727 C42.25170079 16.00930111 40.85692012 16.01700043 39.46214294 16.02526855 C36.54100417 16.03870483 33.62013561 16.04028612 30.69897461 16.03442383 C26.96164168 16.02852802 23.225608 16.05911553 19.48852634 16.09954071 C16.60850582 16.12543293 13.72879755 16.12829387 10.84867668 16.12464905 C9.47118807 16.1263389 8.09368482 16.13596869 6.7163105 16.15379333 C-5.39922102 16.29333205 -5.39922102 16.29333205 -8.70532227 13.18774414 C-10.7344589 9.9276919 -11.07942326 8.30389894 -10.35742188 4.53344727 C-7.25725599 0.46330978 -5.01103508 0.02739645 0 0 Z " fill="#E1E2E6" transform="translate(230.357421875,221.466552734375)"/>
<path d="M0 0 C1.24486679 -0.01591187 2.48973358 -0.03182373 3.77232361 -0.04821777 C5.12759342 -0.04948505 6.48286462 -0.04966188 7.83813477 -0.04882812 C9.23291835 -0.05593197 10.62769902 -0.06363129 12.0224762 -0.07189941 C14.94361497 -0.08533569 17.86448353 -0.08691698 20.78564453 -0.08105469 C24.52297746 -0.07515888 28.25901115 -0.10574639 31.9960928 -0.14617157 C34.87611332 -0.17206379 37.75582159 -0.17492473 40.63594246 -0.17127991 C42.01343107 -0.17296976 43.39093432 -0.18259955 44.76830864 -0.20042419 C56.88058203 -0.33992538 56.88058203 -0.33992538 60.22509766 2.73046875 C61.84204102 5.41992188 61.84204102 5.41992188 61.84204102 9.04492188 C60.52528762 13.48896458 60.52528762 13.48896458 57.84204102 15.41992188 C55.0405426 15.81433105 55.0405426 15.81433105 51.59814453 15.83984375 C50.30993301 15.85575562 49.0217215 15.87166748 47.69447327 15.88806152 C46.28663182 15.88932875 44.87878903 15.88950567 43.47094727 15.88867188 C42.0274984 15.89577246 40.58405237 15.90347131 39.14060974 15.91174316 C36.1151444 15.92519254 33.08994001 15.9267549 30.06445312 15.92089844 C26.18912796 15.9150024 22.31505567 15.94558533 18.43997288 15.98601532 C15.45876838 16.01187856 12.47786609 16.01477108 9.49656487 16.01112366 C8.06801136 16.01281632 6.63944411 16.02247313 5.21100044 16.04026794 C3.21256638 16.06242312 1.21383701 16.04955725 -0.78466797 16.03515625 C-2.4898484 16.03823792 -2.4898484 16.03823792 -4.22947693 16.04138184 C-7.15795898 15.41992188 -7.15795898 15.41992188 -9.55628967 13.10803223 C-11.15795898 10.41992188 -11.15795898 10.41992188 -11.15795898 6.79492188 C-9.35716316 0.71723596 -5.97213117 0.04590884 0 0 Z " fill="#E1E2E6" transform="translate(231.157958984375,278.580078125)"/>
<path d="M0 0 C1.55557617 -0.04253906 1.55557617 -0.04253906 3.14257812 -0.0859375 C10.71597466 -0.10539388 10.71597466 -0.10539388 14.78515625 2.8046875 C16.5625 5.5 16.5625 5.5 16.5625 9.125 C15.26340992 13.50942902 15.26340992 13.50942902 12.5625 15.5 C8.44846238 16.17167961 4.28775487 16.00933877 0.125 16 C-1.02033203 16.02835937 -2.16566406 16.05671875 -3.34570312 16.0859375 C-11.70576304 16.10550464 -11.70576304 16.10550464 -15.22265625 13.1953125 C-16.89017342 9.49567634 -16.58057401 7.3578748 -15.4375 3.5 C-10.97497786 -0.82622836 -5.86274529 -0.01452073 0 0 Z " fill="#81868F" transform="translate(369.4375,463.5)"/>
<path d="M0 0 C1.51013672 -0.00580078 1.51013672 -0.00580078 3.05078125 -0.01171875 C4.61892578 0.00568359 4.61892578 0.00568359 6.21875 0.0234375 C7.26417969 0.01183594 8.30960937 0.00023437 9.38671875 -0.01171875 C10.39347656 -0.00785156 11.40023438 -0.00398438 12.4375 0 C13.35466797 0.00338379 14.27183594 0.00676758 15.21679688 0.01025391 C18.20573823 0.47399481 19.56184896 1.29928889 21.71875 3.3984375 C22.86131237 7.25458551 23.17561427 9.39099322 21.5 13.0859375 C16.93933204 16.87795356 11.95398195 16.12064482 6.21875 16.0234375 C5.07792969 16.04277344 3.93710938 16.06210937 2.76171875 16.08203125 C-5.51759496 16.03338663 -5.51759496 16.03338663 -9.0625 13.0859375 C-10.73811427 9.39099322 -10.42381237 7.25458551 -9.28125 3.3984375 C-6.28995791 0.48723919 -4.11007469 0.01516366 0 0 Z " fill="#81868F" transform="translate(250.28125,463.6015625)"/>
<path d="M0 0 C1.55557617 -0.04253906 1.55557617 -0.04253906 3.14257812 -0.0859375 C10.71597466 -0.10539388 10.71597466 -0.10539388 14.78515625 2.8046875 C16.5625 5.5 16.5625 5.5 16.5625 9.125 C15.26340992 13.50942902 15.26340992 13.50942902 12.5625 15.5 C8.44846238 16.17167961 4.28775487 16.00933877 0.125 16 C-1.02033203 16.02835937 -2.16566406 16.05671875 -3.34570312 16.0859375 C-11.70576304 16.10550464 -11.70576304 16.10550464 -15.22265625 13.1953125 C-16.89017342 9.49567634 -16.58057401 7.3578748 -15.4375 3.5 C-10.97497786 -0.82622836 -5.86274529 -0.01452073 0 0 Z " fill="#81868F" transform="translate(146.4375,463.5)"/>
<path d="M0 0 C1.051875 -0.00515625 2.10375 -0.0103125 3.1875 -0.015625 C4.280625 -0.00015625 5.37375 0.0153125 6.5 0.03125 C8.1396875 0.00804687 8.1396875 0.00804687 9.8125 -0.015625 C10.864375 -0.01046875 11.91625 -0.0053125 13 0 C14.43859375 0.00676758 14.43859375 0.00676758 15.90625 0.01367188 C19.24634041 0.68018088 20.43931469 1.86237632 22.5 4.53125 C23 8.03125 23 8.03125 22.5 11.53125 C20.43931469 14.20012368 19.24634041 15.38231912 15.90625 16.04882812 C14.46765625 16.0555957 14.46765625 16.0555957 13 16.0625 C11.948125 16.06765625 10.89625 16.0728125 9.8125 16.078125 C8.719375 16.06265625 7.62625 16.0471875 6.5 16.03125 C4.8603125 16.05445313 4.8603125 16.05445313 3.1875 16.078125 C2.135625 16.07296875 1.08375 16.0678125 0 16.0625 C-0.9590625 16.05798828 -1.918125 16.05347656 -2.90625 16.04882812 C-6.24634041 15.38231912 -7.43931469 14.20012368 -9.5 11.53125 C-10 8.03125 -10 8.03125 -9.5 4.53125 C-6.61437077 0.79395936 -4.66181009 0.02193056 0 0 Z " fill="#81868F" transform="translate(306.5,463.46875)"/>
<path d="M0 0 C1.051875 -0.00515625 2.10375 -0.0103125 3.1875 -0.015625 C4.280625 -0.00015625 5.37375 0.0153125 6.5 0.03125 C8.1396875 0.00804687 8.1396875 0.00804687 9.8125 -0.015625 C10.864375 -0.01046875 11.91625 -0.0053125 13 0 C14.43859375 0.00676758 14.43859375 0.00676758 15.90625 0.01367188 C19.24634041 0.68018088 20.43931469 1.86237632 22.5 4.53125 C23 8.03125 23 8.03125 22.5 11.53125 C20.43931469 14.20012368 19.24634041 15.38231912 15.90625 16.04882812 C14.46765625 16.0555957 14.46765625 16.0555957 13 16.0625 C11.948125 16.06765625 10.89625 16.0728125 9.8125 16.078125 C8.719375 16.06265625 7.62625 16.0471875 6.5 16.03125 C4.8603125 16.05445313 4.8603125 16.05445313 3.1875 16.078125 C2.135625 16.07296875 1.08375 16.0678125 0 16.0625 C-0.9590625 16.05798828 -1.918125 16.05347656 -2.90625 16.04882812 C-6.24634041 15.38231912 -7.43931469 14.20012368 -9.5 11.53125 C-10 8.03125 -10 8.03125 -9.5 4.53125 C-6.61437077 0.79395936 -4.66181009 0.02193056 0 0 Z " fill="#81868F" transform="translate(193.5,463.46875)"/>
<path d="M0 0 C1.46953125 0.01450195 1.46953125 0.01450195 2.96875 0.02929688 C4.49242187 0.06700195 4.49242187 0.06700195 6.046875 0.10546875 C7.59375 0.12577148 7.59375 0.12577148 9.171875 0.14648438 C11.71376549 0.18178841 14.2553869 0.23559402 16.796875 0.29296875 C17.126875 5.24296875 17.456875 10.19296875 17.796875 15.29296875 C13.87906358 15.42775584 9.96587234 15.52699912 6.046875 15.60546875 C4.38011719 15.66831055 4.38011719 15.66831055 2.6796875 15.73242188 C-5.52406778 15.85597241 -5.52406778 15.85597241 -8.96875 13 C-10.65893074 9.29336944 -10.35051501 7.16541005 -9.203125 3.29296875 C-6.21601252 0.38267493 -4.10552648 -0.07160802 0 0 Z " fill="#81868F" transform="translate(134.203125,204.70703125)"/>
<path d="M0 0 C3.39537852 -0.14575327 6.78994902 -0.23421542 10.1875 -0.3125 C11.14720703 -0.35439453 12.10691406 -0.39628906 13.09570312 -0.43945312 C17.85559837 -0.52180425 20.2222744 -0.56153128 24.17578125 2.29296875 C26 5 26 5 26 8.625 C25.01207741 11.95923875 24.69896445 13.00676395 22 15 C19.5480957 15.34057617 19.5480957 15.34057617 16.67578125 15.29296875 C15.64775391 15.28330078 14.61972656 15.27363281 13.56054688 15.26367188 C11.95276367 15.2259668 11.95276367 15.2259668 10.3125 15.1875 C9.22904297 15.17396484 8.14558594 15.16042969 7.02929688 15.14648438 C4.35236595 15.11110643 1.67643162 15.06174189 -1 15 C-1.09038099 9.84828377 -0.84681133 5.08086796 0 0 Z " fill="#81868F" transform="translate(362,205)"/>
</svg>
