<?xml version="1.0" encoding="UTF-8"?>
<svg version="1.1" xmlns="http://www.w3.org/2000/svg" width="512" height="512">
<path d="M0 0 C3.19843024 0.00314949 6.39592206 -0.02036437 9.59423828 -0.0456543 C28.7532411 -0.1053975 47.66369335 1.72655995 66.34814453 6.06567383 C67.47172363 6.32316406 68.59530273 6.5806543 69.75292969 6.84594727 C91.79129692 12.07092518 114.46430355 20.44559716 132.59814453 34.31567383 C133.12311523 34.71334961 133.64808594 35.11102539 134.18896484 35.52075195 C148.13645907 46.22445285 160.42062587 60.48963241 163.59814453 78.31567383 C164.70392944 89.43618409 163.92639607 99.93641273 159.59814453 110.31567383 C159.24751953 111.18321289 158.89689453 112.05075195 158.53564453 112.94458008 C155.22254999 120.29550858 149.99971191 128.65976237 142.99975586 132.88354492 C139.42257693 136.50617952 139.8690578 139.76116653 139.89111328 144.67504883 C139.87599197 145.57942688 139.86087067 146.48380493 139.84529114 147.41558838 C139.80236297 150.29920281 139.7935713 153.1817715 139.78564453 156.06567383 C139.76250418 158.02273298 139.7371398 159.97976719 139.70947266 161.93676758 C139.64656975 166.72982898 139.61427447 171.52223601 139.59814453 176.31567383 C140.28779297 176.35668213 140.97744141 176.39769043 141.68798828 176.43994141 C148.01067746 176.90124186 153.62528956 177.89953098 159.59814453 180.00317383 C160.372146 180.27009033 161.14614746 180.53700684 161.94360352 180.81201172 C172.02297934 184.39773099 180.42204589 189.44364827 188.59814453 196.31567383 C189.33806641 196.90993164 190.07798828 197.50418945 190.84033203 198.11645508 C206.1195902 210.88441649 217.36581714 231.3017183 219.19580078 251.20239258 C219.33478103 252.90642981 219.47053653 254.61074726 219.59814453 256.31567383 C220.49533203 256.29472656 221.39251953 256.2737793 222.31689453 256.25219727 C225.67914312 256.18359767 229.04063688 256.13367089 232.40332031 256.09594727 C233.85233371 256.07596087 235.30126778 256.04876186 236.75 256.01391602 C246.1579098 255.79346878 253.37333243 255.7371364 260.84033203 262.28051758 C261.37916016 262.93149414 261.91798828 263.5824707 262.47314453 264.25317383 C263.02744141 264.90157227 263.58173828 265.5499707 264.15283203 266.21801758 C268.6322655 272.7192494 268.27278182 279.68708299 267.59814453 287.31567383 C265.91728871 293.97526716 261.13436131 298.5011483 255.59814453 302.31567383 C251.41685674 304.38662121 247.96605992 304.54915461 243.32861328 304.51098633 C242.3071093 304.50674149 242.3071093 304.50674149 241.26496887 304.50241089 C239.10500998 304.49127908 236.94547659 304.46618839 234.78564453 304.44067383 C233.31494743 304.43063494 231.84424377 304.42151068 230.37353516 304.41333008 C226.78160168 304.39136296 223.18991468 304.35688203 219.59814453 304.31567383 C219.6018317 304.96282349 219.60551888 305.60997314 219.60931778 306.2767334 C219.69776247 322.0435915 219.76389953 337.81036298 219.80539322 353.57740784 C219.82599406 361.20233078 219.85406696 368.82708784 219.89990234 376.4519043 C219.93984636 383.09986422 219.96559535 389.74770397 219.97449851 396.39578056 C219.97970056 399.91398882 219.99187471 403.43185337 220.02106476 406.94995117 C220.05343218 410.8831208 220.05409909 414.81595814 220.05224609 418.74926758 C220.0666272 419.90804916 220.0810083 421.06683075 220.0958252 422.26072693 C220.05588482 430.10253621 218.94555736 435.49576337 213.63330078 441.55786133 C207.41110846 446.70811161 203.80811055 448.40189284 195.59814453 448.31567383 C195.6190918 449.14292969 195.64003906 449.97018555 195.66162109 450.82250977 C195.74476072 454.57010753 195.79679984 458.31751132 195.84814453 462.06567383 C195.88166016 463.36762695 195.91517578 464.66958008 195.94970703 466.01098633 C195.96259766 467.26137695 195.97548828 468.51176758 195.98876953 469.80004883 C196.0097168 470.95214844 196.03066406 472.10424805 196.05224609 473.29125977 C195.48811688 477.04848164 194.53707917 477.97788667 191.59814453 480.31567383 C189.01806641 480.8236084 189.01806641 480.8236084 186.06689453 480.83325195 C184.95894531 480.8458606 183.85099609 480.85846924 182.70947266 480.87145996 C181.51773437 480.86336304 180.32599609 480.85526611 179.09814453 480.84692383 C177.25639648 480.85266418 177.25639648 480.85266418 175.37744141 480.85852051 C172.78172994 480.86124224 170.18599117 480.85386294 167.59033203 480.8371582 C163.61314854 480.81575457 159.63777172 480.83695346 155.66064453 480.86254883 C153.1398072 480.8599056 150.618971 480.85478073 148.09814453 480.84692383 C146.90640625 480.85502075 145.71466797 480.86311768 144.48681641 480.87145996 C142.82489258 480.852547 142.82489258 480.852547 141.12939453 480.83325195 C140.15550781 480.83006958 139.18162109 480.82688721 138.17822266 480.8236084 C135.59814453 480.31567383 135.59814453 480.31567383 131.59814453 476.31567383 C131.59814453 467.07567383 131.59814453 457.83567383 131.59814453 448.31567383 C47.11814453 448.31567383 -37.36185547 448.31567383 -124.40185547 448.31567383 C-124.40185547 457.55567383 -124.40185547 466.79567383 -124.40185547 476.31567383 C-128.90299669 480.81681505 -128.90299669 480.81681505 -133.93310547 480.83325195 C-135.04105469 480.8458606 -136.14900391 480.85846924 -137.29052734 480.87145996 C-138.48226562 480.86336304 -139.67400391 480.85526611 -140.90185547 480.84692383 C-142.74360352 480.85266418 -142.74360352 480.85266418 -144.62255859 480.85852051 C-147.21827006 480.86124224 -149.81400883 480.85386294 -152.40966797 480.8371582 C-156.38685146 480.81575457 -160.36222828 480.83695346 -164.33935547 480.86254883 C-166.8601928 480.8599056 -169.381029 480.85478073 -171.90185547 480.84692383 C-173.68946289 480.85906921 -173.68946289 480.85906921 -175.51318359 480.87145996 C-177.17510742 480.852547 -177.17510742 480.852547 -178.87060547 480.83325195 C-179.84449219 480.83006958 -180.81837891 480.82688721 -181.82177734 480.8236084 C-185.14546944 480.1692801 -186.3412333 478.95675927 -188.40185547 476.31567383 C-188.85595703 473.29125977 -188.85595703 473.29125977 -188.79248047 469.80004883 C-188.77958984 468.5496582 -188.76669922 467.29926758 -188.75341797 466.01098633 C-188.71990234 464.7090332 -188.68638672 463.40708008 -188.65185547 462.06567383 C-188.62478516 460.08954102 -188.62478516 460.08954102 -188.59716797 458.07348633 C-188.55001818 454.82015075 -188.48421591 451.56827758 -188.40185547 448.31567383 C-190.01060547 448.36208008 -190.01060547 448.36208008 -191.65185547 448.40942383 C-197.41691646 448.2652973 -201.20066149 446.38306975 -205.39404297 442.44458008 C-210.79843732 436.51320122 -212.64832073 432.12937433 -212.66928101 423.99530029 C-212.67381212 423.26798336 -212.67834323 422.54066643 -212.68301165 421.7913096 C-212.69565135 419.35893636 -212.69403551 416.92678717 -212.69238281 414.49438477 C-212.69836883 412.74785068 -212.70517455 411.00131923 -212.71273804 409.25479126 C-212.73041005 404.51028141 -212.73509427 399.76584371 -212.73636961 395.02130413 C-212.7377925 392.05102225 -212.742065 389.08075861 -212.74736404 386.11048126 C-212.765877 375.72964824 -212.77403416 365.34886656 -212.77246094 354.96801758 C-212.77126319 345.32458942 -212.79229 335.68138641 -212.82394826 326.03801513 C-212.85021546 317.73791899 -212.86082369 309.43789581 -212.85955012 301.13775849 C-212.85904301 296.19026676 -212.86458444 291.24297457 -212.88590622 286.2955246 C-212.905462 281.62999172 -212.90529627 276.9648449 -212.89087296 272.29929733 C-212.88880418 270.60034233 -212.89336828 268.90136207 -212.90559387 267.2024498 C-213.0009968 253.00842609 -211.58136066 238.54273932 -204.58935547 225.87817383 C-204.24316162 225.22187988 -203.89696777 224.56558594 -203.5402832 223.8894043 C-191.06430949 200.71688717 -171.71165057 185.68268666 -146.75732422 178.00708008 C-142.0069013 177.02823857 -137.23360489 176.67731397 -132.40185547 176.31567383 C-132.34687827 170.6037719 -132.34444876 164.8950949 -132.38964844 159.18310547 C-132.39773421 157.24235725 -132.39173379 155.30149515 -132.37109375 153.36083984 C-131.81621185 142.54278971 -131.81621185 142.54278971 -135.11987305 132.61425781 C-137.1298074 130.89679572 -139.10842455 129.61637922 -141.40185547 128.31567383 C-153.29643686 114.29007054 -157.63553978 98.64950784 -156.61328125 80.57495117 C-154.97137905 63.02972835 -142.69385659 48.18892164 -129.61352539 37.30688477 C-107.8522119 19.90781193 -80.44732265 10.58051522 -53.52685547 4.94067383 C-52.38829102 4.70203613 -51.24972656 4.46339844 -50.07666016 4.2175293 C-33.38981415 0.91974307 -16.9863209 -0.03479219 0 0 Z " fill="#000000" transform="translate(228.40185546875,15.684326171875)"/>
<path d="M0 0 C2.70677003 -0.00322874 5.41351301 -0.01240937 8.12026978 -0.02124023 C14.68207525 -0.03893859 21.24369674 -0.03522436 27.80550914 -0.02358967 C33.14354357 -0.0145204 38.48152679 -0.01334637 43.81956673 -0.01768494 C44.58211409 -0.01829787 45.34466145 -0.0189108 46.13031631 -0.01954231 C47.67989787 -0.02082134 49.22947943 -0.02211819 50.77906097 -0.02343267 C65.27764093 -0.03481323 79.7761194 -0.02176494 94.27468271 -0.00023121 C106.6869161 0.01763388 119.09899978 0.01453564 131.51123047 -0.00390625 C145.95980398 -0.02536397 160.40828873 -0.03371105 174.85687596 -0.0214572 C176.40075464 -0.02018314 177.94463333 -0.01892565 179.48851204 -0.01768494 C180.24793007 -0.01706783 181.00734811 -0.01645073 181.78977881 -0.01581493 C187.11442089 -0.01237642 192.43900617 -0.0181579 197.76363945 -0.02760315 C204.2627124 -0.03887935 210.76159239 -0.03566621 217.26064353 -0.01448017 C220.57004158 -0.00404381 223.87885649 -0.00191087 227.18829155 -0.01307678 C250.27403246 -0.08375305 270.26914134 2.45543598 288.22094727 18.51757812 C288.96860352 19.17242187 289.71625977 19.82726562 290.48657227 20.50195312 C302.4734307 31.67337901 308.31692225 45.90147807 312.22094727 61.51757812 C312.22094727 104.74757813 312.22094727 147.97757813 312.22094727 192.51757812 C180.22094727 192.51757812 48.22094727 192.51757812 -87.77905273 192.51757812 C-87.77905273 54.21244561 -87.77905273 54.21244561 -80.21655273 39.39257812 C-79.71381836 38.39883179 -79.71381836 38.39883179 -79.20092773 37.38500977 C-75.46477615 30.38394052 -70.4542507 24.99099127 -64.77905273 19.51757812 C-64.14612305 18.85371094 -63.51319336 18.18984375 -62.86108398 17.50585938 C-58.8042785 13.52069725 -54.16920316 10.91568805 -49.15405273 8.33007812 C-48.23233276 7.84812988 -48.23233276 7.84812988 -47.29199219 7.35644531 C-45.1530936 6.30826848 -42.98819427 5.40936592 -40.77905273 4.51757812 C-39.93131759 4.17377861 -39.08358244 3.8299791 -38.21015835 3.47576141 C-25.77152531 -0.79125583 -12.99231763 -0.04379867 0 0 Z " fill="#E6E9EE" transform="translate(119.779052734375,207.482421875)"/>
<path d="M0 0 C0.69184387 -0.00090637 1.38368774 -0.00181274 2.09649658 -0.00274658 C16.67527808 -0.00058913 31.07344156 0.54793687 45.4375 3.25 C46.58323486 3.46551514 47.72896973 3.68103027 48.90942383 3.90307617 C69.35527824 7.97367398 92.80185206 14.60701848 108.4375 29.1875 C109.49130859 30.16203125 109.49130859 30.16203125 110.56640625 31.15625 C113.79253064 34.43919459 115.36414023 36.12378334 115.6875 40.8125 C112.25880798 50.06996846 103.20571402 55.5041886 95.65625 61.3359375 C93.36676151 62.9954899 93.36676151 62.9954899 92.4375 65.1875 C92.1075 85.9775 91.7775 106.7675 91.4375 128.1875 C33.3575 128.1875 -24.7225 128.1875 -84.5625 128.1875 C-84.8925 107.3975 -85.2225 86.6075 -85.5625 65.1875 C-88.85149269 61.89850731 -92.09551693 58.76444747 -95.5625 55.6875 C-99.00170394 52.60601415 -102.39443875 49.54756496 -105.5625 46.1875 C-106.18125 45.56875 -106.8 44.95 -107.4375 44.3125 C-108.76469455 41.80557695 -109.01240398 39.95668331 -108.4296875 37.16796875 C-102.67296833 24.02086685 -83.74562361 16.83734728 -71.26855469 11.9387207 C-59.1223284 7.37636102 -46.40783316 4.04574342 -33.5625 2.1875 C-32.4796875 2.00316406 -31.396875 1.81882812 -30.28125 1.62890625 C-20.20097408 0.14349974 -10.16940499 -0.00085627 0 0 Z " fill="#FCD4A5" transform="translate(228.5625,63.8125)"/>
<path d="M0 0 C132 0 264 0 400 0 C400 26 400 26 397 31 C393.63758713 32.12080429 391.11182316 32.1276779 387.5668726 32.13142776 C386.57831183 32.13450672 386.57831183 32.13450672 385.56978014 32.13764787 C383.34590443 32.14333391 381.12209034 32.14185865 378.89820862 32.14044189 C377.29392215 32.1430246 375.68963633 32.14603749 374.08535141 32.1494453 C369.66463648 32.15752944 365.24393777 32.15930565 360.82321632 32.16004276 C356.06036242 32.16189082 351.29751699 32.16943681 346.53466797 32.17617798 C336.115489 32.18977102 325.69631387 32.19578729 315.2771275 32.20018864 C308.77552474 32.20294895 302.27392346 32.20718586 295.7723217 32.21169281 C277.78253173 32.22388585 259.79274296 32.23418568 241.80294895 32.2375679 C240.65115979 32.23778747 239.49937062 32.23800703 238.31267875 32.23823325 C237.15809012 32.23845153 236.00350149 32.23866981 234.81392533 32.2388947 C232.47417613 32.23933817 230.13442693 32.23978474 227.79467773 32.24023438 C226.05377263 32.24056652 226.05377263 32.24056652 224.27769773 32.24090537 C205.4597476 32.2448558 186.64183613 32.26231713 167.82390095 32.2855939 C148.51865326 32.30928139 129.213425 32.32176853 109.90816253 32.32293582 C99.06289975 32.32385395 88.21768737 32.32964108 77.37243843 32.34775543 C68.14007946 32.36312123 58.90778646 32.36829772 49.67541713 32.36001733 C44.96205583 32.35609853 40.24882752 32.3571001 35.53548241 32.37107468 C31.22444605 32.38374001 26.91364365 32.3826815 22.60260796 32.37048396 C21.03937753 32.36851412 19.47613094 32.37166422 17.91292328 32.38032833 C15.79465057 32.39132969 13.67721691 32.38399899 11.55896854 32.3719368 C10.38042398 32.37253389 9.20187941 32.37313097 7.98762137 32.37374616 C4.6902073 31.96124548 3.32357434 31.34001024 1 29 C-2.05868527 19.8239442 0 9.67241209 0 0 Z " fill="#555C68" transform="translate(32,416)"/>
<path d="M0 0 C1.38918734 0.19627451 2.77849828 0.39167746 4.16796875 0.5859375 C22.67482532 3.53936332 41.19935806 9.73241548 58 18 C59.12148438 18.54140625 60.24296875 19.0828125 61.3984375 19.640625 C76.59642923 27.36596996 90.63610079 38.26147033 98 54 C98.31839844 54.60972656 98.63679688 55.21945313 98.96484375 55.84765625 C102.2945203 63.07474221 102.16519943 71.60352995 100.15625 79.18359375 C96.07868486 89.77699778 89.49357361 98.2565885 80.78515625 105.44140625 C78.67387447 107.28473542 78.05607884 108.26887121 77.84178162 111.06277466 C77.81846519 112.33518509 77.81846519 112.33518509 77.79467773 113.63330078 C77.77473251 114.59414581 77.75478729 115.55499084 77.73423767 116.54495239 C77.71752518 117.58457123 77.70081268 118.62419006 77.68359375 119.6953125 C77.6524221 121.28918289 77.6524221 121.28918289 77.62062073 122.91525269 C77.55509739 126.31843438 77.49622727 129.72169489 77.4375 133.125 C77.39431743 135.42839366 77.35070323 137.73177926 77.30664062 140.03515625 C77.19941313 145.69002284 77.09815351 151.34496892 77 157 C71.72 157 66.44 157 61 157 C60.75044784 149.72389677 60.54911895 142.45016868 60.43006611 135.17067814 C60.37289287 131.78948324 60.29552322 128.41139098 60.17016602 125.03198242 C60.03608243 121.13638832 59.97421641 117.24514348 59.92578125 113.34765625 C59.86900711 112.1473024 59.81223297 110.94694855 59.7537384 109.71022034 C59.74997468 104.54371801 59.83798292 101.31397421 63.34628296 97.34689331 C66.25463867 94.97827148 66.25463867 94.97827148 69.14323425 92.98777771 C76.37954046 87.95265427 82.01004849 80.68342479 84 72 C84.99004577 63.51389342 81.55876883 56.99033289 76.375 50.375 C60.24422561 33.03138543 33.61760253 23.6970418 11 19 C9.22882813 18.61908203 9.22882813 18.61908203 7.421875 18.23046875 C-43.90958116 7.60589959 -104.78951448 11.96153404 -150 40 C-159.07361249 46.12766199 -166.46071324 53.38213971 -170 64 C-170.93054772 72.5300208 -167.86181345 80.10634131 -162.82373047 86.9609375 C-160.10378363 90.19556755 -156.9773895 91.60290731 -153.23828125 93.5546875 C-149.47207844 96.04946358 -147.38380116 98.403177 -146.31341553 102.85656738 C-145.41398539 110.92493638 -145.75130047 119.01504373 -146.10736084 127.10968018 C-146.24141793 130.48091472 -146.29994081 133.85341966 -146.36523438 137.2265625 C-146.50800372 143.82144687 -146.73201134 150.40906463 -147 157 C-152.28 157 -157.56 157 -163 157 C-163.00410889 155.57212158 -163.00821777 154.14424316 -163.01245117 152.6730957 C-163.03423823 147.37064618 -163.08852456 142.06893915 -163.15258789 136.7668457 C-163.17577142 134.47297283 -163.19016441 132.17899345 -163.19555664 129.88500977 C-163.2048432 126.58542484 -163.24582988 123.28751586 -163.29296875 119.98828125 C-163.2890361 118.96414627 -163.28510345 117.94001129 -163.28105164 116.88484192 C-163.37830555 110.95963526 -163.37830555 110.95963526 -166.39233398 105.96557617 C-167.25286377 105.31693604 -168.11339355 104.6682959 -169 104 C-179.03184014 93.93590314 -186.96850225 83.61258803 -187.3125 68.875 C-187.14827033 55.61718627 -180.67889482 45.95462175 -171.875 36.4375 C-155.32018279 20.81692755 -132.81272226 11.12004045 -111.00830078 5.51953125 C-109.59533349 5.15400798 -108.18504514 4.77804875 -106.77685547 4.39453125 C-72.2230917 -4.98465201 -35.25856896 -5.62221992 0 0 Z " fill="#F8B55E" transform="translate(275,35)"/>
<path d="M0 0 C6.53030938 3.6603008 11.41078925 8.83004706 13.75 16 C14.91716839 23.99817494 13.39408905 30.40404743 8.75 37 C3.71534283 42.68768802 -0.9833959 45.45517889 -8.62890625 46.24609375 C-14.71781633 46.55286327 -19.32800402 45.69149699 -24.25 42 C-30.88444904 35.80078964 -34.19803454 30.76708396 -34.625 21.625 C-34.45212074 14.90090668 -32.79515033 10.67335753 -28.15625 5.80078125 C-19.79637213 -1.95997204 -10.90570496 -4.94502958 0 0 Z " fill="#030303" transform="translate(386.25,314)"/>
<path d="M0 0 C6.53030938 3.6603008 11.41078925 8.83004706 13.75 16 C14.91716839 23.99817494 13.39408905 30.40404743 8.75 37 C3.71534283 42.68768802 -0.9833959 45.45517889 -8.62890625 46.24609375 C-14.71218303 46.55257945 -19.31293135 45.65670853 -24.25 42 C-30.51434827 36.2010752 -34.30461784 30.24913911 -34.6875 21.5625 C-34.45056662 14.89191397 -32.75895296 10.63533679 -28.15625 5.80078125 C-19.79637213 -1.95997204 -10.90570496 -4.94502958 0 0 Z " fill="#030303" transform="translate(386.25,250)"/>
<path d="M0 0 C10.56 0 21.12 0 32 0 C32 5.28 32 10.56 32 16 C21.44 16 10.88 16 0 16 C0 10.72 0 5.44 0 0 Z " fill="#D8DBE0" transform="translate(376,464)"/>
<path d="M0 0 C10.56 0 21.12 0 32 0 C32 5.28 32 10.56 32 16 C21.44 16 10.88 16 0 16 C0 10.72 0 5.44 0 0 Z " fill="#D8DBE0" transform="translate(56,464)"/>
<path d="M0 0 C4.22955053 -0.08093399 8.45755211 -0.1404757 12.6875 -0.1875 C13.88568359 -0.21263672 15.08386719 -0.23777344 16.31835938 -0.26367188 C17.47529297 -0.27333984 18.63222656 -0.28300781 19.82421875 -0.29296875 C20.88729248 -0.3086792 21.95036621 -0.32438965 23.0456543 -0.34057617 C26.45499746 0.05245198 28.30024195 0.90045737 31 3 C32.17180914 6.95485583 32.4048133 9.06892942 30.75 12.875 C29 15 29 15 26 16 C24.0079697 16.08291953 22.01326287 16.10738177 20.01953125 16.09765625 C18.85615234 16.09443359 17.69277344 16.09121094 16.49414062 16.08789062 C15.27919922 16.07951172 14.06425781 16.07113281 12.8125 16.0625 C11.58595703 16.05798828 10.35941406 16.05347656 9.09570312 16.04882812 C6.06378135 16.03703076 3.0318846 16.01909514 0 16 C0 10.72 0 5.44 0 0 Z " fill="#555C68" transform="translate(448,288)"/>
<path d="M0 0 C4.0743356 0.84881992 5.54405875 2.30225596 8 5.625 C8.625 8.625 8.625 8.625 8 11.625 C5.54405875 14.94774404 4.0743356 16.40118008 0 17.25 C-4.0743356 16.40118008 -5.54405875 14.94774404 -8 11.625 C-8.625 8.625 -8.625 8.625 -8 5.625 C-5.54405875 2.30225596 -4.0743356 0.84881992 0 0 Z " fill="#CED1D5" transform="translate(376,327.375)"/>
<path d="M0 0 C4.0743356 0.84881992 5.54405875 2.30225596 8 5.625 C8.625 8.625 8.625 8.625 8 11.625 C5.54405875 14.94774404 4.0743356 16.40118008 0 17.25 C-4.0743356 16.40118008 -5.54405875 14.94774404 -8 11.625 C-8.625 8.625 -8.625 8.625 -8 5.625 C-5.54405875 2.30225596 -4.0743356 0.84881992 0 0 Z " fill="#CED1D5" transform="translate(376,263.375)"/>
</svg>
